<?xml version="1.0" encoding="UTF-8"?>
<svg id="Layer_4_Image" data-name="Layer 4 Image" xmlns="http://www.w3.org/2000/svg" version="1.1" viewBox="0 0 360 360">
  <defs>
    <style>
      .cls-1 {
        fill: #000;
        stroke-width: 0px;
      }
    </style>
  </defs>
  <path class="cls-1" d="M0,354.6c.2,0,.4-.2.5-.3,3.7-4.1,8.4-6.7,13.4-9.1,10.6-5.1,21.1-10.5,31.7-15.6,14.8-7.2,29.6-14.4,44.4-21.6,9.8-4.7,19.7-9.4,29.5-14.1,1.1-.5,2.2-1,3.3-1.6.2-.1.4-.5.4-.7-.4-3.8-.7-7.6-1.2-11.4-.9-7.2-1.8-14.4-2.8-21.6-.7-5.1-1.7-10.2-2.7-15.2-.1-.7-.6-1.3-1-1.8-6.3-6.9-12-14.2-16.3-22.6-2.9-5.8-5.2-11.8-6.8-18-.3-1.1-.9-1.9-1.8-2.5-1-.6-2-1-3.2-1.6-.3,1.1-.6,2-1,2.9-.1.4-.2,1-.5,1.2-.4.3-1.1.5-1.5.4-.6-.2-.7-.8-.4-1.5.5-1.1,1-2.3,1.4-3.4,0-.2,0-.7-.3-.9-.8-.6-1.7-1.1-2.8-1.8-.4.8-.7,1.5-1.1,2.3-.3.5-.4,1.2-.8,1.6-.3.3-.9.3-1.3.5-.1-.4-.5-.9-.4-1.2.3-1.1.8-2.1,1.3-3.1.5-.9.5-1.6-.5-2.2-.4-.3-.8-.7-1.3-1.1-.4.7-.8,1.3-1.2,1.9-.3.4-.5.9-.9,1.1-.4.2-1,.2-1.5.3,0-.5-.2-1,0-1.4.5-1,1.2-1.8,1.7-2.8.2-.3.1-1-.1-1.3-5.8-7-9.1-15.1-10.2-24.1-.4-2.8-.1-5.7-.2-8.5,0-.3,0-.5,0-1.1-.6.5-1,.8-1.4,1.1-2.3,1.9-4.5,3.9-6.8,5.8-.3.2-.9.3-1.1.1-.3-.2-.5-.8-.3-1.1.3-.6.7-1.1,1.2-1.5,2.7-2.3,5.5-4.6,8.2-7,.5-.4.9-1.1,1-1.8.8-3.5,1.7-6.9,3.9-9.8.6-.8,1.6-1.3,2.4-2,.3-.3.6-.8.7-1.2.7-4.5,1.9-8.8,3.8-13,5.4-11.8,13.9-20.2,26.2-24.4,8.4-2.8,16.9-2.7,25.3,0,1,.3,1.6,0,2.2-.8,4.3-5.8,7.6-12.3,10.4-19,2.5-5.8,4.9-11.7,7.6-17.4,1.5-3.2,3.6-6,6.4-8.2,2.2-1.7,4.6-2.7,7.5-1.9,2.2.6,3.7,2.1,4.9,4,.2.4.5.7.7,1.1.1,0,.2,0,.3,0,2.9-1.9,5.7-1.1,7.9,1,2.5,2.4,4.1,5.3,5.4,8.4,2.9,6.9,5.6,13.9,8.5,20.7,2.3,5.4,5.5,10.3,10.1,14.1,1.1.9,1.8,1.1,3.2.5,3.3-1.5,6.8-2.7,10.3-4.1-.8-1.5-1.8-3.1-2.8-4.8-.9-1.5-1.7-3-2.5-4.5-.2-.3-.4-.6-.4-.9,0-.5.2-1,.3-1.5.5.2,1.1.3,1.4.6.9,1.4,1.7,3,2.6,4.5,1.1,1.9,2.2,3.7,3.3,5.6.4.7.8.9,1.6.8,13.7-1.5,25.3,2.8,34.9,12.5,6.5,6.6,10.4,14.6,12.3,23.6,0,.4.2.7.2,1.1,0,1,.6,1.4,1.5,1.8,2.2.7,3.8,2.4,4.9,4.3,1,1.6,1.6,3.5,2.4,5.2.3.5.7,1.2,1.3,1.4,4,1.6,8.1,3.1,12.1,4.6.2,0,.5,0,.7.2.3.3.5.8.8,1.1-.4.2-.9.6-1.4.6-.5,0-1.1-.2-1.6-.4-3.2-1.2-6.4-2.4-9.5-3.5-.4-.2-.8-.3-1.2-.5,0,.2-.2.3-.2.4,1,9.7-2.1,18.4-7,26.5-1.3,2.2-2.9,4.3-4.4,6.4-.5.7-.6,1.1,0,1.7.8.8,1.5,1.6,2.1,2.5.3.4.4,1.2.1,1.6-.5.6-1.1.2-1.6-.3-.8-.9-1.7-1.9-2.6-2.9-1,1.2-2,2.2-2.9,3.3-.1.2,0,.7,0,.9.5.8,1.1,1.5,1.5,2.3.2.4,0,1.1,0,1.6-.5-.1-1.2,0-1.5-.4-.7-.7-1.3-1.6-1.9-2.5-1,.9-1.9,1.7-2.8,2.6-.2.2-.2.8,0,1.1.4.8,1,1.5,1.5,2.3.4.6.7,1.2,0,1.7-.7.6-1.3,0-1.7-.5-.6-.9-1.3-1.7-1.9-2.7-1,.7-1.8,1.3-2.7,1.9-1,.6-1.9,1.2-3,1.5-1,.3-1.4.8-1.8,1.6-4.3,8.7-9.4,17-15,24.9-1.3,1.9-2.7,3.7-4,5.5-.2.3-.3.9-.2,1.3.4,2.6.8,5.3,1.3,7.9,1.2,6.3,2.4,12.6,3.7,18.8.9,4,2.9,7.5,5.1,10.9.4.6,1.2,1.1,1.8,1.5,4.6,2.9,9.8,4.7,14.9,6.4,9,3.1,17.9,6.5,27,9.6,8.1,2.8,16.2,5.4,24.4,7.9,16.5,5.1,32.9,10.6,49.2,16.4,1.8.6,3.5,1.3,5.3,1.9q1.7.6,1.5,2.6c-.6-.2-1.1-.4-1.7-.5-13.7-4.7-27.3-9.5-41-14.1-11.3-3.7-22.8-7-34-10.7-9.1-3-18.1-6.5-27.2-9.8-3.8-1.4-7.7-2.6-11.5-4-2.4-1-4.7-2.3-7.1-3.5-.4-.2-.7-.4-1.1-.6-.1.2-.3.3-.3.4-4.8,9.8-12.2,17-21.2,22.9-10.6,6.9-22.2,10.7-34.7,11.8-5.8.5-11.7.6-17.5.2-13.2-1.1-25.6-4.7-36.8-11.8-2.5-1.5-4.1-1.7-6.7-.4-19.1,9.3-38.2,18.4-57.3,27.7-16.6,8.1-33.1,16.3-49.7,24.4-3.6,1.8-6.8,4-9.5,7-.7.7-1.4,1.1-2.3.9C0,355.7,0,355.2,0,354.6ZM91.4,185.1c.1,1,.2,1.6.3,2.1.5,2.9,1,5.7,1.7,8.6,2.7,12.2,7.4,23.5,14.9,33.6,6,8,12.8,15.2,20.3,21.8,3.1,2.7,6.4,5.2,10,7.1,6.2,3.4,13,5.3,20.1,6.4,9.2,1.4,17.7-.4,25.8-4.7,4.5-2.4,8.9-5.1,13.3-7.6,8.8-4.9,16.6-11,23.1-18.6,5.8-6.7,10.7-14.1,15.2-21.6,3.9-6.5,7.8-13.1,10-20.5.6-2,1.2-4.1,1.8-6.2-.6,0-1,.3-1.3.6-11,8.3-23.3,11.2-36.7,7.7-12.6-3.3-21.5-11.3-27.4-22.7-.9-1.7-1.9-3.3-3.2-4.7-3.3-3.4-7.2-5-11.8-4.2-2.3.4-4.5,1.3-6.8,2-.9.3-1.4.9-1.7,1.8-1.7,4.7-4.1,9-7.2,12.9-7.6,9.4-17.3,15-29.3,16.1-11.1.9-21-2.3-29.8-9-.3-.2-.6-.5-1.3-.9ZM204.8,104.3c0,.2,0,.4,0,.5,2.3,1.1,4.6,2.1,6.9,3.2.4.2,1,.2,1.3.5.3.3.5.8.8,1.1-.4.2-.9.6-1.3.6-.6,0-1.3-.2-1.8-.5-2.4-1.1-4.8-2.3-7.2-3.5-.7-.4-1.3-.4-2,0-1.3,1-2.8,1.8-4,2.8-13.4,11.2-19.2,25.7-18.1,42.9.6,9.5,3.8,18.1,9.7,25.5,8.9,11.1,20.4,16.6,34.7,15.5,8.6-.7,16.3-4,22.8-9.7,12.2-10.5,17.6-24,17.4-39.9,0-.5-.3-1.2-.6-1.6-4.6-5-7.7-10.8-10.2-17-.8-1.9-1.9-3.6-2.9-5.5-.2-.4-.4-1-.3-1.3.6-.9.2-1.7-.1-2.5-.3-.6-.6-1.2-.8-1.9,0-.4.1-.9.2-1.4.5.2,1.1.2,1.4.6.5.7.9,1.4,1.1,2.2,1.1,4.2,3.5,7.9,4.7,12.1,1.2,4,3.7,7.5,6.3,10.8.1.2.4.3.7.5-2.9-25.1-24.9-41.5-45.3-38.2,3.5,5.4,7.6,10.2,12.7,14.1,5.1,3.9,11.1,6.1,17.1,8.4-.4-.9-1-1.7-1.5-2.5-.4-.6-.7-1.3,0-1.8.7-.5,1.3-.2,1.7.4.2.3.5.6.7.9,1.2,1.6,2.5,3.2,3.6,4.8.3.4,0,1.5-.3,2-.4.6-1,.2-1.5-.2-.4-.4-.9-.8-1.5-1-1.5-.6-3-1.1-4.5-1.7-5.8-2.4-11.5-4.9-16.4-8.9-4.6-3.8-8.5-8.4-11.7-13.4-.5-.7-1-1.1-1.8-.8-1.7.5-3.5.9-5.2,1.5-1.6.6-3.1,1.3-4.7,1.9ZM75.6,139.4c0,0,.2,0,.3.1.2-.4.5-.7.7-1.1,1.3-2.8,2.6-5.6,3.9-8.5.3-.7.7-1.5,1.5-1.2,1,.3.6,1.1.4,1.8-1.5,4.5-3.7,8.6-6.4,12.6-.4.6-.7,1.5-.7,2.2,0,1.9.1,3.8.3,5.7,1.3,9.9,4.9,18.9,11.4,26.5,9.6,11,21.5,16.7,36.3,15.2,7.5-.7,14.2-3.6,20.1-8.4,10.9-9,16.1-20.9,16.8-34.8.4-8.7-1.5-17.1-5.5-24.9-5-9.8-12.5-17.2-22.7-21.7-.7-.3-1.2-.3-1.7.4-8.4,9.8-18.4,17.8-28.4,25.9-.4.4-1.2.5-1.8.5-.3,0-.7-.6-.9-1,0-.2.2-.6.5-.8,1.3-.9,2.8-1.7,4-2.7,8.2-6.7,16.4-13.4,23.5-21.3.5-.6,1-1.2,1.6-1.9-.3-.2-.5-.3-.6-.3-6.2-1.9-12.5-2.3-18.8-1.1-.4,0-.9.7-1,1.1-1.4,6.4-4.1,12.3-7.4,18-4.2,7.3-9.3,13.8-14.6,20.4-2.3,2.8-4.6,5.6-6.9,8.4-.5.6-1.1.9-1.8.3-.6-.6-.1-1.1.3-1.7,1.5-1.8,3.1-3.7,4.6-5.6,5.3-6.6,10.6-13.2,15.1-20.4,3.6-5.8,6.7-11.9,8.4-18.6,0-.4.1-.7.2-1.3-9.2,2.6-16.3,7.9-21.8,15.3-5,6.8-7.8,14.4-8.8,22.8ZM223.8,235.4c-.4.6-.7,1-.9,1.4-1.9,2.7-3.7,5.5-5.8,7.9-7.3,8.6-16.1,15.4-25.4,21.6-12.4,8.3-26,10.6-40.5,8.3-7.9-1.2-15.5-3.7-23.2-5.8-1.8-.5-3.6-1-5.4-1.5,0,.7,0,1.1,0,1.5.9,7.6,1.8,15.1,2.6,22.7.3,2.9.3,3,2.8,4.4,10.5,5.9,21.8,9.4,33.8,10.4,8.1.7,16.2.3,24.3-1,10.5-1.7,20.1-5.7,28.8-11.7,7.9-5.4,14.4-12.1,18.8-20.7.4-.8.4-1.4,0-2.2-1.6-3.1-3.6-6.2-4.6-9.6-1.6-5.4-2.5-11-3.6-16.5-.6-3-1.1-6-1.6-9.4ZM200.4,104.3c-.3-.3-.4-.4-.5-.6-4.9-3.9-8.3-8.9-10.7-14.5-2.8-6.6-5.4-13.2-8.1-19.8-1.4-3.3-2.9-6.6-5.5-9.2-2.2-2.3-6.1-2.2-6.4,1.5,0,.7-.4,1.3-1.1,1-.4-.2-1-1-.9-1.4.4-2.5-1-4.2-2.7-5.6-1.7-1.5-3.6-1.7-5.7-.7-2.3,1.1-4,2.9-5.4,4.9-3.4,4.8-5.5,10.2-7.7,15.7-3,7.6-6.2,15.2-10.9,22-.8,1.1-1.6,2.3-2.4,3.5,11.8,5.2,20.1,13.7,25.3,25.2,5.2,11.5,5.9,23.5,2.8,36,6.5-2.8,12.7-3.3,18.6,1-2.9-11.2-2.8-22.2,1-33,3.8-10.9,10.5-19.5,20.4-25.9ZM266.1,144.4c0,1.1,0,1.9,0,2.7,0,.8,0,1.6,0,2.4-1.2,12.7-6.1,23.7-15.1,32.9-.3.3-.6.8-.8,1.3-1.1,4-2.2,7.9-3.2,11.9-.1.4-.2.8-.3,1.2l.3.2c.9-.5,1.8-1.1,2.6-1.7,1.7-1.2,1.7-1.2.7-3-.1-.2-.3-.4-.3-.6,0-.5.2-1,.3-1.5.5.2,1.1.3,1.4.6.5.5.8,1.2,1.2,1.8.5-.4.8-.7,1.1-1,.6-.6,1.4-1.2,1.8-2,.2-.4-.6-1.1-.8-1.8,0-.4,0-1,.4-1.3.2-.2.9,0,1.2.3.4.2.6.7.9,1.1.4-.5.8-.8,1.1-1.2,1-1.2,2.6-2.3.8-4.1-.2-.2,0-1.1.3-1.2.4-.1.9,0,1.3.2.3.2.6.6.8.9.2-.2.3-.2.4-.3,3.1-4.1,5.9-8.5,7.9-13.2,2.3-5.6,3.7-11.3,3.1-17.4-.1-1.6-.5-2.9-2.2-3.6-.8-.3-1.6-1-2.3-1.5-.8-.6-1.6-1.2-2.6-2ZM72.9,147.6c-1.4,1.5-2.9,3.1-4.4,4.7-.2.2-.3.5-.3.8-.1,3.3-.5,6.6-.2,9.8.7,7.5,3.2,14.6,7.5,20.8.7,1,1.5,2,2.4,3.2.4-.8.7-1.5,1.1-1.9.4-.4,1.1-.8,1.5-.7.8.2.6,1,.2,1.6-.3.6-.7,1.3-1,1.9-.1.3-.1.8,0,1,.4.5,1,.9,1.6,1.5.3-.9.5-1.6.9-2.2.2-.3.8-.4,1.2-.7.2.4.6.8.5,1.2-.1.8-.5,1.5-.7,2.3,0,.3,0,.9.1,1,.8.6,1.6,1.1,2.6,1.7.2-1.1.3-2,.6-2.8.2-.4.8-.7,1.2-1.1.3.5.7.9.7,1.4,0,.9-.4,1.8-.5,2.7,0,.3,0,.9.3,1,.8.5,1.7.9,2.7,1.4,0-.5,0-.7,0-.9-.6-3.5-1.3-7-1.8-10.5-.2-1.4-.8-2.4-1.7-3.4-6.3-6.6-10.6-14.3-12.8-23.1-.9-3.5-1.3-7.1-1.9-10.8ZM265.9,138.8c0,1.7,0,3,1.5,4,1.4.9,2.6,2.1,4,3.1,0,0,.2-.2.2-.3-1.1-2.8-2.7-5.3-5.7-6.8ZM73.1,140.6c-2,2.3-3.1,4.8-3.6,7.6,1.7-2.2,4.5-3.8,3.6-7.6Z"/>
  <path class="cls-1" d="M142.4,13.4c7.6,0,13.6.6,19.3,2.6,2.5.9,4.8,2,6.7,3.9.6.6,1.1,1.4,1.5,2.1.2.3,0,1-.3,1.2-.3.2-1,0-1.2-.2-3.9-5.2-9.7-6.2-15.5-6.9-18.4-2.3-35.3,2.4-51.2,11.4-10.5,6-19.6,13.9-28.1,22.4-7.1,7-14,14.2-21.1,21.1-11,10.6-24.2,17.1-39.1,20.5-.1,0-.2,0-.4,0-.8,0-1.7.2-1.8-.8-.1-.9.8-1,1.4-1.1,5.8-1.4,11.6-3.1,17.1-5.5,9.1-4,16.9-9.9,23.9-16.8,7.1-7.1,14.1-14.3,21.2-21.3,8.2-8.1,17.2-15.3,27.3-21,10-5.6,20.6-9.2,32-10.7,3.3-.4,6.7-.6,8.4-.7Z"/>
  <path class="cls-1" d="M208.2,14.4c9.3.2,18.1,2.5,26.4,6.6,14.5,7.1,26.1,17.4,34.6,31.1,2.7,4.4,5.2,8.8,8.1,13,5.1,7.2,12,11.9,21,12.9,1.8.2,3.6.2,5.3-.3,2.5-.7,5-1.7,7.4-2.8.8-.3,1.3-1.1,2.1-1.6.4-.2,1-.2,1.5-.3,0,.5.3,1.2,0,1.5-.8.8-1.7,1.6-2.6,2.2-7.6,4.4-15.4,4.3-23.3.6-7-3.3-11.8-8.8-15.8-15.3-3.2-5.2-6.3-10.6-9.9-15.6-6.3-8.6-14.3-15.4-23.4-20.8-6.4-3.7-13.2-6.7-20.5-8.2-8.7-1.8-17.3-1.4-25.8,1-4.4,1.3-8.9,2.4-13.3,3.7-1.2.4-2.2,1.2-3.3,1.8-.4.2-.9.1-1.4.2,0-.5-.2-1.3,0-1.5,1.1-.9,2.2-1.8,3.5-2.2,3.2-1.1,6.5-2.1,9.9-2.9,4.4-1.1,8.9-2.1,13.3-2.9,2-.4,4.1-.4,6.2-.5Z"/>
  <path class="cls-1" d="M316.1,164.7c0,6.8-2.1,13-5.4,18.8-3.4,6.1-7.2,12-10.7,18-2.6,4.5-5,9.1-6,14.3-1,4.6-.7,9.1.8,13.5.9,2.7,1.8,5.4,2.8,8.2.2.7.4,1.4-.4,1.6-.4.1-1.2-.3-1.4-.6-.5-.8-.6-1.8-.9-2.7-1-3.1-2.1-6.2-2.8-9.4-1.4-6.1-.2-12,2.2-17.8,2.7-6.3,6.4-12,10.1-17.8,3.3-5.3,6.5-10.6,8.4-16.7,1.9-6.1,2.1-12.3.1-18.4-.5-1.5-1.2-2.9-1.9-4.3-.3-.6-.6-1.2.1-1.7.8-.5,1.2.2,1.5.7,1.8,2.8,2.7,5.9,3.1,9.1.3,1.7.3,3.4.5,5.1Z"/>
  <path class="cls-1" d="M49,83.7c-.1.2-.2.5-.4.6-2.7,1.9-4,4.8-5.5,7.6-2.2,4.1-3,8.6-4,13.1-1.7,8.3-3.6,16.6-6.9,24.5-3.4,8.3-8.3,15.7-14.9,21.8-.8.8-1.6,1.6-2.4,2.4-.5.5-1.1,1.3-1.9.5-.7-.7,0-1.4.5-1.9,1.3-1.3,2.6-2.7,4-4,7.2-7,11.7-15.7,14.9-25.1,2.6-7.7,4-15.6,5.8-23.5,1.3-5.6,3.6-10.8,7.3-15.2.6-.7,1.4-1.2,2.1-1.7.6-.3,1.2,0,1.4.8Z"/>
  <path class="cls-1" d="M70.6,208.7c0,7.4-2,13.2-6.3,18.2-2.3,2.6-5.2,4.3-8.1,6.1-.8.5-1.7,1.1-2.5,1.6-.6.3-1.2.6-1.7,0-.5-.7,0-1.2.6-1.6,2-1.3,4-2.6,6-3.9,5.8-3.7,8.7-9.2,9.7-15.8,1-6.9-.7-13.3-4.4-19.1-2.1-3.3-4.7-6.4-7-9.5-.4-.5-.9-1-1.2-1.7-.2-.4,0-.9.1-1.4.5.1,1.1,0,1.3.4,1.5,1.7,3,3.5,4.5,5.3,3.9,5,7.2,10.3,8.4,16.6.4,1.9.5,3.8.6,4.8Z"/>
  <path class="cls-1" d="M333.3,143.2c-7.2-.6-14.3-1.8-20.4-6-4.8-3.3-8.2-7.6-10.7-12.8-3.1-6.4-4.9-13.3-6.7-20.2-.1-.5-.4-.9-.4-1.4,0-.5.2-1.2.5-1.4.7-.4,1.1.2,1.3.8.7,2.4,1.3,4.9,2.1,7.2,1.4,4.2,2.7,8.5,4.4,12.6,4.5,10.6,12.6,16.7,24.1,18.3,1.8.2,3.6.2,5.4.3.2,0,.4,0,.6,0,.8.2,1.7.4,1.6,1.4,0,1-1,.9-1.8.9Z"/>
  <path class="cls-1" d="M41.9,167.2c.3-7.4,1.2-13.4,4.2-18.9.5-.9,1.1-1.8,1.7-2.6.4-.5.9-1.3,1.6-.8.8.5.3,1.2,0,1.8-2.4,3.7-3.9,7.8-4.7,12.2-1.9,10.7.4,20.4,6.6,29.2,1.8,2.5,3.8,5,5.6,7.5.3.4,0,1.1,0,1.7-.5,0-1.2,0-1.5-.3-5.3-6.6-10.5-13.3-12.4-21.9-.6-2.9-.9-6-1.2-7.8Z"/>
  <path class="cls-1" d="M278.9,221.1c-.4,3.4-1.8,5.8-4,7.7-3.7,3.2-7.6,6.3-11.5,9.4-6.8,5.3-12.6,11.3-16.8,18.8-.4.6-.6,1.3-1,1.9-.3.4-.8.5-1.2.8-.2-.5-.6-1.1-.5-1.5.2-.8.7-1.5,1.1-2.3,4.5-8.1,10.8-14.5,18.1-20,3.2-2.5,6.4-5.1,9.5-7.7,2.2-1.9,3.9-4.1,4.5-7,0-.4.7-.7,1.1-1.1.3.4.6.8.7,1Z"/>
  <path class="cls-1" d="M42.9,142.4c-.2.3-.4.8-.7,1.2-2.3,3.2-5.4,5.6-8.5,7.9-5.3,4-11.5,6.2-17.8,8.1-2.8.9-5.6,1.8-8.5,2.7-.4.1-.9-.2-1.3-.3.2-.5.2-1.2.5-1.4.9-.5,2-.8,3-1.2,4.7-1.6,9.6-2.9,14.2-4.7,6.7-2.6,12.2-6.9,16.8-12.3.3-.3.5-.6.8-.8.6-.4,1.3,0,1.3.9Z"/>
  <path class="cls-1" d="M289.8,95c-1,0-2.1,0-3.1,0-.3,0-.7,0-.9-.1-.4-.3-.6-.8-.9-1.2.4-.2.8-.6,1.2-.6,11.6,1,20.6-3.5,27.2-12.9.3-.4.9-.5,1.3-.7,0,.5.3,1,.2,1.4-.2.7-.6,1.3-1,1.9-4.9,6.7-11.7,10.6-19.8,12.1-1.4.3-2.9,0-4.3,0,0,0,0,0,0,.1Z"/>
  <path class="cls-1" d="M89.1,225.2c-.8,8.5,1.5,15.6,6.9,21.8,1.2,1.3,2.4,2.7,3.4,4.1.3.3,0,1,0,1.6-.5,0-1.2,0-1.5-.3-2.7-3.5-5.6-6.8-7.9-10.5-2.9-4.8-3.5-10.2-3-15.7,0-.4,0-.8.2-1,.3-.3.8-.7,1.2-.7.2,0,.5.6.6.8Z"/>
  <path class="cls-1" d="M62.5,236.5c-1.4-.2-2.8-.4-4.2-.7-.7-.1-1.4-.6-1.1-1.4.3-.8,1-.5,1.6-.4,4.7,1,9.2.2,13.5-1.7,3.8-1.7,7.3-4.2,10.5-6.9.6-.5,1.2-.9,1.8-.2.6.6.1,1.2-.4,1.6-6.3,5.3-13,9.8-21.8,9.7Z"/>
  <path class="cls-1" d="M100.5,241.7c.2.4.4.7.6,1.1,1.9,4.6,5.4,7.8,9,11.1,1.2,1.1,2.6,2.2,3.9,3.2.2.2.5.3.5.5.2.5.2,1.1.3,1.6-.5,0-1.2.2-1.5,0-1.5-1.1-3-2.3-4.5-3.6-3.1-2.8-6.2-5.6-8.3-9.3-.5-.9-.9-1.8-1.1-2.7-.1-.4.3-.9.5-1.4.2,0,.4-.1.7-.2Z"/>
  <path class="cls-1" d="M323.9,146.5c-6-1.1-11.9-1.5-16.9-5.1-.2-.2-.5-.3-.6-.5-.2-.5-.3-1-.4-1.5.5,0,1.2-.3,1.5,0,4.8,3.4,10.4,4.1,16,4.9.8,0,1.6.2,1.4,1.2,0,.4-.7.8-1,1.1Z"/>
  <path class="cls-1" d="M242.2,251.5c-.1.2-.2.4-.4.6-1.4,1.1-1.8,2.8-2.3,4.4-.4,1.6-.8,3.2-1.3,4.7-.2.5-.6,1-1.1,1.3-.2.1-.8,0-1-.3-.2-.2-.3-.7-.2-1,.5-1.6,1-3.3,1.5-4.9.5-1.4,1-2.9,1.7-4.2.3-.6,1-1.1,1.7-1.4.6-.3,1.2,0,1.3.8Z"/>
  <path class="cls-1" d="M286.1,224.2c.4-.4.7-1.1,1.1-1.2.9-.2.8.7,1,1.2.8,2.1,1.6,4.1,2.5,6.2.4.8,1,1.6,1.2,2.5.1.4-.1,1.3-.5,1.5-.6.4-1-.1-1.3-.8-1-2-2.1-4-3-6.1-.4-1-.6-2-1-3.3Z"/>
  <path class="cls-1" d="M139.9,120.3c.6.3,1,.5,1.4.8,2,1.8,3.9,3.6,5.9,5.4.5.5.9,1.1.3,1.8-.7.7-1.3.2-1.9-.3-2.1-1.9-4.2-3.8-6.3-5.7-.3-.3-.5-.9-.4-1.3,0-.3.6-.5.9-.7Z"/>
  <path class="cls-1" d="M145.1,118.7c.4.2.8.4,1.1.6,1.8,1.8,3.5,3.6,5.2,5.4.3.3,0,1,0,1.5-.5,0-1.3.2-1.6-.1-1.9-1.8-3.7-3.7-5.4-5.6-.2-.3-.3-.8-.2-1.2,0-.3.5-.4.8-.7Z"/>
  <path class="cls-1" d="M167.1,221.2c-3.2,0-6.5,0-9.7,0-5.2,0-10.3-.9-15.3-2.1-.3,0-.5-.5-.7-.8.4-.2.8-.5,1.1-.5,2.4.4,4.9,1,7.3,1.3,3.4.3,6.8.3,10.3.5,2,0,4,.2,6,.2,2,0,4-.3,6-.5,5.9-.5,11.6-1.8,17.3-3.3.7-.2,1.3-.6,2-.7.4,0,.8,0,1.3.2-.2.4-.2,1.1-.5,1.2-1.3.5-2.6,1-3.9,1.4-6.5,1.9-13.2,2.6-19.9,3.3-.4,0-.8,0-1.2,0,0,0,0,0,0-.1Z"/>
  <path class="cls-1" d="M166.4,233.7c-2.3-.4-4.5-.8-6.8-1.2-.5,0-1-.3-1.3-.6-.3-.3-.4-.8-.6-1.2.4,0,.9-.4,1.2-.2,4.8,1.8,9.7,1.8,14.6.2,1.2-.4,2.4-.9,3.6-1.2.4-.1.9.2,1.4.3-.3.4-.5,1.1-.8,1.2-3.6,1.4-7.3,2.6-11.3,2.7Z"/>
  <path class="cls-1" d="M153.5,193.1c-.6.2-1,.5-1.5.5-.4,0-.8-.2-1.1-.3.2-.4.3-.8.5-1,.2-.2.6-.4.9-.4,1.5.1,2.1-.8,2.8-2,.4-.8,1-1.5,2.2-1.6-1,1.1-1.8,2.2-2.7,3.2,1.6,1.2,3,2.2,4.4,3.3.3.2.6.4.8.7.1.3,0,.6.1,1-.4,0-.8.2-1.1,0-.5-.2-.8-.6-1.2-.9-2.7,1.3-3.7.8-4.1-2.5ZM156.8,195.5c0-.1,0-.3,0-.4-.9-.6-1.7-1.2-2.6-1.8-.1,0-.3.2-.4.2.3.6.3,1.5.8,1.8.5.3,1.4,0,2.1,0Z"/>
  <path class="cls-1" d="M180,191.7c.3.3.6.6.8.9-.3.3-.6.7-.9.8-1,.3-2.2.2-3.2.6-1.1.4-2.1,1.2-3.1,1.8-.4.2-.9.3-1.3.5,0-.5,0-1.2.2-1.4,1.1-.9,2.2-1.8,3.5-2.3,1.1-.5,2.5-.5,3.9-.8Z"/>
  <path class="cls-1" d="M165.3,199.8c-1.4-.4-2.6-.6-3.7-1-.3,0-.4-.6-.6-.9.4-.1.8-.5,1.1-.4,2.3.8,4.5.6,6.8-.3.3-.1.8.2,1.2.3-.2.3-.4.8-.7.9-1.3.5-2.7.9-4,1.3Z"/>
</svg>