<?xml version="1.0" encoding="utf-8"?>
<!-- Generator: Adobe Illustrator 27.5.0, SVG Export Plug-In . SVG Version: 6.00 Build 0)  -->
<svg version="1.1" id="Layer_1" xmlns="http://www.w3.org/2000/svg" xmlns:xlink="http://www.w3.org/1999/xlink" x="0px" y="0px"
	 viewBox="0 0 535.6 698.3" style="enable-background:new 0 0 535.6 698.3;" xml:space="preserve">
<style type="text/css">
	.st0{display:none;}
	.st1{display:inline;fill:none;stroke:#000000;stroke-width:3;stroke-miterlimit:10;}
	.st2{display:inline;fill:#FFFFFF;}
	.st3{display:inline;}
	.st4{fill:#FFFFFF;}
</style>
<g id="Layer_4" class="st0">
	<ellipse class="st1" cx="302.4" cy="372.7" rx="255.8" ry="345.8"/>
	<path class="st2" d="M-224.5,252.8c0,0,40.3,29.8,61.7,18.9c11.6-5.9,10.1-18.9,7.9-23.2c-5.3-10.4-20.1-11.3-25.5,0.2
		c8.1,10.4,1,17.2-3.5,19.2c-5.3,2.4-36.9-16.6-36.9-16.6L-224.5,252.8z"/>
	<path class="st2" d="M-229.8,308.4c0,0.8,0,1.5,0.1,2.3c0.7,9.4,8.6,19.7,25,20.2c2.9,0.1,9-0.4,12.4-0.7c0,0,0.7-3,0.8-3.4
		c-1.2,0.1-2.1,0.1-2.9,0.2c-0.2,0-0.3,0-0.5,0c-7.8-0.2-10.4-5.8-10.2-11.6c0.1-4.8,2-9.1,7-10.8c-0.8-8.1-7.6-13.1-15.1-13.4
		C-222.4,290.8-229.5,298.7-229.8,308.4z"/>
	<path class="st3" d="M-146.1,133.9c-0.4-0.4-0.8-0.8-1.1-1.2c-5-4.7-14.4-6.3-23.4,1.6c-1.6,1.4-4.6,4.7-6.3,6.5c0,0,1.1,2,1.3,2.2
		c0.6-0.6,1.1-1.1,1.4-1.5c0.1-0.1,0.2-0.2,0.3-0.2c4.3-3.7,8.4-2,11.2,1.2c2.3,2.6,3.4,5.9,1.6,9.3c4.4,4,10.6,3.3,14.7-0.3
		C-141.4,147-141.5,139.2-146.1,133.9z"/>
	<path class="st3" d="M-229.8,197.8c0.1,0.8,0.2,1.5,0.3,2.2c1.8,9.2,10.9,18.5,27.3,17c2.9-0.3,8.9-1.5,12.2-2.2
		c0,0,0.4-3.1,0.4-3.5c-1.2,0.2-2.1,0.4-2.8,0.6c-0.2,0-0.3,0.1-0.5,0.1c-7.7,0.7-11-4.5-11.5-10.3c-0.4-4.8,0.9-9.3,5.6-11.6
		c-1.8-8-9.1-12.1-16.6-11.4C-224.6,179.5-230.7,188.2-229.8,197.8z"/>
</g>
<g>
	<path class="st4" d="M508.2,338.1c-11.6,0.9-20,11.2-17.5,22.1c1.2,5.4,5.1,8.8,10.8,9.5c5.8,0.7,10.9-1.8,13.2-6.5
		c0.7-1.4,0.7-2.4-0.7-3.5c-2.9-2.2-3.8-5.4-3.7-8.8c0.2-3.5,2.4-5.6,5.8-5.9c4.3-0.4,6.9,1.5,8.8,6.3c3.7,9.3,0.5,20.3-8,26.7
		c-7.8,5.9-17,7.1-26.3,7.3c-2.5,0.1-4.3-1.5-4.7-3.9c-0.5-3.3-1.2-6.9-0.7-10.1c1.7-11.5,3.9-22.9,6-34.3c0.9-4.7,2-9.3,3-14.1
		h-26.5c-0.4,1.2-0.7,2.3-1.1,3.5c-3.6-7-7-9.2-13.6-8.5c-3.2,0.4-6.6,0.9-9.6,2.2c-13.5,5.6-22.4,15.4-24.7,30.2
		c-1.4,9.2-4,17.8-8.4,25.9c-0.9,1.6-2,3.1-3.4,4.3c-1.7,1.5-3.4,0.7-3.5-1.6c-0.1-1.6,0-3.2,0.3-4.7c3.4-16.5,6.9-33,10.4-49.6
		c0.2-0.9,0.2-1.9,0.3-2.9c-1,0.1-1.5,0.1-2.1,0.2c-7.8,1.4-15.7,1.3-23.6,0.1c-2.9-0.4-3.8,0.1-4.3,2.9
		c-2.5,14.2-5.4,28.3-7.8,42.5c-0.9,5.2-2.8,9.7-6.8,13.2c-4.1,3.6-8.2,2.9-9.8-2.3c-1.2-4-1.7-8.7-1-12.8
		c3.3-18.5,7.4-36.9,10.7-55.4c2.2-12.2,6.7-22.6,16.4-30.6c17-14,35.4-25.3,55.9-33.3c8.6-3.3,17.1-2.9,25.5,0.3
		c9.4,3.6,14.9,10.8,15.8,20.8c0.9,9.4-2.5,17.3-10.2,22.9c-5.3,3.8-10.8,2.8-14.6-2.1c-3.8-5.1-3.4-11.5,1.4-15.3
		c2.3-1.8,2.1-3.5,1.2-5.7c-3.5-8.1-16.3-10.9-23.1-4.8c-6.2,5.6-7.5,13-6,20.8c1.5,7.6,6.1,13.1,13.8,14.4c5.5,0.9,11.4,0.8,16.9,0
		c10.3-1.5,18.7-6.3,22.5-16.7c3.8-10.6,2.3-20.8-5.1-29.4c-8.7-10.1-20.3-12.2-32.8-10.8c-10.3,1.2-19.3,6.1-28.2,11.2
		c-10.6,6.1-21,12.5-31.7,18.5c-11.1,6.2-22.9,10.7-35.6,12.5c-3.8,0.5-7.6,0.7-12,1.1c0.6,1.3,0.8,2.9,1.5,3.1
		c2.9,1,3.5,3.2,3.2,5.7c-0.5,4.5-1.3,8.9-2.2,13.4c-1.3,6.4-2.8,12.7-4.3,19.8c-2.1-5.7-6-7.9-10.8-8.4
		c-20.3-2.2-36.7,14.8-41.1,27.2c-1.1,3.1-2.5,6.1-4.4,8.8c-7,10-14.9,19.3-25.3,26c-5.2,3.3-10.7,5.8-17,5.7
		c-3.5,0-5.5-1.3-5.4-4.8c0.1-7.1,0.9-14.3,1.4-21.4c1.9,0,3.2,0,4.5,0c8.7,0.3,17.4,0.1,25.8-3c8.4-3.1,11.6-8.4,10.6-17.4
		c-0.8-7.3-3.1-14-10.2-17.3c-12.7-6-25.3-4.6-36.9,2.9c-13.3,8.6-19.7,26.6-15.9,42.8c4.1,17.5,19.3,26,36.2,20.1
		c9.4-3.3,16.6-9.6,23-17c4-4.6,7.7-9.3,11.7-14.1c0.1,0.6,0.2,0.9,0.2,1.3c1,7.1,2.8,13.9,6.7,20c8.7,13.8,33.4,18.1,41-0.9
		c0,0,0.1-0.1,0.4-0.2c0.2,0.4,0.3,0.8,0.5,1.2c3,7.2,8.4,11.3,16.1,12c10,0.8,18.9-1.4,26.1-9.3c2.1,4.3,5.3,7.2,9.8,8.5
		c4.3,1.3,8.7,1.3,13,0.3c9.5-2.3,15.1-8.9,18.8-17.6c0.6-1.4,1.1-2.8,1.7-4.5c0.3,0.8,0.4,1.2,0.6,1.6
		c3.5,12.2,11.1,18.2,23.5,18.7c6.3,0.3,11.5-1.9,15-7.5c0.7-1,1.2-2.2,1.8-3.5c4.3,7.6,10.8,11.6,18.9,12.9
		c10.7,1.7,21.2,0.6,31.4-3.3c8-3.1,14.5-8,18.2-16C535,354.3,525.5,336.7,508.2,338.1L508.2,338.1z M244.5,326.3
		c0.1-0.2,0.2-0.3,0.3-0.5c1.8-2.5,3.7-5,7.3-4.5c2.8,0.5,4.4,2.8,4.5,7.3c0.2,5.3,0.4,10.7-0.1,16c-0.7,6.8-4.9,10.2-11.7,10.1
		c-2.6,0-5.3,0-8.2,0C238.2,344.7,239.7,335,244.5,326.3L244.5,326.3z M333.4,357.5c-0.7,4.8-1.2,9.8-2.6,14.4
		c-1.1,3.5-2.9,7-5.3,9.8c-3.5,4.2-8.4,3.6-10.6-1.4c-1.9-4.3-3.5-9-3.9-13.7c-1.3-12.8,1-25.1,7.5-36.3c1.6-2.8,3.8-5.5,6.3-7.6
		c5-4.2,9.7-2.3,11.2,4c0.4,1.9,0.5,3.8,0.7,6.1C335.7,340.9,334.6,349.2,333.4,357.5L333.4,357.5z M463.7,341
		c-2.1,10-3.9,20.1-6.3,30c-0.8,3.4-2.4,6.9-4.5,9.6c-3.7,4.9-9,3.8-11.1-2.1c-0.4-1.1-0.8-2.3-0.9-3.5c-0.3-2.6-0.5-5.3-0.7-7.3
		c0.7-12.3,2.3-23.7,7.3-34.3c1.5-3.3,3.7-6.5,6.2-9c4.5-4.5,9.7-2.6,11.2,3.7C465.9,332.6,464.6,336.8,463.7,341L463.7,341z"/>
	<path class="st4" d="M466.9,101.7c-6.9-7.9-15.9-12.3-25.6-15.6c-13.7-4.7-27.9-6.5-42.4-7.4c-18.8-1.1-37.4,0-55.6,5.1
		c-21.6,6-40.6,16.3-55.4,33.8c-1.1,1.3-2.1,1-3.3,0.5c-11.6-4.9-23.2-9.8-34.7-14.6c0,0,0,0,0,0c-0.4-0.2-0.5-0.8-0.1-1.1
		c19.6-14.8,39.2-29.7,58.9-44.4c1-0.8,2.9-0.9,4.2-0.6c16.1,3.7,32.4,6.5,49,5.7c3.3-0.2,6.7-0.9,9.9-2.1c6.2-2.3,9.3-7.7,8.9-14.1
		c-0.3-5.5-3.8-9.4-10.2-11.2c-6.9-2-14-1.9-21-0.9c-12.6,1.8-24.1,6.7-34.8,13.7c-1,0.6-2.6,0.9-3.7,0.5c-13-4.3-26-8.8-39-13.2
		c-0.4-0.1-0.7-0.3-1.1-0.5c-0.3-0.2-0.4-0.6-0.2-0.9c5.5-7.5,11.2-14.5,18.3-20.3c2.2-1.8,4.7-3.3,7.3-4.4c4.4-1.8,8.4,0.5,8.6,5
		c0.1,1.7-1,3.5-1.8,5.3c-0.2,0.4,0.1,0.9,0.6,0.9c3.8-0.2,7.6-1.4,10.3-5c3.4-4.4,2.1-10.6-2.8-13.3c-1.9-1-4.1-1.6-6.2-1.8
		c-5.9-0.6-10.6,2.3-15,5.8c-8.9,7-15.6,15.9-21.9,25.2c-1.2,1.7-2.1,2.1-4.2,1.4c-11.3-3.8-22.8-6.9-35-5.8
		c-6.8,0.7-13.1,2.6-18.4,7.2c-7.6,6.8-7.1,17.4,1.8,22.3c10.8,5.9,22.3,6.9,33.8,1.4c6.5-3.1,11.7-8,16.3-13.4
		c1.3-1.5,2.5-1.9,4.5-1.2c7.5,2.5,15,4.9,22.5,7.2c4.8,1.5,9.6,2.8,14.7,4.3c0.4,0.1,0.6,0.6,0.3,1c-0.1,0.1-0.2,0.2-0.2,0.3
		c-19,15-37.9,30.1-58.3,43.1c-1.5,1-2.8,1.1-4.5,0.5c-12-4.7-24-9.6-36.2-13.8c-16.5-5.7-33.4-7.2-50.5-2.6
		c-8.2,2.2-15.7,5.9-20.2,13.7c-3.8,6.5-3,13,2.5,18.1c2.5,2.3,5.6,4.2,8.7,5.6c8,3.6,16.6,4.6,25.2,5c21.7,0.9,42-4.2,61.2-14.1
		c1.5-0.8,2.6-0.8,4-0.1c11.4,5.5,22.9,10.9,34.3,16.2c2.1,1,4.3,1.9,6.6,2.8c0.4,0.2,0.5,0.6,0.3,0.9c-7.4,11.2-13,22.9-17.4,35.2
		c-4.3,12-8,24.2-12,36.3c-0.2,0.5-0.8,0.6-1.1,0.2c-0.1-0.2-0.3-0.4-0.4-0.6c-12-18.6-24.1-37.2-36-55.8c-1.2-1.8-2.3-2.6-4.6-2.6
		c-12.3,0.1-24.6,0.1-36.9,0.1c-0.5,0-1-0.2-1.4,0c-0.5,0.3-0.9,0.6-1.3,1c-0.3,0.2-0.3,0.7,0,0.9c0.5,0.4,0.9,0.9,1.4,1.1
		c0.7,0.3,1.6,0.1,2.5,0.1c8.4,0.4,13.6,4.7,14.7,12.2c0.3,2.2,0.2,4.4,0,6.6c-1,12.6-3.2,24.9-7,36.9c-1.9,6.1-4.4,11.9-6.6,17.8
		c-0.1,0.3-0.5,0.5-0.8,0.3c-6.4-3-12.1-6-18-8.3c-13.3-5.3-26.9-8.7-41.3-5.8c-9.1,1.8-17.4,5.3-24,12.1c-6.6,6.9-7,15.6-1,23
		c3.4,4.2,7.8,6.9,12.7,9c10.9,4.5,22.3,5.2,33.8,3.3c13.3-2.2,24.7-7.9,33.3-18.7c0.8-1,1.5-2,2.3-3c0.2-0.3,0.6-0.3,0.9-0.1
		c5.7,4,11.2,7.7,16.7,11.6c18.5,13.2,36.8,26.6,55.5,39.5c11.1,7.7,23,14.2,36,18.2c7.2,2.3,14.6,3.8,22.2,2.3
		c13.3-2.7,25.4-12.9,25.4-31.8c0-13.3-10.3-22.8-23.3-20.8c-6.2,0.9-10.5,4.6-12.6,10.7c-2.1,6.1-0.4,11.4,3.9,16
		c0.6,0.6,2.1,1.1,2.7,0.7c4.5-2.9,8.8-2,12.9,0.5c3.2,1.9,5.2,4.6,5,8.6c-0.2,4-2.5,6.4-5.9,8c-4.9,2.3-10.1,2.7-15.3,2.4
		c-8.7-0.5-16.6-3.8-24.1-7.9c-13.7-7.3-25.9-16.8-38.1-26.3c-17.8-13.7-35.2-27.9-54.5-39.5c-1.8-1.1-1.1-2.1-0.5-3.4
		c5.9-13.6,10-27.7,11.9-42.5c0.4-3.2,0.8-6.4,1.3-10.1c0.1-0.6,0.8-0.7,1.1-0.3c2.4,3.7,4.6,7.1,6.8,10.5
		c14.3,22.2,28.7,44.3,42.9,66.5c0.9,1.4,1.9,2.5,3.5,1.8c0.8-0.3,1.3-1.8,1.5-2.8c1-5.2,1.9-10.5,2.9-15.8
		c4.8-25.1,10.8-49.9,21.3-73.4c3.5-8,7.6-15.6,12.9-22.6c0.2-0.2,0.5-0.3,0.7-0.2c14.7,5.7,29.4,10.4,44.6,13.8
		c15.4,3.5,31,5.6,46.8,6.3c21.2,1,42.2-0.1,62.7-5.6c10.3-2.8,20.2-6.6,28.5-13.7C475.1,124.2,476.1,112.2,466.9,101.7L466.9,101.7
		z M346.1,39.1c7.3-1.6,14.7-1.7,22.1-0.5c5.3,0.9,8,3.2,8.7,7.4c0.7,3.8-0.7,6.8-4.4,7.8c-4,1.1-8.2,1.7-12.4,1.8
		c-13.5,0.3-26.8-1.2-40.5-4.5c-0.5-0.1-0.6-0.9-0.2-1.1C328,44.8,336.7,41.1,346.1,39.1L346.1,39.1z M236.8,57.3
		c-7.3,1.2-14.7,0.5-21.4-3c-2.3-1.2-4.4-3.6-5.7-5.9c-1.7-3-0.8-5.8,2.3-7.3c4.1-2,8.4-3.7,12.8-4.5c11.8-2,23.1,0.9,34.6,4.6
		c0.4,0.1,0.6,0.7,0.3,1C253.1,49.3,246.4,55.7,236.8,57.3L236.8,57.3z M189.9,121c-12.3,1.8-24.5,1.4-36.5-1.7
		c-4.6-1.2-8.9-3-12.3-6.4c-4.3-4.2-6.3-10.4,1.4-15.1c7.2-4.5,15.3-5.9,23.5-7.1c17.3-2.5,32.9,3.1,48.2,10.2
		c4.7,2.2,9.3,4.5,14.5,7c0.5,0.2,0.5,0.9,0,1.1C215.7,114.8,203.2,119,189.9,121L189.9,121z M155.1,241.2
		c-12.2,8.9-26,11.7-40.7,9.8c-5.9-0.7-11.7-2.9-17.4-4.8c-2.2-0.7-4.1-2.4-5.9-3.9c-7.7-6.5-7.4-16.7,0.7-22.7
		c6.2-4.7,13.5-6.2,21-7.3c15.2-2.2,28.2,3.9,40.9,10.9c3.7,2,7.2,4.3,10.9,6.5c0.3,0.2,0.4,0.6,0.2,0.9
		C162.3,235,159,238.4,155.1,241.2L155.1,241.2z M464.9,124.2c-5.9,5.8-13.4,8.5-21.1,10.7c-11.8,3.4-23.8,4.9-36,5.6
		c-4.7,0.3-9.3,0.4-14,0.6c-24.2,1-47.8-2.8-71-9.8c-10.2-3.1-20.1-6.8-30.2-10.2c-0.4-0.1-0.7-0.3-1.2-0.5c-0.4-0.2-0.5-0.7-0.2-1
		c5.6-6.8,12.2-12.2,19.4-17c16.2-10.7,34.2-16.7,53.3-19.2c24.6-3.2,48.8-1.4,72.5,6.2c8.2,2.6,16.2,6.1,22.9,11.7
		c2.9,2.4,5.6,5.4,7.6,8.6C470.2,115.1,469.3,119.9,464.9,124.2L464.9,124.2z"/>
	<path class="st4" d="M286.2,421.2c-5.3,3.3-11.2,3.9-17.1,4.3c-9.4,0.6-16.7-3.6-23.5-9.7c-5.3-4.7-10.6-9.5-16.3-13.7
		c-12.2-9.1-26-13.8-41.3-13.8c-13.6,0-27.1,0-40.9,2.2c-0.1-0.9-0.2-1.7-0.3-2.8c1.1-0.2,2.1-0.5,3.1-0.6
		c6.2-0.5,10.7-3.8,12.9-9.4c2.2-5.5,3.7-11.4,4.8-17.2c4.2-21,8.2-42,12.2-63c0.1-0.3,0-0.7,0-1.6c-1.9,3.4-3.6,6.2-5.2,9.1
		c-15.7,27.8-31.4,55.6-47.2,83.3c-0.5,1-1.7,1.6-2.6,2.3c-0.7-0.9-1.7-1.8-2-2.9c-7.1-24.7-14.2-49.5-21.2-74.2
		c-0.2-0.6-0.4-1.2-1.1-1.9c-0.5,3-0.9,6-1.4,9c-3.2,20.3-6.6,40.6-14.4,59.8c-3.8,9.2-8.4,17.9-15.6,24.9c-9.1,9-20,12.6-32.6,11.4
		c-8.1-0.7-15.7-2.8-22.3-7.8c-11.5-8.8-16.3-20.6-13.8-34.9C3.2,360,12.1,351,25.6,346.6c6.9-2.2,14-3.1,21.2-1.7
		c10.2,2,18.1,11.4,19,22.2c0.6,7.3-0.5,14.2-5.1,20.2c-5.7,7.4-16.5,9.1-24.3,5c-4.3-2.3-6-6.3-6.5-10.9c-0.1-0.6,0.9-1.8,1.5-1.9
		c6.8-1.4,10.2-5.1,9.9-11.1c-0.3-5.8-5.4-10.6-11.9-11C19,356.6,11.2,363.2,9.6,374c-2.8,18.3,8.6,33.2,26.8,35.3
		c15.1,1.7,26.3-4.6,35-16.4c8-10.9,12.4-23.4,16-36.3c4.4-15.8,7.1-31.9,8.9-48.1c0.3-3,0.7-6.1,0.3-9.1c-0.8-6.2-5.7-9.9-13-10.4
		c-0.6,0-1.3-0.1-1.9-0.1c-2.4,0.2-2.9-1-2.1-3.3c0.9-0.1,1.9-0.2,2.9-0.2c12.9,0,25.9,0,38.8-0.1c2.5,0,3.5,0.8,4.1,3.2
		c5.7,20.4,11.6,40.8,17.5,61.2c0.2,0.9,0.5,1.7,1,3.2c5.3-9.4,10.3-18.1,15.2-26.8c7.5-13.2,15-26.5,22.5-39.7c0.6-1,2-2.1,3-2.2
		c13.7-0.1,27.4-0.1,41-0.1c0.4,0,0.9,0.1,1.3,0.2c0.1,0.3,0.2,0.6,0.3,0.8c-0.8,0.3-1.5,0.9-2.3,1c-2.3,0.3-4.6,0.1-6.8,0.6
		c-4,1-6.8,3.5-7.6,7.8c-2.5,12.8-5.1,25.5-7.6,38.3c-2.5,12.9-5,25.7-7.4,38.6c-0.4,2.4-0.5,5-0.3,7.4c0.3,4.1,3.1,6.1,6.6,7.3
		c3.1,1,6.2,1.7,9.3,2.6c13.4,4.3,24.2,12.4,34.3,22c2.4,2.3,4.9,4.4,7.6,6.4c3.8,2.9,8.2,4.5,13.1,4.1c4.3-0.3,7-2.1,8.2-5.8
		c1.6-5.1,0.8-8.9-2.5-11.6c-0.4-0.3-0.9-0.7-1.3-1c-4.2-2.6-4.4-3.7-2.2-8.2c3.5-7.3,16.7-11.2,23.4-2.3
		C298.3,401.7,296,415,286.2,421.2L286.2,421.2z"/>
	<path class="st4" d="M464.5,571c-7.1-8.8-16.6-14.1-27-17.9c-11.2-4.1-22.8-5.9-34.6-6.9c-16.8-1.4-32.9,0.5-48.1,8.3
		c-15.1,7.8-27.5,18.9-39,31.3c-4.8,5.2-9.4,10.6-14.3,16.2c-10.4-6.2-21.1-11.8-31-18.6c-18.6-12.7-37.6-24.3-59.3-31
		c-10.3-3.2-20.7-4.5-31.4-2.7c-24.3,4-44.9,22.4-46.8,48.6c-1.2,16.4,6.5,34.9,28.3,37.6c10.1,1.3,19.7-5.9,18.5-17.2
		c-0.5-4.8-3.9-8.8-8.5-10.1c-4.7-1.3-9.6,0.3-12.3,4c-0.8,1.1-1.3,2-0.2,3.4c2.8,3.4,2,9.3-1.4,12.2c-1.9,1.5-4,2.1-6.1,0.8
		c-2.4-1.6-5-3.2-6.9-5.4c-7.1-8.2-8.6-17.9-6.1-28.1c6.9-29,33.6-40.1,56.6-37.2c11.5,1.4,21.8,6.5,31.6,12.3
		c20,11.7,39.7,23.9,59.5,35.8c2.7,1.6,5.3,3.2,8,4.7c-0.1,0.3-0.2,0.5-0.2,0.5c-9.2,11.1-18.5,22.3-27.8,33.3
		c-0.4,0.5-1.8,0.6-2.5,0.3c-3.9-1.8-7.7-3.8-11.7-5.6c-11.9-5.3-23.7-10.7-36.9-12.2c-18.9-2.1-33.2,12.3-30.3,31.1
		c1.2,8.2,5.5,14.5,13.7,17.1c15.5,5,30.3,3.4,44-5.4c5.7-3.6,11-7.9,16.8-12.1c0.5,0.3,1.4,0.7,2.3,1.2c9.7,5.3,19.3,10.7,29,15.8
		c14.8,7.9,29.6,15.9,45.7,21.1c12.3,3.9,24,2.4,35-3.8c8.1-4.5,13.9-11.1,16-20.5c2.2-9.9-2.9-19-11.9-21.4
		c-5-1.3-10.6,0.3-13.4,4.2c-2.9,4.1-3.5,8.5-1.1,13c0.8,1.6,2.2,3,3.8,3.9c0.7,0.4,1.2-0.7,3.4-1.5c2.2-0.8,5.6-0.5,6.7,0.4
		c1,0.8,1.4,3,1.2,4.4c-0.1,2-1.8,3.8-3,4.9c-2.7,2.2-5.8,4-9,5.3c-7.2,2.8-14.8,3.1-22.4,1.5c-10.3-2.2-19.8-6.7-28.8-12.1
		c-14.4-8.6-28.7-17.5-43-26.3c-0.2-0.1-0.3-0.4-0.6-0.7c0.4-0.5,0.7-0.9,1-1.3c8.5-10.2,17-20.4,25.4-30.7c1.7-2.1,2.8-2.3,5.1-1
		c29.2,16,59.4,28.7,93,31.9c12.6,1.2,25.1,1.4,37.4-2.1c15.7-4.4,28.6-12.7,36.9-27.3C476.2,602.2,474.9,583.6,464.5,571L464.5,571
		z M214.4,674.5c-4.1-0.1-8.4-0.9-12.4-2.2c-10.4-3.3-13.6-10-10.9-20.9c2.6-10.5,12.1-15.9,23.1-13.4c10.7,2.4,20.3,7.5,30,12.2
		c3.5,1.7,7,3.6,10.9,5.7C243.1,666.5,230.6,674.8,214.4,674.5L214.4,674.5z M453.4,621.6c-8.9,8.3-19.5,12.6-31.3,14.1
		c-19.6,2.6-38.5-1.1-57.2-6.4c-20.4-5.8-39.5-14.7-58.1-24.8c-0.5-0.2-0.9-0.6-1.6-1c14-16.5,28.1-32.3,46.6-43.2
		c14.8-8.7,30.7-11.9,47.8-10.7c12.3,0.9,24.2,2.8,35.6,7.5c9.1,3.8,17.3,9,23.4,16.9C469.8,588.8,467.6,608.4,453.4,621.6z"/>
	<path class="st4" d="M455.9,421.6c-2-10.6-9-16.8-18.9-19c-16.9-3.8-34-3.2-51,0.1c-22.4,4.4-44,11.4-65.1,20
		c-32.7,13.3-65.1,27.3-97.6,41c-1.1,0.5-2.1,0.9-3.6,1.5c-1.3-13.7-2.6-27.1-3.9-40.6c-9.6,1.9-18.8,2.4-28,0.6
		c-1.8-0.3-1.9,1-2.3,2.1c-7.3,19-14.6,38-22,57c-0.4,1-1.4,2.4-2.3,2.6c-13.8,3.6-27.7,7-42.2,6.6c-7.7-0.2-13.8-3.3-18.5-9.3
		c-8.5-11.1-9.6-28.7-2.6-40.9c3.7-6.3,9.1-10.4,16.3-11.6c5.3-0.8,10.5-0.7,14.2,4.2c6.2,8.3,1.4,19.6-8.8,20.9
		c-1.4,0.2-2.4,0.4-2.6,2.2c-0.9,7.2,3.9,14.9,10.8,16.2c11.7,2.1,23-3.8,26.5-15.4c2.9-9.5-0.9-19.6-9.6-25.7
		c-8.2-5.8-17.5-7.4-27.2-7.2c-11.2,0.2-19.9,5.2-25.1,15.2c-7.2,14.1-6.8,28.4,1.2,42c5,8.6,12.8,13.4,22.8,14
		c10.8,0.6,21.4-0.6,31.9-3.1c4-1,8-2.1,12.2-3.2c-4.9,12.8-9.7,25.3-14.6,37.8c-2.9,7.6-5.7,15.2-9,22.6c-2.3,5.2-6.3,6.9-10.9,5.8
		c-5.7-1.5-10.1-6.3-9.8-11.4c0.1-2.3-0.8-3.2-2.7-3.6c-1.2-0.2-2.3-0.6-3.5-0.6c-6.9,0-11.8,3.3-14.7,9.4c-3.2,6.7-1.5,12.9,3,18.3
		c7.6,8.9,20.6,9.4,30.1,1.4c6.2-5.2,10-12.1,12.9-19.4c7.9-19.8,15.4-39.7,23-59.6c0.6-1.6,1.4-2.5,3.1-3c6-1.9,12-4,18-6
		c1.9-0.6,3.7-1.3,5.8-2c0.2,1.4,0.5,2.5,0.6,3.6c0.5,5.6,1.1,11.2,1.5,16.8c0.5,7.6,1.2,15.1,1.3,22.7c0,8.1-2.6,10.9-10.5,12.1
		c-0.6,2.4,1,2.2,2.5,2.2c17.4,0,34.9,0,52.3,0c0.8,0,1.6-0.1,2.4-0.2c0.6-1.8,0.4-2.8-1.6-2.9c-0.8,0-1.6-0.2-2.4-0.4
		c-7.9-2.3-11.7-8.4-12.6-15.9c-1.9-16.1-3.2-32.4-4.6-48.5c-0.1-0.8,1-2,1.9-2.4c31.8-13.6,63.5-27.5,95.5-40.4
		c27.7-11.2,55.9-21.3,86-23.8c7-0.6,14.3,0.2,21.3,1c2.2,0.2,4.8,2.3,6,4.3c3.5,5.6,0.2,14.6-6,16.9c-1.4,0.5-1.8,1.2-1.7,2.6
		c0.2,4.8,2.3,8.5,6.1,11.3c5.5,4.1,12.7,4.3,18.3,0.7C453.7,437.1,457.3,428.7,455.9,421.6L455.9,421.6z M188.9,478.1
		c-6.5,2.2-13,4.5-19.4,6.8c-0.5,0.2-1,0.2-2.1,0.5c6.6-17.2,13-33.9,19.4-50.6c0.2,0,0.3,0,0.5,0c0.7,6.6,1.4,13.2,2,19.8
		c0.6,6.7,1.1,13.4,1.8,20.1C191.3,476.6,190.8,477.5,188.9,478.1L188.9,478.1z"/>
	<path class="st4" d="M526.1,434.4c-8.8-10.9-25.4-16.2-39.1-11.9c-8.5,2.7-15.9,7.4-20.2,15.6c-4.6,8.9-0.7,19.7,8.2,23.2
		c4.9,1.9,9.6,1.3,13.6-2.4c3.6-3.4,5.2-7.5,4-12.5c-0.5-1.9-1.3-2.9-3.6-2.8c-4.1,0.2-8.2-4-9-8.6c-0.6-3.5,1.6-6.9,5.9-8.2
		c13.3-4.2,25.2-1.7,35.4,7.9c9.8,9.3,12.9,26.7,0,39c-5.3,5.1-11.5,8.9-18,12.1c-12.2,5.9-25.1,9.6-38.3,12.7
		c-1,0.2-2.2-0.1-3.1-0.5c-4.4-2-8.7-4.2-13.2-6.1c-5.4-2.4-11-4.4-16.4-7c-3.7-1.8-5.4-5.1-4.8-9.4c0.6-4.2,3.3-6.6,7-7.7
		c5.9-1.7,11.9-1.6,17.5,1c2.1,1,4.2,2.8,5.5,4.7c2.4,3.6,1.3,6.2-2.5,7.8c-0.3,4.2,1.6,7.4,5.3,8.7c4,1.4,8.4,0.1,10.8-3.3
		c2.5-3.6,2.7-8.9-0.5-11.7c-3.2-2.8-6.9-5.2-10.8-6.8c-11-4.3-22.4-4.2-33.9-2.1c-1.1,0.2-2.1,0.5-3.2,0.8
		c-10.1,2.7-16.4,8.3-19.6,19.2c-4.6,15.8-12.2,30.5-22.8,43.3c-0.9,1.1-2.1,2.1-3.3,2.9c-2.3,1.6-3.9,0.7-3.9-2.1
		c0-1.4,0.1-2.8,0.3-4.1c2.6-15.7,5.3-31.3,7.9-46.9c0.8-5,0.8-5,5.4-5.6c0.2,0,0.3-0.2,0.5-0.3v-3.2c-1.5-0.2-2.8-0.4-4.3-0.6
		c1.3-7.3,2.5-14.3,3.7-21.3c1.2-7,2.4-14,3.6-21.4c-10.4,2.4-20.3,3.7-30.3,2.2c-2.2-0.3-2.3,1.1-2.5,2.6
		c-1.9,11.7-3.9,23.3-5.7,35c-0.4,2.6-1.4,3.3-3.8,3.2c-3.4-0.2-3.6,0.3-2.6,3.7c1.6,0.1,3.2,0.2,5,0.3c0,0.8,0.1,1.4,0,2.1
		c-1.7,10.7-3.5,21.3-5.1,32c-1,6.6-2,13.3-2.4,20c-0.3,4.3,1.2,8.4,4.9,11c6.6,4.5,13.9,5.4,21.5,2.5c4.7-1.8,8.2-5.2,11.4-8.9
		c9.6-11.1,15.7-24.2,21.4-37.6c0.5-1.1,1-2.2,1.7-3.8c1.6,9.8,8.6,14.5,15.9,19.2c-2.5,0.8-4.7,1.2-6.5,2.2
		c-4.3,2.2-8.9,4.1-12.5,7.2c-5.7,4.7-5,12.2,0.9,16.6c2.1,1.5,4.6,2.8,7.1,3.5c10.6,2.9,21.4,3.5,32.1,1.6
		c8.2-1.5,15.8-4.7,22.2-10.4c7.4-6.6,9.9-16.6,6.3-24.9c-0.6-1.3-1.3-2.5-2-3.9c6.7-1.9,13.3-3.6,19.7-5.7
		c12-3.9,23.5-8.8,33.6-16.8C537.5,466.1,536.2,447,526.1,434.4L526.1,434.4z M445.6,535.7c-3.6,3.1-8,4.4-12.5,4.2
		c-4.2-0.1-8.6-0.8-12.6-2.1c-6-2-8.4-6.1-8.3-12.5c0.1-7.5,2.3-10.8,8.9-12.7c0.9-0.2,2-0.3,2.9,0.1c5.5,2.5,11,5,16.4,7.7
		c2,1,3.8,2.2,5.5,3.7C449.8,527.6,449.7,532.2,445.6,535.7L445.6,535.7z"/>
	<path class="st4" d="M498.7,149.5c-15.2-6.4-33.8-3.6-46.6,11.6c-7.3,8.7-12.3,18.6-15.9,29.3c-3.6,10.5-6.6,21.1-10.1,31.6
		c-1.8,5.2-3.8,10.4-6.2,15.3c-0.7,1.4-3,2.8-4.5,2.8c-2.5,0-3.6-2.5-3.8-4.8c-0.2-2.6-0.3-5.2,0.2-7.7c2.1-11.2,4.4-22.3,6.6-33.4
		c1.2-6.1,2.5-12.3,3.8-18.4c-8.9,0-17.3,0-25.8,0.1c-0.7,0-1.9,0.9-2,1.6c-0.8,4.1-1.1,8.4-1.9,12.5c-2.5,12.6-4.9,25.2-7.8,37.6
		c-0.9,4-3.2,7.8-5.3,11.5c-0.7,1.3-3,2.2-4.6,2.2c-2.2,0.1-3.7-1.9-4-4c-0.4-2.8-0.8-5.8-0.3-8.5c1.2-6.5,2.9-12.9,4.4-19.4
		c1.8-8.2,3.8-16.4,3-24.9c-0.8-7.9-5.1-11.6-12.9-10.7c-2.4,0.3-4.9,1.3-6.8,2.6c-3,2.1-6,4.4-8.2,7.3
		c-5.9,7.7-11.4,15.6-16.9,23.6c-6.5,9.3-12.6,18.9-21.2,26.5c-6.5,5.8-13.7,10-22.6,10.1c-4.9,0-6.8-1.6-6.6-6.6
		c0.3-6,1.1-11.9,1.7-17.9c0.1-1.3,0.7-1.9,2.2-1.7c2.1,0.2,4.2,0.2,6.3,0.2c7.6,0,15.2-0.5,22.4-3.4c4.4-1.8,8.2-4.5,9.4-9.4
		c0.6-2.4,0.4-5.1,0.4-7.7c-0.1-9-5.4-16.5-13.9-19c-12.7-3.7-24.7-2-35.4,6.3c-12.7,9.9-18,28.7-12.7,44.4
		c3.5,10.5,10.6,17.1,21.8,18.5c8.7,1.1,16.2-1.9,23.3-6.6c7.4-4.9,13.6-11,18.8-18.1c7.1-9.7,13.8-19.8,20.7-29.7
		c0.7-1.1,1.6-2,2.5-3.1c0.3,0.1,0.6,0.2,0.8,0.3c0,1.2,0.2,2.5,0,3.7c-0.5,3-1.3,5.9-1.8,9c-1.1,7.8-2.6,15.5-2.8,23.3
		c-0.1,8,2.8,15.3,10.9,18.7c8.2,3.4,16.7,3.5,23.9-2.4c3-2.5,4.9-6.4,7-9.3c1.8,2.4,3.9,5.7,6.6,8.4c8.2,8.3,27.3,5.7,34.1-3.9
		c3.2-4.6,5.9-9.8,7.8-15.1c3.9-10.8,6.9-22,10.7-32.9c4.2-11.9,9.8-23.1,18.9-32.2c9.8-9.7,22.4-9.1,32.4-3.4
		c7.6,4.3,11.2,12.9,9.5,21c-2.6,12.6-15,16.4-23.4,15.6c-3.8-0.3-6.2-3.6-6.2-7.6c0-4.2,2-6.8,6.1-7.6c0.5-0.1,1-0.3,1.4-0.5
		c-0.4-5.5-3.3-9-8.2-10.3c-5.3-1.3-10.1,0.5-13,4.9c-5.2,7.9-2,18.9,6.7,22.5c6.4,2.7,13.2,2.9,20,2c6.5-0.8,12.2-3.5,16.5-8.5
		C518.4,173.7,513.8,155.8,498.7,149.5L498.7,149.5z M294.1,184.2c0.7-1.1,1.8-2.2,2.9-2.9c2.9-1.9,6.2-0.8,7.5,2.4
		c0.3,0.8,0.7,1.8,0.7,2.7c0,6.2,0.6,12.4-0.2,18.5c-0.9,6.7-4.9,9.2-11.6,9c-2.5-0.1-5.1,0-8,0
		C287.2,203.3,288.4,193.1,294.1,184.2L294.1,184.2z"/>
	<path class="st4" d="M340.5,482.5c-0.9,9.3-6.6,16.1-14.8,17.8c-8.6,1.8-15.9-2.4-17.6-10c-0.5-2.1-0.6-3.4,2.2-4.1
		c5.7-1.4,8.9-6.9,8-12.9c-0.5-3.2-3.7-4.9-6.9-3.3c-1.9,0.9-3.7,2.2-5,3.7c-3,3.4-6.2,6.9-8.5,10.9c-1.5,2.5-1.6,5.8-2.1,8.8
		c-2.5,13.7-4.9,27.4-7.4,41.1c-0.1,0.3,0,0.7,0.1,1.6c1.5,0,2.9,0,4.3,0c1.3,0,2.4,0.1,2.4,1.9c0,1.8-1,2.1-2.5,2.1
		c-10.9,0-21.8,0-32.8,0c-1.9,0-3.9-0.1-5.8,0c-2.6,0.2-3.7-0.6-2.7-3.9c1.5,0,3.2,0.2,4.8-0.1c0.9-0.2,2.2-1.1,2.4-1.9
		c4-20,7.8-40,11.6-60c0-0.1-0.1-0.2-0.2-0.6h-5.7v-3.7c13.6,0.1,26.6-2.7,39.5-7.2c0.8,2.3,0.7,3.9-1.9,4.5
		c-0.7,0.2-1.4,1.1-1.6,1.8c-0.6,2.5-1,5-1.5,7.7c3.1-3,5.9-6.1,9.1-8.6c5.4-4.4,11.4-7.1,18.6-5.5
		C335.9,464.3,341.5,472.4,340.5,482.5L340.5,482.5z"/>
	<path class="st4" d="M421.6,296.5c0,11.4-11.9,21.5-23,19.6c-7.4-1.3-12.7-8.4-12-16.5c0.7-9.1,9.4-20.4,22.2-18.7
		C416.7,282,421.6,287.8,421.6,296.5L421.6,296.5z"/>
	<path class="st4" d="M420.6,596.4c-0.9,2.6-1.5,4.7-2.4,6.7c-1.6,3.2-4.7,4.7-8.3,3.9c-3-0.6-5.8-1.7-8.8-2.2
		c-1.6-0.3-3.3,0.3-5.1,0.5c0-2,1.1-4.4,3-6.3c1.7-1.6,3.8-2.9,5.6-4.4c2.1-1.8,4.4-3.4,6.1-5.5c2-2.5,2.7-5.4,0.4-8.3
		c0.1-0.3,0.2-0.5,0.4-0.8c2.6,0.8,5.4,1.2,7.7,2.5c2.9,1.7,3,6.2,0.1,8.6c-1.9,1.5-4.5,2.4-6.8,3.2c-2.3,0.8-4.8,1.1-7.2,1.6
		C410.1,596.4,414.9,600.7,420.6,596.4L420.6,596.4z"/>
	<path class="st4" d="M369.5,597.2c-0.3,7.3-4.7,10.9-11.4,9.4c-2.4-0.5-4.7-1.4-7.1-2c-1.8-0.4-3.8-1.1-5.1,1.3
		c-0.2-3.1,1.1-5.6,3.3-7.5c1.8-1.6,4-2.8,5.8-4.4c2.1-1.9,4.4-3.7,5.9-6c1.5-2.2,2.2-4.9-0.9-7.6c3.6,0.1,6.6,0.2,9,2.1
		c3,2.3,2.5,7.4-1.1,9.4c-2.6,1.4-5.6,2.1-8.5,3c-1.6,0.5-3.2,0.7-5,1.1C363.1,598.8,366,599,369.5,597.2L369.5,597.2z"/>
	<path class="st4" d="M442.1,603.5c-2.4,2.4-8,4-11,3.4c1.1-2.5,2.7-5,3.2-7.7c0.9-4.5,0.3-5.1-5-7c6.3,0,8.5-8.3,4.5-12.2
		c3.1,0.6,5.6,0.8,7.8,1.6c3.5,1.2,4.3,5.3,1.4,7.7c-1.8,1.5-4.1,2.2-5.9,3.1c0.6,0.2,1.7,0.4,2.7,0.8
		C444.5,595,445.6,599.9,442.1,603.5L442.1,603.5z"/>
	<path class="st4" d="M397.3,591.1c0,9-6.2,15.9-14.2,15.7c4.1-8.3,6.4-16.8,4.3-26.2C393.7,580.9,397.3,584.6,397.3,591.1
		L397.3,591.1z"/>
	<path class="st4" d="M380.9,606.8c-3.2,0.5-7-1.4-8.6-4.6c-3.9-8,1.1-21.7,12.8-21.5C380.9,589.1,379,597.6,380.9,606.8z"/>
	<path class="st4" d="M429,601.4c-1.9,1.7-2,3-0.1,5.9c-2-0.4-3.7-0.5-5.3-1.1c-3.1-1.1-4.2-3.8-2.9-6.6c1.3-3,4.9-4.4,7.6-3
		C430.5,597.8,430.8,599.8,429,601.4L429,601.4z"/>
	<path class="st4" d="M407.9,586.8c0.2,0.3,0.3,0.7,0.2,1c-0.3,2-3.8,4.1-6.1,3.6c-2.5-0.5-3.6-2.7-2.9-5.3c0.7-2.6,2.7-3.9,5-4.7
		c1.7-0.6,3.5-0.8,5.2-1.1C406.2,583.3,406.2,583.5,407.9,586.8L407.9,586.8z"/>
	<path class="st4" d="M357.8,587c0.1,0.1,0.1,0.5,0.1,0.8c-0.3,2-3.8,4.1-6.1,3.6c-2.5-0.5-3.7-2.7-3-5.3c1-3.5,5.1-5.7,10.6-5.4
		C356.8,582.7,355.1,584.4,357.8,587L357.8,587z"/>
	<path class="st4" d="M431.6,586.5c0.9,0.9-1.4,3.3-3.5,3.8c-2.2,0.5-4.7-0.7-4.6-2.6c0.1-1.7,0.8-4,2-4.9c1.9-1.4,4.5-1.9,6.8-2.8
		c0.1,0.3,0.3,0.6,0.4,0.9C430.8,582.5,429.2,584,431.6,586.5L431.6,586.5z"/>
</g>
</svg>
