<?xml version="1.0" encoding="UTF-8"?>
<svg id="Layer_1" data-name="Layer 1" xmlns="http://www.w3.org/2000/svg" version="1.1" viewBox="0 0 1334.9 1424.6">
  <defs>
    <style>
      .cls-1 {
        stroke-linecap: round;
      }

      .cls-1, .cls-2 {
        fill: none;
        stroke: #069;
        stroke-miterlimit: 10;
        stroke-width: 4px;
      }

      .cls-3 {
        fill: #f4f4f4;
      }

      .cls-3, .cls-4, .cls-5 {
        stroke-width: 0px;
      }

      .cls-4 {
        fill: #069;
      }

      .cls-5 {
        fill: #fff;
      }
    </style>
  </defs>
  <path class="cls-2" d="M287.5,363c-8.4,18.5-33.1,77.4-30.3,154.5.7,19.2,3.6,54.7,41.7,158.2,36,97.7,53.9,146.6,74.8,175.1,66.4,90.9,160.8,126.1,250.7,159.7,69.4,25.9,111.7,29.9,150.3,24.9,23.5-3.1,69.2-9.6,102-43.3,17.2-17.7,13.7-25.2,38.3-74.2,31.9-63.6,46.5-68.2,62.2-108.3,15.6-39.9,15.9-73.3,15.9-109.8,0-61-10.8-128.1-47.1-227-54-146.9-81.1-220.4-154.7-271.8-18.6-13-84-57.3-175.6-56.8-58.4.3-100.8,18.7-131.7,32.4-31.5,14-141.2,64.8-196.4,186.4h-.1Z"/>
  <path class="cls-2" d="M584.5,839.9c-.6,2.4,30.7,12.2,58.9,19.8,41.5,11.3,62.3,16.9,80.2,17.9,23.2,1.3,65,3.6,100.2-20.8,11.1-7.7,21.2-18.5,41.5-40.1,14-14.9,19.2-22,17.8-23.7-2.6-3.2-23.6,17.5-57.2,20.8-11.2,1.1-11.1-1-21.9.7-21.4,3.4-24.5,12.1-44,15-9.9,1.5-18.2.7-31.5-.7-16-1.6-17.1-3.7-25.8-3.4-14.9.5-17.4,6.9-35.3,12.4-14.7,4.5-26.6,4.3-46.1,4.1-23.4-.3-36.5-3.7-36.9-2.1h0Z"/>
  <path class="cls-1" d="M648.4,692.9c1.3-4.8,8.8-6.6,16.5-8.2,5.5-1.2,17.8-3.3,38.5,0,9.3,1.5,19.4,4,19.2,5.5-.2,2.3-23.2-.3-24.4,4.7-.8,3.2,7.7,7.7,9.9,8.8,2.6,1.4,13.7,7,30.7,5.2,9.2-1,20.7-2.2,26-10.4,3.6-5.5.4-8,3.6-15.6,4.3-10.1,13.7-15,22.9-19.8,6-3.1,17.9-9.3,21.9-5.3s0,10-.2,10.8c-2.1,5.2-5.4,6.3-13.8,14.3-6,5.7-9,8.5-8.3,9.9,1.3,2.5,14.7,0,25.7-6.7,5.1-3.1,14.6-8.9,19-21.1,5-14-.4-26.3-1.8-29.2-5.7-12.4-16.1-18.1-23.4-22.1-9.4-5.1-13.4-4.6-21.2-7.7-27.5-10.8-42.3-42.9-55.8-72.1-2.7-5.8-4.6-10.5-5.8-13.5"/>
  <path class="cls-2" d="M579.2,482.2c-4.1-5.6-20-25.9-48.8-32-28.9-6.2-51.6,6-58.2,9.5-5,2.7-11.7,8.1-25.1,19-1.8,1.5-37.4,30.5-35.3,33.4.6.9,4.2-1.5,17.4-5.9,7.3-2.5,11-3.7,15-4.2,9.1-1.1,15.6,1.7,21.5,3.6h0c18.7,5.8,34.5,3.9,38,3.4,6-.8,13.1-1.7,21.2-5.9,8.2-4.1,11.4-8.4,16.2-12.1,6.8-5.2,18.2-10.2,38.2-8.8h-.1Z"/>
  <ellipse class="cls-2" cx="498.7" cy="477.5" rx="31.4" ry="28.2"/>
  <path class="cls-2" d="M597.2,347.9c-8.7-.9-21.4-1.9-36.8-2.7-25.9-1.3-39.4-1.9-55.9,0-24.3,2.9-42.1,9.9-51.1,13.5-45.1,18.1-74.5,48.9-89.3,66.9,13-8,32.1-19,56.6-29.6,12.4-5.4,18.5-8,26.7-10.6,35.9-11,68.2-7,110.1-1.5,8.6,1.1,20.9,3,35.7,6,1.3-14,2.6-28,4-42h0Z"/>
  <path class="cls-2" d="M750,331.1c4.4,5.7,8.8,11.4,13.1,17.1,12.2-2.9,22.6-5.1,30.2-6.6,39-7.6,50.6-6.7,56.1-6.1,10.6,1.2,18.1,3.7,26.4,6.5,19.8,6.6,34.8,15.2,44.8,21.9-3.6-9.8-14.1-33.8-38.9-46.2-8.3-4.1-18.5-7.1-37.5-7.4-19.3-.3-52.9,2.1-94.3,20.7h.1Z"/>
  <path class="cls-2" d="M748.1,464.5c1.3-7.8,5-22,16.7-34.2,16-16.6,36.7-18.7,47.5-19.8,17.8-1.8,31.6,2.2,39.1,4.4,17.3,5.1,29.7,13.4,37.2,19.1-3.9,2.1-9.6,5.3-16.6,9.1-31.1,17.3-32.2,18.7-39.3,21.6-4.2,1.7-21.1,8.2-43.8,7.8-17.8-.3-32-4.7-40.7-8.1h-.1Z"/>
  <ellipse class="cls-2" cx="800.3" cy="441.1" rx="30.7" ry="27.5"/>
  <path class="cls-2" d="M580.6,21.2c-13.7,11.3-41.6,43.4-22.9,135.9,43.4-1.7,120.2,1.3,196.3,41.1,141.4,73.9,177.1,220.9,194.3,291.5,9.3,38.2,34.1,145.9-2.6,271.2-20.7,70.5-68.7,173.3-135.8,317-21.1,45.2-34.1,71.9-22.6,101.5,26.5,68.7,167,108,268.7,67.6,13.8-5.5,84.8-33.7,101.1-92.7,17.4-62.8-47.6-86.3-46-163,1.8-85.5,83.6-102.6,84.8-185.8.8-56.4-36.4-66.8-79.7-152.3-52.2-103.2-23.1-137.5-61.9-274.3-25.1-88.7-47.6-167.9-114.1-238.5C837.2,31,649-35.6,580.6,21.2Z"/>
  <path class="cls-1" d="M447,477.4c-1.8,0-9.4.1-16-5.6-5.1-4.5-6.7-10-7.2-12"/>
  <path class="cls-1" d="M455.9,471.3c-1.1,0-6,.1-10.1-5.8-3.2-4.6-4.2-10.3-4.6-12.4"/>
  <path class="cls-1" d="M467.4,462.2c-1-.3-5.4-1.6-7.8-7.2-1.8-4.4-1.4-9-1.2-10.6"/>
  <path class="cls-1" d="M434.1,488.7c-1.6.7-8.8,3.4-16.9.4-6.4-2.4-9.8-7-10.9-8.7"/>
  <path class="cls-1" d="M482.2,453.3c-.8-.2-4.1-1.2-5.5-6.3-1.1-4-.5-8.3-.3-9.9"/>
  <path class="cls-1" d="M501.8,448c-.8-.2-4.1-1.2-5.5-6.3-1.1-4-.5-8.3-.3-9.9"/>
  <path class="cls-1" d="M520.6,448.9c-.7,0-3.8-.5-5.7-5.9-1.4-4.2-1.3-9.1-1.2-10.9"/>
  <path class="cls-1" d="M534.3,451.1c-.6-.4-3.3-2.1-2.7-7.8.5-4.4,2.6-8.8,3.5-10.4"/>
  <path class="cls-1" d="M549.7,457c-.5-.5-2.5-2.9-.4-8.2,1.7-4.1,5-7.7,6.2-9"/>
  <path class="cls-1" d="M863.7,417.7c1.7-.5,8.9-3,13.3-10.5,3.4-5.9,3.1-11.6,2.9-13.7"/>
  <path class="cls-1" d="M848.1,415.7c1.1-.3,5.7-1.8,7.7-8.8,1.5-5.4.6-11.1.2-13.2"/>
  <path class="cls-1" d="M835.1,411.2c.9-.6,4.6-3.3,5-9.4.3-4.8-1.6-8.9-2.4-10.4"/>
  <path class="cls-1" d="M866.4,423.1c1.8.1,9.4.4,16.1-5.2,5.2-4.3,6.9-9.8,7.5-11.8"/>
  <path class="cls-1" d="M820.5,408.7c.7-.4,3.5-2.4,3.2-7.8-.2-4.2-2.2-8-3-9.5"/>
  <path class="cls-1" d="M802.3,410c.7-.4,3.5-2.4,3.2-7.8-.2-4.2-2.2-8-3-9.5"/>
  <path class="cls-1" d="M785.9,414.6c.6-.4,3.2-2.2,2.3-7.9-.7-4.4-3-8.6-3.9-10.2"/>
  <path class="cls-1" d="M772.3,425.5c.5-.5,2.4-3,0-8.2-1.9-4-5.4-7.4-6.7-8.6"/>
  <path class="cls-1" d="M767.2,433.3c.3-.7,1.5-3.6-2.3-7.9-3-3.3-7.2-5.6-8.8-6.4"/>
  <path class="cls-1" d="M538.1,95.7c-17.8,58.8-122.1,52.6-182,85.5-187.7,103.1-82.8,669.1-71.7,728.1,33.9,180.5,85.8,321.8,53.8,337.1-25.4,12.1-84.8-28.3-96.8-78.9-17.4-73.2,115.1-144.8,104-161.4-10.7-16.1-119,64.6-168.7,32.3-28.5-18.6-19.4-63.9-10.7-190.1,13.6-197.2.3-203.9,19.6-334,15.6-105.6,23.4-158.4,50.3-197.6,22.9-33.4,90.8-115.8,199.3-149,40.8-12.5,71.2-13.1,93.9-41.8,30.4-38.4,28.4-103.9,4.9-116.2-17.3-9-40.7,13.9-100.3,55.9-78.4,55.3-120.2,73.8-144.3,90.4C177.3,233.1,72.5,464.6,47.7,691.9c-10.5,96.8-33.2,305.2,76.2,497.4,36.2,63.7,77.4,108.8,67,119.4-17.6,17.9-152.3-91-169-155.9-1.8-6.8-3-13.9-3-13.9-7.4-42.9,2.6-76.2,5.9-87.8,45.3-162.1,67.4-329.8,102.8-494.3,27-125.6,31.5-169.7,65.8-246.7,3.5-8,36.6-81,95.9-154,26.1-32.1,64.6-73.2,115.7-100,1.4-.8,2.6-1.3,3.4-1.8,46.8-23.6,128.4-18.2,129.2,24.3.3,14.4.6,23.2,1.5,33.8,1.7,19.9,3.2,19.6,3,25.2-1.5,34.5-39.6,52.8-64.5,69.4-27.3,18.2-47.4,42.5-66.9,68.7-53.6,72-90.4,156.2-103,245.3-2,14.2-25.2,194.3,65.9,351.5,17.9,30.8,38.6,58.2,67.2,117.5,24,49.7,47.3,109,60.9,180.9,12.7,67.4,19.1,101.1,3.1,120.2-45.9,54.6-211.3-6.8-244.7-19.2-95.4-35.4-131.4-73.6-165.6-55.2-37.9,20.3-57.9,90.1-35.8,129.9,52.9,95.2,329.6,108.1,389.2,7.3,72.5-122.6-181.7-412.8-216.3-452.4C108.2,760.9,14.2,719.1,1.7,600.7c-7.1-67.2,16.4-119,61-217.6,43.5-96.2,91-200.6,199.3-268.5,104.8-65.6,251.9-87.7,275.3-48,6.3,10.6,2.4,23.5.7,29.2h0Z"/>
  <path class="cls-1" d="M558.4,188.3c-13.3-12.1,6.7-57.8,26.9-84.3,23.6-31,59.3-51,92.3-55.7,65-9.2,118.2,41.2,182.7,104.1,82.2,80.1,160.4,156.4,174.8,271,10.2,81.4-21.9,100.6-3.9,202.3,2.8,16.1,15,79.8,55,153.2,53.6,98.3,99.9,109,137.5,176.8,41.4,74.6,75.1,204.7,21.6,251.4-68.1,59.5-265.1-58.1-257.3-92.3,2.3-10.3,21.6-6.5,54.5-20.7,91.6-39.5,119.7-145.6,136.1-139.7,16.1,5.8-29.4,101.1,11.1,149.4,40.6,48.4,134.6,10.5,144,35.9,10.2,27.2-82.7,113.7-197.8,125.4-107.3,10.9-236.9-40.1-250-112.8-10.1-56.2,58.5-75.4,104.1-184.6,27.9-66.8,26.8-133.8,23.6-265.1-4.1-163.7-6.1-245.6-35.3-324.1-4.3-11.5-101.8-265.3-243.5-267.1-88.3-1.1-155.2,96.1-176.1,77.1h0l-.3-.2Z"/>
  <path class="cls-4" d="M412.1,510.5c-1.4-1.8,15.8-17.9,28.3-28.9,23-20.1,34.5-30.2,50.3-34.6,8-2.2,31.2-7.2,55.6,4.7,19,9.3,29,24,32.9,30.5-6.5-6.8-26.9-26-56.6-27.3-16.4-.7-29.4,4.4-34,6.3-16.1,6.5-18.8,13.3-44.5,31-9.7,6.6-30.4,20.2-31.9,18.2h-.1Z"/>
  <path class="cls-4" d="M748.1,464.5c4.5-8.8,19.8-36.1,49.2-44.6,13.1-3.8,26.4-3,31.8-2.6,16.7.9,30,5.2,38.5,8.7,23.1,10.9,28,12.2,28.4,11.5,1.1-1.8-22.4-23-55.5-29.2-12.9-2.4-38.5-7.2-62,8.5s-29.1,41.4-30.4,47.8h0Z"/>
  <path class="cls-1" d="M635.2,826.6c18.5-15.3,35.1-26.4,47.9-34.2,13.3-8.1,23.7-12.8,36.4-13.5,6.5-.3,13,.5,19.1,2.6,10.2,3.5,10.6,6.3,16.1,6.3,10.6,0,13.5-11.7,26.2-15.7,6.8-2.1,12.6-.9,23.4,2.2,13.4,3.8,31.9,9.7,54.2,18.7"/>
  <circle class="cls-4" cx="499.3" cy="472.5" r="17.7" transform="translate(-106.8 796.9) rotate(-71.6)"/>
  <ellipse class="cls-4" cx="795.1" cy="437" rx="16.7" ry="17.7"/>
  <path class="cls-1" d="M881,426.2c1.8.1,9.4.4,16.1-5.2,5.2-4.3,6.9-9.8,7.5-11.8"/>
  <ellipse class="cls-5" cx="784.7" cy="437" rx="3.5" ry="3.7"/>
  <ellipse class="cls-3" cx="488.7" cy="471.3" rx="3.5" ry="3.7"/>
  <path class="cls-2" d="M571.7,459.3c-6.7-5.3-17.5-12.6-32.5-17.5-2.9-.9-26.5-8.4-53.8-3.1-49.1,9.5-74.6,53.5-78.4,60.3"/>
  <path class="cls-1" d="M739.3,455.6c1.1-5.3,3.5-13.8,8.9-22.9,12.6-20.9,32.2-29.1,38.8-31.8,3.5-1.4,13.8-5.3,27.7-6.1,2.9-.2,15-.7,32.5,4.1,11.3,3.1,30.5,10,51.1,26.4"/>
  <path class="cls-2" d="M229.8,592.8c5.8-8.8-30.8-58-75-58.5-12.6-.2-27.4,6.1-34.7,17.5-17.5,27.4,17.6,71.5,6.8,79.5-7.1,5.2-29.5-8.4-27.9-15.1,2.8-12.2,83.4,2.1,84.3-3.4,1-6.4-99.9-53.6-141.9-11.9-24.5,24.3-29.5,79.4,1.3,107.4,27.6,25.2,70,16,93.5,2.9,34.7-19.3,55.4-62.2,46.4-72.5-5.8-6.7-27-2.7-35.3,9.2-12.8,18.2,16.7,53.3,53.9,98.6,19.4,23.5,29.9,32,43.7,32.8,13.5.8,29.5-5.6,37.1-17.9,8.6-13.8-1-23.1,1-54,1.8-28.4,10.4-29.6,8.8-50.6-.2-2.8-3.7-43-29.3-51.7-10.1-3.4-25.3-2.4-33.6,7.7-8.1,10-7.4,26.6,0,35,14.4,16.3,54.8,3.8,78.2-9.8,30.9-18,65-57.2,55-80.9-16.3-38.6-146.9-28.7-150.5-9.1-1.5,8,21.2,20.9,42.1,21.6,29.8.9,68.2-22.7,67.5-55.9-.6-27.3-27.5-53.3-50.2-52-28.5,1.6-28.4,44.8-78.8,79.9-26.6,18.5-69.1,36-88.7,20.2-11.5-9.2-15.9-30.6-16.9-35.3-1.9-9.4-1.7-16.5-1.3-26.1,1-26,1.5-39,8.7-45.1,16.8-14.3,73.6,5.8,84.2,39.9,9,29.1-21,51-7,73.9,10.1,16.5,36.1,22.3,40.4,23.2,10.1,2.1,16.1,3.4,17.9.7h0l.3-.2Z"/>
</svg>