<?xml version="1.0" encoding="UTF-8"?>
<svg id="Layer_4" data-name="Layer 4" xmlns="http://www.w3.org/2000/svg" version="1.1" viewBox="0 0 1500 1500">
  <defs>
    <style>
      .cls-1 {
        stroke-miterlimit: 10;
      }

      .cls-1, .cls-2 {
        fill: none;
        stroke: #069;
        stroke-linecap: round;
        stroke-width: 5px;
      }

      .cls-2 {
        stroke-linejoin: round;
      }
    </style>
  </defs>
  <path class="cls-1" d="M476.6,538.6c-4.4,56.7-11.2,111.5-5.8,168.5,2.6,27.1,4.8,54.3,7.1,81.4,1,12.3,1.4,26.2,2.6,38.4,1.1,11.3.9,21.1,3.9,32.1,3.4,12.2,9,23.7,14.6,35.1,14.6,29.8,34.6,56.8,56.2,81.8,18.8,21.8,38.4,48.2,61.9,64.9,25.7,18.2,63.8,27.1,94.9,28.7,21.2,1,41-6.3,60.4-14.4,32.7-13.6,64.4-29.8,93.7-49.7,14.8-10.1,28.9-21.1,42.1-33.2,13.2-12.1,28.8-22.4,39.4-37.1,9.5-13,13.1-29.4,17.5-44.7,11.8-40.9,16.5-81.4,21.5-123.6,4-31.1,8.7-62.1,11.8-93.3,3.1-30.7,2.7-61.1,3.1-91.9,0-5.7-.3-11.7.4-17.4"/>
  <path class="cls-1" d="M694.2,198.5s-33.6-8.1-114.1,12c-46.3,11.6-77.1,31.4-106.9,68.9-34.3,43.1-54.3,91.5-59.8,145.8-5,48.5-9.5,103.6,7.1,150.4,23.2,65.4-36.8,159.2-85.5,198.6-52.2,42.2-94.6,142.3-41.1,199.7,53.5,57.4,153.1,97.2,118.6,192.1s-81.2,89.7-114.3,89.7-115-28.8-115-28.8"/>
  <path class="cls-1" d="M731,209.1c115.1,49.3,149.1,172.6,180.5,281.5,7.3,25.3,15.4,50.9,15,77.2-.4,30.7-11.9,60.6-28.3,86.2-15.1,23.7-39,42.9-47.8,70.1-6.5,19.9-3.3,41.6-.2,62.3,9,61.9,15.9,124.1,20.2,186.5,2.1,31.1,3.5,63.4-7.9,92.5-8.7,22.4-24.4,41.3-35.9,62.3-13.6,24.8-20.3,51.8-4,77.1,19.2,29.8,55.8,51,90,58,37.3,7.6,68.9-2.5,103.2-15.7"/>
  <path class="cls-1" d="M836.1,1123.7s92.6-87.2,71-203.6c-5.8-31.4-15-66.6-13.2-98.6,2.1-37.6,20.7-72.5,36.9-105.6,22.9-46.6,42.9-95.1,53.9-145.8,20.4-94.4-1.2-183.6-44.1-268.4-36.5-72-119.4-158.2-207.5-152.2"/>
  <path class="cls-1" d="M713.9,149.8c-69.1-12.5-134.2-2.9-192.8,45.8-41.8,34.7-89,102.8-93.8,162.2"/>
  <path class="cls-1" d="M672.2,223.1s-72.8,5.8-120.8,60.4c-47.9,54.6-71.9,95.9-84.4,176.4-12.5,80.5,1,115,1,115"/>
  <path class="cls-1" d="M996.9,569.9"/>
  <line class="cls-1" x1="765" y1="535.9" x2="767.1" y2="512.1"/>
  <path class="cls-1" d="M770,535.1c5.8-17.3,10.1-25.2,10.1-25.2"/>
  <path class="cls-1" d="M779.3,530.1s9.3-16.5,27.3-20.8"/>
  <path class="cls-1" d="M793.7,527.5s6.5-13.2,33.1-15.3"/>
  <path class="cls-1" d="M803.2,528.7s17.1-17.3,42.2-15.9"/>
  <path class="cls-1" d="M815.8,528s16.7-12.7,40.6-13.5"/>
  <path class="cls-1" d="M829.1,528.6s15.8-11.9,39.7-13.8"/>
  <path class="cls-1" d="M843.3,529.3s16-9.5,31.1-12.4"/>
  <path class="cls-1" d="M857,530.8s14.4-11.8,30.9-14.7"/>
  <path class="cls-1" d="M868.5,532.3s14.7-13.2,27.7-15.4"/>
  <path class="cls-1" d="M878.6,532.3s13.3-11.3,24.8-12"/>
  <path class="cls-1" d="M889,535.2s10.8-13.7,24.4-14.4"/>
  <path class="cls-1" d="M897.2,535.9s6.4-7.2,20.8-10.4"/>
  <line class="cls-1" x1="662.4" y1="525.8" x2="663.4" y2="501.4"/>
  <path class="cls-1" d="M657.6,519.6s-1-18.2-5.3-20.1"/>
  <path class="cls-1" d="M647.8,514.8s-6.4-15.7-14-23.4"/>
  <path class="cls-1" d="M631.3,510.5s-4.8-22.5-14.4-26.4"/>
  <path class="cls-1" d="M620.2,510s-8.4-22.5-17.4-28.3"/>
  <path class="cls-1" d="M605.9,503.3s-5.2-16.5-16.7-25.5"/>
  <path class="cls-1" d="M595.7,500.4s-6.1-13.9-19.5-24.4"/>
  <path class="cls-1" d="M583.8,498s-3.8-15.8-15.8-22"/>
  <path class="cls-1" d="M573.7,497.2s-6.2-19.3-20.1-24.6"/>
  <path class="cls-1" d="M563,497.2s-5.8-14-21.9-23.4"/>
  <path class="cls-1" d="M555.8,500.4s-18.5-21.6-30.4-26.4"/>
  <path class="cls-1" d="M539.7,503.8s-12-19.2-29.7-22"/>
  <path class="cls-1" d="M530.1,507.6s-10.5-13.9-27.3-12.5"/>
  <path class="cls-1" d="M524.4,508.1c-1.4,0-18.9-10.2-31.9-1.6"/>
  <path class="cls-1" d="M518.4,513.7s-15-5.5-31.3,2.2"/>
  <path class="cls-2" d="M906.1,618.5c-6.8-8.6-37-34.1-73.7-34.9-36.7-.7-59.5,36.5-59.5,36.5,0,0,23.2-8.5,57.4,4.8,34.1,13.3,75.8-6.5,75.8-6.5h0Z"/>
  <path class="cls-2" d="M785.6,605.8s4.6,1,2.4,11.4"/>
  <path class="cls-2" d="M782.1,608.5s8.3-8.8,29.5-13.4c14.9-3.2,36.2-4.4,65.4,1.1"/>
  <path class="cls-2" d="M812.3,619.1s-7.9-10.4-.7-24"/>
  <path class="cls-2" d="M856.1,593.7s16.4,19.2-5.9,35"/>
  <path class="cls-2" d="M646,610.8c-2.9-23.7-22-42.1-43.6-50.3-11.8-4.5-24.9-6.1-37.3-3.5-13.4,2.9-23.7,11.2-34.1,19.5-1.3,1-2.6,2-3.8,3.1,0,0,21.6,13.5,33.3,12.9,27.1-1.3,56.1-1.7,79.1,16.5"/>
  <path class="cls-2" d="M538.5,570.6s58.9-11.5,83.8.7"/>
  <path class="cls-2" d="M566.9,567.4s-4,15.5,3.6,22.6"/>
  <path class="cls-2" d="M604.3,566.7s10.1,11.1,2.9,24.4"/>
  <path class="cls-2" d="M513.2,565.5s4.3,7.9,16,11.2"/>
  <path class="cls-2" d="M519.1,564.2s6.3,9.2,14.8,9.6"/>
  <path class="cls-2" d="M529.2,562.7s2.2,3.6,7.9,7.5"/>
  <path class="cls-2" d="M551.1,613.1s20.8,19.6,88.4,5.6"/>
  <path class="cls-2" d="M778.6,637.8s50,31.3,90.2,11.5"/>
  <path class="cls-2" d="M671.9,569.8c2,21.5,4.5,61.9,2,83.4-2.5,21.8-12,40.5-16.5,61.8-3.9,18.6-5.5,33.5,5.8,51"/>
  <path class="cls-2" d="M747.6,564s-18.2,14.4-20.6,41.7"/>
  <path class="cls-2" d="M713.6,775.9s27.8-24.4,30.2-48.4"/>
  <path class="cls-2" d="M759.6,731.3s15.3,9.6,16.8,23-1.4,36.4-15.8,39.8"/>
  <path class="cls-2" d="M638.3,725.1c-9,7.4-16.1,18.8-16.8,30.7-.2,4.2,0,8.9,1.5,12.9.8,1.9,1.8,3.8,3.6,5.1,2.8,2.1,4.6.2,7.4-1.2,5.4-2.6,11.9-2.2,17.6,0,10.1,3.7,18.5,11.3,25.6,19.2"/>
  <path class="cls-2" d="M697.8,796s4.3-9.1,22.5-13.9,30.2,8.6,30.2,8.6"/>
  <path class="cls-2" d="M1127.1,590.8s-71.9-116-107.4-180.2"/>
  <path class="cls-2" d="M1013,334.9s59.4,177.3,112.1,213.8c0,0,15.5,11.7,1.8-17"/>
  <path class="cls-2" d="M1006.3,499.7s37.4,170.6,60.4,186.9c23,16.3,33.5,10.5,36.4,1"/>
  <path class="cls-2" d="M984.3,801.7s32.6-3.8,40.3-30.7c7.7-26.8,6.7-44.1,21.1-60.4,14.4-16.3,11.5-33.5,11.5-33.5"/>
  <path class="cls-2" d="M999.6,683.8s27.8,9.6,43.1-30.7"/>
  <path class="cls-1" d="M912.6,61.2s-9.6,16.3-49.8,18.2c-40.3,1.9-65.2-1.9-83.4,12.5"/>
  <path class="cls-2" d="M965.4,89s28.8-9.6,13.4,10.5c-12,15.8-38.7,22-56.7,27.3-30.3,8.9-57.9,13.2-89.1,9.1-31.2-4.2-63.4-6.4-94.2,1.4,8.4-24.8,18.7-49,30.8-72.3,3.3-6.3,6.9-12.8,12.7-16.7,5.5-3.7,12.3-4.8,18.9-5.5,101.6-10.8,189.3,50.8,247.7,129.1,51.9,69.6,71.3,149.4,74.3,234.9,1,27.8,5.8,280.8,5.8,280.8,0,0,0,27.8-18.2,6.7s-62.3-164.9-62.3-164.9c0,0-27.8-67.1-47.9-88.2"/>
  <path class="cls-2" d="M932.8,263.5c22.5,7.6,44.4,18.7,64,32.2,26.2,18.1,44.4,44.7,63.9,69.3,17.1,21.5,44.8,58.1,76.3,54.8,18.2-1.9-13.9-23.6-13.9-23.6"/>
  <path class="cls-2" d="M898.6,611.7s-2.9,5,4,3.6c6.8-1.4,18.7-15.1,18.7-15.1"/>
  <path class="cls-2" d="M893.2,608.1s0,4.7,4.3,3.6,14-14.4,14-14.4"/>
  <path class="cls-2" d="M892.2,604.8s6.8-.7,12.6-7.9"/>
  <path class="cls-2" d="M828.9,173.4s27.8-15.3,86.3,6.7,120.8-25.9,120.8-25.9c0,0,10.3-11.3-8.9-11.3"/>
  <path class="cls-2" d="M893.1,230c40.5-17,74.2,5.4,111.9,17.8,30.4,10,55.8,2.2,76.9-21.6,1.4-1.5,2.7-3.3,2.9-5.3.4-5.2-4.2-8.1-8.2-9.3"/>
  <path class="cls-2" d="M837.8,181s45.1-3.8,90.1,18.2,89.1-9.6,89.1-9.6"/>
  <path class="cls-2" d="M1127.1,590.8s14.5,2.3-1.8-13"/>
  <path class="cls-2" d="M745.5,115.3s-4.3-35,37.9-41.2,52.7-.5,74.3-4.8c12.2-2.4,23.9-7.5,34.3-14.1,4.2-2.6,6-4.5,1.6-7.5-5.6-3.8-15-2.7-20.1-.5"/>
  <path class="cls-2" d="M1110.8,694.3s0,55.5,27,138c26.8,82.4,46,182.1-54.6,256.9-100.6,74.8-161,135.2-104.5,247.3,56.6,112.1,125.6,185,125.6,185"/>
  <path class="cls-2" d="M1045.6,710.6s-10.4,71.8,40.4,151.4c50.8,79.6,34.5,115-9.6,153.4-40.8,35.5-85.1,64.8-119,107.8-20.9,26.5-37.8,56.7-44.7,90-6.4,30.6-6.4,64.8,6.5,94.1,6.9,15.7,17.2,27.6,30.2,38.6,15.6,13.2,29.5,29,42.1,45.1,13.9,17.7,31.3,41.5,29.4,65.3-3.8,49.8-114.1,197.5,1,338.4"/>
  <path class="cls-2" d="M1020.8,1753.4c-70.9-101.6,3.8-237.7,3.8-237.7,0,0-21.1,69-17.3,125.6,2.1,31.6,13.4,112.1,13.4,112.1h0Z"/>
  <path class="cls-2" d="M723.5,142.4s-91.5-70-187.4-11.5c0,0-91.5,67.1-81.5,139.9"/>
  <path class="cls-2" d="M766.6,69.1s-60.4-42.7-93.9-40.7c-33.5,1.9-50.3,33.1-50.3,33.1"/>
  <path class="cls-2" d="M775.7,50.9c-48.3-15-106.9-15.6-151.4,10.5-29,17-56.3,40.6-80.1,64.3"/>
  <path class="cls-2" d="M758.4,84.4c-46.2-25.1-104.4-23.9-153.7-9.2-7.4,2.2-14.8,5.8-19.4,12"/>
  <path class="cls-1" d="M872.3,1001.4"/>
  <path class="cls-1" d="M1079.1,696.3c22.9,54.1,39,126.7,15.3,182.7-17.7,41.7-53.9,78.3-87.4,107.9-20.3,17.9-41.8,34.3-63.7,50.2-21.5,15.5-42.6,29.3-60.2,49.4-22.3,25.4-39.2,56.7-34.1,91.5,12.9,88.4,97.1,85.5,97.1,85.5"/>
  <path class="cls-1" d="M542.8,569.4c-.7-.5-8.9-2.6-12.5-12"/>
  <path class="cls-1" d="M537.1,572.1c-2.6-1.2-10.5-5.5-12.7-11.7"/>
  <path class="cls-1" d="M528.5,579.3s-12.7-2.6-16.5-7.4"/>
  <path class="cls-1" d="M885.9,602.3c-1.2,2-.4,2.6,1.7,2,2.6-.8,5.2-1.7,7.6-3.1,1.8-1,3.6-2.2,4.8-4.2"/>
  <path class="cls-1" d="M884.2,601.3s6.4-.7,12.3-8.1"/>
  <path class="cls-1" d="M898.5,613.4c8.4-3.5,14.4-10.6,20.2-17.3"/>
  <path class="cls-1" d="M892,606.9s5.5,2.4,15.3-8.1"/>
  <path class="cls-2" d="M333.3,1268.2s-58.5,81.5-73.8,159.1c0,0-45.1,93.9-49.8,124.6"/>
  <path class="cls-2" d="M371.3,1253.2s-78.3,103.2-89.8,176c0,0-13.4,70,0,94.9"/>
  <path class="cls-2" d="M997.5,1398.6s-46,77.6-83.4,99.2-99.2,46-116.5,73.3"/>
  <path class="cls-2" d="M476.1,783.7c2.1,35.5-7,73.2-24.6,104-26.7,46.9-81.9,72.3-98.5,126.1-9.8,31.7-2.7,67.1,14.1,95.8s42.6,51.1,70.6,69.1"/>
  <path class="cls-2" d="M480.9,849.8c1.5,37.2-3,75.2-11.4,111.4-7,30.4-16.5,64.5-34.7,90.1-19.1,26.9-32.4,54.8-34.9,88.2-.8,10.9-.5,21.9,1.1,32.7,7.2,50.3,40.1,91.6,81.8,118.7"/>
  <path class="cls-2" d="M507.7,910.2c35.8,90.7,66.7,194,64.3,292.1-1,41.5-9.8,83.4-30.3,119.5-16.7,29.4-41.4,54.7-71.7,69.9-30.7,15.4-71.2,14.8-104.2,7.3"/>
  <path class="cls-2" d="M502.9,904.4c22.4,82.2,40.5,167.8,42.8,253.1,1.7,61.9-39.7,126.3-96.5,151.4"/>
  <path class="cls-2" d="M453.1,1376c-87.7-45.4-160.1-132.7-134.6-236.7,9-36.9,29-70.4,53.2-99.7,33.4-40.5,80.1-69.6,103.9-117.2,7.5-14.9,16.2-35.4,11.1-52.5,4.5,44.6,5,90.2-3.9,134.3-4.3,21.3-10.3,40-21.3,58.5-11.7,19.7-25.2,38.2-37.3,57.6-25.7,41.4-46.6,91.4-38.2,141,8.4,49.5,44.9,86.4,86.3,111.7"/>
  <path class="cls-2" d="M916.1,251.7c59.9-20.9,130.2,26.9,173.9,63,20.5,17,42.9,5.8,21.7-17"/>
  <path class="cls-2" d="M953.9,288.1c32.9,23.3,65,47.9,93.4,76.6,20.6,20.9,34.7,49.1,57.4,68.6,4,3.4,28.1,22.4,31.5,14.3,1.9-4.5-9-15.5-11.7-18.6"/>
  <path class="cls-2" d="M1007.6,421.3c43.9,55.5,71.7,119.1,96.4,184.8,2.3,6.2,14.2,49.3,23.4,50.7,3.6.5,3.6-3.2,3-6.9,0-.5,0-1,0-1.4"/>
  <path class="cls-2" d="M1063.2,730c11.3,70.3,7.1,156.4-35.1,216.2-30.7,43.5-82.3,64.2-123.2,96.1-43.7,34.1-79.6,81.1-76.5,139.2,1.5,27.8,8.6,55.1,19.1,80.8,12.4,30.4,5,64.7-10.9,92.9-22.2,39.2-60.6,67.5-95.4,94.7"/>
  <path class="cls-2" d="M593.4,760.3s-47.4,17.3-46,64.7"/>
  <path class="cls-2" d="M805.2,783.8s53.7,41.2,40.7,82"/>
  <path class="cls-2" d="M573.7,823.6"/>
  <path class="cls-2" d="M573.7,823.6c4.3,16.5,13.3,31.5,19.9,47.1,4.1,9.7,8.9,19.3,15.4,27.7,33.4,43.7,97,55,145.9,32.5,31.9-14.7,54.2-44,75.6-70.8,1.5-1.9,3-3.8,4.4-5.7"/>
  <path class="cls-2" d="M573.7,823.6c8.4,2.2,35.4,7.1,40.3,7.5,23.5,1.9,47.4-1.1,69,10.2,18.1-2.6,36-.8,53.7,3.4,15,3.6,30.2,3.4,58.9,7.7,14.4,2.2,25,4.7,39.3,1.9"/>
  <path class="cls-2" d="M809.5,854.2s-128.9,26.4-211.4-24.4"/>
  <path class="cls-2" d="M576.1,830.8s17.3,20.5,33.5,37.4c16.4,17,29.5,31.3,53.7,36.1,20.5,4.1,42.3,6.8,63.5,4.6,23.1-2.4,37.2-10.1,56.6-22,9.6-5.9,29.7-18.7,47.4-29.7"/>
  <path class="cls-2" d="M610.6,836.5s-1.7,23.4-.3,27.5c0,0,6.3,6.3,10.8,7.9"/>
  <path class="cls-2" d="M623.1,843.9l-1.8,31s7.4,8.4,13.3,8.4"/>
  <path class="cls-2" d="M641.8,850.2l-4.8,7.2c0-6.7-12-13.4-12-13.4"/>
  <path class="cls-2" d="M650.4,851.6s6.2,5.8,6.7,11.5c0,0,18.2-11,30.7,7.7,0,0,9.1-16.3,34.5,1.9,0,0,7.7-12.9,19.6-11.5"/>
  <path class="cls-2" d="M637,857.4l-1.9,29.2s6.7,3.8,17.7,4.3"/>
  <path class="cls-2" d="M657.1,863.1s-3.2,32.1-2.4,35c1.1,3.8,26.2,7.5,31.4,3.1"/>
  <path class="cls-2" d="M687.8,870.8l-.5,29.2s-.5,4.3,7.7,5.3c8.1,1,21.6.5,21.6.5,0,0,4.3,1.6,4.3-5.8s-.5-27.8-.5-27.8"/>
  <path class="cls-2" d="M746.8,863.1v33.3s-12.7,5.8-24.7,4.8"/>
  <path class="cls-2" d="M770.7,861.7v22s-10.1,12.7-20.4,10.8"/>
  <path class="cls-2" d="M784.1,861.7l-.7,18.7s-5,3.8-11.7,4.3"/>
  <path class="cls-2" d="M797.1,857.8l-1,12.9s-2.6,8.9-10.8,8.9"/>
  <path class="cls-2" d="M562.1,986.7c2,16,2.9,32.3,3.1,48.4.2,20.6.9,45.1-6.1,64.7s-22.5,37.1-34.9,51.9c-41.1,49.2-94.4,77.8-152.8,101.5-15.9,6.4-32.2,12.1-48.8,16.4-16.1,4.2-33.3,5.4-49.7,8.5-30.5,5.6-60,16.8-86.6,32.7-26.5,15.8-52.3,34.8-68.6,61.6-12.1,19.9-21.1,44.2-21.8,67.7,0,0-3.9,78.7,16.3,107.5"/>
  <path class="cls-2" d="M448,679.1s-11.5,94.9-70.9,132.3c-59.4,37.4-95.9,98.7-63.3,155.3"/>
  <path class="cls-2" d="M450.8,757.7s-1,9.6-30.7,56.6-116.9,82.4-62.3,182.1"/>
  <path class="cls-2" d="M1236.3,1300.2c44.3-3.5,85.7,12.4,116.2,44.9,47.6,50.8,48.6,110.7,52.1,175"/>
  <path class="cls-2" d="M1111.3,1064.4s-132.3,93.5-116.5,245.9,64.7,159.6,64.7,159.6"/>
  <path class="cls-2" d="M866.8,1052.9s-149.5,128-120.8,258.8c28.8,130.8,93.5,176.8,93.5,176.8"/>
  <path class="cls-2" d="M1121.3,1111.9s-151,175.4-54.6,358"/>
  <path class="cls-2" d="M1145.8,1195.3c-35.5,37.4-64.4,86.1-75.1,137-8.4,40.2-.4,75.3,28.7,104.6,14.7,14.8,31.5,27.4,45.4,42.9,33.9,37.4,48.8,89,49.9,139.4,1,50.4-10.7,100.2-24.7,148.7"/>
  <path class="cls-2" d="M712,217.1s-49.8-75.7-184-3.8c-134.2,71.9-112.1,188.8-112.1,188.8"/>
  <path class="cls-1" d="M685.4,214.2c-27.5-5.1-57.2-3.7-84.1,3.2-66.3,17-126.4,84-148.7,147.3-15.1,42.8-9.8,87.7-4.6,131.7,3.3,27.7,6.8,56.4,15.3,83.1"/>
  <path class="cls-1" d="M444.6,600.9c5.6,61.1-7.9,126.6-57.8,166.2-34.4,27.3-81.1,41.7-99.1,85.4-14.4,34.9-11.6,78.5,5.9,111.8s14.1,22.2,25.2,29.1"/>
  <path class="cls-1" d="M1127.5,815.9c-2.1,17.1-1.4,35.1.5,52.2,2.9,25.8,16.2,48.6,17.3,74.8,1.6,37.6-12.6,76-37.9,103.8-14.4,15.9-32.1,25.7-50.1,37-26.3,16.6-51.5,33.1-73.7,54.9-49.6,48.9-60.4,128-34.5,171.1"/>
  <path class="cls-1" d="M1166.4,1057.4c-59.9,72.4-103.8,182.3-64.9,274.2,20.9,49.4,52.3,93.4,84.1,136.2,16.6,22.4,24.5,50.5,29.7,77.7,20.1,105.7-34.5,208.5-34.5,208.5"/>
  <path class="cls-1" d="M1177.2,1217.8c-25.2.3-40.6,23.9-51.3,44-11.8,22.1-18.2,47.2-17.7,72.3.6,33.1,12.4,65.2,28.5,94.2,12.5,22.6,27.5,43.6,42.5,64.6,14,19.6,28.1,40.1,28.7,65.1"/>
  <path class="cls-2" d="M1159.9,930.9s34.5,25.2,9.3,138c-25.2,112.9-101.4,169.7-117.9,238s24.4,158.9,81.2,217.1c56.8,58.2,43.9,171.1,43.9,171.1"/>
  <path class="cls-2" d="M1149.1,1135.1c-15.6,29.4-1.6,61.3,23.3,79.9,13,9.7,27.7,17.2,40,28,24.8,21.8,24.7,58.7,16.4,88.3-4.6,16.3-10.8,33.2-20.3,47.4-9.6,14.1-22.9,25.3-36.5,35.2-24.7,18-48.8,35.4-69.3,58.3-41.5,46.5-62.5,108.3-56,171,3.2,30.6,9,86.6,39.6,104.3"/>
  <path class="cls-2" d="M475.3,760.1c-28.7,3-57.7,11.5-83.5,24.5-76.8,38.9-126.2,187-41.8,243.4"/>
  <path class="cls-2" d="M746.5,123.1c29.6-.3,59.3-1.9,88.8-4.8,24.4-2.4,49.2-2.9,72.9-9.7,11.5-3.3,23.8-8,32.2-16.8,6.3-6.5,15.8-24.2,7.4-32.4-5-4.8-13.8,3.9-17.3,7.2"/>
  <path class="cls-2" d="M753.2,98.2s-15.3-15.3-88.2-18.2c-72.8-2.9-115,11.5-103.5,24.9"/>
  <path class="cls-2" d="M737.9,158.6c45.2,4.8,89.4,25.5,122.3,56.8,41.3,39.3,74.7,103,85.8,158.9,9.5,48.4,10.9,99.4-1,143.7-18.2,68.1-69,100.6-60.4,166.8,8.6,66.1,13.4,78.6,4.8,125.6-8.6,47-42.2,69-42.2,69"/>
  <path class="cls-2" d="M725.4,174.9s82.4-29.7,153.4,111.2c47.5,94.4,43.1,197.5,43.1,197.5"/>
  <path class="cls-2" d="M707.2,171s-30.7-27.8-138,1-66.1,36.4-66.1,36.4"/>
  <path class="cls-2" d="M715.9,190.2c40.9-15.9,78.5,17.1,102.5,46.7,28.7,35.3,52.5,78.8,64.2,123"/>
  <path class="cls-2" d="M1177.2,1217.8s18.3-2.8,13.1,7.3"/>
  <path class="cls-2" d="M1139.9,1533.2c-19.8,32.6-24.2,75.1-21,112.2,2.8,32.1,11.4,61.6,23.6,91.3,12,29,25.9,58.6,27.6,90.5.2,4.4.3,8.8,0,13.2-1.4,24.9-11.6,49.2-28.5,67.6"/>
  <path class="cls-2" d="M1128.4,1520.8c-28.1,40.4-40.1,90.8-37.4,139.6,3,54.8,32.3,98.5,44.6,150.7,2.1,8.8,3.3,18,1.3,26.8-3,13-13,23.4-24,31.1-14.9,10.4-31.6,18.8-47.8,27.1-26.9,13.7-55,25.6-79.7,43.2-8.2,5.8-15.9,12.3-23.8,18.7"/>
</svg>