<?xml version="1.0" encoding="UTF-8"?>
<svg id="Layer_1" data-name="Layer 1" xmlns="http://www.w3.org/2000/svg" version="1.1" viewBox="0 0 500 500">
  <defs>
    <style>
      .cls-1 {
        fill: none;
      }

      .cls-1, .cls-2 {
        stroke: #069;
        stroke-miterlimit: 10;
      }

      .cls-2 {
        fill: #069;
      }
    </style>
  </defs>
  <path class="cls-1" d="M61,261.5s0-.1.2-.2c-1.4-9.3-2.8-18.7-4.3-28.3-.8,3.3-1.3,6.4-2.2,9.5-.8,2.8-.6,5.4.7,7.9,1.9,3.7,3.7,7.4,5.6,11.1h0Z"/>
  <path class="cls-1" d="M52.9,246.8c0-.6,0-1.2-.2-1.7-5.8-20.2-5.9-40.5-1-60.8,0-.4,0-.7.2-1.5-.4.6-.5.7-.5.8-4.8,11.3-7.6,23.2-7.9,35.4,0,5.1.5,10.2,1.1,15.2.8,6.8,3.6,13,7.2,18.9.4-2.1.8-4.2,1.1-6.3h0Z"/>
  <path class="cls-1" d="M123.8,296v-.8h0c.4-10.1.7-20.3,1.4-30.4.3-5.4,1.1-10.8,1.9-16.1,2.2-14.7,5.7-29,11.2-42.8,2.2-5.6,4.9-11,8.3-16,.6-.9,1.4-1.8,2.4-2.5-11.7,17-16.5,36.5-20.5,56.3.1,0,.2.2.3.3.6-.5,1.3-1,1.8-1.6,4.1-4.9,8.4-9.7,12.1-14.9,21.3-30.6,41.1-62.2,57.2-95.9,8.2-17.2,16.8-34.1,26.9-50.3,8.2-13.1,17.8-24.9,30.4-34.1,1.8-1.3,3.6-2.5,5.7-3.8-2.4-2.1-4.9-3.7-7.9-4.3-6.9-1.6-13.7-.8-20.4,1.1-19.5,5.6-36,16.3-50.2,30.6-15.6,15.5-27.4,33.7-37.1,53.3-13.4,26.9-23.3,54.9-29,84.4-3.8,19.7-5.3,39.6-4,59.6.6,9.4,2.1,18.8,4.8,27.9h0c1.8,5.2,3.6,10.5,5.5,16-.2-5.6-.4-10.8-.6-16h-.2Z"/>
  <path class="cls-2" d="M245.2,31.5c1-.7,1.9-1.3,3-2-.3-.6-.7-1.3-1-1.9-2.9,2.3-3.3,3-2,3.9Z"/>
  <path class="cls-2" d="M249.7,205.3c-15.3,2-30,6.4-44.6,11.2-14.6,4.8-28.8,10.2-42.8,16.4-.5.2-1.1.4-1.6.6-.2-.2-.4-.4-.6-.7.6-.3,1.2-.5,1.6-1,17.9-17.9,35.6-35.9,51.6-55.6,18.1-22.3,32.7-46.8,46-72.1,6.5-12.4,12.4-25.1,19.9-37,.1-.2.1-.6.2-.8-.1,0-.3,0-.4-.2-.5.7-1.1,1.5-1.5,2.2-5.2,9.6-10.4,19.1-15.4,28.8-12,23.4-25.1,46-40.6,67.3-11.6,15.9-24.8,30.3-38.4,44.5-12.5,13-24.7,26.2-38.8,37.5-.2.2-.3.5-.5.8l.3.3c.5-.3.9-.6,1.4-1,4-3.5,8-7,11.9-10.6.4-.3.8-.8,1.3-1,3.9-1.6,7.9-3,11.8-4.7,21.5-9.1,43.4-16.5,66.1-21.9,11.4-2.7,22.9-3.2,34.5-4.2,12.6-1.1,24.5-4.3,35.4-10.9,3.9-2.4,7.8-4.8,11.7-7.1.4-.3.9-.4,1.4-.6v-.4c2.2-1.3,4.5-2.5,6.6-3.9,14.6-9.6,30.5-16.2,47.4-20.3,6.5-1.6,13.1-3.2,19.9-2.8.2,0,.5-.2.5-.2-.3-.8-.6-1.4-.6-2.1-.2-1.5-.2-3.1-.4-4.6-2-14.9-6.2-29.3-11.8-43.2-3.3-8.3-7.4-16.2-12.8-23.4-.5-.7-1.1-1.3-1.6-1.9-.2,0-.4.3-.6.4,8.4,10.5,13.7,22.6,18,35.1,4.3,12.6,7.6,25.4,8.4,38.5-6,.9-11.5,1.7-17.2,2.6v-1c-1.2-15.7-5.5-30.6-12.5-44.7-1.3-2.6-2.9-5.1-4.5-7.6-.4-.6-1.1-1.1-1.6-1.6,10.9,17,16.4,35.5,18,55.4-.9.2-1.4.4-2,.5-13.5,3.4-26.5,8.1-38.5,15.2-5.1,3-10.2,6.2-15.3,9.2h0c-3,2-6.1,3.8-9,5.7-13.1,8.7-27.7,12.5-43.2,13.4-5.7.4-11.5.7-17.2,1.5h.1Z"/>
  <path class="cls-2" d="M298,48.5c-1.7-1.2-2.8,0-3.9.9-4,3.6-7.5,7.6-10.4,12-.2.3-.2.6-.3.9.1,0,.2,0,.4.2.3-.4.6-.8.9-1.1,2.9-3.4,5.7-6.8,8.7-10.2.7-.8,1.5-1.4,2.3-1.9.3-.2.8-.2,1.2-.2v1.2c-.1.5-.7,1.2-.5,1.4.9,1.4,0,2.6-.3,3.8-.9,2.4-2.1,4.8-3.1,7.2-.1-2,0-3.8.1-5.6,0-1.2-.9-1.7-2-1.7s-1.5.4-1.6,1.4c.5,0,.9-.5,1.1-.4.6,0,1.5.4,1.6.8.4,2.8-.5,5.4-1.6,7.8h-.5v-6.1h-.4c-.2,3-.5,6.1-.8,9.5.7-.5,1.4-.8,1.8-1.3.8-.9,1.6-1.8,2.2-2.8.7-1.1,1.5-1.3,2.5-.8,1.5.7,3.1,1.5,4.6,2.4,7.2,4.5,13.4,10.1,19.2,16.2h0c16.2,17.4,28,37.5,36.6,59.5.2.4.4.7.6,1.1.1,0,.3,0,.4-.1v-1c-.5-1.5-1-3-1.6-4.4-5.2-11.9-11.4-23.4-18.5-34.2-5-7.5-10.4-14.6-16.6-21v-.4c-.5-.4-1-.8-1.4-1.2-5.9-6-12.2-11.6-19.4-16-1.6-1-1.8-1.4-.5-2.7,4.3-4.6,9.5-7.1,16-6,1.6.3,3.1.8,4.7,1.3v.2c4.7,1.9,8.9,4.4,12.5,8.4-.4-2.7-5-6-12.5-9.4h0c-7.7-3.5-17.3-.9-22.7,6.9-.7-.2-1.4-.5-1.9-.7,1.1-3.2,2.5-6.1,3.1-9.3.5-2.9,2-5,4-6.9.7-.6,1.4-1.3,2.2-1.9,4.8-3.8,10.1-6.7,16-8.2h0c3.1-.7,6.3-1.5,9.4-1.8,10.2-.7,19.5,1.6,27,8.9,4.3,4.1,7.6,8.9,9.9,14.4,1.1,2.5,1.6,5.2,2.3,7.8,0,.3.2.6.2,1h.5c0-1,0-2-.3-3-1.7-8-6.1-14.6-11.6-20.3-8.3-8.5-18.9-10.6-30.3-9.4-2.6.3-5.3.9-7.9,1.4v.2c-8.2,2.6-15.4,6.8-21.1,13.4l-.3-.2Z"/>
  <path class="cls-2" d="M292.7,295.2h-.3c-.4.3-.9.7-1.3,1,0,.2.2.4.2.5,1-.3,2.1-.5,3.1-.8h1.2c.4-.1.8-.3,1.2-.4,2.3-.1,4.6-.2,6.9-.4.5,0,1-.2,1.5-.2-.4-.5-.7-.6-1-.6-2.2,0-4.4,0-6.6.2-.7,0-1.7.5-2.2.2-1.2-.9-1.9,0-2.7.5h0Z"/>
  <path class="cls-2" d="M314.2,38.9c1.6.3,3.3.6,4.9,1h0c1.5,1,3.1,1.8,4.6,2.6-.9-1.7-2.4-2.5-3.9-3.2v-.3c-1.8-.5-3.7-1-5.6,0Z"/>
  <path class="cls-2" d="M140.9,290.9h-.4c-.4,1.7.1,3.4.4,5.1h0c1.7,5,3.3,10,5,15,0,.2.4.4.8.7-1.7-5.5-3.4-10.6-5-15.8h0c-.3-1.7-.6-3.4-1-5.1h.2Z"/>
  <path class="cls-1" d="M141,48.7c-.3.6-.5,1.3-1,1.7-25.5,20-45.2,44.7-59.3,73.8-8.4,17.3-14.3,35.5-19.1,54.1-4.3,16.6-7.3,33.5-7.1,50.7,0,.6,0,1.2.2,1.7h.5c0-.6,0-1.2.2-1.8.4-7,.6-14.1,1.3-21,1.3-12.3,4.2-24.3,7.6-36.2,5.5-19.6,12.2-38.7,22.1-56.6,16.8-30.4,39.3-55.6,68.9-74.2,14.3-9,29.5-16.1,46.2-19.5,10.7-2.2,21.3-2.1,31.4,3,4.2,2.1,7.4,5,9.8,9.4.4-.8.8-1.5,1.3-2.4.7.9,1.2,1.5,2,2.4,0-2.4,1.5-2.8,3.1-3.5.2,1.9.5,3.5.7,5.1h.7c-.1-1.8-.2-3.6-.4-5.6,3.6-1.5,7.3-2.6,11.4-.6-.4-.6-.8-1-1.3-1.2-3.7-1.6-7.2-.1-10.8,1-.4-.8-.7-1.5-1.3-2.6,2.4-1,4.5-2.1,6.8-2.8,2.4-.8,4.7,0,7,1.4-1.4-3.6-6.3-3.2-13.8.7-2.3-2.1-4.3-4.3-6.7-6.1-8.2-6.1-17.7-8.7-27.7-9.1-3.8-.1-7.7.6-11.5,1.3-17.3,3.5-32.9,10.8-46.8,21.6-4.7,3.6-8.9,7.6-12.4,12.4-.7.9-1.2,1.9-1.8,2.9h-.2ZM248.2,29.4c-1.1.7-2,1.4-3,2-1.3-.9-.9-1.6,2-3.9.4.6.7,1.3,1,1.9ZM179.9,19.7c8.7-3.4,17.5-6.6,26.9-7.7,12.9-1.5,24.8,1.2,35.2,9.3,1.8,1.4,3.3,3.3,4.9,5-1.3,1.3-2.3,2.4-3.1,3.3-20.1-13.3-41.6-15.8-64.8-9.3.6-.3.8-.5,1-.6h0ZM161,30.4c-1.5,1.9-3,3.7-4.5,5.6.1,0,.2.2.4.4.2,0,.6-.2.7-.4,5.6-8.7,14.3-12.6,23.8-15.4,10.5-3.1,21.2-3.8,32-1.9.3,0,.5,0,.8.2.3,0,.5.2,1.1.4-7,0-13.5.8-19.9,2.6-17,4.7-32.6,12.5-47.1,22.5-1.9,1.3-3.9,2.7-5.8,4h-.2c1.1-3.9,13.9-16.3,18.7-18h0Z"/>
  <path class="cls-2" d="M196.6,224c11.9-5.3,24.4-9,37.1-11.9,10.1-2.3,20.3-3.9,30.7-3.2,5.7.4,7.5,1.8,9.3,7.2,0,.3.2.6.3.9.6,3.3,1.3,6.6,1.9,10,.3,1.5.4,3,.6,4.5h.6v-1.6c-.5-3.5-.9-7-1.6-10.5-.6-2.6-1.7-5.2-2.8-7.7-.9-2-2.7-3.2-5-3.3-3.7-.2-7.4-.8-11.1-.4-7.8.8-15.6,1.7-23.2,3.4-12.5,2.7-24.7,6.4-36.5,11.6-5.5,2.4-10.4,5.7-14.6,10.1-4.3,4.5-5.8,9.7-3.6,15.7.9,2.5,1.8,4.9,2.7,7.4.2.6.2,1.2.3,1.9-.1,0-.3.1-.4.2-.5-.5-1-1-1.5-1.6-.7-1-1.2-2-1.8-3-2.5-3.9-5-7.9-7.7-11.7-1.3-1.9-3.2-2.6-5.5-2.9-3.8-.5-7.4.4-10.9,1.6-.4.1-.7.4-1.1.6l.2.4c.4,0,.8-.1,1.2-.2,1.7-.4,3.3-1,5-1.2,7.3-.9,9,0,12.3,5,0,0,.1.2.2.3,2.5,4,4.9,8,7.4,11.9.7,1.1,1.6,2.5,3,1.7,1.2-.7.5-2.1.1-3.2-.8-2.3-1.7-4.6-2.6-6.9-2.3-6-.7-11.2,3.7-15.6,3.9-3.9,8.3-6.9,13.3-9.2v-.3Z"/>
  <path class="cls-2" d="M273.2,263c3.7-9.4,4.7-19.2,5.3-29.2,0-.5-.1-1-.2-1.5h-.5c0,.5-.2,1-.2,1.5-.5,9-1.6,17.8-4.4,26.4-2.4,7.3-7,12.7-13.7,16.3-1.8,1-3.6,1.9-5.5,2.7-12.7,5-26,8.1-39.5,10.3-5.9.9-10.7-.8-14.7-5.1-2.1-2.3-4.2-4.5-5.9-7-3.2-4.4-6.2-9-9.3-13.6-.4-.5-.8-1-1.3-1.5-.1,0-.3.2-.4.3.1.4.2.7.4,1.1,3.4,5.1,6.7,10.2,10.4,15.2,2.1,2.9,4.7,5.4,7.3,7.9,3.4,3.3,7.6,4.4,12.3,3.8,9.3-1.2,18.4-3.4,27.4-5.9,6.5-1.8,13-3.9,18.9-7.2,6.1-3.4,10.9-7.9,13.5-14.6h.1Z"/>
  <path class="cls-2" d="M58.4,152.6c1.2-7.3,3.8-14.3,6.3-21.3,9.6-27,24.7-50.4,45.2-70.3,10-9.6,21-17.7,34-22.8.3,0,.5-.4.8-.6,0,0-.1-.3-.2-.4-.5.2-1,.3-1.5.5-9.3,3.8-17.6,9.1-25.4,15.4-14.1,11.5-25.5,25.3-35.4,40.5-10,15.3-17,31.9-22.3,49.2-1,3.2-1.6,6.5-2.4,9.7v1.4c.4-.1.5-.1.5-.2,0-.3.3-.7.3-1.1h0Z"/>
  <path class="cls-2" d="M194,192.8c19-21,36-43.6,49.8-68.4,4.3-7.6,8.2-15.5,12.2-23.2.2-.4.3-1,.5-1.5l-.4-.2c-.2.3-.5.6-.6,1-9.5,20.3-20.8,39.5-34.1,57.6-19,26-41,49.4-64,71.9-.7.7-1.4,1.2-2.2,1.8.2.2.4.4.6.7.4-.3.9-.7,1.2-1.1,12.3-12.9,25-25.5,36.9-38.7h.1Z"/>
  <path class="cls-2" d="M262,202.7l.3-.4c-.4-.4-.7-.8-1.1-1.2-3.4-3.1-7.2-5.5-11.4-7.4-4.6-2-9.4-2.6-14.3-2-13.3,1.5-25.9,5.8-38.6,9.9-.5.2-.9.5-1.4.8,0,.1.1.3.2.4.5-.1,1-.3,1.6-.4,10.4-3,20.7-6.1,31.1-8.8,4.7-1.2,9.6-1.8,14.5-1,7,1.1,12.8,4.6,17.9,9.2.4.3.8.6,1.2.9h0Z"/>
  <path class="cls-2" d="M310.8,221.5c.1,0,.3,0,.4-.1v-.7c-2.4-5.5-4.8-11-7.2-16.5-.7-1.5-1.8-1.9-3.3-1.5-6.8,1.6-13.5,3.5-19.9,6.4-1.3.6-1.9,1.4-2,2.9-.2,5.8-.6,11.7-.9,17.5,0,.4.1.9.2,1.4h.5c0-.4.2-.9.2-1.3.3-5.7.7-11.5.9-17.2,0-1.4.6-2,1.8-2.6,6-2.7,12.3-4.5,18.7-6,2.4-.6,2.5-.6,3.5,1.7,2.2,4.8,4.2,9.7,6.3,14.6.2.5.5,1,.7,1.5h0Z"/>
  <path class="cls-2" d="M252.4,33.9c0,.2.2.3.3.5,9.3-5.6,19.5-7.2,30.1-6.7,10.6.5,20.8,2.4,29.6,8.8.2-.3.5-.6.7-1-.5-.2-1-.3-1.5-.5-3.2-1.6-6.3-3.7-9.7-4.8-10.4-3.5-21.2-4.3-32.1-2.7-5.4.8-10.7,2.3-15.5,5-.7.4-1.3.9-1.9,1.4Z"/>
  <path class="cls-2" d="M177.5,220.2c14.4-7.5,29.5-13.1,45.9-14.7-5-2.4-42.6,9.7-45.9,14.7Z"/>
  <path class="cls-2" d="M257.8,203.8c-2.6-4.4-38.5-3.7-44.8.7,14.8-2.7,29.7-5,44.8-.7Z"/>
  <path class="cls-2" d="M305.5,238.3c-4.3-5.6-8.4-10.9-9.7-18.1-1.3,3.2,6,16.8,9.7,18.1Z"/>
  <path class="cls-2" d="M307.7,183c1.1-2.4,1.9-5,3.2-7.3,1.3-2.3,3-4.5,4.6-6.9-3.2,1.1-8.9,11.8-7.8,14.2h0Z"/>
  <path class="cls-2" d="M252.5,191c0,.1-.2.3-.2.4,2.3,1.2,4.6,2.4,6.9,3.6,0-.1.1-.3.2-.4-2-1.8-4.4-2.8-6.9-3.7h0Z"/>
  <path class="cls-2" d="M416.6,398c-.1,0-.3-.2-.4-.2-3.4-.2-6.9-.3-10.3-.6-7.4-.7-14.4-2.8-21-6.3-1.5-.8-3.4-1.5-4.3-2.8-2.5-3.4-6.1-4.8-9.9-5.7-2.1-.5-4.2-.8-6.4-1.2.3-1.3.7-2.5,1-3.8,2-7.5,4.4-14.9,8-21.9,4.4-8.5,8.4-17.3,12.1-26.1,6.2-14.7,9.6-30.1,10.3-46.1.3-8.8.4-17.6.5-26.4.1-8-.2-16-1.9-23.9-.2-.7,0-1.6.3-2.3,2.9-7,5.3-14,6.9-21.4.3-1.3.2-2.6.3-3.9h-.6c-1,8.7-4.1,16.7-7.4,25.1-.3-1.1-.5-1.8-.7-2.4-.5-1.6-.7-3.4-1.7-4.6-.9-1.1-.7-1.9-.4-2.9,1.9-6.8,3-13.8,3.6-20.9,0-.9,0-1.7-.1-2.6h-.6c-.3,9.8-2.2,19.4-5.3,28.8.2,0,.4.1.6.2.4-.9.8-1.7,1.3-2.8.4,1.1.8,1.9,1.1,2.8.8,3.1,1.7,6.2,2.3,9.3,1.6,8.4,1.8,17,1.5,25.5-.2,4.8-.6,9.7-.4,14.5.5,13.1-1.5,25.8-4.9,38.4-3.7,13.5-9.2,26.2-15.8,38.5-3.9,7.3-7.2,14.8-9,22.8-.5,2.1-1.1,4.1-1.6,6.2-1.5-.1-2.9-.3-4.3-.4-11.6-.3-23.2-.6-34.8-.8-1.5,0-3,0-4.4-.2h-1.8c-5.5,0-11.1-.2-16.6.1-6.3.3-12.5,1.1-18.7,1.8-1.6.2-3.1,1.2-4.5,2-.4.2-.6.8-1,1.5,1.9-.9,3.3-1.9,4.9-2.3,2.2-.6,4.5-1.1,6.8-1.2,9.6-.4,19.2-.6,28.8-.9h1.4c.6,0,1.3.1,1.9.2,11,.2,21.9.2,32.9.6,5.8.2,11.7,1,17.4,2.1,7.3,1.4,10.2,5.4,10.1,12.7,0,4.6-.6,9.1-.9,13.7v1.9h.7c.5-7.2,2.1-14.4.4-22,5.3,3.6,11.1,5.5,17.1,6.9,7.9,1.9,16.4,2.4,17.9,1.2l-.4-.2Z"/>
  <path class="cls-2" d="M384.5,441.1c-1-7.2-1.8-14.4-2.8-21.5-.6-3.9-2.5-7.1-6.3-8.7-2.3-1-4.6-1.8-6.9-2.7-.8-.3-1.7-.5-2.8-.9,2.1-1.5,4-2.8,5.8-4.1-.1-.2-.3-.4-.4-.6-1.8,1.2-3.7,2.5-5.5,3.6-.6.4-1.5.6-2.1.5-8-1.4-16.1-2.9-24.1-4.3-6.5-1.1-13-2.1-19.5-3.2v-.2c-1.8-.1-3.6-.3-5.4-.4v.7c1.6.2,3.1.4,4.7.6h0c11.2,1.9,22.4,3.6,33.5,5.6,6.7,1.3,13.3,3.1,19.8,5,5.6,1.6,8.2,5.7,8.7,11.5.4,4.8,1.1,9.6,1.8,14.4.9,6.2,1.7,12.5.1,18.6-2.4,9.3-7.8,17-14.8,23.6l-.9.9c.1.1.2.3.3.4.5-.4,1.2-.6,1.6-1.1,1.9-2,3.8-3.9,5.5-6.1,7.3-9.2,11.4-19.5,9.7-31.5h0Z"/>
  <path class="cls-2" d="M386.7,162c-4.5.5-9.2.6-13.6,1.5-13.9,3-26.9,8.6-39.3,15.5-5.1,2.9-9.9,6.4-14.8,9.6v.4c-1.9,1.7-3.8,3.4-5.6,5.3-3.8,4.2-5.3,9.2-4,14.6.9,3.9,2.4,7.8,3.7,11.6.1.3.4.6.7.9.1,0,.3-.1.4-.2-.1-.5-.3-.9-.4-1.4-.9-2.6-1.9-5.1-2.8-7.7-1-3-1.4-6.2-.8-9.4,1.1-5.9,5.1-9.7,9.5-13.2v-.2c14.9-11.2,47-25.9,55.2-25.1.3,9.8-1.4,19.5-2.8,29.2.7-1.7,1.1-3.4,1.4-5.1,1.2-7.6,2.3-15.3,2.2-23.1,0-.7-.1-1.4,1-1.5,3.6-.3,7.2-.6,10.8-.8,1.4-.1,2.5.5,3.3,1.6,2.1,2.5,3,5.5,3.1,8.6.2,6.4.3,12.8.4,19.2v1.8h.5c0-.4.3-.8.3-1.2v-17.9c0-3.6-.8-7-2.8-10.1-1.3-2-3-3.2-5.5-2.9h-.1Z"/>
  <path class="cls-2" d="M350.9,56.3c-9-7.6-19.1-12.8-31.1-13.7h-.7c-5.1,0-9.8,1.2-13.9,4.5-4,3.1-8.8,10.4-8.3,12.7.3-.4.5-.7.7-.9,1.5-2.4,2.7-5,4.4-7.2,4.3-5.7,10.1-8.2,17.1-8h0c1.1,0,2.3,0,3.4.2,8.3,1.1,15.7,4.4,22.5,9,8.6,5.8,15.3,13.5,21.2,21.9,8,11.5,14.3,23.9,19.9,36.6,3.6,8.2,6.9,16.5,8.2,25.5,0,.2.2.4.3.6.3-.6.4-1.2.3-1.7-.6-2.7-1-5.4-1.8-8-4.9-16-12.4-30.7-20.8-45.1-5.8-9.8-12.5-18.9-21.3-26.3h-.1Z"/>
  <path class="cls-2" d="M386.8,228.7c-.1-.1-.2-.2-.3-.4-.4.2-.8.4-1.1.7-1.7,1.3-3.4,2.6-5.2,3.8-10.4,7.4-21.7,12.9-34.5,14.6-9.3,1.3-17.1-1.1-23.1-8.6-.9-1.1-1.8-2.2-2.8-3.4v-.2c-1.5-2-2.9-4-4.4-6-.2.2-.4.3-.6.5,1.4,2,2.9,3.9,4.3,5.9v.6c.7.7,1.4,1.5,2,2.2,3.1,3.7,6.6,7,11.2,8.7,5.1,1.9,10.5,1.7,15.7.8,14.5-2.4,26.7-9.4,38-18.4.3-.3.5-.6.8-.9h0Z"/>
  <path class="cls-2" d="M350.6,376.5c-.1.5-.2,1-.3,1.5.1,0,.3,0,.4.1.2-.4.4-.7.5-1.1,1-3.7,2.2-7.3,2.9-11,.4-1.8.3-3.8,0-5.6-.6-4.6-3.5-7.7-7.2-10-7-4.3-14.2-8.4-21.4-12.5-1.9-1.1-3.9-2-5.9-2.9h0c-.2-.2-.4-.2-.6-.3h-.1c-2.4-.7-4.7-1.5-7.1-2.2-1.3-.4-1.6-.2-1.9.4,3,.9,6,1.9,9.1,2.9,9.3,5.2,18.6,10.3,27.7,15.8,5.3,3.2,7.7,8.2,6.4,14.4-.7,3.6-1.8,7.1-2.7,10.6h.2Z"/>
  <path class="cls-2" d="M338.8,155.2c-5.7,0-10.6,2.1-14.5,6.4-1.7,1.9-3.5,3.6-5.3,5.4v.3c-3.9,4.4-7.1,9.4-9.1,15-.2.4,0,.9-.1,1.4.5-.1.7-.3.8-.5,1.4-4.7,3.9-8.8,6.8-12.6.7-.9,1.6-1.7,2.3-2.5v-.4c2.8-2.8,5.6-5.6,8.6-8.2,1.4-1.2,3.3-2,5.1-2.5,6.7-1.5,13.5-1.1,20.2-.8h1.7v-.5c-.5,0-1-.3-1.5-.3-5,0-10.1-.2-15.1-.1h.1Z"/>
  <path class="cls-2" d="M329,64.8c7.8,6.3,13.4,14.5,18.8,22.7.3.4.5.8.8,1.2.1,0,.3-.2.4-.2-.2-.5-.4-1.1-.7-1.6-1.4-2.1-2.9-4.3-4.4-6.4-4.8-6.6-9.8-13.1-16.5-18-2.4-1.8-5.1-3.2-7.8-4.8v-.4c-1.7-.2-3.2-1.6-5.2-.8l4.5,1.5v.2c3.3,2.1,6.8,4,9.9,6.5h.2Z"/>
  <path class="cls-2" d="M354.7,415.3c-1.3-.6-2.6-1.3-4-1.4-10.6-.8-21.1.2-31.6,1.3h0c-8.4.6-16.6,2.2-24.7,4.5-.4.1-.7.4-1.1.6,0,.1.1.3.2.4.5,0,.9-.2,1.4-.3,2.7-.6,5.3-1.5,8-1.9,5.7-.9,11.3-1.6,17-2.4h0c8.8-1,17.7-1.8,26.6-1.5,3,0,6.3-.4,8.9,2,0-.6-.2-1.1-.6-1.3h0Z"/>
  <path class="cls-2" d="M339.6,164c-.8,0-1.4.1-2,.4-6.5,3.5-12.7,7.3-18.6,11.9v.2c-3.6,2.7-6.8,5.9-9.2,9.8,3.3-3.1,6.6-6.2,9.9-9.4v-.2c6.1-4.7,12.6-8.7,19.4-12.2.2,0,.3-.4.4-.6h.1Z"/>
  <path class="cls-2" d="M338.2,447.8c-6.4,1.8-12.8,1.9-19.1,2.2h0c-2.9.2-5.8.3-8.7.5v.5h9.4c2.8-.2,5.6-.4,8.4-.7,2.9-.3,5.7-.9,8.5-1.5.5-.1,1-.6,1.5-1h0Z"/>
  <path class="cls-2" d="M321.3,451.1c-.7.7-1.5,1.4-2.2,2.1h0c-.3.2-.5.4-.7.6-1.5,1.6-2.8,3.2-4.3,4.8-7.5,8.2-16.8,13.1-27.8,14.9-.2,0-.4.2-.6.3,0,.2,0,.3.1.5,4.4,0,8.4-2.1,12.9-3.3-1.4,6.6-4.8,12.2-6.8,18.3.4-.1.7-.3.8-.6,1.8-4.2,3.7-8.4,5.5-12.7.7-1.7,1-3.5,1.6-5.6,6.9-3,12.5-8.4,17.8-14.1-.1,3.9-.3,7.5-.3,11.2-.1,6.4-1.4,12.6-4.6,18.2-.6,1.1-1.1,2.2-1.7,3.4.1,0,.2.2.3.3.3-.2.6-.4.8-.7,4.4-7.2,6.3-15.1,6.1-23.5,0-3.1.4-6.2.7-9.3,0-.6.6-1.1,1-1.6v-.4c.7-.7,1.3-1.5,2-2.2l-.5-.5h0Z"/>
  <path class="cls-2" d="M339.3,189.6h-.7c-3,2.7-6.1,5.4-8.9,8.3-3.1,3.2-5.9,6.6-8.9,10-.3.3-.6.8-.7,1.2-.2,1.1-.2,2.2-.4,3.2,0,.6-.3,1.3-.4,1.9.2,0,.4.1.6.2.3-.9.9-1.8.9-2.7,0-3.3,2.2-5.4,4.1-7.7.8-.9,1.6-1.7,2.4-2.6,1.3-1.6,2.8-2.8,5-2.4-.4-.4-.8-.7-1.4-1.2,2-2.6,4.9-.2,7.2-1v-.5c-1.2-.2-2.5-.4-3.7-.6v-.5c2.9.2,5.7.4,8.5.6v.3c-3.6.9-7.2,1.9-10.8,2.8.6.5,1.2,1,1.8,1.6-.6.7-1.4,1.6-2,2.3-.4-.2-.9-.4-1.4-.5,0-.4-.2-.9-.3-1.7-2.2,2.1-4.2,3.7-5.6,5.9l.4.4c1.4-1.5,2.7-2.9,4.1-4.3.7.4,1.1.7,1.4,1h-.3c.3.7.5,1.4.8,2,.6-.4,1.3-.7,1.9-1.2.1,0,0-.4.2-.6.4-.7.7-1.4,1.1-2.2s.7-1.5,1.2-2.7c1.2-.3,2.9-.7,4.6-1.2.9-.3,1.2,0,1.5.9,1.7,4.7-.4,10.6-4.8,13-4.1,2.3-8.7.8-10.8-3.3-.1-.3-.4-.5-.6-.7-.2,0-.3.2-.5.2.2.7.3,1.4.7,1.9,1.2,2,3,3.2,5.3,3.7,5.3,1.2,11-2.8,11.8-8.7.4-2.4,0-4.8,0-7.3.9-.3,2.2-.7,3.6-1.1v-.8c-2.9-.4-5.9-.7-9.2-1.2,2.1-.9,3.7-1.5,5.7-1,2.7.8,5.6,1.2,8.3,1.8.3,0,.7.3.9.1,1.5-1.1,3,.2,4.5-.1v.4c-1.9.3-3.7.5-5.6.8v.6c1.3,0,2.7-.1,4-.2-.1.9-.2,1.7-.3,2.5,1.4-.8.7-3.8,3.6-2.7-.8,1.7-1.5,3.4-2.3,5.1.2,0,.4.2.5.3.3-.4.6-.8.8-1.2.6-1.3,1.2-2.5,1.8-3.8.2-.4.5-.8.8-.9,2-.7,4.1-1.3,6.1-2,.5-.2,1-.5,1.7-.8-.4-.2-.5-.3-.6-.3-.3,0-.6.1-.9.2-5.3,1.4-10.7,2-16-.2-.3-.1-.8.2-1.2.4v.4c-1.8-.4-3.6-.8-5.5-1.2v-.6c2.5-.3,5-.7,7.5-.7s4.9.6,7.7.9c-.6-.4-1-.8-1.4-.9-7.5-2.3-14.6,0-21.8,2.4,1.3-1.5,3.1-2.4,3.8-4.2l.2.2Z"/>
  <path class="cls-2" d="M398.2,165.1c0,1.6-.6,3.3-.3,4.9,2.5,17.7.9,35-4.9,51.9-.2.4-.2.9-.3,1.4.5,0,.7,0,.8-.2,5.1-13.3,6.6-27.2,6.6-41.3,2.9,8.4,3.6,17.1,3.1,25.9-.5,8.8-2.8,17.2-6.4,25.3.9-1,1.7-2.2,2.2-3.4,5.7-13.9,6.5-28.1,3.5-42.7-.8-4-2.8-7.7-3-11.9,0-1.7-.5-3.4-.7-5.1-.1-1.2-.3-2.4,0-3.5,1-2.9-.1-5.4-1-8-.2-.5-.9-.9-1.4-1.3-.1.1-.3.3-.4.4.2.3.4.6.6.9,1.4,2.1,1.7,4.4,1.6,6.9v-.2Z"/>
  <path class="cls-2" d="M443.9,368.9c0-.2-.1-.3-.2-.5-7.1,2.3-14.4,3.3-21.8,3.2v-.9c-10,1.1-19-1.7-27.9-5.8,5.4,4.2,12,5.2,18.8,6.6-.6.1-.8.2-1,.2-9.1.8-18,0-26.8-2.2-4.9-1.2-9.9-2.3-14-5.6,0,0-.2,0-.7.3,1,.8,1.8,1.7,2.8,2.1,3.9,1.4,7.9,2.7,11.9,4,.5.2,1.3.5,1.5.9,2.4,6.1,7.1,10.6,11.1,15.5.2.2.5.2.8.4-3.7-5.4-8.5-9.9-11.1-16.1h.7c7.2,1.2,14.3,2,21.6,1.6,4.2-.2,8.4-.4,12.5-.3,6.8.1,13.5-.7,20-2.6.6-.2,1.2-.6,1.8-.9h0Z"/>
  <path class="cls-2" d="M358.7,484.3c4.6-7.1,9.1-14.3,13.7-21.5.2-.4.4-.9.5-1.3-.2,0-.3-.2-.5-.2-.3.4-.7.9-1,1.3-4.4,6.9-8.8,13.8-13.3,20.8-1.9,3-4,3.5-7.1,1.6-4.4-2.7-7.4-9.1-6.5-14.3.6-3.5,1.3-7,2-10.6,0-.4,0-.9.1-1.3-.1,0-.3,0-.4-.1-.2.4-.4.9-.5,1.3-.5,2.1-.8,4.2-1.4,6.3-.2.6-.5,1.3-1,1.7-4,3.3-7.4,7.1-9.7,11.7-1.3,2.5-1.7,5.5-2.5,8.2-.1.4,0,.9.1,1.3.2,0,.4,0,.6.1.4-8.9,5.7-14.8,11.8-20.3.1.6,0,1.1,0,1.7-.9,5.6,2.5,12.6,7.5,15.2,3.1,1.7,5.6,1.1,7.5-1.8v.2Z"/>
  <path class="cls-2" d="M465,401.4c1.4-.4,1.2-1.3.8-2.4-2.6,2.5-4.5,5.5-6.2,8.6-14.8,25.8-25.8,53.2-34.8,81.4.2,0,.5.2.7.3.2-.5.4-1,.5-1.5,6.1-19.5,13.6-38.6,22.3-57.1,4.6-9.7,9.4-19.2,15.4-28.1.3-.5.8-1.1,1.3-1.3h0Z"/>
  <path class="cls-2" d="M346.9,46.8c-7.7-5.8-16.3-9.6-26.3-8.9-.4,0-.7,0-1.1.2v.5c.7,0,1.4.2,2.1,0,4.5-.3,8.9.6,13.1,2.2,7.8,3,14.2,7.9,19.9,13.9,11.1,11.5,18.7,25.3,25.9,39.4.2.4.5.8.7,1.3.2,0,.4-.2.6-.3-.5-1.2-.9-2.5-1.6-3.7-4.5-7.8-8.7-15.7-13.6-23.2-5.3-8.2-11.8-15.6-19.7-21.5Z"/>
  <path class="cls-2" d="M419.3,352.4c.4.6.7,1.3,1.1,1.6,1.5.8,3,1.6,4.6,2.2,18,6.8,36.6,11.6,55.2,16.3h1.2v-.5c-.3-.1-.6-.3-1-.4-5.4-1.4-10.8-2.7-16.2-4.2-13.2-3.6-26.4-7.1-39.2-12.2-1.9-.8-3.7-1.8-5.8-2.9h0Z"/>
  <path class="cls-2" d="M362.1,157c-1.9-12.9-6-25.1-11.5-36.9-3.2-6.8-6.9-13.3-11.4-19.2-.6-.8-1.3-1.4-2-2.1,0,0-.2.2-.3.3,13.8,18.5,22.1,39.3,25.2,62.2.2-1.5.2-2.9,0-4.3h0Z"/>
  <path class="cls-2" d="M385.1,337.8c3,1.2,6,2.4,9,3.3,15.6,4.5,29.8,1.8,42.5-8.3,1.6-1.3,3-2.8,4.4-4.2.5-.5.7-1.2,1-1.8-7.7,8.1-16.7,13.6-27.8,15.1-11,1.5-21.3-.8-31.2-5.8.6.7,1.2,1.4,2,1.7h.1Z"/>
  <path class="cls-2" d="M380.9,349.2c1.9,1.5,3.8,3,5.8,4.3,11.6,7.2,23.9,12.4,37.8,13.1,4.2.2,8.5.1,12.7.1s1.2-.4,1.8-.6c-22.1,1.6-41.5-4.8-58.9-18.4.3.5.5,1.1.9,1.4h0Z"/>
  <path class="cls-2" d="M436.2,340.2c1-.9,2-1.9,3-3,.4-.4.5-1,.7-1.5-6.4,6.5-13.7,11.7-22.2,14.8-8.5,3.1-17.1,4.9-26.3,3.9.4.2.9.5,1.3.5,1.6.2,3.3.5,5,.4,14.6-.7,27.6-5.5,38.6-15.2h-.1Z"/>
  <path class="cls-2" d="M397.6,389.1c-7.6-3.9-15-8-20.4-15,0,.6,0,1.2.4,1.6.7.9,1.4,1.9,2.3,2.7,8.1,7.2,17.3,12.6,27.8,15.4,3.6,1,7.5,1,11.3,1.4,1.1,0,2.2-.4,3.2-.6,0-.2-.1-.4-.2-.6-8.7,1.1-16.8-.9-24.5-4.8h.1Z"/>
  <path class="cls-2" d="M374.3,458.6h.6c.1-.6.2-1.3.3-1.9.7-4.8.5-9.4-2.4-13.6-.8-1.1-1.4-2.4-2.1-3.6-4.3-6.7-8.6-13.3-13-20-.2-.2-.5-.4-.8-.5-.1.1-.3.2-.4.4.6,1,1.2,2,1.9,3,4.9,7.7,9.8,15.3,14.5,23,1,1.7,1.4,3.8,1.6,5.8.2,1.9-.1,4-.2,5.9v1.5h0Z"/>
  <path class="cls-2" d="M381.5,215.5c.2,0,.3,0,.5.1.2-.6.5-1.2.7-1.9,2.7-10.9,4-21.9,2.7-33-.4-3.9-1.7-7.6-2.6-11.4-.2-.7-.9-1.3-1.4-2-.1.1-.2.2-.4.3.6,1.3,1.4,2.6,1.8,4,.7,2.8,1.5,5.7,1.8,8.6,1.3,11.5,0,22.8-2.9,34-.1.4-.1.8-.2,1.2h0Z"/>
  <path class="cls-2" d="M327.1,378.6c.2.2.5.3.7.5.7-4.4,4.2-5.4,7.3-7,2.9-1.5,5.8-3.1,8.7-4.6.5-.3.9-.6,1.4-.9l-.2-.5c-.6.3-1.3.5-1.9.8-4.7,1.9-8.5,5.6-13.8,6.4v1.2c-.2,0-.3.1-.5.2-2.9-5.8-5.8-11.5-8.6-17.3-.1,0-.3,0-.4.1.2.6.3,1.3.6,1.8,2.5,4.9,4.9,9.9,7.5,14.8.5,1,.8,1.8,0,2.7-.3.5-.4,1.1-.6,1.7h-.2Z"/>
  <path class="cls-2" d="M356.3,204.2c-.8,0-1.5.2-2.3.3.2-.8.4-1.6.5-2.5-.5,0-.8,0-.8.2-1,3.4-3.5,5.6-6,7.8-1.1,1-2.7,1.7-4.2,2.1-2.9.7-5.8,1.1-8.7,1.6-2.2.4-4.4.8-6.6,1.2v.6h1.3c3.4-.6,6.9-1.3,10.3-1.7,4.3-.5,8.2-1.8,10.9-5.5.2-.2.7-.2,1-.3.8-.2,1.7-.4,2.5-.6,0-.2-.1-.4-.2-.6l-2.1.4v-.2c1.4-.8,2.8-1.6,4.3-2.4v-.4h.1Z"/>
  <path class="cls-2" d="M414.5,453.1c-.1-1.3.2-2.7.2-4.1s-.3-.6-.4-.9c-.2.3-.7.5-.7.8,0,1.5-.1,3,0,4.5,1.2,11,2.5,22.1,3.8,33.1.1,1,.3,1.9.4,2.9h.7c0-.5,0-1-.1-1.5-1.3-11.6-2.7-23.1-4-34.7h.1Z"/>
  <path class="cls-2" d="M409.2,468.9c-1.1-2.7-1.8-5.6-2.1-8.5-.5-4.2,1.1-7.8,3.6-11.1l-.4-.4c-.4.3-.9.6-1.2,1-2.3,3.6-3.6,7.5-2.8,11.8,1.4,8.4,5.4,15.8,9.5,23.1.1.2.4.3.6.4,0-.7-.2-1.2-.4-1.7-2.3-4.8-4.8-9.6-6.8-14.5h0Z"/>
  <path class="cls-2" d="M352.5,313.7h-2.9c-3.8,6.7-9.8,11.7-16.4,16,0,.1.2.3.3.4.3,0,.7-.1,1-.3,1.9-1.3,3.9-2.5,5.6-4,3.3-3,6.3-6.3,9.5-9.3.7-.6,1.7-1.1,2.6-1.3,1.4-.3,2.9-.4,4.6-.5-1.4-1-2.8-1.1-4.3-1h0Z"/>
  <path class="cls-2" d="M481.1,392.3c-.3.1-.6.3-.8.5-6.1,4.3-11.7,9.3-16.8,14.8-1,1.1-1.9,2.3-2.7,3.6-.2.3-.2.9-.2,1.4h.3c1-1.3,1.9-2.7,2.9-3.9,5.1-5.7,10.7-10.6,16.9-15.1.3-.2.6-.6,1-1-.4-.1-.6-.2-.6-.2h0Z"/>
  <path class="cls-2" d="M384.9,463.5c-1.1,2.5,5.9,24.4,8.6,25.9-1.7-4.4-3.5-8.6-4.9-13-1.4-4.3-2.5-8.7-3.7-13h0Z"/>
  <path class="cls-2" d="M333.8,285.6c-.2.5-.3.9-.4,1.4.2,0,.3.1.5.2.2-.2.4-.4.5-.6,1.4-3.6,2.9-7.3,4.2-10.9.3-.8.3-2,0-2.8-1.1-3.1-2.8-5.9-5.5-7.9-.3-.2-.7-.3-1-.4,0,.6.3.8.5,1.1,1.5,1.9,3.1,3.8,4.5,5.8,1.1,1.6,1.1,3.4.3,5.2-1.2,3-2.4,6-3.5,9h-.1Z"/>
  <path class="cls-2" d="M336.3,169.2c6.3-3.9,12.7-6.6,19.5-8.4-2.6-1.1-18.3,5.5-19.5,8.4Z"/>
  <path class="cls-2" d="M339.6,451.5c-.3,3.4-.6,6.8-.7,10.2,0,1.3.7,2.5,1.3,3.7.2.5.9.7,1.4,1.1-3.7-5.3-1.5-10.8-1.3-16.2-.4.4-.7.8-.7,1.2h0Z"/>
  <path class="cls-2" d="M332.1,288.1c-.3-.8-.6-1.6-.9-2.4-.5-1.2-1.1-1.5-2.3-.6-2.7,2-5.6,4-8.3,6-.4.3-.7.6-1.1,1,.3.2.5.3.5.3,3.3-2.3,6.7-4.5,10.1-6.9.5,1,1,2,1.6,2.9.2,0,.4-.2.6-.3h-.2Z"/>
  <path class="cls-2" d="M360.1,188.3c-1.5-2.3-12.9-2.5-14.7-.2,5-.7,9.8-1.3,14.7.2Z"/>
  <path class="cls-2" d="M347.3,457.6c-2.4-3.9-4.7-7.9-7.7-11.4-.2.1-.3.2-.5.3l7.6,11.5c.2-.1.4-.3.6-.4Z"/>
  <path class="cls-2" d="M348.5,457.9c.2.4.2.5.3.5,3.2.9,6.5,1.6,9.9,1.1.4,0,.8-.6,1.1-.9l-.2-.4c-3.7,1.5-7.3-.2-11.1-.4h0Z"/>
  <path class="cls-2" d="M321,334.4c3.3-1,6.7-1.9,10-2.9,0-.3-.2-.5-.2-.8-3.3,1-6.7,1.9-10,2.9l.2.8Z"/>
  <path class="cls-2" d="M354.8,489.1c.8,0,1.3.3,1.4.1,2.3-1.9,4.5-3.9,6.7-5.9-.2-.2-.3-.4-.5-.5-2.4,2-4.9,4-7.7,6.2h.1Z"/>
  <path class="cls-2" d="M339.3,343.6c1.7-1.9,3.3-3.6,5.1-5.7-1.9.4-5.2,4.1-5.1,5.7Z"/>
  <path class="cls-2" d="M143,340.4c1.1,0,1.8.5,2.6,1.3,9,10.2,18.4,20,29.7,27.6,4.7,3.2,8.3,6.8,11.4,11.5,8.8,13.1,21.4,21.5,36.3,26.5,2.2.7,4.6,1,6.9,1.5.5,0,1.1-.2,1.7-.3-10.3-1.4-19.2-5.9-27.5-11.5-8.4-5.6-15.1-13-20.2-22.3,5.5,2.1,5.7,2.1,7.4,1.1-7.2-.3-10.6-4.2-11.3-10.7,1,.7,1.9,1.4,2.8,2,.1-.2.3-.3.4-.5-10.4-8.8-19.5-18.6-27-29.9,0,.8.3,1.5.7,2,5.6,8.4,12,16.1,19.5,22.9,1.4,1.3,2.6,2.6,2.9,4.7.3,1.9,1.2,3.7,1.9,5.6-7.1-2.9-32.3-25.4-35.2-31.5,5.1-1.4,7.5-3,7.8-5.5-.7.6-1.1,1-1.6,1.4-1.8,1.8-3.9,2.9-6.4,2.9s-1.4-.3-1.8-.7c-4.4-5.3-8.7-10.7-13.1-16.1-1.1-1.3-1.2-2.6-.9-4.3,1.5-7.4,2.7-14.9,4-22.3h.1c.5-5.2,1-10.4,1.4-14.8,1,4.3,2.2,9.6,3.4,14.8h.3c.3,1,.7,2.1,1,3.1.2,0,.4-.1.6-.2-.3-1.2-.6-2.5-.9-3.7h-.2c-1.8-5.8-3.2-11.8-3-18-.3,0-.6,0-1-.1v-16.7c0-5.5-1.6-15.6-2.5-16.5,0,1.1,0,2,.2,2.9,1.3,8.1,2.1,16.3,1.7,24.6-.4,8-1,16-1.5,24h0c-.9,8.1-2.4,16.2-4.5,24.2-1.5-1.4-1.8-2.9-1.6-4.7.5-6.3.9-12.6,1.4-18.9v-.4c.1-2.3.4-4.5.4-6.8,0-7.8,0-15.6-.1-23.5,0-.5-.2-1-.3-1.5h-.6v1.5c.1,3.7.4,7.4.3,11.1,0,6.3-.2,12.7-.4,19h0c-.4,5.8-.8,11.7-1.2,17.5,0,.8-.2,1.7-.5,2.5-.4-1.1-2.2-1.8-.8-3.4v-.5c-.3-5.3-.7-10.6-1-15.9v-.3c0-3.4.2-6.8.3-10.2.3-12.7,1.2-25.4,3.3-38,.1-.7.4-1.5.8-2,3.4-3.8,7.2-7.2,10.1-11.2,21.7-30.1,41.6-61.4,58.1-94.8,8.3-16.8,16.5-33.8,26-50,6.8-11.6,14.3-22.5,23.8-31.9,6.8-6.8,14.3-12.6,23.2-16.3,6.1-2.5,12.4-3.9,19-2.2,3.7,1,7,2.4,9.6,5.6,0-.7-.3-1.5-.8-1.9-1.6-1.2-3.3-2.5-5.1-3.3-6.5-2.9-13.2-2.5-19.8-.2-3.2,1.1-6.2,2.6-9.4,3.9-2.9-2.5-6.3-4.4-10.3-5-6.1-1-12-.4-17.9,1.2-17.4,4.7-32.5,13.7-45.9,25.6-13.8,12.2-24.8,26.8-34.1,42.6-15.5,26.1-26.5,54.2-34.2,83.5-7.2,27.6-10.5,55.6-7.3,84.1.8,6.9,2.5,13.7,3.9,20.5h-.2c1.4,4.1,2.8,8.2,4.2,12.3h-.2c-.2-.2-.4-.5-.6-.7-1.9-3.9-3.8-7.8-5.7-11.7h-.3c0-.2,0-.4-.2-.6-15.9-35.9-22.6-73.3-18.9-112.4,1.7-18.1,5.6-35.7,12.3-52.7,4.3-10.9,9.6-21.2,16.9-30.5.2-.2.3-.6.4-.9l-.3-.3c-.4.4-.8.7-1.1,1.1-4.7,6.1-8.5,12.8-11.9,19.7-11.2,23.2-16.2,48-17.7,73.6-.8,13.4,0,26.7,1.8,40,3.1,22.1,9.1,43.3,18.4,63.6h0c.7,1.5,1.4,3,2.1,4.4,3.4,7.1,7.9,13.7,10.5,21.2.2.7.4,1.5.2,2.1-3.6,10.8-7.8,21.4-13.8,31.2-.2.3-.3.7-.5,1.1.2,0,.4.2.6.3,6.3-9.9,10.4-20.9,14.5-32.2.3.6.6,1.1.8,1.6,4.6,8.6,9,17.3,13.9,25.8,4.5,7.8,9.9,15,16.6,21.1,2,1.8,4.4,3.2,6.6,4.8.4.3,1,.2,1.8.4-.4-.5-.4-.7-.5-.7-4.7-1.9-8.1-5.5-11.4-9.2-7.6-8.5-13.5-18.2-19-28.1,0-.2-.1-.4-.3-.8,1.1.4,2.1.8,3,1,1,.3,2,.5,3,.5v.3ZM118.9,296h0c-2.7-9.1-4.2-18.4-4.8-27.9-1.3-20.1.2-39.9,4-59.6,5.7-29.5,15.7-57.6,29-84.4,9.7-19.6,21.6-37.8,37.1-53.3,14.3-14.2,30.7-25,50.2-30.6,6.7-1.9,13.5-2.7,20.4-1.1,3,.7,5.6,2.3,7.9,4.3-2,1.4-3.9,2.5-5.7,3.8-12.5,9.2-22.2,21-30.4,34.1-10.1,16.1-18.7,33.1-26.9,50.3-16.1,33.7-35.9,65.3-57.2,95.9-3.6,5.2-8,10-12.1,14.9-.5.6-1.2,1-1.8,1.6-.1,0-.2-.2-.3-.3,3.9-19.8,8.7-39.2,20.5-56.3-.9.7-1.7,1.6-2.4,2.5-3.4,5-6,10.4-8.3,16-5.5,13.8-9,28.1-11.2,42.8-.8,5.4-1.6,10.7-1.9,16.1-.6,10.1-.9,20.3-1.4,30.4h0v.8h0c.2,5.2.4,10.4.6,16-1.9-5.5-3.7-10.7-5.5-16h.2ZM136.2,337.2c-.3-.2-.5-.5-.7-.9-2.1-4.3-4.2-8.6-6.2-12.9-.2-.4-.2-.9,0-1.5,4.7,5.8,9.3,11.6,14.2,17.5-2.9-.1-5.1-1-7.2-2.3h-.1Z"/>
  <path class="cls-1" d="M44.9,424.7c2.9-1.1,6-2,8.5-3.8,4.6-3.2,8.8-6.9,13.1-10.4,5-4.1,8-9.6,10-15.7,2.1-6.5,2.7-13.3,3.1-20,.6-11.4,0-22.8-1.9-34-1-5.7-1.9-11.4-4.1-16.9-.2-.5-.5-.9-.8-1.4-.2,0-.3.1-.5.2.6,1.9,1.3,3.8,1.9,5.7,0,0-.2.1-.4.2-1-1.2-2-2.4-2.9-3.6-6.2-9.1-10.5-19.2-14.8-29.3v-.5h-.3c-3.6-10.5-4.8-21.3-4-32.4,0-.8,0-1.7.2-2.5.4-4,.8-7.9,1.2-11.9h.5c.2.4.4.9.6,1.3,2.1,4.1,4.2,8.2,6.3,12.3.9,1.8,1.9,3.6,2.6,5.5,1.6,4.4,2.9,8.9,5.7,12.7.4.5.9.9,1.3,1.3,0-.1.3-.2.4-.3-3.5-4.4-5.2-9.5-6.8-14.7,1.1.6,2,1,3.3,1.7-.2-.6,0-.8-.2-.8-.2-.1-.3-.2-.5-.3-2-1.2-3.5-2.8-3.9-5.2-1.2-6.8-2.5-13.6-3.5-20.5-.9-5.9-1.7-11.8.3-17.7.2-.5.2-.9.2-1.4s-.2-.6-.2-.9h-.4c-.3,1.5-.6,2.9-.9,4.4-.3-.2-.3-.4-.3-.6-.8-9.3,0-18.6,2.1-27.7,3.3-14,8.6-27.3,15.4-40,20.5-38.2,48.3-70.3,82.2-97.1,8.8-7,18.4-13,27.6-19.5.5-.3.9-.7,1.4-1.1,0,0-.2-.3-.3-.4-.5.2-1,.4-1.4.7-5.6,3.8-11.3,7.4-16.8,11.4-32.2,23.1-59.2,51.2-81,84.4-9.9,15.1-18.4,30.9-24.2,48.1-4.5,13.4-7.2,27.1-5.9,41.3.3,3,0,5.9-.9,8.9-1,3.3-1.6,6.8-2.4,10.1-7-25.1-5.9-49.7,3.5-74-2.3,2.9-3.1,6.7-4.7,9.9-1.7,3.3-3,6.9-4.3,10.4-1.2,3.5-2.1,7.1-3.1,10.6v-1.1c2.1-12.7,6-24.9,11.3-36.7,6.5-14.6,14.5-28.4,22.4-42.2.3-.5.6-1.1.9-1.6-.7.2-1.1.7-1.4,1.2-1.2,2-2.3,4-3.4,6-7.7,13.6-15.3,27.2-21.3,41.7-5.1,12.4-8.7,25.3-10.1,38.7-1.2,11.7-.7,23.4,1.7,34.9,1.2,5.9,2.5,11.8,5.2,17.2.5,1,.8,2.3.7,3.4-.3,6.3-.4,12.7.7,19,.9,4.9,2.3,9.7,3.4,14.5h.2c0,.2,0,.4.2.6,3.2,7,6.4,14,9.8,20.9,2.2,4.4,4.8,8.5,8.2,12.1.8.8,1.4,1.9,1.6,3,3.4,16.3,4.8,32.7,2.8,49.3-.5,4.4-1.4,8.7-2.6,12.9-1.6,5.7-4.5,10.6-9,14.6-5.1,4.5-10.1,9.3-16.2,12.5-2.8,1.5-5.7,3.3-9,1.1,0,0-.2,0-.3.1.8,1.5,2.3,2.3,4,1.6l.2-.2ZM54.7,242.5c.9-3,1.5-6.2,2.2-9.5,1.5,9.6,2.9,19,4.3,28.3,0,0,0,.1-.2.2-1.9-3.7-3.7-7.4-5.6-11.1-1.3-2.5-1.5-5.1-.7-7.9ZM44.6,234.2c-.6-5.1-1.2-10.2-1.1-15.2.3-12.3,3.1-24.1,7.9-35.4,0-.1.2-.3.5-.8,0,.8,0,1.2-.2,1.5-4.9,20.4-4.8,40.6,1,60.8.2.6.3,1.2.2,1.7-.3,2.1-.8,4.2-1.1,6.3-3.6-5.9-6.4-12-7.2-18.9h0Z"/>
  <path class="cls-2" d="M94.7,408.3s0,.2.2.4c1.5-.7,2-2,2.3-3.4.7-4.5,1.5-8.9,1.8-13.4.8-9.2,1.1-18.4,0-27.7-1.5-12.2-4.4-24.1-8.8-35.6-4.2-11.2-9.1-22.3-13.6-33.4h0c-1.1-2.3-2.2-4.5-3.3-6.8-.2.1-.4.2-.6.3,1.1,2.4,2.2,4.8,3.3,7.3h0c5.7,12.2,11,24.5,15.2,37.4,3.7,11.3,6.5,22.7,7.4,34.6.8,10.2,0,20.3-1.1,30.4-.4,3.5-.5,7.1-2.9,10h0Z"/>
  <path class="cls-1" d="M69.1,318.9c.5.8,1.2,1.5,1.8,2.2.2-.1.3-.3.5-.4-.3-.4-.5-.8-.8-1.2-5.4-7.5-9.6-15.6-12.5-24.3h-.2c-1-3.9-2.1-7.9-2.8-11.9-1.6-9.7-2.3-19.4.2-29,0-.1,0-.3-.4-.9-.4,1-.8,1.7-.9,2.3-.3,2.1-.7,4.1-.8,6.2-.8,11.4.5,22.5,4.1,33.3h0c3,8.4,7,16.4,12,23.7h-.2Z"/>
  <path class="cls-2" d="M275.2,388.2c-.1,0-.3-.2-.4-.2-.9,1.1-1.8,2.1-2.6,3.2-6,8.2-12,16.4-17.9,24.7-3.2,4.5-6.3,9-9,13.8-5,8.9-9.8,17.9-14.6,26.9-.7,1.4-1.5,1.7-3,1.2-13.5-4.1-23.1-13.1-30.7-24.5-.2-.4-.3-1-.1-1.5,3.5-11.5,3-22.9-.8-34.2-.2-.6-.4-1.1-.7-1.9,4,2.9,7.7,5.6,11.6,8.2,2.2,1.5,4.5,2.7,6.8,4,.4.2.9.2,1.3.3-7.4-4.3-14.3-9.2-20.7-14.7s-12-11.7-16.1-19.2c.2,1.2.6,2.2,1.1,3.2,3.4,5.9,8.1,10.7,12.9,15.4,1,1,1.9,2.2,2.4,3.5,4.3,11.2,5,22.6,1.8,34.1,0,.3-.3.6-.4.9-.2,0-.3,0-.5.1-1.6-3.3-3.3-6.5-4.8-9.8s-2.8-6.7-3-10.4c-.9,2.2-.3,4.2.5,6.2,7.6,19.8,19.7,35.1,41.3,41.8-3.8,5.3-7.2,10.6-11.1,15.5-3.9,5-8.3,9.6-12.5,14.3,0,.1,0,.3.1.4.4-.2.8-.3,1.1-.6,1.5-1.6,2.9-3.1,4.3-4.8,4.2-4.9,8.8-9.5,12.3-14.9,5.4-8.2,10.2-16.8,14.9-25.4,5.7-10.2,10.8-20.7,18.2-30,6.3-8,12-16.5,18-24.7.2-.2.1-.5.2-.8h0Z"/>
  <path class="cls-2" d="M154.9,423.2c1.2-2.2,2-4.5,2.9-6.8.3-.8.4-1.9-.8-2.6.3,3.9-1.4,7-3.3,9.9-2.7,4.2-5.4,8.4-8.6,12.3-11.4,13.8-25,25.1-39.8,34.9-1.7,1.1-3.5,2.2-5.2,3.3l-.2-.2c.2-.4.4-.8.7-1.2,1.6-2.5,3.2-5.1,4.8-7.6,8.9-14,16.3-28.8,21-44.8,6.7-22.7,9.2-45.9,8.2-69.4-.2-5.3-1.2-10.6-1.8-15.8,0-.7-.5-1.3-.8-1.9-.2,0-.3.1-.5.2,0,.4.2.9.3,1.3.4,1.8.9,3.7,1.1,5.5,1.2,9.2,1.3,18.5,1,27.8-.7,22.9-4.9,45-13.2,66.3-5.7,14.5-14.1,27.5-22.5,40.5-.4.6-1.1,1-1.7,1.4-.3.2-.5.5-.6.8-.2.6-.2,1.3-.5,1.7-2.3,2.8-4.6,5.5-6.9,8.3-.2.2-.3.6-.4.8,0,.1.2.2.4.3.7-.7,1.6-1.4,2.2-2.2,2.3-2.8,4.4-5.7,6.7-8.5.7-.8,1.4-1.6,2.3-2.1,13.9-8.5,26.5-18.5,38-30,6.7-6.7,12.8-13.9,17.4-22.3h-.2Z"/>
  <path class="cls-2" d="M116.4,401.5c0-.6,0-1.1-.2-1.7h-.4c0,.4,0,.8,0,1.2-.2,3.6-.2,7.3-.5,10.9-2,20.8-8.8,39.8-20.5,57.2-.5.8-1,1.6-1.6,2.2-7.1,5.6-15.1,9.6-24.1,11.2-2.9.5-5.8.8-9.1,0,1-.2,1.6-.4,2.1-.5,9.2-2,17.8-5.3,25.5-10.8,1.6-1.1,3-2.5,4.3-3.9.5-.6.6-1.6.9-2.4-.2,0-.4-.1-.6-.2-.4.8-.6,1.7-1.2,2.4-1.1,1.2-2.3,2.3-3.6,3.2-8.4,6.2-17.9,9.6-28.1,11.3-1.2.2-2.6,0-3.7-.4-1.3-.5-2.5-1.4-3.8-2.2,0,1.4,1,1.9,1.9,2.3,3.5,1.8,7.3,2.6,11.2,2.3,7.4-.4,14.3-2.9,20.7-6.5,1.7-1,3.4-2,5.1-3,0,.1.2.2.3.3-4,4.8-8,9.6-11.9,14.3,0,.1.3.2.4.4.5-.5,1-1.1,1.5-1.6,12.4-13.8,22.5-29,28.5-46.7,4.4-12.8,7-26,7-39.6v.3Z"/>
  <path class="cls-2" d="M190.1,430.9c-.2,0-.3,0-.5.1,0,.6.1,1.2.2,1.8.1,2.6.4,5.2.2,7.7-.5,5.6-2.6,10.6-5.5,15.3-8.9,14.2-21.2,24.5-36.3,31.6-.2.1-.5.2-1.2.4.8-.7,1.1-1,1.5-1.4,4.9-4.2,9.5-8.7,13.5-13.8,6-7.6,10.9-15.7,13.1-25.2.4-1.8.5-3.6.7-5.4,0-.7-.1-1.6-1.1-1.5,0,1.5.3,2.7.2,3.9-.7,5.5-2.7,10.6-5.3,15.5-5.8,11-14,19.9-23.6,27.6-.6.4-1.1.9-1.8,1.5,1.7.7,2.7,0,3.9-.6,6.4-3.1,12.4-6.6,18-11,8.3-6.7,15.5-14.4,20.6-23.9,3.6-6.7,5.3-13.8,3.8-21.5,0-.4-.3-.7-.4-1.1h0Z"/>
  <path class="cls-2" d="M87.8,376.6c.5-5.5,0-11,0-16.6,0-.9-.4-1.7-.6-2.6,2.4,38.7-11.7,70.9-36.8,99.2.9-.5,1.7-1,2.4-1.7,8.8-10,16.4-20.9,22.3-32.8,7.1-14.3,11.3-29.6,12.6-45.5h0Z"/>
  <path class="cls-2" d="M58,469.4c3.5.7,7.2,1.2,10.7.9,16.5-1.6,28.1-10.6,36.5-24.4.2-.3.3-.8.5-1.3h-.6c-.2.2-.4.5-.5.8-2.2,4.4-5.3,8.2-8.9,11.6-10,9.2-21.5,14.5-35.5,12.1-1.5-.3-2.9-.5-4.4-.8,4.4-1.7,8.8-2.7,12.6-5.4-.4-.2-.7-.1-.9,0-3.7,1.4-7.4,2.7-11.2,4.1-2.9,1.1-5.3.2-7.6-1.6-.3-.2-.7-.4-1-.6,0,.2-.2.4-.3.5,1.2.9,2.5,1.8,3.8,2.7-8.5,1.4-16.6,0-24.6-2.7.3.5.6.8,1,.9,6.8,2.4,13.8,3.8,21,2.9,3.2-.4,6.3-.2,9.5.4h0Z"/>
  <path class="cls-2" d="M259.5,401.2v-.6c-.4-.1-.9-.3-1.5-.4-6.5-1.4-13-2.8-19.5-4.3-8.3-2-16.6-4.2-23.9-8.8-7.1-4.5-14.2-8.9-21.3-13.3-.3-.2-.8-.3-1.2-.4,0,.1-.1.3-.2.4.4.3.7.6,1.1.8,7,4.4,13.9,8.7,20.9,13.1,3.8,2.4,7.7,4.5,12.1,5.6,10.5,2.6,21,5.2,31.6,7.7.6.2,1.3.2,1.9.3h0Z"/>
  <path class="cls-2" d="M288.1,364.5c-.7,1.8-1.5,3.7-2.1,5.6-.6,1.8-1.2,3.6-1.8,5.3.2,0,.4.1.6.2.2-.5.4-.9.6-1.4,2.4-6.1,4.6-12.3,7.2-18.3,3.7-8.3,8.1-16.2,15.2-22.3.1-.1.2-.3.4-1-.8.4-1.3.5-1.7.8-1,.9-2,1.8-2.9,2.8-3.8,4.4-7,9.2-9.7,14.4-.3.6-.7,1.2-1,1.8-2.9-1.1-5.7-2.2-8.7-2.4,0,.2,0,.3-.1.5,2.8.8,5.6,1.7,8.5,2.6-.9,2.1-1.6,3.9-2.4,5.7-.7,1.8-1.5,3.7-2.2,5.5v.2Z"/>
  <path class="cls-2" d="M119.3,442.9l.4.3c.5-.5,1.1-1,1.5-1.6,9.6-13.4,17.9-27.4,22.7-43.3,1.4-4.8,2.2-9.7,3.2-14.6.2-1.1,0-2.3,0-3.5h-.5c-2.1,23.9-13.7,43.8-27.4,62.7h0Z"/>
  <path class="cls-2" d="M168.2,460.1c.7-.8,1.3-1.8,1.9-2.7-.1,0-.3-.1-.4-.2-2,2-3.8,4.2-5.9,6-13.2,11.2-28.9,15.4-45.7,17-.4,0-.9.1-1.3.2v.5c1.3,0,2.7.2,4,0,11.3-1.7,22.4-4.3,32.7-9.8,5.5-2.9,10.5-6.5,14.7-11.1h0Z"/>
  <path class="cls-2" d="M34.5,443.6c12.3-1.5,22.3-7.2,30.2-16.7,2-2.4,3.5-5.4,5.1-8.1.4-.6.3-1.4.5-2.1-.2,0-.3-.1-.5-.2-2.8,8-8.3,13.7-15,18.5-6.8,4.9-14.4,7.4-22.7,8v.6h2.4Z"/>
  <path class="cls-2" d="M265.8,343.9c1.8-2.8,4.5-2.8,7.3-2.4,7.2,1.1,14.4,1,21.5-.9.7-.2,1.4-.5,2.4-.9-.6-.3-.7-.4-.8-.4h-.6c-6.5,1.5-13,2.5-19.7,1.3-2.2-.4-4.4-.8-6.2-2.5-1.8,1.8-3.5,3.6-5.2,5.4.2.2.3.4.5.6.3-.1.8-.1.9-.3h0Z"/>
  <path class="cls-2" d="M73.7,421c-8.4,14.7-21.2,22.3-37.9,23.8,2.1,1.5,12-.7,18.6-4.2,8.4-4.5,15.5-10.5,19.3-19.5h0Z"/>
  <path class="cls-2" d="M140,467.7c-8.7,4.4-17.6,7.6-26.8,9.7,0,0-.2.2-.4.5,3.9.6,26-7.6,27.3-10.2h0Z"/>
  <path class="cls-2" d="M18.2,489.3c.7,0,1.2,0,1.3-.2,4.5-6.1,9.1-12.3,13.6-18.4,0,0-.3-.2-.4-.3-5.2,5.8-9.8,12.2-14.5,18.9Z"/>
  <path class="cls-2" d="M195.3,438.7c.6,4.8,11.3,17.3,15.9,17.5-7.1-4.2-11.9-10.5-15.9-17.5Z"/>
  <path class="cls-2" d="M54.3,422.4c5.4-.3,17.3-10.3,17.5-14.7-4.1,7-10.5,11.2-17.5,14.7Z"/>
  <path class="cls-2" d="M55.9,459.6c-7.2,1.6-14.3,1.8-21.4,1.2,2.3,2,19.5,1.1,21.4-1.2Z"/>
  <path class="cls-2" d="M298.9,398.1c.5,0,1-.4,1.5-.6,0-.1-.1-.3-.2-.4-6.1,1.1-12.5,1-18.5,3.1v.5c.4,0,.8,0,1.2-.1,2.2-.4,4.4-.9,6.6-1.3,3.1-.5,6.2-.8,9.3-1.2h.1Z"/>
  <path class="cls-2" d="M267.9,413.4l.4.4c.4-.3.7-.7,1.1-1,3.1-2.9,6.1-5.8,9.2-8.8.9-.9,2-1.6,2.3-3.5-4.4,4.6-9.3,8.1-12.9,12.9h-.1Z"/>
  <path class="cls-2" d="M46.1,455.4c4-3.4,7.7-6.5,11.3-9.6-1.4-.4-10.2,6.7-11.3,9.6Z"/>
  <path class="cls-2" d="M117.5,474.3c-3.1.7-6.1,1.5-9.2,2.2,0,.2,0,.5.2.7,3.1-.7,6.1-1.4,9.2-2.1,0-.3,0-.5-.2-.8h0Z"/>
</svg>