<?xml version="1.0" encoding="UTF-8"?>
<svg id="Layer_8" data-name="Layer 8" xmlns="http://www.w3.org/2000/svg" version="1.1" viewBox="0 0 1150.2 715.5">
  <defs>
    <style>
      .cls-1 {
        opacity: .7;
      }

      .cls-1, .cls-2, .cls-3, .cls-4, .cls-5 {
        fill: #fff;
        stroke-width: 0px;
      }

      .cls-2, .cls-6 {
        opacity: .8;
      }

      .cls-6, .cls-7, .cls-8 {
        isolation: isolate;
      }

      .cls-3 {
        opacity: .5;
      }

      .cls-4, .cls-8 {
        opacity: .9;
      }
    </style>
  </defs>
  <g class="cls-6">
    <path class="cls-5" d="M39.3,675.1v-25.8h5.2v11.4l10.5-11.4h7l-9.7,10,10.2,15.7h-6.7l-7.1-12.1-4.2,4.3v7.8h-5.2Z"/>
  </g>
  <g class="cls-6">
    <path class="cls-5" d="M68.2,662.1l-4.5-.8c.5-1.8,1.4-3.1,2.6-4s3.1-1.3,5.5-1.3,3.8.3,4.9.8,1.8,1.2,2.3,2,.7,2.3.7,4.4v5.8c0,1.6,0,2.9.2,3.6s.5,1.6.9,2.5h-4.9c0-.3-.3-.8-.5-1.5,0-.3,0-.5-.2-.6-.8.8-1.7,1.4-2.7,1.8s-2,.6-3.1.6c-1.9,0-3.4-.5-4.5-1.6s-1.7-2.4-1.7-4,.3-2,.8-2.8,1.2-1.5,2.1-1.9,2.2-.8,3.9-1.2c2.3-.4,3.9-.8,4.8-1.2v-.5c0-.9-.2-1.6-.7-2s-1.4-.6-2.7-.6-1.6.2-2.1.5-.9,1-1.2,1.8v.2h0ZM74.8,666.1c-.6.2-1.6.5-3,.8s-2.3.6-2.7.9c-.6.5-1,1-1,1.7s.3,1.3.8,1.8,1.2.8,2,.8,1.7-.3,2.5-.9c.6-.4,1-1,1.2-1.6,0-.4.2-1.2.2-2.4v-1h0Z"/>
    <path class="cls-5" d="M84.4,656.4h4.6v2.7c.6-.9,1.4-1.7,2.4-2.3s2.2-.9,3.4-.9c2.2,0,4,.8,5.5,2.5s2.3,4.1,2.3,7.1-.8,5.5-2.3,7.3-3.4,2.6-5.5,2.6-2-.2-2.8-.6-1.7-1.1-2.6-2.1v9.4h-4.9v-25.8h0ZM89.3,665.5c0,2.1.4,3.6,1.2,4.6s1.8,1.5,3,1.5,2.1-.5,2.9-1.4,1.1-2.4,1.1-4.5-.4-3.4-1.2-4.4-1.8-1.4-2.9-1.4-2.2.5-3,1.4-1.2,2.3-1.2,4.1h0Z"/>
    <path class="cls-5" d="M106.5,653.9v-4.6h4.9v4.6h-4.9ZM106.5,675.1v-18.7h4.9v18.7h-4.9Z"/>
  </g>
  <g class="cls-6">
    <path class="cls-5" d="M121,659.8h-4.9v-3.5c0-1.4,0-2.6.4-3.4s.7-1.6,1.4-2.2,1.5-1.2,2.6-1.5l1,2c-1,.3-1.7.8-2.1,1.4s-.7,1.4-.7,2.3h2.4v4.9h-.1Z"/>
  </g>
  <g class="cls-6">
    <path class="cls-5" d="M122.6,665.5c0-1.6.4-3.2,1.2-4.8s2-2.7,3.4-3.5,3.1-1.2,5-1.2c2.8,0,5.1.9,6.9,2.8s2.7,4.2,2.7,7-.9,5.2-2.7,7-4.1,2.8-6.9,2.8-3.3-.4-4.9-1.2-2.7-1.9-3.5-3.4-1.2-3.3-1.2-5.5h0ZM127.6,665.8c0,1.9.4,3.3,1.3,4.3s2,1.5,3.3,1.5,2.4-.5,3.2-1.5,1.3-2.4,1.3-4.3-.4-3.2-1.3-4.2-2-1.5-3.2-1.5-2.4.5-3.3,1.5-1.3,2.4-1.3,4.3h0Z"/>
  </g>
  <g class="cls-6">
    <path class="cls-5" d="M144.2,675.1v-25.8h4.9v25.8h-4.9Z"/>
  </g>
  <g class="cls-6">
    <path class="cls-5" d="M158.4,662.1l-4.5-.8c.5-1.8,1.4-3.1,2.6-4s3.1-1.3,5.5-1.3,3.8.3,4.9.8,1.8,1.2,2.3,2,.7,2.3.7,4.4v5.8c0,1.6,0,2.9.2,3.6s.5,1.6.9,2.5h-4.9c-.1-.3-.3-.8-.5-1.5,0-.3-.1-.5-.2-.6-.8.8-1.7,1.4-2.7,1.8s-2,.6-3.1.6c-1.9,0-3.4-.5-4.5-1.6s-1.7-2.4-1.7-4,.3-2,.8-2.8,1.2-1.5,2.1-1.9,2.2-.8,3.9-1.2c2.3-.4,3.9-.8,4.8-1.2v-.5c0-.9-.2-1.6-.7-2s-1.4-.6-2.7-.6-1.6.2-2.1.5-.9,1-1.2,1.8v.2h0ZM165,666.1c-.6.2-1.6.5-3,.8s-2.3.6-2.7.9c-.6.5-1,1-1,1.7s.3,1.3.8,1.8,1.2.8,2,.8,1.7-.3,2.5-.9c.6-.4,1-1,1.2-1.6.1-.4.2-1.2.2-2.4v-1h0Z"/>
    <path class="cls-5" d="M191.7,675.1h-4.9v-9.5c0-2,0-3.3-.3-3.9s-.6-1.1-1-1.4-1-.5-1.7-.5-1.6.2-2.3.7-1.1,1.1-1.4,1.9-.4,2.2-.4,4.3v8.5h-4.9v-18.7h4.6v2.7c1.6-2.1,3.7-3.2,6.2-3.2s2.1.2,3,.6,1.6.9,2,1.5.8,1.3,1,2.1.3,1.9.3,3.3v11.6h-.2Z"/>
    <path class="cls-5" d="M196.7,653.9v-4.6h4.9v4.6h-4.9ZM196.7,675.1v-18.7h4.9v18.7h-4.9Z"/>
  </g>
  <g class="cls-6">
    <path class="cls-5" d="M231.9,665.6l5,1.6c-.8,2.8-2.1,4.9-3.9,6.3s-4.1,2-6.8,2-6.2-1.2-8.4-3.5-3.3-5.5-3.3-9.6,1.1-7.6,3.3-10,5.1-3.6,8.7-3.6,5.7.9,7.7,2.8c1.2,1.1,2.1,2.7,2.6,4.7l-5.2,1.2c-.3-1.3-.9-2.4-1.9-3.2s-2.1-1.2-3.5-1.2-3.5.7-4.6,2.1-1.8,3.6-1.8,6.7.6,5.6,1.8,7,2.7,2.1,4.6,2.1,2.6-.4,3.6-1.3,1.7-2.3,2.1-4.1h0Z"/>
  </g>
  <g class="cls-6">
    <path class="cls-5" d="M239.2,665.5c0-1.6.4-3.2,1.2-4.8s2-2.7,3.4-3.5,3.1-1.2,5-1.2c2.8,0,5.1.9,6.9,2.8s2.7,4.2,2.7,7-.9,5.2-2.7,7-4.1,2.8-6.9,2.8-3.3-.4-4.9-1.2-2.7-1.9-3.5-3.4-1.2-3.3-1.2-5.5h0ZM244.3,665.8c0,1.9.4,3.3,1.3,4.3s2,1.5,3.3,1.5,2.4-.5,3.2-1.5,1.3-2.4,1.3-4.3-.4-3.2-1.3-4.2-2-1.5-3.2-1.5-2.4.5-3.3,1.5-1.3,2.4-1.3,4.3h0Z"/>
    <path class="cls-5" d="M262,656.4h4.6v2.5c1.6-2,3.6-3,5.8-3s2.2.2,3.1.7,1.6,1.2,2.2,2.2c.8-1,1.7-1.7,2.7-2.2s2-.7,3-.7,2.5.3,3.5.8,1.7,1.4,2.1,2.5c.3.8.5,2.1.5,3.9v11.9h-4.9v-10.7c0-1.9-.2-3-.5-3.6-.5-.7-1.2-1.1-2.1-1.1s-1.3.2-2,.6-1,1-1.3,1.9-.4,2.1-.4,3.9v9h-4.9v-10.2c0-1.8,0-3-.3-3.5s-.4-.9-.8-1.2-.9-.4-1.5-.4-1.4.2-2.1.6-1,1-1.3,1.8-.4,2.1-.4,3.8v9.1h-4.9v-18.7h-.1Z"/>
  </g>
  <g class="cls-6">
    <path class="cls-5" d="M292.7,656.4h4.6v2.5c1.6-2,3.6-3,5.8-3s2.2.2,3.1.7,1.6,1.2,2.2,2.2c.8-1,1.7-1.7,2.7-2.2s2-.7,3-.7,2.5.3,3.5.8,1.7,1.4,2.1,2.5c.3.8.5,2.1.5,3.9v11.9h-4.9v-10.7c0-1.9-.2-3-.5-3.6-.5-.7-1.2-1.1-2.1-1.1s-1.3.2-2,.6-1,1-1.3,1.9-.4,2.1-.4,3.9v9h-4.9v-10.2c0-1.8,0-3-.3-3.5s-.4-.9-.8-1.2-.9-.4-1.5-.4-1.4.2-2.1.6-1,1-1.3,1.8-.4,2.1-.4,3.8v9.1h-4.9v-18.7h-.1Z"/>
  </g>
  <g class="cls-6">
    <path class="cls-5" d="M337.4,675.1v-2.8c-.7,1-1.6,1.8-2.7,2.4s-2.3.9-3.5.9-2.4-.3-3.4-.8-1.7-1.3-2.2-2.3-.7-2.4-.7-4.1v-11.8h4.9v8.6c0,2.6,0,4.2.3,4.8s.5,1.1,1,1.4,1.1.5,1.8.5,1.6-.2,2.3-.7,1.1-1,1.4-1.7.4-2.4.4-5v-7.9h4.9v18.7h-4.6v-.2h.1Z"/>
  </g>
  <g class="cls-6">
    <path class="cls-5" d="M363.3,675.1h-4.9v-9.5c0-2,0-3.3-.3-3.9s-.6-1.1-1-1.4-1-.5-1.7-.5-1.6.2-2.3.7-1.1,1.1-1.4,1.9-.4,2.2-.4,4.3v8.5h-4.9v-18.7h4.6v2.7c1.6-2.1,3.7-3.2,6.2-3.2s2.1.2,3,.6,1.6.9,2,1.5.8,1.3,1,2.1.3,1.9.3,3.3v11.6h-.2Z"/>
    <path class="cls-5" d="M368.3,653.9v-4.6h4.9v4.6h-4.9ZM368.3,675.1v-18.7h4.9v18.7h-4.9Z"/>
  </g>
  <g class="cls-6">
    <path class="cls-5" d="M386.3,656.4v3.9h-3.4v10.2c0,.3.2.5.4.6s.5.2.8.2,1.1-.2,2-.5l.4,3.8c-1.1.5-2.4.7-3.9.7s-1.7,0-2.4-.4-1.2-.7-1.6-1.2-.6-1.1-.7-1.9c0-.6-.2-1.7-.2-3.5v-8.1h-2.3v-3.9h2.3v-3.7l5-2.9v6.6h3.6Z"/>
  </g>
  <g class="cls-6">
    <path class="cls-5" d="M389.7,656.4h5.3l4.5,13.3,4.4-13.3h5.1l-6.6,18-1.2,3.3c-.4,1.1-.8,1.9-1.2,2.5s-.8,1-1.4,1.4-1.1.6-1.9.8-1.6.3-2.5.3-1.9,0-2.8-.3l-.4-3.9c.8.2,1.5.2,2.1.2,1.1,0,2-.3,2.5-1s1-1.5,1.3-2.6l-7.1-18.7h0Z"/>
  </g>
  <g class="cls-6">
    <path class="cls-5" d="M440.2,665.6l5,1.6c-.8,2.8-2.1,4.9-3.9,6.3s-4.1,2-6.8,2-6.2-1.2-8.4-3.5-3.3-5.5-3.3-9.6,1.1-7.6,3.3-10,5.1-3.6,8.7-3.6,5.7.9,7.7,2.8c1.2,1.1,2.1,2.7,2.6,4.7l-5.2,1.2c-.3-1.3-.9-2.4-1.9-3.2s-2.1-1.2-3.5-1.2-3.5.7-4.6,2.1-1.8,3.6-1.8,6.7.6,5.6,1.8,7,2.7,2.1,4.6,2.1,2.6-.4,3.6-1.3,1.7-2.3,2.1-4.1h0Z"/>
  </g>
  <g class="cls-6">
    <path class="cls-5" d="M447.4,665.5c0-1.6.4-3.2,1.2-4.8s2-2.7,3.4-3.5,3.1-1.2,5-1.2c2.8,0,5.1.9,6.9,2.8s2.7,4.2,2.7,7-.9,5.2-2.7,7-4.1,2.8-6.9,2.8-3.3-.4-4.9-1.2-2.7-1.9-3.5-3.4-1.2-3.3-1.2-5.5h0ZM452.5,665.8c0,1.9.4,3.3,1.3,4.3s2,1.5,3.3,1.5,2.4-.5,3.2-1.5,1.3-2.4,1.3-4.3-.4-3.2-1.3-4.2-2-1.5-3.2-1.5-2.4.5-3.3,1.5-1.3,2.4-1.3,4.3h0Z"/>
  </g>
  <g class="cls-6">
    <path class="cls-5" d="M469.1,675.1v-25.8h4.9v25.8h-4.9Z"/>
  </g>
  <g class="cls-6">
    <path class="cls-5" d="M479.2,675.1v-25.8h4.9v25.8h-4.9Z"/>
  </g>
  <g class="cls-6">
    <path class="cls-5" d="M500.5,669.2l4.9.8c-.6,1.8-1.6,3.2-3,4.1s-3.1,1.4-5.1,1.4c-3.2,0-5.6-1.1-7.2-3.2-1.2-1.7-1.8-3.8-1.8-6.4s.8-5.5,2.4-7.3,3.7-2.6,6.1-2.6,5,.9,6.6,2.8,2.4,4.6,2.3,8.4h-12.4c0,1.5.4,2.6,1.2,3.4s1.7,1.2,2.8,1.2,1.4-.2,2-.6.9-1.1,1.2-2h0ZM500.8,664.2c0-1.4-.4-2.5-1.1-3.3s-1.6-1.1-2.6-1.1-2,.4-2.7,1.2-1,1.9-1,3.2h7.4Z"/>
  </g>
  <g class="cls-6">
    <path class="cls-5" d="M509.4,676.3l5.6.7c0,.7.3,1.1.7,1.4.5.4,1.2.5,2.2.5s2.3-.2,2.9-.6c.4-.3.8-.7,1-1.2.2-.4.2-1.2.2-2.3v-2.7c-1.5,2-3.3,3-5.6,3s-4.5-1.1-6-3.2c-1.1-1.7-1.7-3.8-1.7-6.3s.8-5.5,2.3-7.2,3.4-2.5,5.6-2.5,4.2,1,5.7,3v-2.6h4.6v16.8c0,2.2-.2,3.8-.5,4.9s-.9,1.9-1.5,2.6-1.5,1.1-2.6,1.5-2.5.5-4.2.5c-3.2,0-5.4-.5-6.7-1.6s-2-2.5-2-4.1,0-.4,0-.6h0ZM513.9,665.4c0,2,.4,3.4,1.2,4.4s1.7,1.4,2.8,1.4,2.2-.5,3.1-1.4,1.2-2.3,1.2-4.2-.4-3.4-1.2-4.3-1.8-1.4-3-1.4-2.2.5-2.9,1.4-1.2,2.3-1.2,4.2h0Z"/>
  </g>
  <g class="cls-6">
    <path class="cls-5" d="M542.9,669.2l4.9.8c-.6,1.8-1.6,3.2-3,4.1s-3.1,1.4-5.1,1.4c-3.2,0-5.6-1.1-7.2-3.2-1.2-1.7-1.8-3.8-1.8-6.4s.8-5.5,2.4-7.3,3.7-2.6,6.1-2.6,5,.9,6.6,2.8,2.4,4.6,2.3,8.4h-12.4c0,1.5.4,2.6,1.2,3.4s1.7,1.2,2.8,1.2,1.4-.2,2-.6.9-1.1,1.2-2h0ZM543.1,664.2c0-1.4-.4-2.5-1.1-3.3s-1.6-1.1-2.6-1.1-2,.4-2.7,1.2-1,1.9-1,3.2h7.4,0Z"/>
  </g>
  <path class="cls-2" d="M591.9,651.1c-1.8.6-2.7,1.8-2.8,3.7h2.4v4.9h-4.9v-3.5c0-2.6.6-4.5,1.8-5.6.7-.7,1.5-1.2,2.6-1.5l1,2h0Z"/>
  <g class="cls-6">
    <path class="cls-5" d="M593.5,662.4c0-2.6.4-4.8,1.2-6.6.6-1.3,1.4-2.5,2.4-3.5s2.1-1.8,3.3-2.3c1.6-.7,3.5-1,5.6-1,3.8,0,6.8,1.2,9.1,3.5s3.4,5.6,3.4,9.8-1.1,7.4-3.4,9.8-5.3,3.5-9.1,3.5-6.9-1.2-9.1-3.5-3.4-5.6-3.4-9.7ZM598.8,662.2c0,2.9.7,5.1,2,6.6s3.1,2.3,5.1,2.3,3.8-.7,5.1-2.2,2-3.7,2-6.7-.6-5.2-1.9-6.6-3-2.2-5.2-2.2-3.9.7-5.2,2.2-2,3.7-2,6.7h.1ZM600.2,647v-3.3h11.3v3.3h-11.3Z"/>
  </g>
  <path class="cls-2" d="M626.3,649.3v9.5c1.6-1.9,3.5-2.8,5.7-2.8s2.2.2,3.1.6,1.6,1,2.1,1.6.8,1.4.9,2.2.3,2,.3,3.7v11h-4.9v-9.9c0-2,0-3.2-.3-3.7s-.5-.9-1-1.3-1.1-.5-1.8-.5-1.6.2-2.2.6-1.1,1-1.4,1.8-.4,2-.4,3.6v9.4h-4.9v-25.8h4.9,0Z"/>
  <path class="cls-2" d="M643.4,653.9v-4.6h4.9v4.6h-4.9ZM643.4,675.1v-18.7h4.9v18.7h-4.9Z"/>
  <path class="cls-2" d="M657.8,651.1c-1.8.6-2.7,1.8-2.8,3.7h2.4v4.9h-4.9v-3.5c0-2.6.6-4.5,1.8-5.6.7-.7,1.5-1.2,2.6-1.5l1,2h0Z"/>
  <path class="cls-2" d="M665.1,662.1l-4.5-.8c.5-1.8,1.4-3.1,2.6-4s3.1-1.3,5.5-1.3,3.8.3,4.9.8,1.8,1.2,2.3,2,.7,2.3.7,4.4v5.8c0,1.6,0,2.9.2,3.6s.5,1.6.9,2.5h-4.9c0-.3-.3-.8-.5-1.5,0-.3,0-.5-.2-.6-.8.8-1.7,1.4-2.7,1.8s-2,.6-3.1.6c-1.9,0-3.4-.5-4.5-1.6s-1.7-2.4-1.7-4,.3-2,.8-2.8,1.2-1.5,2.1-1.9,2.2-.8,3.9-1.2c2.3-.4,3.9-.8,4.8-1.2v-.5c0-.9-.2-1.6-.7-2s-1.4-.6-2.7-.6-1.6.2-2.1.5-.9,1-1.2,1.8v.2h.1ZM671.7,666.1c-.6.2-1.6.5-3,.8s-2.3.6-2.7.9c-.6.5-1,1-1,1.7s.3,1.3.8,1.8,1.2.8,2,.8,1.7-.3,2.5-.9c.6-.4,1-1,1.2-1.6,0-.4.2-1.2.2-2.4v-1h0Z"/>
  <g class="cls-6">
    <path class="cls-5" d="M708.7,665.6l5,1.6c-.8,2.8-2.1,4.9-3.9,6.3s-4.1,2-6.8,2-6.2-1.2-8.4-3.5-3.3-5.5-3.3-9.6,1.1-7.6,3.3-10,5.1-3.6,8.7-3.6,5.7.9,7.7,2.8c1.2,1.1,2.1,2.7,2.6,4.7l-5.2,1.2c-.3-1.3-.9-2.4-1.9-3.2s-2.1-1.2-3.5-1.2-3.5.7-4.6,2.1-1.8,3.6-1.8,6.7.6,5.6,1.8,7,2.7,2.1,4.6,2.1,2.6-.4,3.6-1.3,1.7-2.3,2.1-4.1h0Z"/>
  </g>
  <g class="cls-6">
    <path class="cls-5" d="M721.3,662.1l-4.5-.8c.5-1.8,1.4-3.1,2.6-4s3.1-1.3,5.5-1.3,3.8.3,4.9.8,1.8,1.2,2.3,2,.7,2.3.7,4.4v5.8c0,1.6,0,2.9.2,3.6s.5,1.6.9,2.5h-4.9c0-.3-.3-.8-.5-1.5,0-.3,0-.5-.2-.6-.8.8-1.7,1.4-2.7,1.8s-2,.6-3.1.6c-1.9,0-3.4-.5-4.5-1.6s-1.7-2.4-1.7-4,.3-2,.8-2.8,1.2-1.5,2.1-1.9,2.2-.8,3.9-1.2c2.3-.4,3.9-.8,4.8-1.2v-.5c0-.9-.2-1.6-.7-2s-1.4-.6-2.7-.6-1.6.2-2.1.5-.9,1-1.2,1.8v.2h.1ZM727.9,666.1c-.6.2-1.6.5-3,.8s-2.3.6-2.7.9c-.6.5-1,1-1,1.7s.3,1.3.8,1.8,1.2.8,2,.8,1.7-.3,2.5-.9c.6-.4,1-1,1.2-1.6,0-.4.2-1.2.2-2.4v-1h0Z"/>
  </g>
  <g class="cls-6">
    <path class="cls-5" d="M735.9,656.4h2.7v-1.4c0-1.6.2-2.7.5-3.5s.9-1.4,1.8-1.9,2-.7,3.4-.7,2.8.2,4.1.6l-.7,3.4c-.8-.2-1.5-.3-2.3-.3s-1.2.2-1.5.5-.5,1-.5,1.9v1.3h3.7v3.9h-3.7v14.8h-4.9v-14.8h-2.7v-3.9h.1Z"/>
  </g>
  <g class="cls-6">
    <path class="cls-5" d="M762.2,669.2l4.9.8c-.6,1.8-1.6,3.2-3,4.1s-3.1,1.4-5.1,1.4c-3.2,0-5.6-1.1-7.2-3.2-1.2-1.7-1.8-3.8-1.8-6.4s.8-5.5,2.4-7.3,3.7-2.6,6.1-2.6,5,.9,6.6,2.8,2.4,4.6,2.3,8.4h-12.4c0,1.5.4,2.6,1.2,3.4s1.7,1.2,2.8,1.2,1.4-.2,2-.6.9-1.1,1.2-2h0ZM762.5,664.2c0-1.4-.4-2.5-1.1-3.3s-1.6-1.1-2.6-1.1-2,.4-2.7,1.2-1,1.9-1,3.2h7.4,0Z"/>
  </g>
  <g class="cls-6">
    <path class="cls-5" d="M779.8,656.4v3.9h-3.4v10.2c0,.3.2.5.4.6s.5.2.8.2,1.1-.2,2-.5l.4,3.8c-1.1.5-2.4.7-3.9.7s-1.7,0-2.4-.4-1.2-.7-1.6-1.2-.6-1.1-.7-1.9c0-.6-.2-1.7-.2-3.5v-8.1h-2.3v-3.9h2.3v-3.7l5-2.9v6.6h3.6Z"/>
  </g>
  <path class="cls-2" d="M795.7,669.2l4.9.8c-.6,1.8-1.6,3.2-3,4.1s-3.1,1.4-5.1,1.4c-3.2,0-5.6-1.1-7.2-3.2-1.2-1.7-1.8-3.8-1.8-6.4s.8-5.5,2.4-7.3,3.7-2.6,6.1-2.6,5,.9,6.6,2.8,2.4,4.6,2.3,8.4h-12.4c0,1.5.4,2.6,1.2,3.4s1.7,1.2,2.8,1.2,1.4-.2,2-.6.9-1.1,1.2-2h0ZM796,664.2c0-1.4-.4-2.5-1.1-3.3s-1.6-1.1-2.6-1.1-2,.4-2.7,1.2-1,1.9-1,3.2h7.4,0Z"/>
  <path class="cls-2" d="M809.6,675.1h-4.9v-18.7h4.6v2.7c.8-1.3,1.5-2.1,2.1-2.5s1.3-.6,2.1-.6,2.2.3,3.3.9l-1.5,4.3c-.8-.5-1.6-.8-2.3-.8s-1.3.2-1.8.6-.9,1.1-1.1,2.1-.4,3.1-.4,6.3v5.8h0Z"/>
  <path class="cls-2" d="M818.9,653.9v-4.6h4.9v4.6h-4.9ZM818.9,675.1v-18.7h4.9v18.7h-4.9Z"/>
  <path class="cls-2" d="M832.6,662.1l-4.5-.8c.5-1.8,1.4-3.1,2.6-4s3.1-1.3,5.5-1.3,3.8.3,4.9.8,1.8,1.2,2.3,2,.7,2.3.7,4.4v5.8c0,1.6,0,2.9.2,3.6s.5,1.6.9,2.5h-4.9c0-.3-.3-.8-.5-1.5,0-.3,0-.5-.2-.6-.8.8-1.7,1.4-2.7,1.8s-2,.6-3.1.6c-1.9,0-3.4-.5-4.5-1.6s-1.7-2.4-1.7-4,.3-2,.8-2.8,1.2-1.5,2.1-1.9,2.2-.8,3.9-1.2c2.3-.4,3.9-.8,4.8-1.2v-.5c0-.9-.2-1.6-.7-2s-1.4-.6-2.7-.6-1.6.2-2.1.5-.9,1-1.2,1.8v.2h.1ZM839.2,666.1c-.6.2-1.6.5-3,.8s-2.3.6-2.7.9c-.6.5-1,1-1,1.7s.3,1.3.8,1.8,1.2.8,2,.8,1.7-.3,2.5-.9c.6-.4,1-1,1.2-1.6,0-.4.2-1.2.2-2.4v-1h0Z"/>
  <path class="cls-3" d="M864.1,685.9v-44.2h2.5v44.2h-2.5Z"/>
  <path class="cls-3" d="M566.1,685.9v-44.2h2.5v44.2h-2.5Z"/>
  <path class="cls-2" d="M895.6,675.1v-5.2h-10.5v-4.3l11.2-16.4h4.1v16.3h3.2v4.3h-3.2v5.2h-4.8ZM895.6,665.6v-8.8l-5.9,8.8h5.9Z"/>
  <path class="cls-2" d="M908,658.4v-4.9h4.9v4.9h-4.9ZM908,672.1v-4.9h4.9v4.9h-4.9Z"/>
  <g class="cls-6">
    <path class="cls-5" d="M916.7,668.3l4.8-.6c.2,1.2.6,2.2,1.2,2.8s1.5,1,2.4,1,1.9-.4,2.6-1.2,1-1.8,1-3.1-.3-2.2-1-3-1.5-1.1-2.4-1.1-1.4,0-2.3.4l.5-4c1.3,0,2.4-.3,3.1-.9s1.1-1.4,1.1-2.5-.3-1.6-.8-2.1-1.2-.8-2.1-.8-1.6.3-2.2.9-1,1.4-1.1,2.6l-4.6-.8c.3-1.6.8-2.8,1.4-3.7s1.5-1.7,2.7-2.2,2.4-.8,3.8-.8c2.4,0,4.4.8,5.8,2.3,1.2,1.3,1.8,2.7,1.8,4.3,0,2.3-1.2,4.1-3.7,5.4,1.5.3,2.7,1,3.5,2.1s1.3,2.4,1.3,4c0,2.3-.8,4.2-2.5,5.8s-3.7,2.4-6.2,2.4-4.3-.7-5.8-2-2.4-3.1-2.7-5.3h.4Z"/>
  </g>
  <path class="cls-2" d="M946.1,649.2c2.5,0,4.4.9,5.9,2.7,1.7,2.1,2.5,5.6,2.5,10.5s-.8,8.4-2.5,10.5c-1.4,1.8-3.3,2.6-5.8,2.6s-4.5-1-6.1-2.9-2.3-5.4-2.3-10.3.8-8.3,2.5-10.5c1.4-1.8,3.3-2.6,5.8-2.6h0ZM946.1,653.3c-.6,0-1.1.2-1.6.6s-.8,1.1-1.1,2c-.3,1.3-.5,3.4-.5,6.5s.2,5.1.5,6.2.7,1.9,1.2,2.3,1,.6,1.6.6,1.1-.2,1.6-.6.8-1.1,1.1-2c.3-1.3.5-3.4.5-6.4s-.2-5.1-.5-6.2-.7-1.9-1.2-2.3-1-.6-1.6-.6h0Z"/>
  <path class="cls-2" d="M957.1,667.6v-3.7h20v3.7h-20Z"/>
  <path class="cls-2" d="M996.5,655.7l-4.8.5c0-1-.4-1.7-.9-2.2s-1.1-.7-1.9-.7-1.9.5-2.6,1.4-1.2,2.9-1.4,5.9c1.2-1.5,2.8-2.2,4.6-2.2s3.8.8,5.3,2.4,2.2,3.6,2.2,6.1-.8,4.8-2.3,6.3-3.5,2.4-6,2.4-4.7-1-6.4-3-2.5-5.3-2.5-9.9.9-8.1,2.6-10.2,4-3.1,6.8-3.1,3.6.5,4.9,1.6,2.1,2.7,2.5,4.8h0ZM985.3,666.4c0,1.6.4,2.8,1.1,3.7s1.6,1.3,2.5,1.3,1.7-.4,2.3-1.1.9-1.9.9-3.5-.3-2.9-1-3.7-1.5-1.2-2.5-1.2-1.8.4-2.4,1.1-1,1.8-1,3.3h.1Z"/>
  <path class="cls-2" d="M1001.8,658.4v-4.9h4.9v4.9h-4.9ZM1001.8,672.1v-4.9h4.9v4.9h-4.9Z"/>
  <g class="cls-6">
    <path class="cls-5" d="M1011.5,668.3l4.8-.6c.2,1.2.6,2.2,1.2,2.8s1.5,1,2.4,1,1.9-.4,2.6-1.2,1-1.8,1-3.1-.3-2.2-1-3-1.5-1.1-2.4-1.1-1.4,0-2.3.4l.5-4c1.3,0,2.4-.3,3.1-.9s1.1-1.4,1.1-2.5-.3-1.6-.8-2.1-1.2-.8-2.1-.8-1.6.3-2.2.9-1,1.4-1.1,2.6l-4.6-.8c.3-1.6.8-2.8,1.4-3.7s1.5-1.7,2.7-2.2,2.4-.8,3.8-.8c2.4,0,4.4.8,5.8,2.3,1.2,1.3,1.8,2.7,1.8,4.3,0,2.3-1.2,4.1-3.7,5.4,1.5.3,2.7,1,3.5,2.1s1.3,2.4,1.3,4c0,2.3-.8,4.2-2.5,5.8s-3.7,2.4-6.2,2.4-4.3-.7-5.8-2-2.4-3.1-2.7-5.3h.4Z"/>
  </g>
  <g class="cls-6">
    <path class="cls-5" d="M1040.9,649.2c2.5,0,4.4.9,5.9,2.7,1.7,2.1,2.5,5.6,2.5,10.5s-.8,8.4-2.5,10.5c-1.4,1.8-3.3,2.6-5.8,2.6s-4.5-1-6.1-2.9-2.3-5.4-2.3-10.3.8-8.3,2.5-10.5c1.4-1.8,3.3-2.6,5.8-2.6ZM1040.9,653.3c-.6,0-1.1.2-1.6.6s-.8,1.1-1.1,2c-.3,1.3-.5,3.4-.5,6.5s.2,5.1.5,6.2.7,1.9,1.2,2.3,1,.6,1.6.6,1.1-.2,1.6-.6.8-1.1,1.1-2c.3-1.3.5-3.4.5-6.4s-.2-5.1-.5-6.2-.7-1.9-1.2-2.3-1-.6-1.6-.6h0Z"/>
    <path class="cls-5" d="M1053.5,656.4h4.6v2.7c.6-.9,1.4-1.7,2.4-2.3s2.2-.9,3.4-.9c2.2,0,4,.8,5.5,2.5s2.3,4.1,2.3,7.1-.8,5.5-2.3,7.3-3.4,2.6-5.5,2.6-2-.2-2.8-.6-1.7-1.1-2.6-2.1v9.4h-4.9v-25.8h0ZM1058.4,665.5c0,2.1.4,3.6,1.2,4.6s1.8,1.5,3,1.5,2.1-.5,2.9-1.4,1.1-2.4,1.1-4.5-.4-3.4-1.2-4.4-1.8-1.4-2.9-1.4-2.2.5-3,1.4-1.2,2.3-1.2,4.1h0Z"/>
    <path class="cls-5" d="M1075.2,656.4h4.6v2.5c1.6-2,3.6-3,5.8-3s2.2.2,3.1.7,1.6,1.2,2.2,2.2c.8-1,1.7-1.7,2.7-2.2s2-.7,3-.7,2.5.3,3.5.8,1.7,1.4,2.1,2.5c.3.8.5,2.1.5,3.9v11.9h-4.9v-10.7c0-1.9-.2-3-.5-3.6-.5-.7-1.2-1.1-2.1-1.1s-1.3.2-2,.6-1,1-1.3,1.9-.4,2.1-.4,3.9v9h-4.9v-10.2c0-1.8,0-3-.3-3.5s-.4-.9-.8-1.2-.9-.4-1.5-.4-1.4.2-2.1.6-1,1-1.3,1.8-.4,2.1-.4,3.8v9.1h-4.9v-18.7h0Z"/>
  </g>
  <g class="cls-7">
    <g class="cls-7">
      <path class="cls-5" d="M153.5,448.6c0-8.1-.1-12-.3-14.6-.3-2-.9-3.1-3.3-3.3l-7.8-.8,1-4.6c2.9,0,10.6.4,17.3.4s14.8-.5,23.6-.5c14,0,19.3,2.4,23.4,6,4.4,3.8,6.9,10.2,6.9,17.7s-2.8,14.2-7,18.2c-5.5,5.2-13.3,7.3-20.6,7.3s-7.2-.4-9.2-1l.3-4.9c1.5.4,3.5.6,5.2.6s4.9-1.4,6.1-3.3c2-3.1,3.3-8.6,3.3-16.1s-1.5-12.9-3.8-15.6c-2-2.4-4.6-3.7-9.1-3.7s-4.7.6-4.9,2.3c-.3,3.5-.6,9-.6,17.4v34.9c0,5.9.3,9.7.4,12,.3,2.7,1.3,3.3,4.7,3.7l7.6.9-.3,4.6c-6.1,0-13.6-.4-23.8-.4s-14.8.4-20.6.4v-4.6c.1,0,5.2-.4,5.2-.4,4.4-.4,5.5-1.2,5.6-5,.3-4.9.6-12.8.6-21.5v-26.1h.1Z"/>
      <path class="cls-5" d="M283.8,478c0,18-12.2,29.6-31.7,29.6s-31.1-12.3-31.1-28.5,11.3-30,32-30,30.8,10.6,30.8,28.9ZM244.7,458.8c-1.7,3.2-2.9,9.7-2.9,17.3s1.2,16.1,3.2,20.6c1.9,4.1,4.7,6,8.3,6s6-1.9,7.4-5.2c1.8-4.2,2.6-9.9,2.6-17.9s-1.5-16.8-3.3-20.5c-1.7-3.1-4-5.1-7.7-5.1s-5.9,2-7.6,4.9h0Z"/>
      <path class="cls-5" d="M299.4,474.5c0-7.2-.4-12.9-.9-15.9-.3-1.5-.9-2.2-2.7-2.3h-4.4v-4.7c7.3,0,17-.5,23.9-2.4l.8.5c.5,2.7,1,9.6,1.2,13.3h.4c3.2-7.7,7.6-13.8,16-13.8s9.1,4.1,9.1,9.3c0,7.8-6,10.2-8.4,10.2s-4.2-.6-5-2.3c-1.2-2.3-2-3.7-4.2-3.7s-4.4,2.6-5.8,6c-.9,2-1.2,4-1.2,7v21.6c.3,3.1,1.4,3.8,11.3,4.2l-.4,4.6c-7,0-13.2-.4-20.2-.4s-12.3.4-18,.4l.6-4.6c5.9-.3,7-.9,7.3-3.1.3-3.1.5-9,.5-15.4v-8.7.2h.1Z"/>
      <path class="cls-5" d="M389.4,451l-.4,5.1-14.8.8c0,4.6-.3,10.8-.3,20.1s0,15.6.6,19.6c.3,2.8,1.5,4.1,3.7,4.1,4.7,0,7.8-5.1,9-9.7h2l1.7,5.6c-2.8,6.5-10.1,11-20.2,11s-10.9-1.8-13.3-4.7c-1.7-2.2-2.4-4.9-2.6-8.4,0-8.8.5-28.7.5-37.5l-7.7-.9.6-5h7.2v-14.2c8.3-1.9,14.8-4.5,18-6.7l1.3.4c0,3.3-.6,14.2-.6,20.5h15.3Z"/>
      <path class="cls-5" d="M395.8,451h7.4v-2.7c0-9.2,2.4-16,7.4-21,4.7-4.6,10.8-6.9,18-6.9s15.1,5,15.1,10.8-3.8,7.6-9.1,7.6-4.7-1.8-4.7-4.7c0-5.1-1-8.4-4.2-8.4s-3.7,1.8-4.1,5.8c-.4,3.7,0,10.5.4,19.7h12l-.8,5-11.3.9v19.6c0,9,0,14.8.3,20.4,0,2.8.9,3.8,3.3,4.2,2.7.3,4.7.5,6.7.5l-.4,4.6c-4.6,0-11.9-.4-18-.4s-14.6.4-18.8.4l.3-4.6c6.3,0,7.3-.9,7.4-3.2.3-3.7.5-9.3.5-17v-24.6l-7.9-.9.6-4.9v-.2h0Z"/>
      <path class="cls-5" d="M501,478c0,18-12.2,29.6-31.7,29.6s-31.1-12.3-31.1-28.5,11.3-30,32-30,30.8,10.6,30.8,28.9h0ZM461.9,458.8c-1.7,3.2-2.9,9.7-2.9,17.3s1.2,16.1,3.2,20.6c1.9,4.1,4.7,6,8.3,6s6-1.9,7.4-5.2c1.8-4.2,2.6-9.9,2.6-17.9s-1.5-16.8-3.3-20.5c-1.7-3.1-4-5.1-7.7-5.1s-5.9,2-7.6,4.9h0Z"/>
      <path class="cls-5" d="M508.5,422.4c8.6,0,17.9-.8,26.6-1.7,0,3.5-.4,9.7-.4,24.4v52.1c0,3.6,1.4,4.1,7.8,4.4v4.6c-5.1,0-12.9-.4-18.8-.4s-12,.4-16.5.4v-4.6c6.7,0,7.7-1.2,7.9-5,0-2.6.5-9.3.5-19.5v-46.8c0-2.8-.9-3.2-7.3-3.3v-4.6h.2Z"/>
      <path class="cls-5" d="M581.5,506.2c-4.9,0-10.1-.4-18.2-.4s-12.4.4-16.6.4v-4.6c7-.3,7.8-1.3,8.1-3.8,0-2.6.3-6.7.3-13.2v-25.8c0-2.2-1.2-2.7-7.3-2.4v-4.7c8.7-.4,18.3-.9,26.8-2.4,0,2.9-.4,8.2-.4,20.5v15.2c0,6.7.3,9.7.4,12.5,0,3.2,1.2,3.7,7.3,4.2v4.6h-.4ZM573.4,432.9c0,5.6-4.2,9.3-10.2,9.3s-9.5-3.6-9.5-9.1,4-10,9.9-10,9.9,3.5,9.9,9.7h-.1Z"/>
      <path class="cls-5" d="M651.6,478c0,18-12.2,29.6-31.7,29.6s-31.1-12.3-31.1-28.5,11.3-30,32-30,30.8,10.6,30.8,28.9ZM612.6,458.8c-1.7,3.2-2.9,9.7-2.9,17.3s1.2,16.1,3.2,20.6c1.9,4.1,4.7,6,8.3,6s6-1.9,7.4-5.2c1.8-4.2,2.6-9.9,2.6-17.9s-1.5-16.8-3.3-20.5c-1.7-3.1-4-5.1-7.7-5.1s-5.9,2-7.6,4.9h0Z"/>
      <path class="cls-5" d="M695.3,476.8c.3,14.2,7.4,26,20.5,26s12.9-4.4,12.9-11.9-1.5-7.3-5.1-9.6c-3.5-2.3-15.6-8.6-21.9-12.5-7.8-4.9-11.1-11.8-11.1-20.1,0-16.1,11.9-25,27.6-25s14.7,2.2,17.8,5l2.4-5.5,4.2.9c-2.2,10.6-2.2,20.5-2.2,26.1l-4.2.6c-1.2-13.3-7.8-22.1-17.3-22.1s-11.5,5.2-11.5,11.5,2,8.6,7.4,11.4c10.6,5.8,18.2,9.2,23.2,12.9,6.1,4,9,9.7,9,17.5,0,18.4-15,25.9-33,25.9s-17.9-2.2-24.4-4.6c.9-7,1.2-17,1.3-25.9l4.5-.6h-.1Z"/>
      <path class="cls-5" d="M755.1,422.4c8.2,0,23-1.3,26.2-1.8,0,5.4-.4,14-.4,22.8v14.3c4.2-3.6,11-8.6,20.2-8.6s13.8,5.5,15,8.1c1,2.3,1.7,5.1,1.7,8.4v32.3c0,6.6.5,3.2,7.3,3.7v4.6c-4.2,0-10-.4-16.6-.4s-12.3.4-15.9.4v-4.6c4.7,0,5.8-1.2,6-3.6.3-2.6.4-7.2.4-15.9,0-16.9-.3-18.7-.9-20.2-.9-2.2-2.7-4.1-6-4.1s-7,1.8-9.6,5.6c-1.2,1.8-1.4,3.7-1.4,6v27.5c.3,3.7,1,4.2,6.3,4.6v4.6c-3.3,0-10.1-.4-15.9-.4-8.6,0-13.3.4-17.3.4v-4.6c6.3-.3,7.3-1,7.6-4.2,0-3.5.4-8.1.4-18.9v-34.8c0-8.6,0-11.6-.4-14.2,0-2-.9-2.4-6.8-2.4v-4.6h.1Z"/>
      <path class="cls-5" d="M895.5,478c0,18-12.2,29.6-31.7,29.6s-31.1-12.3-31.1-28.5,11.3-30,32-30,30.8,10.6,30.8,28.9h0ZM856.4,458.8c-1.7,3.2-2.9,9.7-2.9,17.3s1.2,16.1,3.2,20.6c1.9,4.1,4.7,6,8.3,6s6-1.9,7.4-5.2c1.8-4.2,2.6-9.9,2.6-17.9s-1.5-16.8-3.3-20.5c-1.7-3.1-4-5.1-7.7-5.1s-5.9,2-7.6,4.9h0Z"/>
      <path class="cls-5" d="M898.7,450.5c3.6,0,8.2.4,16.3.4s13.7-.4,18.8-.4l.5,4.6-5.4.5c-1.9.3-2.2,1.2-1.7,3.1,2.6,9.1,6.8,22.3,8.6,28.3,2.8-7.8,6.7-19.3,12.2-36.4,3.3.3,5.6,0,9.9-.3,1.4,4.2,11.5,30.2,14.5,37.8,3.5-9.9,7.3-22.7,8.6-28.8.6-2.7,0-3.3-3.2-3.7l-5.1-.5v-4.6c4.7,0,9.3.4,13.6.4s8.8-.4,11.6-.4v4.6c-6.3.5-7.7,1.5-10.5,7.8-3.7,8.1-9.1,23.2-16.4,43.9-3.6,0-6.8.3-10.4.6-2.3-6.5-10.4-26.6-14-36-4.4,11.8-9.2,26-12.7,36-3.5-.3-6.7-.5-10.2-.6-3.7-12.3-13.4-39.2-16-46-2.2-4.7-3.3-5.5-9-5.8v-4.6h0Z"/>
    </g>
  </g>
  <g class="cls-7">
    <g class="cls-7">
      <path class="cls-5" d="M277.5,172.7c0-9.1-.3-14.6-.3-16.8s-1-3.2-3.2-3.3l-7-.6.3-4.5c2.9,0,11.1.4,18,.4s14.1-.5,22.4-.5c14.5,0,21.6,1.9,27.4,5.5,9.3,5.6,15,16.9,15,32.8s-5.8,31.5-21.8,38.7c-6.1,2.7-14.6,4.1-23.6,4.1s-13.8-.4-20.6-.4-15.4.4-17.8.4v-4.6l5.6-.4c3.5-.3,4.6-1.3,4.7-3.5,0-2.7.8-9.9.8-19.7v-27.5h.1ZM298,200.1c0,13.8,0,17.8.4,20.9,0,1.7,1,2.6,5.2,2.6,9,0,14-3.1,17.3-7.9,3.2-4.5,6.4-13.7,6.4-29.1s-2.3-22.7-6.8-27.8c-4-4.6-8.8-6.3-15.6-6.3s-6.3,1-6.4,2.7c0,1.8-.5,5.9-.5,17.9v27h0Z"/>
      <path class="cls-5" d="M415.2,212c-4.7,13.1-14,17.8-25.9,17.8s-18.4-3.3-22.8-8.8c-3.6-4.5-5.8-11.5-5.8-19.3,0-16.3,9.7-30.3,29.7-30.3s25,15.9,25,23.3-.9,4.5-2.3,5.2c-2,1-6.9,1.8-14.6,2-3.8.1-10.8.1-17.5.1,0,4.7,1,9.5,2.7,12.9,2.2,4.4,5.9,6.9,11.8,6.9s11.6-3.3,15.2-12.4l4.5,2.6h0ZM381.3,197h6.3c3.6,0,6.3-.3,7.9-.8,1.5-.4,2.4-1.8,2.4-5.2s-1.4-15-7.4-15-9,8.8-9.2,21h0Z"/>
      <path class="cls-5" d="M430.6,194.4c0-5.6-.3-10.5-.5-14.1,0-1.5-.8-2-7-2l.3-4.7c8.2-.1,17.2-.5,25.1-1.8.4,1.9,1,6.4,1.3,8.7,4.4-4.1,11-9.2,20.9-9.2s10.5,2.9,12.3,5.1c1.2,1.4,1.8,2.9,2.3,4.4,4.9-4,11.3-9.5,21.4-9.5s11.8,3.7,13.7,6.9c1.7,2.9,2.2,5.8,2.2,9.1v32.9c0,2.7.5,2.9,7.3,3.6v4.7c-5,0-10-.5-16.8-.5s-12.8.5-16.1.5v-4.7c4.9-.3,6.1-1.2,6.3-3.6.3-2.8.5-7.2.5-16.4,0-17.2,0-18.4-.9-20-1-2.2-2.8-3.6-5.8-3.6s-7.3,2.4-9.6,6.3c-1,1.7-1.4,3.3-1.4,5.5v28.1c.3,2.7,1.3,3.2,6.5,3.6l-.4,4.6c-2.7,0-9.9-.4-16.4-.4s-12.5.4-15.2.4v-4.7c4.6-.3,5.9-.8,6-4,.3-3.7.5-8.1.5-15.1v-11.8c0-6.3,0-7.7-.8-9.2-1-2-2.8-3.3-5.6-3.3s-7.4,2.3-9.9,6.3c-1,1.7-1.4,3.5-1.4,6v15.4c0,5.4,0,8.8.4,12.4,0,2.6,1.3,3.1,6.3,3.5l-.6,4.6c-2.6,0-9.2-.4-15.4-.4s-13.4.4-17.4.4v-4.6c6.5-.4,7.3-.8,7.4-4,.3-3.2.5-8.3.5-14.3v-11h0Z"/>
      <path class="cls-5" d="M600.2,200.2c0,18-12.2,29.6-31.7,29.6s-31.1-12.3-31.1-28.5,11.3-30,32-30,30.8,10.6,30.8,28.9ZM561.1,181c-1.7,3.2-2.9,9.7-2.9,17.3s1.2,16.1,3.2,20.6c1.9,4.1,4.7,6,8.3,6s6-1.9,7.4-5.2c1.8-4.2,2.6-9.9,2.6-17.9s-1.5-16.8-3.3-20.5c-1.7-3.1-4-5.1-7.7-5.1s-5.9,2-7.6,4.9h0Z"/>
      <path class="cls-5" d="M645.6,174.6c0-12.2-.3-16.4-.4-18.9,0-1.8-.8-2.8-3.6-3.1l-7-.6.5-4.5c3.1,0,11.9.4,18.3.4s16.8-.5,23.4-.5c13.6,0,19.2,1.9,23,5.5,3.7,3.5,5,8.4,5,13.1,0,13.4-10.6,18.6-23.3,20.5v.5c14.1,1.9,20.5,5.9,22.9,15.2,1.3,4.2,2,11.1,2.4,15.9.3,4.1,2.7,5.9,6.1,5.9s2.2-.1,3.2-.4l-.8,4.7c-1.8.6-7,1.2-11.1,1.2-12.5,0-19.3-4.7-20.2-15.7-.5-4.6-.6-8.2-1-11.8-.8-10-4.9-12.2-13.7-12.2h-3.3v12.5c0,9.2,0,13.8.4,17.3,0,2.9.9,3.6,9.7,4.2l-.3,4.6c-4.2,0-13.3-.4-20.5-.4s-16.5.4-20.6.4v-4.6c8.4-.6,10-1.3,10.2-3.8.3-2.9.5-8.1.5-18v-27.3h.2,0ZM666.1,184.8h3.3c10.1,0,14.1-5.4,14.1-16.9s-.8-8.3-2-10.8c-1.5-2.7-4.1-4.9-9.3-4.9s-2.7.3-3.8.5-1.5.9-1.7,2.4-.5,5.9-.5,16.9v12.7h0Z"/>
      <path class="cls-5" d="M774.9,212c-4.7,13.1-14,17.8-25.9,17.8s-18.4-3.3-22.8-8.8c-3.6-4.5-5.8-11.5-5.8-19.3,0-16.3,9.7-30.3,29.7-30.3s25,15.9,25,23.3-.9,4.5-2.3,5.2c-2,1-6.9,1.8-14.6,2-3.8.1-10.8.1-17.5.1,0,4.7,1,9.5,2.7,12.9,2.2,4.4,5.9,6.9,11.8,6.9s11.6-3.3,15.2-12.4l4.5,2.6h0ZM741,197h6.3c3.6,0,6.3-.3,7.9-.8,1.5-.4,2.4-1.8,2.4-5.2s-1.4-15-7.4-15-9,8.8-9.2,21h0Z"/>
      <path class="cls-5" d="M839,212c-4.7,13.1-14,17.8-25.9,17.8s-18.4-3.3-22.8-8.8c-3.6-4.5-5.8-11.5-5.8-19.3,0-16.3,9.7-30.3,29.7-30.3s25,15.9,25,23.3-.9,4.5-2.3,5.2c-2,1-6.9,1.8-14.6,2-3.8.1-10.8.1-17.5.1,0,4.7,1,9.5,2.7,12.9,2.2,4.4,5.9,6.9,11.8,6.9s11.6-3.3,15.2-12.4l4.5,2.6h0ZM805.1,197h6.3c3.6,0,6.3-.3,7.9-.8,1.5-.4,2.4-1.8,2.4-5.2s-1.4-15-7.4-15-9,8.8-9.2,21h0Z"/>
      <path class="cls-5" d="M845.8,144.5c8.6,0,17.9-.8,26.6-1.7,0,3.5-.4,9.7-.4,24.4v52.1c0,3.6,1.4,4.1,7.8,4.4v4.6c-5.1,0-12.9-.4-18.8-.4s-12,.4-16.5.4v-4.6c6.7-.1,7.7-1.2,7.9-5,0-2.6.5-9.3.5-19.5v-46.8c0-2.8-.9-3.2-7.3-3.3v-4.6h.2Z"/>
    </g>
  </g>
  <path class="cls-1" d="M534.3,57.9v-3.5c0-1.2.2-2.2.7-3.1s1-1.6,1.7-2.2,1.5-1.2,2.4-1.7,1.7-.9,2.6-1.4c.9-.4,1.7-.9,2.4-1.3.7-.4,1.3-.9,1.7-1.4s.7-1.2.7-1.9-.3-1.7-1-2.3-1.5-.9-2.7-.9-2.2.3-3,1-1.3,1.7-1.5,3h-4.5c0-1.5.4-2.8,1-4,.7-1.2,1.7-2.1,3-2.9,1.3-.7,3-1.1,5-1.1s3.2.3,4.5.9c1.2.6,2.2,1.4,2.9,2.4.7,1.1,1,2.3,1,3.7s-.2,2.2-.6,3-1,1.6-1.7,2.2-1.5,1.1-2.3,1.6c-.8.4-1.7.9-2.5,1.2-.8.4-1.6.8-2.3,1.2s-1.3.9-1.7,1.4-.6,1.1-.6,1.8v.2h11.8v3.9h-17v.2h0Z"/>
  <path class="cls-1" d="M564.5,34.5c2.8,0,4.9,1,6.5,3.1s2.4,5,2.4,8.9-.8,6.8-2.3,8.8c-1.6,2-3.8,3.1-6.5,3.1s-5-1-6.6-3.1c-1.6-2-2.4-5-2.4-8.8s.4-4.7,1.1-6.5c.7-1.8,1.8-3.1,3.1-4.1,1.3-.9,2.9-1.4,4.8-1.4h0ZM564.5,54.5c1.4,0,2.4-.6,3-1.9.6-1.2,1-3.3,1-6.2s-.3-5.1-1-6.4c-.7-1.3-1.7-1.9-3-1.9s-2.4.6-3,1.9-1,3.4-1,6.3.3,4.9,1,6.2c.7,1.2,1.7,1.9,3.1,1.9h0Z"/>
  <path class="cls-1" d="M578,57.9v-3.5c0-1.2.2-2.2.7-3.1s1-1.6,1.7-2.2,1.5-1.2,2.4-1.7,1.7-.9,2.6-1.4,1.7-.9,2.4-1.3c.7-.4,1.3-.9,1.7-1.4s.7-1.2.7-1.9-.3-1.7-1-2.3-1.5-.9-2.7-.9-2.2.3-3,1-1.3,1.7-1.5,3h-4.5c0-1.5.4-2.8,1-4s1.7-2.1,3-2.9c1.3-.7,3-1.1,5-1.1s3.2.3,4.5.9c1.2.6,2.2,1.4,2.9,2.4.7,1.1,1,2.3,1,3.7s-.2,2.2-.6,3-1,1.6-1.7,2.2-1.5,1.1-2.3,1.6c-.8.4-1.7.9-2.5,1.2-.8.4-1.6.8-2.3,1.2s-1.3.9-1.7,1.4-.6,1.1-.6,1.8v.2h11.8v3.9h-17v.2h0Z"/>
  <path class="cls-1" d="M610.4,34.8h4.6v14.1h3.6v3.9h-3.6v5.1h-4.5v-5.1h-10.6v-3.8l10.5-14.2h0ZM604.2,48.9h6.3v-8.5l-6.3,8.5Z"/>
  <path class="cls-1" d="M452.2,78.8h4.7v23.1h-4.2l-11-15.9v15.9h-4.7v-23.1h4.6l10.6,15.3v-15.3h0Z"/>
  <path class="cls-1" d="M462,101.9v-23.1h15.9v3.9h-11.2v5.6h9.7v3.9h-9.7v5.7h11.4v4h-16.1,0Z"/>
  <path class="cls-1" d="M510.4,78.8l-6.8,23.1h-3.7l-4.3-15.1-4.4,15.1h-3.7l-6.8-23.1h4.6l4.3,15.3,4.3-15.3h3.4l4.3,15.3,4.3-15.3h4.6,0Z"/>
  <path class="cls-1" d="M520.3,101.9v-23.1h6.8l5.3,16.5,5.3-16.5h6.8v23.1h-4.7v-17.7l-5.6,17.7h-3.7l-5.5-17.6v17.6h-4.7,0Z"/>
  <path class="cls-1" d="M549.7,101.9v-23.1h15.9v3.9h-11.2v5.6h9.7v3.9h-9.7v5.7h11.4v4h-16.1Z"/>
  <path class="cls-1" d="M570.2,78.8h6.9c2.8,0,5.1.6,6.9,1.5,1.8.9,3.1,2.2,3.9,3.9s1.2,3.7,1.2,6-.4,4.5-1.3,6.2c-.9,1.7-2.2,3.1-4,4s-4.1,1.4-6.8,1.4h-6.8v-23.1h0ZM574.9,82.6v15.6h2.1c1.3,0,2.5-.3,3.6-.8s2-1.4,2.6-2.5c.7-1.2,1-2.7,1-4.7s-.3-3.3-.9-4.4c-.6-1.1-1.4-1.9-2.5-2.5s-2.3-.8-3.8-.8h-2.2.1Z"/>
  <path class="cls-1" d="M593.2,78.8h4.7v23.1h-4.7v-23.1Z"/>
  <path class="cls-1" d="M601.4,101.9l8.3-23.1h4.9l8.3,23.1h-4.7l-1.9-5.4h-8.3l-1.9,5.4h-4.7,0ZM609,92.5h6.2l-3.1-9.2-3.1,9.2h0Z"/>
  <path class="cls-1" d="M631.4,101.9l8.3-23.1h4.9l8.3,23.1h-4.7l-1.9-5.4h-8.3l-1.9,5.4h-4.7,0ZM639.1,92.5h6.2l-3.1-9.2-3.1,9.2h0Z"/>
  <path class="cls-1" d="M674.3,101.9h-4.8l-3.8-8.9h-4.7v8.9h-4.7v-23.1h9.8c1.8,0,3.3.3,4.5.9s2,1.4,2.6,2.4.8,2.2.8,3.6-.2,2.2-.6,3.1-.9,1.5-1.5,2.1-1.3,1-2,1.4l4.3,9.7h.1ZM665.3,89.4c1.2,0,2.2-.3,3-1s1.1-1.5,1.1-2.6-.3-1.9-1.1-2.5c-.7-.6-1.6-.9-2.7-.9h-4.6v7.1h4.3Z"/>
  <path class="cls-1" d="M676.3,83v-4.2h18.5v4.2h-6.8v19h-4.7v-19h-7Z"/>
  <path class="cls-1" d="M706.7,102.2c-1.1,0-2.3,0-3.4-.4s-2.1-.7-3-1.3-1.7-1.3-2.2-2.2-1-1.9-1.1-3h4.8c.2.7.5,1.3.9,1.8s1,.9,1.7,1.1c.7.3,1.4.4,2.3.4s1.6,0,2.3-.3c.7-.2,1.3-.5,1.7-1,.4-.4.6-1,.6-1.6s-.2-1.1-.5-1.4-.8-.7-1.4-.9-1.2-.4-2-.6l-4-.8c-1.8-.3-3.1-1-4.2-2.1-1-1.1-1.5-2.5-1.6-4.2,0-1.4.4-2.7,1.2-3.8s1.9-1.9,3.2-2.5,2.9-.9,4.5-.9,3.7.3,5,.9,2.4,1.5,3.1,2.5,1.1,2.2,1.1,3.5h-4.7c0-.8-.3-1.5-.7-1.9s-.9-.8-1.6-1c-.6-.2-1.4-.3-2.2-.3s-1.2,0-1.7.2c-.5,0-.9.3-1.3.6-.3.2-.6.6-.8.9s-.3.7-.3,1.1c0,.7.2,1.2.7,1.6.4.4,1.3.8,2.5,1l4,.8c1.4.3,2.6.7,3.4,1.2s1.5,1.2,1.9,1.8.7,1.4.8,2.1c0,.7.2,1.4.2,2,0,1.2-.4,2.4-1.2,3.4s-1.9,1.8-3.3,2.4-3,.9-4.9.9c0,0,.2,0,.2,0Z"/>
  <rect class="cls-3" x="403.4" y="320.5" width="95.3" height="3.2"/>
  <rect class="cls-3" x="653.3" y="324.9" width="95.3" height="3.2"/>
  <path class="cls-5" d="M588.1,338.7c3.8-9,8.1-15.3,12.9-19,4.7-3.7,9.3-5.5,13.7-5.5s9.3,1.5,12.2,4.5,4.3,6.5,4.3,10.6-1.3,6.9-3.8,9.5c-2.6,2.6-5.7,3.9-9.5,3.9s-3.6-.4-5.2-1c-1.6-.7-3-1.7-4.1-2.9-1.2-1.2-2.1-2.6-2.8-4.2s-1-3.2-1-5,0-1.1.2-1.6l-.7-.5c-2,1.3-4,3.1-6.2,5.6s-4.3,5.8-6.6,10.1c2.8,4.8,5.4,8.7,7.8,11.8,2.4,3.1,4.6,5.5,6.7,7.4s4.1,3.1,6,3.8c1.9.7,3.7,1,5.4,1s4.1-.4,5.6-1.1c1.5-.8,3.6-2.1,6.3-4.1l3.2,4.2c-5.5,5.5-10.6,9.5-15.4,12.2-4.8,2.6-9.7,3.9-14.7,3.9s-6.4-.3-9-.9-5-1.6-7.3-3c-2.2-1.4-4.3-3.2-6.2-5.5s-3.9-5.1-5.9-8.5c-4,5.5-8.7,9.8-14.2,13s-12.1,4.8-19.8,4.8-19.2-2.7-25.1-8-8.8-12-8.8-20.2,2.4-13.3,7.3-18.8,12.6-10,23.2-13.4c-2.6-2.6-4.7-5-6.5-7.3s-3.2-4.5-4.3-6.6-1.9-4.2-2.5-6.3c-.5-2.1-.8-4.4-.8-6.8,0-4.2.8-8.1,2.5-11.7s4.1-6.8,7.3-9.5,6.9-4.9,11.4-6.4c4.4-1.5,9.4-2.3,14.9-2.3s10.3.7,14.3,2.1c4.1,1.4,7.5,3.2,10.2,5.5s4.7,4.9,6,7.8,2,5.9,2,8.9c0,5.6-2.1,10.6-6.4,15-4.3,4.4-10.7,8-19.2,10.7,4.5,3.7,8.8,7.6,12.7,11.5s7.2,8,9.9,12.1h0v.2h0ZM540.9,325.5c-5.7,6.1-8.6,13.1-8.6,21s2,12.5,6.1,16.3c4.1,3.7,9.3,5.6,15.6,5.6s6-.7,9-2,5.8-3.5,8.3-6.4c-1.8-2.7-3.8-5.5-6-8.5-2.3-3-4.7-6-7.3-9s-5.4-6-8.3-8.8c-2.9-2.9-5.8-5.6-8.8-8.1h0ZM560.8,311c3.4-3.3,5.8-6.7,7.3-10.3s2.2-8.1,2.2-13.5-1.2-9.7-3.5-12.6-5.5-4.3-9.5-4.3-6,1.4-8.3,4-3.4,6.4-3.4,11.1.2,4.1.6,5.9,1.2,3.7,2.4,5.6,2.7,4,4.7,6.2,4.5,4.8,7.5,7.7h0v.2h0Z"/>
  <g class="cls-8">
    <path class="cls-5" d="M317.8,600.6v-30.3h-11.3v-4.1h27.2v4.1h-11.4v30.3h-4.5Z"/>
    <path class="cls-5" d="M360.9,566.3h4.5v19.9c0,3.5-.4,6.2-1.2,8.2s-2.2,3.7-4.2,5-4.7,1.9-8,1.9-5.9-.6-7.9-1.7-3.5-2.7-4.4-4.8-1.3-5-1.3-8.6v-19.9h4.5v19.8c0,3,.3,5.2.8,6.6s1.5,2.5,2.9,3.3,3,1.1,5,1.1c3.3,0,5.7-.8,7.1-2.3s2.1-4.4,2.1-8.7v-19.8h.1Z"/>
  </g>
  <g class="cls-8">
    <path class="cls-5" d="M371.8,600.6v-34.4h24.8v4.1h-20.3v10.5h19v4h-19v11.7h21.1v4.1h-25.6Z"/>
  </g>
  <g class="cls-8">
    <path class="cls-5" d="M400.4,589.6l4.3-.4c.2,1.7.7,3.1,1.4,4.2s1.9,2,3.5,2.7,3.3,1,5.3,1,3.3-.3,4.6-.8,2.3-1.2,3-2.1,1-1.9,1-2.9-.3-2-.9-2.8-1.7-1.5-3.1-2c-.9-.4-3-.9-6.1-1.7s-5.4-1.5-6.6-2.1c-1.6-.9-2.9-1.9-3.7-3.2s-1.2-2.7-1.2-4.3.5-3.4,1.5-4.9,2.4-2.7,4.3-3.4,4-1.2,6.3-1.2,4.8.4,6.7,1.2,3.4,2,4.5,3.6,1.6,3.4,1.7,5.4l-4.4.3c-.2-2.2-1-3.8-2.4-4.9s-3.3-1.7-6-1.7-4.8.5-6,1.5-1.9,2.2-1.9,3.6.4,2.2,1.3,3,3.2,1.6,6.9,2.4,6.2,1.6,7.6,2.2c2,.9,3.5,2.1,4.4,3.5s1.4,3,1.4,4.9-.5,3.6-1.6,5.2-2.6,2.9-4.5,3.8-4.2,1.3-6.6,1.3-5.7-.5-7.8-1.4-3.8-2.3-4.9-4.1-1.8-3.9-1.9-6.2v.3h0Z"/>
  </g>
  <g class="cls-8">
    <path class="cls-5" d="M434.4,600.6v-34.4h11.8c2.7,0,4.7.2,6.1.5,2,.5,3.6,1.3,5,2.5,1.8,1.5,3.2,3.5,4.1,5.9s1.3,5.1,1.3,8.2-.3,4.9-.9,6.9-1.4,3.7-2.3,5-2,2.4-3.1,3.1-2.5,1.3-4.1,1.7-3.4.6-5.5.6h-12.4ZM438.9,596.6h7.3c2.3,0,4-.2,5.3-.6s2.3-1,3.1-1.8,1.9-2.5,2.5-4.3.9-4,.9-6.6-.6-6.4-1.8-8.3-2.6-3.2-4.3-3.9c-1.2-.5-3.2-.7-5.9-.7h-7.2v26.2h.1Z"/>
  </g>
  <g class="cls-8">
    <path class="cls-5" d="M462.8,600.6l13.2-34.4h4.9l14.1,34.4h-5.2l-4-10.4h-14.4l-3.8,10.4h-4.8ZM472.7,586.5h11.6l-3.6-9.5c-1.1-2.9-1.9-5.3-2.4-7.1-.4,2.2-1.1,4.4-1.9,6.6l-3.8,10.1h.1,0Z"/>
  </g>
  <g class="cls-8">
    <path class="cls-5" d="M506.8,600.6v-14.6l-13.2-19.8h5.5l6.8,10.4c1.2,1.9,2.4,3.9,3.5,5.8,1-1.8,2.3-3.8,3.8-6.1l6.7-10.1h5.3l-13.7,19.8v14.6h-4.7,0Z"/>
  </g>
  <g class="cls-8">
    <path class="cls-5" d="M520.4,600.6v-4.8h4.8v4.8c0,1.8-.3,3.2-.9,4.3s-1.6,1.9-3,2.5l-1.2-1.8c.9-.4,1.5-1,2-1.7s.7-1.8.7-3.3h-2.4Z"/>
  </g>
  <g class="cls-8">
    <path class="cls-5" d="M547.8,600.6v-34.4h6.8l8.1,24.3c.8,2.3,1.3,4,1.6,5.1.4-1.2,1-3.1,1.8-5.5l8.2-23.9h6.1v34.4h-4.4v-28.8l-10,28.8h-4.1l-9.9-29.2v29.2h-4.4.2Z"/>
  </g>
  <g class="cls-8">
    <path class="cls-5" d="M584.6,600.6l13.2-34.4h4.9l14.1,34.4h-5.2l-4-10.4h-14.4l-3.8,10.4h-4.8ZM594.5,586.5h11.6l-3.6-9.5c-1.1-2.9-1.9-5.3-2.4-7.1-.4,2.2-1.1,4.4-1.9,6.6l-3.8,10.1h.1Z"/>
  </g>
  <g class="cls-8">
    <path class="cls-5" d="M626.6,600.6v-14.6l-13.2-19.8h5.5l6.8,10.4c1.2,1.9,2.4,3.9,3.5,5.8,1-1.8,2.3-3.8,3.8-6.1l6.7-10.1h5.3l-13.7,19.8v14.6h-4.7,0Z"/>
  </g>
  <path class="cls-4" d="M678.6,600.6h-4.2v-26.9c-1,1-2.3,1.9-4,2.9s-3.1,1.7-4.4,2.2v-4.1c2.4-1.1,4.4-2.5,6.2-4s3-3.1,3.8-4.6h2.7v34.5h0Z"/>
  <path class="cls-4" d="M699.9,600.6v-8.2h-14.9v-3.9l15.7-22.3h3.4v22.3h4.6v3.9h-4.6v8.2h-4.2ZM699.9,588.5v-15.5l-10.8,15.5h10.8Z"/>
  <g class="cls-8">
    <path class="cls-5" d="M754.8,596.6v4.1h-22.7c0-1,0-2,.5-2.9.6-1.5,1.5-3.1,2.8-4.6s3.1-3.2,5.5-5.2c3.7-3.1,6.3-5.5,7.6-7.3s2-3.5,2-5.1-.6-3.1-1.8-4.2-2.8-1.7-4.7-1.7-3.7.6-4.9,1.8-1.8,2.9-1.9,5.1l-4.3-.4c.3-3.2,1.4-5.7,3.4-7.4s4.5-2.5,7.8-2.5,5.9.9,7.8,2.7,2.9,4.1,2.9,6.8-.3,2.7-.8,4.1-1.5,2.7-2.8,4.2-3.5,3.5-6.5,6c-2.5,2.1-4.2,3.6-4.9,4.3s-1.3,1.5-1.8,2.3h16.9,0Z"/>
    <path class="cls-5" d="M759.3,583.7c0-4.1.4-7.3,1.3-9.8s2.1-4.4,3.7-5.7,3.7-2,6.2-2,3.5.4,4.9,1.1,2.5,1.8,3.4,3.2,1.6,3.1,2.1,5.1.8,4.7.8,8.1-.4,7.3-1.2,9.8-2.1,4.4-3.7,5.7-3.7,2-6.2,2-5.9-1.2-7.8-3.6c-2.3-2.9-3.4-7.5-3.4-14h0ZM763.7,583.7c0,5.6.7,9.4,2,11.3s2.9,2.8,4.9,2.8,3.6-.9,4.9-2.8,2-5.6,2-11.2-.7-9.4-2-11.3-3-2.8-4.9-2.8-3.5.8-4.6,2.5c-1.5,2.1-2.2,6-2.2,11.6h-.1Z"/>
    <path class="cls-5" d="M808.2,596.6v4.1h-22.7c0-1,0-2,.5-2.9.6-1.5,1.5-3.1,2.8-4.6s3.1-3.2,5.5-5.2c3.7-3.1,6.3-5.5,7.6-7.3s2-3.5,2-5.1-.6-3.1-1.8-4.2-2.8-1.7-4.7-1.7-3.7.6-4.9,1.8-1.8,2.9-1.9,5.1l-4.3-.4c.3-3.2,1.4-5.7,3.4-7.4s4.5-2.5,7.8-2.5,5.9.9,7.8,2.7,2.9,4.1,2.9,6.8-.3,2.7-.8,4.1-1.5,2.7-2.8,4.2-3.5,3.5-6.5,6c-2.5,2.1-4.2,3.6-4.9,4.3s-1.3,1.5-1.8,2.3h16.9,0Z"/>
    <path class="cls-5" d="M826.2,600.6v-8.2h-14.9v-3.9l15.7-22.3h3.4v22.3h4.6v3.9h-4.6v8.2h-4.2ZM826.2,588.5v-15.5l-10.8,15.5h10.8Z"/>
  </g>
</svg>