<?xml version="1.0" encoding="UTF-8"?>
<svg id="Layer_1" data-name="Layer 1" xmlns="http://www.w3.org/2000/svg" version="1.1" viewBox="0 0 1171.7 1500">
  <defs>
    <style>
      .cls-1 {
        fill: #000;
        stroke-width: 0px;
      }
    </style>
  </defs>
  <path class="cls-1" d="M786.1,84.1c7.1,1.1,14.4,1.6,21.4,3.3,21.3,5,37.3,18.2,49,36,7.7,11.6,13.6,24.5,20.2,36.8,1.6,2.9,3.1,5.8,4.3,8.9,9.1,23.3,27.9,33.2,51.1,36.3,10.2,1.4,20.6,1.2,30.8,1.8,24.5,1.5,46.1,10,61.7,29.4,18.8,23.4,23.5,49.9,12.4,78.3-9,23-23.9,30.8-48.3,26-11.6-2.3-22.5-6.5-32.9-12-1.5-.8-2.9-1.5-5.5-2.8,1.2,2.2,1.8,3.5,2.4,4.6,31,51.2,50.3,106.4,57.4,165.9,5,42.1,5.5,84.3,3.9,126.5-.2,4.6-.2,9.2-.8,13.7-.9,7.2-3.6,8.8-10.4,6.5,3.6,26.4,7.3,52.8,11,79.8,3.5-.8,7.3-1.7,11.2-2.4,32.7-5.9,63.9-2.7,91.5,17.2,28.5,20.5,41.4,49.3,41.8,83.9.4,34.2-11.6,64.2-32,91-24.5,32.2-56.2,53.8-95.7,63.6-3.1.8-3.3,2.4-3.2,4.9,1.4,25.3,1.9,50.7,4.3,75.9,3.5,36,8.1,72,12.9,107.8,7,52.3,19,103.6,33.8,154.2,9.4,32.1,19.2,64.1,28.9,96.2,1.8,5.9,4.2,11.6,6.4,17.3,1.6,4.2,1.1,7.7-1.9,9-3.7,1.6-6.6,0-8.3-3.2-2.7-5.2-5.5-10.4-7.2-16-10.2-33.2-20.3-66.5-30.1-99.9-1.3-4.3-3.2-6.6-7.4-7.5-2.9-.6-5.7-1.7-9-2.7.4,5.8,1,11.2,1.2,16.6.6,14.9-1.2,29.4-7.3,43.2-9.5,21.5-31.6,36.4-52.9,35.5-14.2-.6-26-7.3-36.7-16.2-22.9-19.1-37.8-43.6-47.6-71.3-5.6-15.7-9.4-32.1-13.6-48.3-.8-3.2-1.9-4.8-5.2-5.6-60.5-15.3-121-30.5-181.4-46.2-24.5-6.4-48.7-13.7-73-20.8-3.2-.9-5.4-.2-7.8,1.8-4.3,3.8-8.8,7.3-13.2,11-11.1,9.5-23.8,12.7-38.1,9.5-15.1-3.4-29.1-9.4-41.5-18.8-2.1-1.6-6-1.9-8.8-1.3-67.4,14.1-134.7,28.5-202,42.7-4.1.9-5.5,2.4-5.2,6.7,2.1,38.2-1.3,75.8-11.2,112.8-5.8,21.6-15.2,41.4-30.8,57.7-27.1,28.4-58.2,21.4-80.6,1.3-17.6-15.8-26.6-37-32.9-59.3-6.1-21.7-6-43.8-4-66.1.1-1.7.2-3.4.4-5.9-6.2,2.2-11.8,4.2-17.4,6.2-8.8,3.2-8.6,3.2-9,12.4-2,46.9-4.1,93.8-6.3,140.7-.4,8.9-1.4,17.7-2.6,26.5-.5,3.7-2.1,7.4-3.8,10.8-1.3,2.7-4.2,3.6-7.1,2.4-2.9-1.2-3.7-3.7-3.4-6.7,1.9-17.8,4.4-35.5,5.4-53.3,2.1-38.7,3.5-77.5,5.2-116.3.1-2.6,0-5.1,0-8.4-1.7.6-3.2.9-4.6,1.5-9.3,3.6-18.5,7.6-28,10.8-4.3,1.5-9.2,2.2-13.7,2.1-1.9,0-4.5-2.9-5.3-5.1-1-2.6,1.1-4.8,3.8-5.8,12.9-4.6,25.8-9.3,38.7-14,9.4-3.4,9.6-3.4,9.5-13.6-.2-56.7-.4-113.4-.8-170.1-.3-45.8-1-91.7-1.3-137.5,0-3.6-1.1-5.6-4.2-7.4-41.7-24.3-72.9-57.9-90.3-103.3-9.5-24.7-12.8-50.4-5.4-76.2,10.9-38,37.3-58.7,75.5-65.6,14.4-2.6,28.8-1.9,43.6.2.8-7.4,1.6-14.8,2.4-22.2,4.9-45.9,17-89.9,34.6-132.5,23-55.5,50.6-108.4,88.6-155.4,25.2-31.2,54.6-57.8,85.9-82.5,30.2-23.9,61.7-46.1,94.5-66.4,1.1-.7,2.1-1.4,3.1-2.1-5.4-6.5-10.5-12.8-15.8-18.9-18.4-21.1-9.4-41,4.2-54,10.5-9.9,22.5-10.8,35.5-6.3,6.7,2.3,13.4,5,20.1,7.3,1.6.5,3.3.5,5.4.8.4-2.7.4-5.1,1-7.4,10.6-38.7,31.6-68.6,70.5-83.3,9.9-3.8,20.3-5,30.8-4.7,12.8.3,25.4-.4,37.9-3.6,16.8-4.3,29.9-13.9,41.2-26.6,10.8-12.2,21.4-24.7,32.6-36.5,8.3-8.8,17.9-16.2,30.3-18.6,14.2-2.7,26,1.5,35,13.1,7.7,10,10.9,21.8,11.8,34,.7,9.1.1,18.2.1,27.6ZM571.9,1137.7c8.5-.4,17.6-.7,26.8-1.3,44.8-3.2,87.4-14.4,127.9-33.6,66.6-31.6,119-79.2,157.1-142.3,1.1-1.9,1.9-4.6,1.4-6.7-12.6-57.7-25.4-115.4-38.1-173.1-8.7-39.9-17.8-79.6-32-118-12.1-32.6-27.7-63.3-53.5-87.4-29.6-27.7-63.6-46.5-105.1-47.6-27.7-.7-54.3,3.4-76.4,22.5-4.1,3.5-7.6,2.3-10-2.3-1.4-2.6-3.1-5.2-5.3-7-7.5-6.2-15.9-10.6-25.4-13.1-24.6-6.5-48.5-4.2-72,5-52.6,20.6-92.4,56.4-121.6,104.3-30.1,49.4-48.9,103.2-58.8,159.8-6.9,39.7-12.1,79.8-16.9,119.8-1.9,16-1.1,32.3-1.2,48.4,0,7.6,2.2,14.2,7,20.6,15.8,21.2,33,41.1,52.8,58.6,69.3,61.2,150.3,91.9,243.3,93.3ZM875.6,404.8c-16.4-20.3-33.7-38.8-52.5-55.8-29.2-26.5-60.8-50.1-93-72.8-11.6-8.2-24.4-14.8-37.2-21.1-10.7-5.3-22.2-5.5-33.4-.8-7.6,3.2-15.3,6.5-22.5,10.5-11.7,6.4-22.6,14.1-32.1,23.6-5.2,5.2-11.9,5.1-15.7.3-14.5-18.3-33.1-31.4-53.6-42.1-6.5-3.4-13.5-4.4-20.8-3.3-12.2,1.9-23.3,6.9-34.1,12.6-30.2,16.1-58.8,35-86.6,55-31.6,22.8-62.4,46.7-90.2,74.1-5,5-9.9,10.1-15.3,15.7,8.7,6.4,16.5,12.6,24.8,18.2,30.4,20.9,61.8,40.1,96.7,52.5,49.1,17.5,100.2,23.4,151.9,24.4,42.3.8,83.8-6.1,124.8-16.4,56.9-14.3,111-35.9,163.4-61.9,8.3-4.1,16.6-8.2,25.3-12.5ZM1000.7,633.9c.2-2.2.5-3.3.5-4.4,0-29.1.5-58.1,0-87.2-.4-24.8-4-49.3-8.3-73.7-8.8-50-29.2-95.3-54.8-138.5-6-10.1-12.7-19.7-19.2-29.5-2.8-4.3-2.6-8.4.8-11.1,3-2.5,6.2-1.6,9.8,2.7,12.2,14.1,27.1,24.8,44.6,31.1,8.4,3,17.3,4.7,26.2,6.2,8.6,1.4,15.3-2.5,20.1-9.6,6.3-9.3,9.3-19.7,9.6-30.7,1-31.5-19.1-58.5-50-66.1-10-2.5-20.7-2.3-31-3.5-10.1-1.1-20.3-1.5-30.1-3.8-21.4-5-38.2-16.4-47.4-37.3-3-6.9-6.4-13.8-10-20.5-5.1-9.6-9.9-19.4-16.1-28.3-16-23.2-38.4-34.1-66.6-32.1-9.4.7-19.1,2-23.2,12.8-.3.9-1.2,1.6-2,2.2-2.6,2.1-5.4,2.9-8.2.7-2.9-2.2-3.4-5.2-2-8.4.7-1.5,1.8-2.9,2.8-4.3,5.8-7.2,13.3-11.7,22.2-13.7,2.6-.6,4.1-1.7,4.2-4.4.4-7,1.4-14,1-20.9-.6-10.3-2.4-20.5-8.3-29.4-6.7-10.1-17.5-13.8-28.4-8.6-6.1,2.9-12.2,6.7-16.8,11.5-12.4,12.9-24,26.5-36,39.8-13.6,15.1-29.9,26-50.2,29.4-11.5,1.9-23.3,2.6-35,3.1-10.2.4-20.3.8-29.9,4.7-33.2,13.4-51.6,39.5-61.7,72.5-.3.9-.3,1.9-.6,3.7,4.5-1.6,8.4-2.9,12.1-4.4,18.6-7.6,35.7-5,51.9,6.7,4.5,3.3,9.9,6.1,15.3,7.4,17.6,4.1,33.8.5,47.7-11.5,8.3-7.2,17.1-14,28.2-15.5,9.5-1.2,19.4-1,29-.4,10.6.6,19.7,5.7,27.6,12.7,5.6,5,7.7,11.1,6.7,18.5-2.1,15.1-9.2,27.9-18.7,39.4-1.1,1.4-2.2,2.8-3.4,4.3,4.4,2.3,8.6,4,12.2,6.5,19.1,13.1,38.3,26.1,57,39.9,40.2,29.5,77.3,62.3,109.4,100.6,52,62.1,88.8,132,110.8,209.9,2.9,10.1,5.1,20.4,8,31.7ZM280.4,409.8c-50.1,58.8-83.2,126.7-109.1,198.8,20.5-6.2,40.3-12.1,59.9-18.2,1.3-.4,2.5-2.2,3.1-3.6,6.1-13.4,11.2-27.4,18.3-40.2,11.7-21.3,24.6-41.9,37.1-62.8,2.6-4.3,5.9-5.4,8.9-3.8,3.1,1.6,3.8,5.2,1.5,9.9-1.5,2.9-3.2,5.7-5,8.5-17.4,26.3-32.5,53.9-44.7,83-.5,1.3-1,2.6-1.7,4.5,2.1-.4,3.6-.7,5.1-1,43.9-10.3,88.2-18.5,133-23.7,5.7-.7,10.4-2.4,15.1-6,20.8-16.2,43.7-28.8,68.8-37.2,25.5-8.5,51.1-9.3,76.7-.6,11.6,3.9,21.4,10.7,29.9,18.9,6.9-3.8,13.2-8.1,20.2-11,30.4-12.7,61.8-13.9,93.4-5.5,39.1,10.4,70.2,33.4,96.2,63.8,2,2.3,4.7,4.9,7.6,5.6,40.2,10,78.6,24.6,115.6,43,1.3.7,2.7,1.3,4,1.9.3-.6.4-.7.4-.8-6.1-29.1-10.4-58.6-22.3-86.2-1.2-2.7-1.2-5.4,1.5-7.3,2.7-2,5.5-1.5,7.8.8,1.6,1.6,3.1,3.4,4.1,5.4,1.7,3.5,3.3,7.1,4.2,10.8,6.4,27.2,12.5,54.4,18.9,81.5.4,1.9,1.9,4.2,3.6,5.1,19.4,11,39,21.7,58.5,32.5,1.2.7,2.4,1.2,4.6,2.4-1.7-9.8-3.1-18.5-4.7-27.2-15-84-49.5-159.5-100.1-227.8-6.5-8.7-6.6-8.7-16.2-3.8-53.8,27.3-109,51.4-167.3,67.5-42.5,11.7-85.6,20-129.8,21.1-24.5.7-49-.7-73.3-3.6-30.8-3.6-61.2-8.9-90.7-18.7-35.1-11.6-66.8-29.9-97.4-50.1-12-8-23.3-17-35.4-26ZM931.6,657.8c0,1.2,0,1.9,0,2.6,4.4,36.8,2.3,73.5-1.8,110.1-3.2,29.4-7.4,58.8-11.4,88.1-6.6,48.3-13.6,96.6-20.2,145-4.4,32.1-7.7,64.2-7.4,96.7.3,37,2,73.8,5.9,110.6,3.2,30.5,7.6,60.8,16.6,90.2,8.8,28.9,21.7,55.4,44.1,76.5,3.8,3.6,8,6.9,12.4,9.8,23.5,15.7,43.7,5.8,56.7-10.5,9-11.3,11.5-25.1,12-39.2.7-18-2.9-35.4-8.1-52.4-8.4-27.2-17.6-54.1-26.5-81.2-16.1-48.8-24.6-98.8-22.9-150.3,1-30.2,4.4-60.2,9.1-90.1,7.2-45.3,12.9-90.7,13.8-136.6.8-43-1-85.9-5.8-128.6-.3-2.9-1.5-4.8-4.2-6.3-19.4-10.7-38.8-21.6-58.1-32.4-1.2-.7-2.5-1.2-4.1-2.1ZM227.6,605c-1.3.2-2.2.2-2.9.5-18.5,6.1-37,12.2-55.3,18.5-1.7.6-3.3,3-3.9,4.9-10.7,36.9-15.8,74.8-17.8,113-2.7,52.5,1.8,104.6,11.7,156,8.1,42.4,18.8,84.3,29.1,126.3,7.2,29.3,12.7,58.8,13.9,88.9.8,20.9-2.9,41.4-8.2,61.5-11.4,43.4-22.4,86.7-25,131.8-1.5,26,.9,51.2,11.7,75.1,6.5,14.2,14.2,27.6,27.3,36.8,19.4,13.7,38,12.7,55.4-3.4,11.7-10.8,19.4-24.4,24.8-39.2,11-30.3,15.3-61.9,16.1-94,1.2-46.2-4.6-91.8-16.8-136.4-9.6-35-20.5-69.7-31.7-104.3-18.2-56.2-36.3-112.4-46.4-170.9-6-35.1-10.7-70.2-10.3-105.8.5-41,6.7-81.3,17.3-120.8,3.4-12.7,7.2-25.3,11-38.5ZM889.2,978.9c-.5,0-1.1-.1-1.6-.2-.5.7-1,1.3-1.5,2-18.4,27.9-40.1,52.9-65.1,75-51,44.9-109.9,73.9-176.4,87.3-11.9,2.4-12.1,2.3-11.4,14.5.5,8.7,1.3,17.4,2.1,26.1.3,3.1,1.6,5.2,5.1,6,5.2,1.2,10.2,2.9,15.3,4.3,76.9,19.8,153.8,39.5,230.7,59.2.9.2,1.8.2,3,.3-12.8-91.7-16.5-183.1,0-274.5ZM315.8,1233c2.1-.4,3.5-.7,4.9-1,67.4-13.9,134.8-27.8,202.2-41.5,3.9-.8,4.9-2.9,5.1-6,.5-11.2.9-22.3,1.4-33.5.1-2.6-.9-3.4-3.4-3.7-5.3-.6-10.5-1.4-15.7-2.3-112.3-20.2-198.9-78.7-259.9-175.1-2.1-3.2-4-6.6-6-9.8-.1,1.7.2,3.2.7,4.6,13.7,43.2,27.3,86.5,41.3,129.6,12.7,39.3,22.8,79.2,27.4,120.3.7,5.9,1.4,11.9,2.1,18.3ZM253.5,952c.6-.2,1.2-.3,1.8-.5,0-1.4.1-2.7.2-4.1.8-12.6.9-25.2,2.4-37.7,3.8-31.1,7.9-62.2,12.6-93.1,6.6-44.2,17.8-87.1,35.1-128.4,17.3-41.2,39.2-79.6,71.3-111.4.3-.3.4-.9.7-1.5-1,0-1.7,0-2.4,0-39.6,5.5-78.7,13.1-117.8,21.5-11.4,2.4-16.3,7.5-19.6,18.3-14.3,47.3-24.5,95.3-25.7,144.9-.7,28.4,1.2,56.7,6.3,84.6,3.8,20.5,4.6,41.7,14.1,60.9,7.5,15.2,14.1,30.9,21.1,46.4ZM1061.1,770.6c-.3.4-.6.8-.9,1.3,5.3,9,10.6,18,16,26.9,2.4,4,2.8,7.2.4,9.3-2.7,2.4-6.1,2-9.4-1.7-2.8-3.2-5.1-6.9-7.2-10.6-4.4-7.5-8.6-15.1-13-22.7-2.4-4.1-5.9-5.8-10.5-4.4-5.6,1.8-11,3.8-16.5,5.7-3,1.1-3.7,3.3-3.7,6.4.8,39.4,0,78.7-4.4,118-.5,4.3.8,6,5.1,5.6,14.2-1.4,26.9-6.5,36.8-17.3,2.2-2.4,4.4-4.3,7.7-2.7,3.5,1.7,4,5.2,2.6,8.1-1.7,3.3-4.1,6.7-7.1,8.8-13.9,9.7-29,16-46.8,14.4-2.6,17.2-5.2,34.2-7.9,52.2,6.6-.8,12.4-1.1,18.1-2.2,39-7.4,70.4-27.5,94.6-58.6,22-28.1,34.3-59.9,30.2-96.2-3.3-29.7-17.5-53.1-44-67.8-25-14-51.8-15-79.2-8.6-7.5,1.8-7.6,1.8-7.1,9.8.3,6.2.8,12.4,1.2,19.1,12.7-6.6,25.5-8.4,38.9-6,10.2,1.8,20.2,4.2,28.8,10.3,4,2.8,4.8,6.6,2.7,9.6-2,2.9-5.2,3-9.6.7-5.2-2.6-10.5-4.9-15.8-7.3ZM134.4,766.8c-2.1,1.5-3.3,2.3-4.4,3.1-1.2.9-2.4,1.9-3.7,2.7-2.6,1.6-6.1,2.4-7.8,4.6-4.8,6.3-8.9,13.2-13.2,19.9-1.7,2.6-2.9,5.8-5.2,7.6-1.6,1.2-5.3,1.5-6.8.5-1.5-1-2.5-4.9-1.7-6.5,3.8-7.8,8.2-15.3,12.5-22.9.9-1.5,2.1-2.8,3.2-4.1-.3-.3-.5-.5-.8-.8-10.7,5.4-23.1,8.6-27.7,22-1,2.9-3.4,4.3-6.5,3.7-3-.6-4.5-2.9-4.7-5.9-.3-5.5,2-10.3,5.9-13.8,14.4-13.2,31.4-20.5,51.1-21.5,3.2-.2,6.4-.5,9.9-.7.4-7.1.7-13.6,1.1-20-1.9,0-3.5.2-5,0-12.9-2-25.7-2-38.5.5-28.7,5.8-49.9,21.1-60.3,49.1-8,21.5-7.4,43.5-.3,65,20.9,63.5,65,103.5,127.8,123.9.9.3,1.8.3,2.7.5.2-.7.3-.9.3-1.2-4.1-18.3-8.1-36.6-12.3-54.8-.2-.9-1.6-2.1-2.5-2.1-10.3,0-19.3-4-28-8.7-3.9-2.1-7.4-5.4-10.4-8.7-2.4-2.7-2.1-6.2.9-8.8,2.5-2.1,5.7-1.4,8.6,1.7,7,7.4,16.3,10.3,25.8,12.7.7.2,1.6-.1,2.9-.3-7.3-44.9-12.5-89.8-12.6-136.5ZM893.6,935c.8-.8,1.1-1,1.2-1.2,1.1-7.2,2.2-14.4,3.2-21.6,7.9-56.1,17.3-112,21.7-168.5,2.3-29.9,2.6-59.8-1.4-89.6-.3-2.6-1.3-4.3-3.8-5.6-26.1-13.1-52.7-25.2-80.4-34.4-10.4-3.5-20.9-6.5-32.6-10.1,1.3,2.4,1.9,3.6,2.6,4.8,3.8,7.1,7.8,14,11.2,21.3,15.3,32.2,25.5,66.2,33.4,100.8,11.4,50.1,21.8,100.3,32.8,150.5,3.9,17.7,8,35.4,12.2,53.6ZM132.7,1287.3c8.3-3,16.8-5.9,25.1-9.1.8-.3,1.4-2,1.6-3.2,4.5-32.2,11.6-63.9,20.5-95.2,9.4-33.1,12.1-66.5,6.9-100.7-4.5-30.1-12.9-59.2-20.4-88.6-.4-1.4-2.1-2.9-3.6-3.4-10.1-3.5-20.3-6.8-30.5-10.1-.8-.2-1.6-.3-2.5-.5.9,103.6,1.9,207,2.8,310.8ZM456.2,254.8c2.8-1.6,4.4-2.5,6-3.4,13.1-7.3,26.3-14.5,40.9-18.7,14.9-4.3,29.4-3.7,42.6,4.8,11.2,7.2,22,14.9,32.5,23.1,6.9,5.4,12.9,12.1,19.5,18.3.5-.5,1.4-1.2,2.2-1.9,14.5-13.5,30.8-24.2,48.9-32.2,12.3-5.5,25.1-8.2,38.4-4.7,3.8,1,6.1.5,8-3,1.2-2.2,3.1-4.1,4.7-6.1,6.3-8.3,10.8-17.5,12.9-27.8,1.1-5.3.2-9.7-4.8-12.5-4.1-2.3-8.1-5.3-12.5-6.4-18.5-4.8-36.1-3.7-51.2,9.9-1.3,1.2-2.6,2.2-4,3.3-15.3,12.7-33.1,16.2-52.4,13.8-9.8-1.2-18.1-5.7-26-11.4-10.8-7.8-22.6-10.1-35.3-5.3-4,1.5-8.1,3-12.1,4.5-13.2,4.9-26.3,5-39.3-.9-4.2-1.9-8.5-3.5-12.8-4.9-5.5-1.8-11.1-1.8-16.1,1.5-6.5,4.4-11.2,10.2-13.4,17.8-1.6,5.2-1.4,10.5,1.8,14.8,6.9,9.3,14.2,18.2,21.6,27.5ZM1014.2,979.5c-3.8.3-7.6.4-11.2,1-1.1.2-2.8,1.9-2.9,3-2.4,25.5-5.7,51-6.5,76.5-1.5,46.1,6.8,90.9,20.6,134.7,10.6,33.7,24.2,66.4,32.1,101,.2,1,.9,2.4,1.7,2.6,3.8,1.4,7.7,2.5,12.2,3.8-28.4-106-41.5-213.5-46.1-322.8ZM620.9,1148.3c-26.8.7-53.2,1.3-80.7,2,0,12.9,0,26.5,0,40,0,2.8.8,4.5,3.1,6,10,6.4,20.8,10.7,32.4,13.2,11.1,2.5,20.9.2,29.6-7.3,5.9-5.1,12-10,18-15-.7-13.2-1.5-26.5-2.2-38.9Z"/>
  <path class="cls-1" d="M463.9,853.7c-.6,14.8-2.2,29.3-8.2,42.8-2.3,5.1-5.3,10.3-9.1,14.4-9.4,10.2-21.8,9.5-30.9-1-7.8-9.1-11.4-20.1-13.8-31.5-4.2-20.4-3.4-40.7,1.8-60.8,2.2-8.5,6-16.4,12.2-22.9,9.6-10.1,22.1-9.7,31.3,1,8,9.4,11.7,20.6,13.8,32.4,1.5,8.4,2,17,2.9,25.5Z"/>
  <path class="cls-1" d="M758.7,853.6c-.6,14.8-2.1,29.3-8.2,42.8-2.4,5.4-5.6,10.7-9.7,15-9.1,9.6-21.2,8.9-30-1.1-8.1-9.2-11.8-20.5-14.2-32.2-4.1-20.3-3.3-40.4,1.8-60.4,2.2-8.7,6.1-16.6,12.4-23.2,9.4-9.8,21.8-9.4,30.7.8,8.3,9.5,12.1,21,14.2,33.1,1.4,8.3,1.9,16.7,2.9,25.1Z"/>
  <path class="cls-1" d="M575.3,1031.7c-5.8-.1-10.4-2.8-14.3-6.8-8.3-8.4-12.7-19.3-17.8-29.6-.7-1.5.4-5.1,1.9-6.2,1.5-1,4.7-.7,6.5.2,1.8,1,2.8,3.4,4,5.4,4.1,6.5,7.6,13.5,12.2,19.6,5.1,6.9,9.1,6.8,15.1.6,6.1-6.2,10.5-13.4,13.3-21.7,1.1-3.3,2.6-6.7,4.5-9.6,1.9-2.7,5-4.1,8.3-2.2,3.4,2,2.9,5,1.8,8.3-4,12.7-9.4,24.5-19,34.1-4.6,4.5-9.7,8.1-16.5,7.9Z"/>
  <path class="cls-1" d="M428.1,760c-3.5-.6-8.5-1.1-13.3-2.2-3.9-.9-7.2-3.1-7.7-7.7-.5-4.6,2-7.9,5.8-9.6,3.4-1.6,7.3-2.4,11-3.1,11.5-2,22.1.5,32.2,6.2,4.1,2.3,4.4,7.7,0,10.1-4,2.2-8.5,4-13,5.1-4.4,1-9.1.9-15.2,1.3Z"/>
  <path class="cls-1" d="M325.2,958.7c0-7.3,4.1-11.4,10.2-11.3.9,0,1.8,0,2.5.3,5.1,2.1,9.6,2.4,14.3-1.9,2.8-2.6,7.1-2.4,10.2.7,3,2.9,3.1,6.4,1.1,9.8-3.9,6.6-7.7,13.4-12.4,19.5-4.6,6.1-10.8,6.1-16.2.8-5.4-5.2-8.8-11.5-9.7-17.9ZM345.7,962.5c-2.8-1-5-1.8-7.1-2.5-.2.3-.4.5-.6.8,1.3,2,2.6,4.1,4.3,6.6,1.3-1.8,2.1-3.1,3.4-4.9Z"/>
  <path class="cls-1" d="M712.6,941.7c2.6-.9,5.3-1.6,7.8-2.7,5-2.3,10-5,15.1-.6,3.7,3.2,4,8.6.7,15.5-2.1,4.4-4.6,8.6-7.2,12.7-3.6,5.8-9.8,7-14.9,2.1-4-3.8-7.2-8.4-10.5-12.9-2.4-3.3-4-7.1-1.6-11.2,2.4-4,6.4-3.9,10.5-3Z"/>
  <path class="cls-1" d="M719.1,760.3c-4.8-.4-8.8-.4-12.8-1.1-4.2-.7-6.1-3.6-6.4-7.9-.2-3.9,1.3-6,5-7.3,7.8-2.7,15.3-6.4,23.3-8.4,9.1-2.4,16.4,5,14.9,14-.8,4.9-4.1,8.3-9.9,9.3-4.9.8-9.9,1-14.1,1.4Z"/>
  <path class="cls-1" d="M830.1,944.2c-.5,1.9-.7,2.8-.9,3.6-1.8,5.3-3.4,10.6-5.4,15.8-.7,1.9-1.9,4.2-3.5,5.1-1.7.9-4.7,1.3-6.2.3-1.5-.9-2.8-4-2.4-5.7,1.9-6.7,4.4-13.2,7-19.7,1.1-2.8,3.8-4.8,6.9-3.6,1.9.7,3.3,2.9,4.5,4.1Z"/>
  <path class="cls-1" d="M790.8,970.4c-5.2,0-8.2-3.4-7-7.4,1.6-5.9,3.8-11.7,6.2-17.3,1.2-2.9,4-4.2,7.2-2.9,3.2,1.4,4,4.1,3,7.1-1.7,5.5-3.5,10.9-5.6,16.2-.8,1.9-2.9,3.4-3.7,4.3Z"/>
  <path class="cls-1" d="M384.5,976.9c-4.8,0-7.4-3.9-5.5-7.8,2.4-5,4.9-10,7.9-14.6,1-1.6,4.2-3,5.9-2.5,1.7.4,4.3,3.9,3.8,5-2.7,6.4-6,12.6-9.3,18.7-.5.8-2.3,1-2.9,1.2Z"/>
  <path class="cls-1" d="M770.6,947.2c-2.1,6.5-3.8,12.5-6.2,18.1-.6,1.4-4,2.7-5.7,2.3-1.7-.4-4.3-3.4-4-4.6,1.4-6.3,3.4-12.6,5.9-18.5.5-1.2,4.1-1.9,6-1.4,1.6.4,2.7,2.8,4,4.2Z"/>
  <path class="cls-1" d="M407.2,970.2c3.1-5.3,5.7-10.3,9.1-14.9.8-1.1,4.7-1.3,6.1-.3,1.6,1.2,3.1,4.5,2.5,6-1.9,4.7-4.6,9.2-7.7,13.1-1,1.3-4.5,1.4-6.5.8-1.4-.4-2.2-2.9-3.4-4.8Z"/>
  <path class="cls-1" d="M447.8,953.6c2.3,1.8,4.7,2.8,5.4,4.5.7,1.7,0,4.3-.8,6.2-1.2,2.5-3,4.8-4.8,7-2.1,2.5-4.9,3.8-7.9,1.8-3.1-2-2.8-4.9-1.2-7.9,1.2-2.2,2-4.8,3.5-6.8,1.3-1.8,3.4-2.9,5.7-4.8Z"/>
  <path class="cls-1" d="M628,376.1c-.6.9-1.4,3.1-2.9,4.3-7.1,5.3-14.3,10.4-21.7,15.2-3.6,2.3-7.3,1-9-2.5-1.7-3.6-.1-6.1,3.9-8.4,6.5-3.8,12.6-8.2,18.9-12.3,1.3-.8,2.7-1.7,4.2-2.1,3.4-.9,6.5,1.4,6.6,5.9Z"/>
  <path class="cls-1" d="M557.5,426.7c-1.6,0-3.2,0-4.7-.3-3-.4-5.1-2.1-5.3-5.3-.1-3.2,1.9-5.1,4.9-5.6,5.4-1.1,10.9-2.2,16.4-2.5,1.8-.1,4.6,1.7,5.6,3.5,1.5,2.8.3,6-2.7,7.1-4.5,1.6-9.3,2.5-13.9,3.7,0-.2-.1-.4-.2-.6Z"/>
  <path class="cls-1" d="M559.4,394.4c-5.5-3.1-10.6-5.5-15.1-8.8-1.3-1-1.4-4.9-.6-6.9,1.1-2.8,4.1-2.9,6.7-1.7,4.1,1.9,8.2,4.1,12.2,6.3,2.5,1.4,4,3.8,2.5,6.5-1,1.8-3.3,2.8-5.7,4.7Z"/>
  <path class="cls-1" d="M901.3,274.6c-2.4-2.3-4.6-3.6-5.8-5.6-12.8-20.9-28.4-39.5-46.7-55.8-3.6-3.2-7.8-5.8-11.7-8.7-3.7-2.7-4.8-5.9-3-8.7,1.8-2.8,5.2-3.2,9.1-.9,14.8,8.7,26.7,20.7,37.6,33.6,8.6,10.2,16.3,21,24,31.9,1.7,2.3,1.9,6.2,1.6,9.2-.2,1.6-2.9,2.9-5.2,5Z"/>
</svg>