<?xml version="1.0" encoding="UTF-8"?>
<svg id="Layer_1" data-name="Layer 1" xmlns="http://www.w3.org/2000/svg" version="1.1" viewBox="0 0 1500 1500">
  <defs>
    <style>
      .cls-1 {
        fill: none;
        stroke: #000;
      }

      .cls-1, .cls-2 {
        stroke-miterlimit: 10;
      }

      .cls-3 {
        display: none;
      }

      .cls-2 {
        fill: #069;
        stroke: #069;
        stroke-width: 8px;
      }
    </style>
  </defs>
  <g class="cls-3">
    <path class="cls-1" d="M2002.5,576.3l-43.5,19.5s-63.7-6.1-67.4,93c-3.7,99.1-17.5,130.3,8.5,170.5,0,0-7.1,24.3,5.1,41.2,0,0-7.7,83,64.5,205.8,0,0,44.6,44.4,72.7,104.1,28.1,59.7,104.7,48.2,104.7,48.2,0,0,108-33.2,199.2-174.5"/>
    <path class="cls-1" d="M1959,595.8s50.4,4,104.1,184.5c53.7,180.6,122.3,214.3,202.7,259.1s194.3,87.6,244.6,162.4,45.5,138.6,101.2,211.4"/>
    <path class="cls-1" d="M2002.5,576.3s54.4,4.6,94.9,259.9c40.5,255.3,436.6,278.7,469.5,374.1,0,0,31.3,62.6,67.4,74.2"/>
    <path class="cls-1" d="M2113.5,620.5s54.2,379.9,232.8,463.7c178.5,83.8-61.2,445.9,212.2,630.2"/>
    <path class="cls-1" d="M2207.4,637.7s54.2,379.9,232.8,463.7c178.5,83.8-61.2,445.9,212.2,630.2"/>
    <path class="cls-1" d="M2309.7,544.5s54.2,379.9,232.8,463.7c178.5,83.8-61.2,445.9,212.2,630.2"/>
    <path class="cls-1" d="M1900.1,859.4s55.3,4.9,68.9,42.3c0,0-26.2,17.5-63.8-1.1"/>
    <path class="cls-1" d="M2057.7,909s3.3-28.1,27.8-26.3c0,0,22.5,39.9,32.1,45.2,0,0-37.5,4.3-59.9-18.9h0Z"/>
    <path class="cls-1" d="M1942.3,836.2l-6.8-10.9s-21.7-9.9-50.9-9.9l2.9,15.3,54.8,5.4h0Z"/>
    <path class="cls-1" d="M1987.2,928.8s-6,65.2-16.7,94.6,21.9,44.3,21.9,44.3c0,0,19.8,7.2,27.5,4.9,7.7-2.3,14.8-9.4,41.1-2.9"/>
    <path class="cls-1" d="M1989.6,1110.5l16.5,12.1s10.7,1,21.6,10.3,24.2-3.1,43.9,0c19.7,3,52.2,1.4,52.2,1.4"/>
    <path class="cls-1" d="M1986.8,615.6s72.9,301.5,183.1,360.6c110.2,59.1,260.1,130.9,305.9,538.6,45.8,407.8,49.3,387.7,49.3,387.7"/>
    <path class="cls-1" d="M2015.4,1148.6s-1,12.2,34,15.7c35,3.4,53.7-16.1,53.7-16.1"/>
    <path class="cls-1" d="M2666.9,1099.9c-58.5-56.8-51.3-204.7-51.3-204.7,0,0,28.7-201.5-100.8-430-129.4-228.5-352-151.9-352-151.9,0,0-147.8-19.2-246.4,148.4-98.6,167.5-128.5,235.4-74.3,420.9,54.2,185.6,68.6,127.6,61.9,290.5-6.7,163,136.7,343.6,98.7,449.7"/>
    <path class="cls-1" d="M1907.8,1375s-21.1,310.6-72.3,444.4c0,0-8.3,110.3,20.4,119.5,0,0,40.3-9.5,198.3,80.6,158,90,243.7,107.2,243.7,107.2-306,68.1-492.1,43.5-492.1,43.5,0,0-79.2,2.6-121.2-21.4s-39.8-321.7-35.9-379,44.3-356.6,70.9-530.4c26.6-173.9,180.6-135.6,180.6-135.6"/>
    <path class="cls-1" d="M2068.1,888.1s-7.9,27.4,14.3,32.4c22.3,5,20.6-9.5,20.6-9.5"/>
    <path class="cls-1" d="M1942.3,872.5s2.9,32-23.1,29.7-21.1-29.7-21.1-29.7"/>
    <path class="cls-1" d="M2030.9,848.8l5.4-8.2s14.8-6.9,27.2-4.4l5.5,12.6s-17.7-.7-38.1,0h0Z"/>
  </g>
  <path class="cls-2" d="M1500,1055.7c-13.5-9.9-24.4-20.5-39.9-27.7-16.7-7.8-34.7-12.9-52.6-17.1-9.9-2.3-105.6-16.7-96.8-34.3,5.1,2.9,8.2,7.6,14,10.3,7.7,3.6,15.8,5.8,24,7.8,18.6,4.4,37.3,7.7,56,11.3,33.7,6.4,71.4,17.7,95.2,43.9v6-.2Z"/>
  <path class="cls-2" d="M1029.3,858.8h0ZM1029.3,858.8h0ZM1029.3,858.8h0ZM1029.3,858.8h0ZM1029.3,858.8h0ZM1029.3,858.8h0ZM1029.3,858.8h0ZM1272.1,1484.3c0-8.1,0-16.1,0-24.1,0-16.9-.5-33.7-1.5-50.5-1.9-30.7-7.2-61.5-16.2-91-19-62-53.7-119.6-79.8-178.9,7.2-53.3,9.2-106,.4-159.3-9.4-56.7-34.5-105.7-63.4-154.6-9.8-112.1-35.4-219.5-83.5-321.4,0-41.2-7-85.5-17-125.4-11.7-46.7-28.4-92.5-58-131.1-27-35.1-62.2-64.3-104.5-78.9-21.9-7.6-44.9-10.4-68-7.6-14.5,1.8-47.8,8.1-53,24.8,1,.4,2,.8,2.5,1,26.3-32.7,84.1-26.8,119-14.7,40.8,14.1,75.9,43.4,101.7,77.5,27.6,36.6,45.2,80.5,55.9,124.8,4.8,19.8,8.9,39.9,11.4,60.1,2.5,20,7,41.2,5.7,61.4-5-8.8-10-17.7-15.2-26.4-2.3-4-10.6-24.4-16.5-23.8,11.2,19.7,22.2,39.1,33.2,58.5-1,15.2,1.5,31.1,1.8,46.3.3,15.1.6,30.2.8,45.3.5,32-1.1,64.1-1.1,96.1-8.7-5.4-14.3-27.2-18.3-36.5-5.5-13-10.6-26.2-15.1-39.5-8.1-23.9-14.1-48.3-20-72.9-20.8-87.5-29.9-184.2-87-257.5-26.5-34-61.7-61.3-103-74.5-22-7-45.7-10.7-68.9-7.9-10.4,1.3-21.8,3.9-31.1,8.8-2.8,1.5-19.2,12-13,15.9,35.3-34.6,99.8-18.4,138.5,2.2,82.2,43.6,115.3,132.3,134.4,218.1,10,44.9,17.6,90.4,30,134.7,12.9,45.9,30.8,88.1,52.5,130.5,0,31.1-1,62.3-1,93.5-32.1-46.6-78.2-82.2-111.6-128.2-61.8-85.3-83.4-188.7-114-287.5-14.6-47.2-31.5-102.7-68.4-137.8-16.9-16.1-38.9-27.4-62.7-24.3-13.2,1.7-57.1,4.4-59,24,.5.4,1,.9,1.3,1.2,10.9-11.3,24.2-15.8,39.5-16.7-.8,1.3-.9,2.7-.4,4.1,2.3-1.8,4.4-3.4,6.1-4.7,24.1,5.1,39,14.6,52.3,35.8,12.5,19.9,18.9,43.3,23,66.2,8.6,48.6,8.2,98.5,12.7,147.6h-6.4c.9-.8,1.9-1.6,3-2.6-4.8-.8-10.9-.2-16.6,1.3h0c-2.9.8-5.7,1.7-8.1,2.8h0c-3.1,1.4-5.6,3.1-7.1,4.8,2.7,2.3,17.8-3.3,21.2-4,0,.8-.2,1.5-.4,2.4,5.3,1.4,10-1.4,15.4-2.2-1,2-1.7,3.4-2.5,4.9,1,.4,1.8.7,2.5,1,3.6,23.6,8.4,46.5,14.1,69.6-12.6-3.5-24.2-6.2-37.3-7.5-1-1.2-1.8-2.4-3-3.9-.8,1.6-1.3,2.8-2,4.4-2.7.5-5.7,1.1-8.8,1.7-1-1.3-1.9-2.6-3-3.9-.9.2-1.6.4-2.4.6,0,1.9-.2,3.5-.2,5-2.7,1.5-5.1,2.9-7.3,4.2-2.3-1.1-2.4-4.4-5.5-4.1-3,2.8.7,5.9-.4,9.2-8.3,8.8-14.1,23.5-11.5,35.4,1.1,0,1.7-.2,2.6-.3,1.7-9.1,3.2-18.2,10-25.7,0,18.1,8.6,35.3,29.8,29.1-.5,1.9-2.9,2.3-2.3,4.8,23.8,1,15.2-32.7,9.8-44.6,13.6,2.2,25.8,7.6,37.6,14.3,2.7,6.7,5.4,13.6,8.2,20.7-15.5,7.7-33.6,16.9-51.4,14.8-8.1-1-15-4.3-22.2-7.9-3.6-1.8-12.8-8.3-17.3-5.6.2,4.1,12.1,7.7,15,9.2-3,2.2-5.3,3.9-7.2,5.3.2,1.8.4,2.8.5,3.9,3.9,0,5.9-3,8.6-4.5,0-1-.2-1.9-.3-3.5,3.4,1.7,6.2,3.1,8.9,4.4-.5,2-1,3.5-1.5,5.2.7.6,1.2,1.1,2,1.8,1.9-1.8,3.6-3.3,5-4.7,4.4.7,8.5,1.3,12.7,2,.2,2.3.9,4,2.2,5.3,1.1-1.9,2.1-3.7,3.2-5.6,15.5-1,29.8-9.9,43.4-16.6,22.8,54.6,62,100,105.2,139.4,44.6,40.7,99.7,67.9,145,107.5,2.4,46.7,5.9,92.6,12.2,139,2.8,21.1,6.5,42.2,10.8,63.1,2.6,12.4,5.3,24.7,7.9,37,1.2,6,3.3,12.3,3.7,18.4.3,4.1-2.6,11.9.8,15.1.5-2.1.8-3.6,1.2-5.1,9.2,41,17.5,82.3,22.4,124.1,2.5,21,3.2,42,2.9,63.2-.2,10.4-.2,21-1,31.3-.6,7.5,0,21.3-4.2,27.7-19.6-37.8-40.7-75.6-52.8-116.6-12-40.9-16.9-82.6-18.5-125-1.7-42.1,4.2-84.2,7.6-126.1,1.6-20.2,3.1-40.4,3.2-60.6,0-18.2.9-45.5-9.1-61.5-.9.3-1.4.5-2.2.7,18,82.5-7.9,165.9-4.7,249,1.6,42.7,6.5,84.8,19,125.8,13,42.6,35.2,80.9,54.4,120.8-7.3,14.6-14.5,29.2-22,44.2,1.2.2,1.8.4,2.7.5,7-11.2,14-22.5,21.5-34.6-.7,19.9-17.7,42.8-26.6,60-9.3,18.1-20,35.7-28.6,54.1h3.4c7.7-15.2,16.1-30,24.2-45,8-14.9,14.3-31.6,23.7-45.7-.5,15.3-5.6,31.4-8.6,46.4-1.8,8.9-3.7,17.8-5.6,26.7-.7,3.3-5.5,15.5-2.9,18.1,5.5-6.2,6-20.5,7.8-28.5,2.1-9.5,4-18.9,5.9-28.4,3.3-16.6,4-37.6,11.5-52.8,15.6,35.8,24.9,72.9,35.9,109.4,1.4.4,2.8.2,4.1-.5-11-39.1-20.8-78.5-37.2-115.2,14.2-39.3,35.3-75,50.8-113.9,15.8-39.6,25.1-79.7,34.5-121.2,24.7,55.6,57.2,109.9,75.5,168,18.9,59.9,19.1,120.8,19.1,182.9,6.8-.6,4-9.3,4.1-15.1l.5-.2ZM1024.9,498.6h-.3v-1.2h.2v1.2h.1ZM731.9,488.5c.7-.5,1.6.2,2.3.5-1.5-.3-1.9-.4-2.3-.5ZM735.3,488c0-.2,0-.4-.2-.6.8-.1,1.6-.2,2.4-.3-.7.3-1.4.6-2.2,1h0ZM716.8,602.9c-16.7.9-16.9-20-16-30.8,3.9-1.3,7.3-4,12.1-2.2,1.5-1.5,3.5-2.3,6.1-1.5,2.3,10.1,8.3,26.9-2.2,34.5h0ZM722.3,561.5c4.8-.9,8.8-.4,12.4,1.5-3.9-.5-7.7-1-12.4-1.5ZM739.7,564.1c4.8-2.1,15.5,2.3,20.3,3.4.7,2.1,1.5,4.4,2.5,7.3-7.5-4.2-14.8-8.1-22.8-10.6h0ZM1025.1,846.5c-38.9-31.8-81.9-58.1-121.4-89.3-40.5-32-76.4-70.7-102.9-115.2-26.4-44.5-42.6-94.9-48.8-146.2-5.3-44-6.3-88.2-10.9-132.2-4.8-45.5-20.1-118.2-73.5-129.8,46-7.3,78.2,38.8,95.7,74.8,20.6,42.4,32.7,88.2,46.2,133.2,27.1,90.7,51.4,182.1,112.2,257.1,16.7,20.6,34.6,40.2,53,59.3,18,18.7,33.5,38.8,50.3,58.4v30.1-.2ZM1077.3,1408.4c0-.5.2-1,.3-1.5.2,0,.4.2.6.3-.3.4-.6.8-.9,1.2ZM1086.1,1377.2c0,0-.3-.2-.4-.3.3-.4.6-.7.9-1,0,0,.2.2.3.3-.3.4-.6.7-.9,1.1h0ZM1029.9,514.5c23.9,47.3,40.8,98.9,53.2,150.3,6.5,27,11.6,54.1,15.9,81.5,3.6,23.2,8.5,48.5,7.8,72.1-26.4-39.5-53.6-78.3-77.1-119.6.2-.2.3-.4.5-.5,2.3-61.3-1.3-122.6-.2-183.8h-.1ZM1028.6,849.6v-27.6c13.3,19.8,23.3,40.9,30.3,63.3-9.1-12.8-18.9-24.9-30.3-35.7ZM1029.3,858.8h0c.4.4.8.8,1.2,1.2.4.5.9.9,1.3,1.4,1.3,1.4,2.7,2.8,4.1,4.3.9,1,1.8,1.9,2.8,2.9,1.5,1.6,2.9,3.2,4.4,4.8.7.7,1.3,1.5,2,2.2.6.7,1.2,1.4,1.8,2.1.3.4.7.8,1,1.2s.7.8,1,1.2.7.8,1,1.2c.7.8,1.4,1.7,2,2.5.3.4.6.8.9,1.2,1.8,2.3,3.4,4.7,5,7.1.3.5.6,1,.9,1.4.2.3.4.7.6,1,.2.4.4.7.6,1.1.2.4.4.7.6,1.1.4.7.8,1.5,1.2,2.2s.3.5.4.8c.2.5.5,1,.7,1.5s.4.9.6,1.4c.4.8.7,1.6,1,2.3.2.6.4,1.1.6,1.7.4,1.2.8,2.5,1.2,3.7,6,21.5,7.6,44.5,9,66.6,2.7,44.6-10.7,86.8-13.3,130.8-17.4-82-32.7-165-32.7-249.2v.3ZM1074.7,925.2h.2l-.2.3v-.3ZM1087.6,1374l.2-.3v.3h-.2ZM1111.5,1309c6.2-41.2,6.8-82.4-.6-123.5-4.1-22.5-8.9-44.8-14.6-67-2.8-11-6.1-21.8-9.2-32.7-3.1-10.6-4.6-23.6-9.6-33.5-4.7,7.5,5.2,28.5,7.4,36.7,3.7,13.7,7.4,27.4,10.8,41.1,6.5,26.4,11.8,53.1,14.8,80.1,5.7,51.1,3.2,101.2-22.5,146.8-1.5-6.6.6-16.1,1-22.9.5-9.8,1.2-19.6,1.4-29.5.3-18.8-.4-37.7-2.4-56.4-4.2-38.1-12.3-75.9-20.1-113.4-1.5-7.2-4.3-15.1-4-22.5.4-9,3.8-18.6,5.6-27.5,3.7-18.3,6.8-37.2,9.1-55.7,2.2-17.5,3.3-35.9,2.2-53.4-1-16.3-5.3-33-5.3-49.2,3,5.1,10.9,31.1,16.8,31.1-4.8-13.4-10.4-26.3-16.2-39.3-5.3-12-8.1-24.3-12.2-36.8-8.5-25.5-21.4-47.6-35.3-70.3,0-30.8.9-61.5.9-92.2,19.9,32.5,41.1,64,62.5,95.6,4.8,7.1,10.1,14.1,14.4,21.6,4.1,7.1,4.3,13,5.2,21.1,2.1,18.1,4.3,36.2,5.8,54.3,6.1,74.7,22.4,147.4,48.5,217.6-7.8,63.6-26.9,122.9-54.3,179.8h-.1ZM1171.1,1074.8c-3.9,13.2-2.6,30.5-3.7,44.2h-1.2c-15.7-46.7-29.5-93-37-141.7-3.4-22.4-6.1-44.9-8.7-67.3-1.2-10.8-2-21.6-3.3-32.4-1.1-8.7-4.2-19.6-2.4-28.1,18.9,35.5,36.2,70.5,46,109.7,9.4,38.1,10.7,76.6,10.3,115.6h0ZM1029.3,858.8h0ZM1029.3,858.8h0ZM1029.3,858.8h0ZM1029.3,858.8h0ZM1029.3,858.8h0ZM1029.3,858.8h0ZM1029.3,858.8h0Z"/>
  <path class="cls-2" d="M1351.4,1274.5c-1.4-14.9-4-29.8-4.2-44.8-.2-16.6.2-33.2-1.1-49.8-2.3-28.9-9.2-57.3-16.6-85.2-14.9-56-32.3-110.9-41.9-168.1-8.8-52.8-9.6-107.5-5.3-160.8,4.1-52,6.7-104.2,11-156.2,4.5-55.3,3.3-112.9-5.3-167.7-17.5-111.2-70.5-215.2-154.9-290.7-40.9-36.6-88.6-66.3-142.2-79.6-26.1-6.5-52.9-9-79.8-8.5-14.3.3-28.6,2.2-42.6,5.1-9.4,1.9-26.3,3.8-32.5,11.9,11.7,0,25-7.3,37-8.9,12.5-1.7,25-2.9,37.6-3.5,23.5-1.1,48.6,1.8,71.5,7,52.1,11.9,97.6,38.8,138.2,72.9,73.1,61.3,127.7,149.1,151.2,241.3,23.3,91.8,20.2,187.8,11.6,281.4-8.1,88.1-17,180.2.4,267.8,9.5,47.8,23.1,94.2,36.1,141.2,12.5,45,19,88.4,22.3,134.8-17.8-55.5-44.3-103.1-76.6-151.5-14.9-22.3-30.4-44.9-41.5-69.5-5.6-12.5-10.8-25.4-13.9-38.7-2.7-11.5,0-28.3-5.8-38.5-3.9,14,.7,33.3,4.7,47,5,17.2,12.2,33.7,20.7,49.4,18.1,33.7,41,64.6,61,97.2,18.8,30.5,34.5,63.4,44.5,97.9,10.9,37.3,5.3,74.6,1.7,112.6-5.6-28.2-9.7-55.2-20.1-82.3-10-25.9-23.1-50.4-36.6-74.6-26.9-48.2-56.3-95.4-76-147.2-72.5-190.8-12.3-396.5-37.3-593.5-12-94.7-50.6-193.8-129.3-252.5-38.7-28.8-84.5-47.9-132.8-52.2-23.2-2.1-47.7-.7-70.3,4.6-13.6,3.2-50.9,10.8-52.4,28.8,4.2-.4,8.9-7.4,12.5-9.8,6.1-3.9,13-6.5,19.9-8.8,13.8-4.5,28.3-7.3,42.7-8.8,27.1-2.9,54.3-1.3,80.8,5.2,58.3,14.5,110.1,50,146.5,97.5,68,88.9,80.9,204.7,79.9,313.1-1.1,112.7-15.1,227.8-1.5,340.2,6.7,55.1,19.2,108.3,41.4,159.3,22.5,51.7,53.3,98.9,80,148.4,26,48.3,47,103,44.8,158.8-1,26.8-3.8,57-14.1,81.9-5.5,13.4-13,26.1-19.6,39-3.2,6.3-18,25.4-16.7,31.9h3.3c11.9-13.3,17.4-33.9,27.4-48.8-2.1,16.3-10.6,33.3-16,48.8h7.1c8-19.7,14.5-39.9,20.5-60.4.8,1.9-.4,4.1,1.7,5.9,5.1-12,3.8-27.6,7.3-40.3,3.8-13.9,9.5-27.4,13.2-41.4,7.6-28.7,11.1-58.9,8.5-88.6v.3ZM1309.1,1450.4c0-.5.2-.9.2-1.4,0,0,.2,0,.4,0-.2.4-.4.8-.6,1.2h0ZM1310.6,1447.1v-.3h.2l-.2.3ZM1321.8,1437h-.3v-1.3h.3v1.2h0ZM1334.7,1376.1h-.3v-1.2h.2v1.2h.1ZM1335.4,1372.8c0-16,4-32.3,5.7-48.3,1.7-15.4.6-34.1,5.2-48.8,6.1,29.9-2,69-11,97h.1Z"/>
  <path class="cls-2" d="M730.9,54.5c-18.2-1.2-36.3,1-54.1,4.8-34.6,7.4-63.4,24.3-88.2,49.4-12.2,12.4-23.4,25.8-34.2,39.4-9.4,11.8-17.9,26.4-29.2,36.5-10.3,9.2-24.1,16.2-35.3,24.6-11.9,8.9-23.2,18.3-33.4,29.2-45.8,48.8-73.3,109-90.3,173.2-16.8,63.3-22.5,128.4-19.5,193.5,3.2,68.4,25,134.3,52.9,196.2,0,65.5-2.9,129,16.3,192.3-51-8.1-104.7-12.7-153.9,6.9-93,36.8-111.1,151.7-125.6,238.5-7.8,46.4-14.5,92.8-21.9,139.3-3.3,20.8-6.1,41.7-9.3,62.5-1.6,10.3-2.8,20.7-4.2,31-.8,5.9-6,22-3.4,27.5h1.8c5.4-7.8,5.3-27.1,6.8-36.5,2.2-13.3,4.3-26.7,6.4-40,3.9-24.5,7.8-49,11.6-73.6,7.4-47.7,14.9-95.5,24.3-142.9,8.8-44.6,17.8-91,40-131.2,22-40,58.4-68.5,103.3-77.8,42.4-8.7,84.4-5.8,126.6,1.9,18.2,37.4,44.4,68.6,66.1,103.8,21.7,35.3,36.2,74.4,41.2,115.6,4.8,40.3,1.4,77.6-5.7,117.3-3.6,20.1-9,39.8-14.6,59.3-5.7,20-16.1,42.1-17.8,62.8,7-2.6,11.4-29.6,13.7-36.9,4-12.6,8.1-25.2,11.8-38,7.1-24.5,13.5-49.8,16.8-75.2,5.8-44.6,5.4-88.8-7.1-132.5-12.2-42.7-34.4-79.2-60-115.1-25.9-36.3-46.6-71.6-52.9-116.7-5.9-42.8-4-86.3-4-129.4,25.2,48.8,56,94.2,83,142,46.5,82.1,82,171.5,83.9,267.1,1.9,94.2-17.1,184.5-39,275.7h4.5c13.9-53.2,26.7-106.9,34.4-161.3,13.3-94.2,7.6-190.8-27.7-279.9-36-90.7-92.8-170-138.2-256,0-56,2.5-112,.5-168-3.4-94.6-4.6-192.3,15-285.3,9.6-45.6,26.1-92.1,59.9-125.6,15.9-15.8,34.2-28,54.8-36.8,11-4.7,22.3-8.6,34.3-9.1,11.6-.5,18.4,4.6,29,7,.2-.4.3-.7.5-1.1-4.6-4.1-10.3-6.2-15.9-8.4-6.2-14.5-45.6,4.5-54.3,7.8,30.6-36.7,59.4-79.5,102.2-103,23.5-12.9,50.3-18.5,76.9-20.6,12.7-1,25.5-.4,38.1,1.5,13,1.9,25.3,7.4,38.2,9-7.6-12.5-41.8-14-55-14.9v.2ZM456.7,245.2c-.3.3-.7.6-1,1-21.6,39-35.3,78.5-43.7,122.4-8.3,43.6-10.6,88.2-11.9,132.5-2.9,95.6,3.8,191.2.3,286.8-40-90-56.4-187.1-45.5-285.3,5.2-47.1,15.6-94.2,31.7-138.8,8.2-22.5,18.2-44.7,30.3-65.4,10.3-17.7,23-38.8,38.8-52.2.3-.3.6-.7,1-1,.2-.2.3-.4.5-.6h0c-.2.2-.3.4-.5.6h0Z"/>
  <path class="cls-2" d="M523.8,302c-13.1,16.2-21.2,35.7-27.1,55.5-6.2,20.9-9.5,42.4-14.2,63.7-4.4,20.2-10.5,40-15.3,60.1-4.4-8.4-1.4-23.1-.9-32.6.6-12.5,2.1-25.1,4.5-37.4,4.3-21.7,10.2-43.4,19.1-63.7,8.4-19.2,18-38.2,29.9-55.4,10.9-15.8,25.3-37.4,45.1-42.6-4.3-9.8-28.4,14.2-31.7,17.9-10.3,11.4-19.1,24.3-27,37.4-15.3,25.2-27.7,52.7-35.2,81.2-7.3,27.6-11.3,56.8-10.4,85.4.5,14.6,3,29,6,43.3,2.9,13.6,4.5,28.9,10,41.7,5-6-3.2-28.4-4.5-35.6-2-10.8-7.4-26.4-5-37.3,4.2,3,8.8,4,14.2,3.6.3-.6.8-1.5,1-1.9,5.4.6,9.3,4,14.4,3.9v-2.5c-1.2-.9-2.5-1.6-3.8-2.3h0c-1.1-.6-2.2-1-3.4-1.5h-.1c-5.8-2.3-12-3.2-18.2-4.2-.7-8.5,6.2-21.9,8.6-30.1,2.8-9.6,5.2-19.3,7.5-29,4.6-20.2,7.9-40.8,13.8-60.7,11.6-39.4,34.4-66.4,64.8-93.1-8.6-5-37.1,30.4-41.9,36.3h-.2ZM474.3,482.4v.2l-.3-.2h.3ZM471.3,481.4v.3h-1.2v-.3h1.2Z"/>
  <path class="cls-2" d="M482.8,803c-28.9,112.2,62.8,196,103.2,291.1,20.2,47.5,29.2,102.3,22.7,153.5-6.7,52.3-18.1,102.5-31.8,153.4-5.1-5,4.4-28.2,5.9-34.6,3.1-13.3,6.3-26.7,9.3-40.1,5.7-25.7,9.6-51.7,11.9-77.9,4.7-53.4-2.8-105-23.5-154.5-21.4-51-57.3-93.8-80.7-143.6-11.6-24.7-20-50.4-24.2-77.4-2-13-2.7-26.8-1.9-39.9.3-4.4,2.4-30.4,8.9-30.2l.2.2h0Z"/>
  <path class="cls-2" d="M482.6,802.7c-1.6-17.9-7.2-35.4-9.8-53.2-2.7-18.2-4.7-36.6-5.2-55-.5-19.1.3-37.7,2.4-56.6.8-7.2,1.5-14.4,2.7-21.5.9-5.5,1.9-22.4,6.4-25.4,2.6,4.6-.4,13.1-1.2,17.8-1.2,7.8-2.1,15.8-2.9,23.7-1.5,15.1-3.3,30.8-3.1,46,.4,31.9,4.4,64.9,10.9,96.2,6.8,32.9,13.3,68.4,27.9,98.9,7.1,14.8,15.3,29,24.3,42.6,7.8,12,18.5,24.2,23.2,37.8-9.5-4.1-18.2-22.1-24-30.5-8.5-12.3-16.7-24.8-23.7-38-6.9-13.1-12.1-26.4-16.3-40.6-2-6.8-3.9-13.6-5.7-20.5-1.2-4.4-2.2-18.3-5.7-21.3l-.2-.2v-.2Z"/>
  <path class="cls-2" d="M970.5,873.7c-12.7,16.4-30,30.7-44.8,45.3s-29.9,28.7-46,41.8c-30.8,24.9-63.5,45.7-100,61.2-38.4,16.2-78.4,27.2-120.3,26.9-18.9,0-40.2-2.8-56.8-12.8-7.4-4.5-32.5-27-24.5-37.4,4.5,7.2,6.3,15.2,12.1,21.9,5.9,7,13.3,12.3,21.7,15.9,17.5,7.4,37.3,8.6,56.1,8.2,38.7-.8,78.7-12.4,113.8-28.2,36.1-16.3,69.3-37.1,99.9-62.3,15-12.4,28.9-26.2,43.1-39.6,14.4-13.5,28.6-30.9,45-41.8.3.3.5.6.8.9h0Z"/>
  <path class="cls-2" d="M527.8,552.6c-.4-1.5-.8-6.8-3.1-7.4-.9,1.4-1.6,2.8-2.2,4.3-4.7-1.9-9.1-3.6-13.5-5.4,0,.2-.2.3-.3.5-1.3-1.4-2.5-2.9-3.9-4.4-.8,1-1.5,1.9-2.3,3-3.8-.5-7.6-.9-11.1-1.3-1.1-.7-2-1.4-3.1-2.2-.5,1.2-.9,2.1-1.2,2.8-.9.4-1.7.8-3.1,1.4,1.5,1.3,2.5,2.2,3.5,3.1-1.1,1.1-2.1,2.1-3.3,3.2,1,.8,1.6,1.3,2,1.7,8.6-1.4,16.9-1.5,24.8,1.2,6.6,14.4,5.7,25.6-3.9,37.9.9.6,1.4,1,2,1.4-.5.4-.9.8-1.3,1.1v2.2c-1.5-4.1-5.8-6.3-8.4-9.7-2.9-3.9-4.3-8.6-6.2-13h-2.7l1.5,1.5c-1.6.9-3.1,1.8-5.3,3.1,0,13.5,13.7,29.3,27.7,19.8,9.2-6.2,15.1-33.6,5.7-41.7,21.2,9.1,33.5,23.8,39.8,39.6-12.7,3.2-25.8,3.6-38.6,7.5-6.7,2-14.1,4.6-21.2,5-5.3.2-10.7-2.7-15.8-1.2,1.7,3.6,5.4,3,7.7,4.7.4.9.8,1.7,1.1,2.5h2.9c.6-.7,1-1.2,1.4-1.7,4.2-.5,8.3-.9,12.1-1.3,1.6,1.4.8,4.2,3.9,3.9.2-1.7.4-3.5.7-5.3,4.3-1.2,8.5-2.4,12.2-3.5,2.5.9,3.2,3.9,6.1,2.9.3-1.8.6-3.5.9-5.3,6.8-1.5,13.3-2.9,19.7-4.3.5,1,.9,1.7,1.1,2,3.5-1.3,6.2-2.5,9.4-4.4,1.7-18.7-23.5-34.7-35.7-44.2h0ZM501.5,546.4c-.5,0-.9.2-1.3.3h-4c-.2,0-.4,0-.7,0-.1,0-.3,0-.4,0-.5,0-.9-.3-1.4-.5h-.1q0,0,.1,0h9.2c-.5.2-1,.3-1.5.4h.1Z"/>
  <path class="cls-2" d="M591,602.9c.9,0,1.6,0,2.1.2,1.9,5-4.9,18.8-6.5,24-2.8,9.3-5.8,18.7-9.1,27.9-5.8,16.4-12.4,32.4-19.6,48.2-5.7,12.5-15.9,28.6-12.7,43.1,1.4,6.3,5.8,11.2,10.9,15,4.4,3.3,20.9,8.9,21.1,14.7-12.3-4.4-29.7-11.5-34.9-24.6-5.8-14.8,3-32,9.2-45.2,15.8-33.6,24.9-69.2,39.4-103.2h0Z"/>
  <path class="cls-2" d="M681.6,485c3.2-2.4,5.7-3.8,7.2-7.5-5.8,2.4-11.6,5-17.3,7.5.5-1.2,1-2.3,1.5-3.6,4.1-1.8,8.5-3.1,12-6.3-4.3-2.6-23.2,6.7-23.2,11.9-1.7.7-3.5,1.4-5.3,2.1,1.4-1.7,2.8-3.4,4.5-5.5-1.3-.2-1.9-.3-2.5-.4-.2.2-.3.4-.5.6.2-.2.3-.5.4-.7,0-.6,0-1.2-.2-2.2-4.2.8-6.7,3.7-9.9,5.6.2.9.3,1.6.4,2.3,1.1-.3,1.9-.5,2.7-.8l1-1c.2-.2.3-.4.5-.6,0,.2-.3.5-.4.7-.3.3-.6.7-1,1-2,1.6-3.9,3.2-5.9,4.8-.2.1-.3.3-.4.4,0,.4-.2.6-.6.5,0,.1-.3.3-.4.4-.3.6-.4,1.2-.5,1.7h0c0,1.2.3,2.1,1.3,2.8.9-.8,1.9-1.6,2.8-2.4.5.7.9,1.2,1.4,1.7,3.8-2.1,7.4-4.1,11.1-6.1,0,0,0,.2-.2.2,0,0,.2-.1.2-.2-.6,1.5-3.5,2.5-1.1,5.1,4.3-2.4,8.7-4.7,13-7.1-1.3,1.8-2.6,3.6-4.1,5.6.9.6,1.6,1.1,2.3,1.6,5.6-5.9,12.8-8.3,19.8-11.2.7-.3,1.3-.7,2-1h0c2-1.7,4.1-3.4,7-5.8-6.3.3-12,3.4-17.9,5.8h.3ZM648.9,494.6l.2-.2v.3h-.2ZM655.5,485c.2-.2.4-.3.6-.5h0c-.2.3-.4.4-.7.6-.2.2-.4.3-.9.8.4-.5.6-.7.8-.9h.1ZM656.5,489.1c-.5,1.3-1.6,1.9-2.9,2-.3.3-.6.7-.9,1-.2.2-.4.3-1,.8.5-.5.6-.7.8-.9l1-1c.8-.5,1.7-1.1,2.5-1.6.2-.1.3-.2.5-.3h0ZM663.6,490.1c-.2.2-.4.4-.5.6,0,0,0-.1-.2-.2l.6-.5c.2-.2.4-.3.6-.5h0c-.2.3-.4.4-.6.6h0ZM663.7,485.8c.4-.4.6-.6.8-.8.4-.3.9-.6,1.3-.9,0,.2.2.4.3.5-.5.2-1,.3-1.4.4-.2.2-.4.3-.9.7h0ZM668.6,487.1c-.7.3-1.3.7-2,1-.2.2-.4.3-1,.9.6-.6.8-.8.9-1,.7-.3,1.3-.7,2-1,.8-.5,1.6-1,2.5-1.5-.8.5-1.6,1.1-2.4,1.7h0ZM674.5,489h0c-.4.3-.9.5-1.3.7.5-.2.9-.5,1.4-.7h0ZM679.6,486.1c-.7.3-1.3.7-2,1-.2.2-.4.4-.5.6l-.2-.2c.2-.2.4-.3.7-.5.7-.3,1.3-.7,2-1,.4-.2.9-.4,1.3-.6-.4.2-.8.4-1.3.7Z"/>
  <path class="cls-2" d="M653.3,927.7c-9.2,11.6-46.5,12.6-58.8,5.2,0-.6.2-1.2.4-2,9.4-.7,19.2,1.9,28.7,1.4,10.2-.4,19.7-3.8,29.7-4.6h0Z"/>
  <path class="cls-2" d="M616.6,887.8c.6.8,1.2,1.6,2.1,2.8-8.6,2.1-18.5-6.8-28.1-5.8-8,.9-21.6,3.6-26.3-5.4,3.9-.9,7.1,1.7,11,2.3,5.3.8,10.1-.6,15.2-1,10.3-.7,16.6,3.2,26.1,7.2h0Z"/>
  <path class="cls-2" d="M497.7,480.1c-1.6-3-8-5.2-10.9-7,.1-.3.2-.7.3-1,7.1.8,14,5.2,20.5,8.1.3.3.6.7.9,1s.4.3.7.5h0c-.2-.2-.4-.3-.6-.5-.3-.3-.7-.6-1-1,.1-.6.2-1.2.4-2.4,7.5,4.1,15.3,6.6,20.8,13.2-2.4,3.9-13.3-5.9-16.2-6.8l-1-1c-.2-.2-.4-.3-.9-.7.4.5.6.7.8.9.3.3.7.7,1,1,1.3,1.7,3.4,3.3,1.4,5.8-3.2-2-6.2-3.9-9.3-5.8h0c-.3-.4-.6-.6-.9-.9l-.2-.2c-.6-.3-1.2-.5-1.7-.8l-.3-.2c-.6-.3-1.2-.6-1.8-.8h-.2c-.6-.4-1.3-.7-1.9-1.1h0v-.3Z"/>
  <path class="cls-2" d="M716.3,477.1c-5.5-.3-10.6,1.3-15.6,2.8.2,1.1.3,1.7.4,2.5-3,.9-5.8,1.8-8.6,2.6-.7.3-1.3.7-2,1-3,2.5-5.9,5-9,7.7,0,.6.2,1.4.4,2.6,4.1-2.5,8.1-4.9,12.3-6.8,4.2-2,8.6-3.5,13.3-4.5,1-.3,2-.6,3-1h0c.6-.4,1.3-.7,1.9-1h0c.7-.6,1.4-1.2,2.1-1.9-.6-.7-1.1-1.2-1.5-1.7,1-.8,3.3.5,3.1-2.4h.2ZM704,481.7v-.3c0,0,.2,0,.2,0l-.2.2h0Z"/>
  <path class="cls-2" d="M539.7,495.7c-.4.4-.9.9-1.7,1.7-4.3-7.7-11.9-11.3-17.6-16.9-6.5-.9-15.3-4-20.1-8.6,9.4-5.5,36.9,14.1,39.4,23.8Z"/>
  <path class="cls-2" d="M712.5,483c6.9-1.7,14.5-4.5,21.7-3.9-1.5,6.2-32.5,13-39.1,15.8-.2-.7-.5-1.4-.9-2.4,4.5-2.5,8.9-4.9,13.3-7.5h0c1-.3,2-.6,2.9-1h0c.6-.4,1.3-.7,1.9-1h.2Z"/>
  <path class="cls-2" d="M616.6,887.8c-.4-.7-.7-1.4-1.3-2.6,7.1-2.2,12.8-6.5,20.4-7.5,7.4-1,14.4,1,21.6,2.6-4.3,3.6-14.1.2-19.7.9-7.4.9-13.6,5.3-21,6.6h0Z"/>
  <path class="cls-2" d="M548.6,493.1c0,1.7.3,3.4-2,3.9-5.4-8.3-11.8-15.6-17.4-23.7,5.8,0,10.5,7.7,13.8,11.5.5-.6.9-1.1,1.5-1.8,3.3,3.6,6.6,6.9,8.3,11.7-.5.5-1,.9-1.6,1.6-1-1.2-1.8-2.2-2.6-3.2-.3-.7-.6-1.4-1-2.1-.2-.2-.4-.3-.9-.8.5.5.6.7.8.9.3.7.7,1.3,1,2h.1Z"/>
  <path class="cls-2" d="M702.4,875.9c.5,7.5-28.6,8-33.8,5.1.3-3.2,28.3-4.2,33.8-5.1Z"/>
  <path class="cls-2" d="M637.6,847.1c-5.3,1.9-9.9-2.3-15-3-5.5-.8-10.4,1.3-15.8,1.8,0-.9-.2-1.5-.3-2.3,12.3-5.6,20.1-3.1,31.1,3.6h0Z"/>
  <path class="cls-2" d="M504.7,484.1c.6,1.2,1.2,2.3,1.9,3.8-5.8.9-22.8-7-27.4-10.9,4.5-3,13.9,1.8,18.5,3.1h0c.6.3,1.3.6,1.9.9h.2c.6.4,1.2.7,1.8.9l.3.2c.6.3,1.2.5,1.7.8l.2.2.9.9h0Z"/>
  <path class="cls-2" d="M603.9,846.2c-10.9-4.9-20.1-2.9-29.1,3.3,0-1-.2-2-.4-3,6.1-5.3,25.9-11.6,29.4-.2h0Z"/>
  <path class="cls-2" d="M519.5,472.3c6.3,1.2,15.8,9.2,17.9,14.9-5.4-1.7-15.1-10.1-17.9-14.9Z"/>
  <path class="cls-2" d="M644.4,494.3c-.5,2.7-1.8,4.6-4.1,5.9-1.2-1.5-1.4-3.3-.7-5.4,2-2.5,4.1-5.1,7.2-6.9,1.7,2.3-1.8,3.2-1,5-.2.1-.3.3-.5.4-.4,0-.6.2-.5.5,0,.1-.3.3-.4.4h0Z"/>
</svg>