<?xml version="1.0" encoding="UTF-8"?>
<svg xmlns="http://www.w3.org/2000/svg" version="1.1" viewBox="0 0 1500 1500">
  <defs>
    <style>
      .cls-1 {
        fill: #231f20;
        stroke-width: 0px;
      }

      .cls-2 {
        display: none;
      }
    </style>
  </defs>
  <g id="Layer_3" data-name="Layer 3">
    <path class="cls-1" d="M737.9,116.8c10-18.9,32.2-25.5,51.7-30,25.4-5.9,51.4-10.6,77.5-12s52.3.5,77.2,8.5,43.6,20,61.9,35.4c38.4,32.1,65.9,74.2,95.4,114,28.6,38.8,61.1,79.7,106.2,100,22.5,10.1,46.9,14.1,71.2,9.1s43.1-17.1,55.7-36.5c4.2-6.5-6.2-12.5-10.4-6.1-24.2,37.1-75.9,39.3-112.7,22-45.4-21.4-77.3-63.9-106.1-103.4-28.9-39.7-57.1-81-95.9-111.8-18.2-14.5-38.3-26.4-60.4-33.8s-51.4-10.8-77.5-9.8-58.3,6.3-86.6,13c-22.1,5.2-46.2,13.9-57.4,35.2-3.6,6.8,6.7,12.9,10.4,6.1h0Z"/>
    <path class="cls-1" d="M1304.2,345.8c-27.6,34.6-71.8,53.4-115.9,49.1-7.7-.7-7.6,11.3,0,12,46.8,4.6,95.1-15.8,124.4-52.6,4.8-6-3.7-14.5-8.5-8.5h0Z"/>
    <path class="cls-1" d="M1224.6,438c5,35.4,25.5,68.1,46.1,96.6,20.4,28.1,45.7,53.6,77.7,68.2,17.9,8.2,37.1,12.9,56.7,12.7,7.7,0,7.7-12.1,0-12-69.1.7-118.1-58.7-148.9-113.8-9.6-17.2-17.3-35.3-20.1-54.9-1.1-7.6-12.6-4.4-11.6,3.2h0Z"/>
    <path class="cls-1" d="M1259.5,591c21.1,23.4,48.4,40.5,78.5,49.5s10.6-9.4,3.2-11.6c-28.3-8.4-53.5-24.5-73.2-46.4-5.2-5.8-13.6,2.8-8.5,8.5h0Z"/>
    <path class="cls-1" d="M1293.1,639.6c16.7,55.8,7.8,115.6-22.6,165-27.5,44.7-67.2,85.4-67.3,141.3,0,25.9,9,50.9,29.9,67,2.6,2,6.7.4,8.2-2.2s.4-6.2-2.2-8.2c-17.5-13.5-24.1-36-24-57.3s9-47.4,21.5-68.3c14.3-24.1,32.1-45.8,46.4-69.8,14.3-24,24-50.4,28.1-78,4.5-31,2.5-62.6-6.5-92.6-2.2-7.4-13.8-4.2-11.6,3.2h0Z"/>
    <path class="cls-1" d="M1167.9,939.4c.4,17.7,4.4,34.8,11.8,51,3.2,7,13.5.9,10.4-6.1-6.5-14.1-9.8-29.4-10.2-44.9-.2-7.7-12.2-7.7-12,0h0Z"/>
    <path class="cls-1" d="M1143.1,938.4c6,13.7-5.1,27.6-14.6,36.3-11.5,10.6-24,20.4-35.9,30.5-12.4,10.4-24.9,20.8-37.2,31.3-10.7,9.2-21.2,19.2-28.4,31.5-8.1,13.8-11.9,30.2-7.6,45.8,2,7.4,13.6,4.3,11.6-3.2-8.4-30.6,19.5-54.4,40.3-71.8,12.7-10.7,25.4-21.4,38.1-32.1,11.7-9.8,24.8-19.1,34.8-30.7,10.5-12.2,16.1-28.1,9.4-43.6-3.1-7.1-13.4-1-10.4,6.1h0Z"/>
    <path class="cls-1" d="M1001.8,1051.7c-12.4,15.1-16.6,35.6-10.2,54.3,2.5,7.3,14.1,4.1,11.6-3.2-5-14.4-2.6-30.7,7.1-42.6,4.9-5.9-3.6-14.5-8.5-8.5h0Z"/>
    <path class="cls-1" d="M354.9,940.5c4,44.7,7.3,102.2,55.6,122.1,7.1,2.9,10.2-8.7,3.2-11.6-17.9-7.4-30-24.8-36.1-42.5-7.6-21.8-8.6-45.2-10.6-68s-12.7-7.7-12,0h0Z"/>
    <path class="cls-1" d="M412.2,1026.5c8.1,25.3,24.2,47,45.8,62.2,6.3,4.5,12.3-5.9,6.1-10.4-19-13.4-33.2-32.9-40.3-55.1-2.3-7.3-13.9-4.2-11.6,3.2h0Z"/>
    <path class="cls-1" d="M226.3,772.5c11.5,11.3,20,25,26.9,39.4,7.3,15.1,13.3,31,17,47.4,6.6,29.2,4.1,61.8-15.4,85.8s-10.1,10.8-16.3,14.7-14.5,9.6-18.5,5.4-13.8,2.9-8.5,8.5c11.2,11.8,31-1.3,40.6-9,12.3-9.9,21.1-23.6,26.7-38.2,13.8-35.9,4.4-75.5-10.3-109.5-8.3-19.4-18.7-38.1-33.9-53-5.5-5.4-14,3.1-8.5,8.5h0Z"/>
    <path class="cls-1" d="M241.7,998.5c15.4,5.6,32.6,5.8,48.1.7,14.2-4.7,33.6-15.1,35.7-31.4s-11-7.6-12,0-9.5,11.1-14,13.9-11.1,5.7-17.2,7.2c-12.5,3.2-25.4,2.5-37.4-1.9-7.3-2.7-10.4,8.9-3.2,11.6h0Z"/>
    <path class="cls-1" d="M709.7,109.4c-8.1-20.8-26.8-33.1-47.3-39.9s-49.9-9.6-74.7-9.3c-54.1.7-107.3,15.1-156,38.1-47.8,22.7-91.2,54.1-130.5,89.4-19.7,17.7-38.4,36.5-56.4,55.9-18.7,20.2-36.2,41.4-55.6,60.9s-47.1,39.7-74.5,54.3c-13.5,7.2-27.4,13.8-41.4,19.9-14,6.1-29.6,12.1-44.8,6.9s-10.5,9.1-3.2,11.6c12.9,4.4,26.6,2.3,39.3-2.1s25.1-10.4,37.3-16.3c23.8-11.5,46.8-24.6,67.7-40.8,21.5-16.6,39.8-36.6,57.8-56.9s35.8-39.9,54.9-58.8c74.3-73.5,166.2-135.6,272.4-147.9,28.9-3.3,58.9-3.4,87.5,2.2s47.4,13.6,56.1,36,14.4,4,11.6-3.2h0Z"/>
    <path class="cls-1" d="M210.8,357.5c-4.1-9.3-16.9-8.2-22.8-1.5s-4.8,8.1-6.5,12.6-4.5,12.2-6.6,18.4c-8,23.8-14.7,48-22.3,71.9-14.1,44.3-33.5,86.1-62.5,122.8-15.8,20-33.8,38.2-53.6,54.3s2.5,13.3,8.5,8.5c32.2-26.2,59.7-58.1,80.9-93.8s36.4-81.9,49.4-125c3.8-12.5,7.6-24.9,11.8-37.2s4.2-12.3,6.6-18.3,5-10.5,6.7-6.4c3.1,7.1,13.4,1,10.4-6.1h0Z"/>
    <path class="cls-1" d="M172,586.3c-28,51.4-84.3,73.9-138,88.2-7.5,2-4.3,13.6,3.2,11.6,56.7-15.1,115.6-39.6,145.1-93.7,3.7-6.8-6.7-12.8-10.4-6.1h0Z"/>
    <path class="cls-1" d="M201.9,608.4c-25.5,51.9-27.6,114.2-6.2,167.9,6,15.2,13.7,29.5,23.2,42.8,4.5,6.2,14.9.2,10.4-6.1-31.7-44.2-43.3-101.5-32-154.7,3.2-15.2,8.2-29.9,15-43.8s-7-13-10.4-6.1h0Z"/>
    <path class="cls-1" d="M702.9,275.7c4.3-10.2,9.1-22.3,19.7-27.5,11.4-5.5,20.1,2.8,26.1,11.9,11.6,17.6,18.5,37.6,24.2,57.8,11.5,40.6,18.7,84.3,46.6,117.7,16,19.1,37.8,32.9,61.6,39.9,7.4,2.2,10.6-9.4,3.2-11.6-22.4-6.6-42.5-19.9-57.3-38.1s-22-37.9-28.3-58.7c-6.5-21.6-11.1-43.6-18-65.1-3.3-10.5-7.2-20.8-12-30.7s-10.4-20.5-18.3-28.2-22.1-11.3-33.9-5.3c-12.5,6.4-18.8,19.5-24,31.8s7.3,13.1,10.4,6.1h0Z"/>
    <path class="cls-1" d="M871.7,379.1c16.3,27.7,35,53.9,56,78.3,19.3,22.4,40.5,45.1,66.7,59.3,14.3,7.8,30.1,12.5,46.4,12.6s7.7-12,0-12c-27.7-.1-51.8-15.7-71.7-33.8-21.9-19.9-41.3-43.2-58.7-67.1-10.2-14-19.6-28.5-28.4-43.4-3.9-6.7-14.3-.6-10.4,6.1h0Z"/>
    <path class="cls-1" d="M1037.4,462.7c14.1,70.7,46.3,141.7,109.4,181.2,16.3,10.2,34.3,17.8,53,22,7.5,1.7,10.7-9.9,3.2-11.6-67.8-15.3-114.7-73.1-137.7-135.8-7.1-19.2-12.3-39-16.3-59.1s-13.1-4.4-11.6,3.2h0Z"/>
    <path class="cls-1" d="M702.4,270.8c5.2-12.6-2-27.4-13.3-33.9-13-7.5-29.9-3.9-41.6,4.4-12.9,9.2-21,23.1-28.7,36.6s-16.2,29.9-23.8,45c-29.6,59-56.3,122.8-102.2,171.5-22.9,24.3-51.1,44.1-84.6,49.9-7.6,1.3-4.4,12.9,3.2,11.6,58-10.1,99.7-58.2,129.7-105.5,34.7-54.6,58.4-115.2,90.7-171.2s17.4-29.1,33.8-33.5c7.2-2,15.4-1.2,21,4.2s6.8,11.3,4.2,17.6c-2.9,7.1,8.7,10.3,11.6,3.2h0Z"/>
    <path class="cls-1" d="M433.8,422c-16.4,25.7-26.5,54.6-38.8,82.3s-12.9,27.4-21.3,40c-8.7,13-19.2,24.7-30.6,35.4s-27.2,23.7-41.3,34.9c-6,4.8,2.5,13.2,8.5,8.5,24.9-19.8,49.9-39.9,68.8-65.8,18.4-25.1,29.2-54.4,41.4-82.8,6.9-16,14.3-31.8,23.6-46.5s-6.2-12.6-10.4-6.1h0Z"/>
    <path class="cls-1" d="M295.1,560.6c-12,40.2-27.3,89.3-70.7,105.6-7.2,2.7-4.1,14.3,3.2,11.6,48-18,65.6-69,79-114,2.2-7.4-9.4-10.6-11.6-3.2h0Z"/>
    <path class="cls-1" d="M372.5,789.9c-6.5,72.3,31.9,138.3,77.8,190.9,23.1,26.5,48.1,51.6,73.8,75.5,24.6,22.9,51.5,43.9,83,56.5,65.2,26.2,139.1,8.4,199.8-21.5,53.5-26.3,101.1-64.6,139.1-110.5,38.1-46,67-99.5,83.2-157,2-7.2,3.8-14.4,5.5-21.7,1.7-7.5-9.9-10.7-11.6-3.2-12.6,56.4-37.5,109.5-71.8,155.9-34.1,46.1-77.7,85.3-127.4,113.9-55.2,31.8-123,54.8-187.1,40.7-32.5-7.2-61-24.6-86.3-45.8-25.7-21.5-49.4-45.8-72.4-70.1-46.4-49.1-90.2-108.2-94-178.2-.5-8.5-.3-17,.5-25.5.7-7.7-11.3-7.6-12,0h0Z"/>
    <path class="cls-1" d="M301.5,634.2c-19.6-.6-36,13.5-43.3,30.9-8.2,19.6-6.6,42.3-3.2,62.8,6.7,40.9,27.3,79.3,60.6,104.5s38.2,22.5,60,25.8c3,.5,6.8-.7,7.4-4.2,1-5.7-.9-10.7-5.9-13.8s-12.6,6.2-6.1,10.4c.4.3.5.4.3.3l7.4-4.2c-34.9-5.3-66-26-85.9-54.9-10.6-15.3-18.1-32.5-22.8-50.5-4.7-17.9-7.6-37.8-4.9-56.3s15-39.4,36.4-38.8c7.7.2,7.7-11.8,0-12h0Z"/>
    <path class="cls-1" d="M1112.3,600.4c8-3.5,17.4,0,23.7,5.3,7.8,6.7,11.2,17,12.9,26.8,3.5,20.7,1.8,43.6-2,64.1-7.5,41.1-28.1,80.1-63.5,103.6-18.3,12.2-39.5,19.6-61.6,20.1s-7.7,12.2,0,12c45.6-1,87.1-28.4,111.3-66.3,13.2-20.7,21.6-44.5,25.8-68.7,4-23.6,6.1-50.1.4-73.6-3-12-9.1-23-19.5-30.1-10.1-6.9-22.4-8.5-33.6-3.6s-1,13.4,6.1,10.4h0Z"/>
    <path class="cls-1" d="M1049.6,804c5.2,15.1,9.2,30.6,11.9,46.4,1.3,7.6,12.9,4.4,11.6-3.2-2.7-15.8-6.6-31.3-11.9-46.4-2.5-7.3-14.1-4.1-11.6,3.2h0Z"/>
    <path class="cls-1" d="M1069.9,794.6c7.4,12.3,12.5,25.6,15.3,39.7,1.5,7.6,13.1,4.4,11.6-3.2-3-15-8.7-29.4-16.5-42.5-4-6.6-14.3-.6-10.4,6.1h0Z"/>
    <path class="cls-1" d="M1088.8,779c7.2,12.4,14.3,24.8,21.5,37.3,3.9,6.7,14.2.7,10.4-6.1-7.2-12.4-14.3-24.8-21.5-37.3-3.9-6.7-14.2-.7-10.4,6.1h0Z"/>
    <path class="cls-1" d="M354.3,818.6c-2,17.5-5.5,34.9-10.2,51.9-2.1,7.4,9.5,10.6,11.6,3.2,5-18.1,8.5-36.4,10.7-55.1s-11.1-7.6-12,0h0Z"/>
    <path class="cls-1" d="M327.4,809.9c-3.7,15.5-7.3,31-11,46.5,3.7-.5,7.3-1,11-1.4-.5-.7-1-1.4-1.5-2.1-4.4-6.3-14.8-.3-10.4,6.1.5.7,1,1.4,1.5,2.1,2.8,4,9.7,3.9,11-1.4,3.7-15.5,7.3-31,11-46.5s-9.8-10.7-11.6-3.2h0Z"/>
    <path class="cls-1" d="M306.5,798.8l-5.3,15.3-2.5,7.2-1.3,3.6-.6,1.8c-.6,1.4-.3,1.3,1-.4l4.6.6-.6-.4,3,5.2v.2c-.9,1.2-1.8,2.4-2.7,3.6l.5-.3-7.3-.9.4.4c5.9,4.8,14.5-3.6,8.5-8.5l-.4-.4c-1.9-1.5-5-2.6-7.3-.9-3.5,2.6-5.3,7.6-1.9,11.2s8.6,2.3,11.4-1,4.3-10.3,5.9-14.9l6.3-18c2.5-7.3-9.1-10.5-11.6-3.2h0Z"/>
    <path class="cls-1" d="M482.3,1015.6c5.5,18.2,7.1,37.1,8.6,56s3.1,39.7,4.6,59.6c3.1,39.7,6.2,79.5,9.2,119.2.6,7.6,12.6,7.7,12,0-3.1-40.4-6.3-80.8-9.4-121.2-1.5-19.8-3.1-39.7-4.6-59.5s-3.3-38.7-8.9-57.3c-2.2-7.4-13.8-4.2-11.6,3.2h0Z"/>
    <path class="cls-1" d="M927.9,994.4c5,27.1,10.1,54.3,17.3,80.9,3.5,13.1,7.5,26.1,12.3,38.8s4.8,12.2,7.4,18.2c1.5,3.3,3,6.6,4.5,9.9.8,1.6,1.6,3.2,2.4,4.9l.8,1.6c.5,2.1,1.1,1.5,1.8-1.8,1.5-.2,3.1-.4,4.6-.6l2.1,4.9c-1.4,1.4-2.8,2.8-4.2,4.2l.6-.3c7-2.9,4-14.5-3.2-11.6s-6.6,11.9.7,14.2c8.8,2.8,11-8,8.4-13.9-3.4-7.7-7.4-15-10.6-22.8-3.5-8.4-6.5-16.9-9.3-25.4-11.1-34-17.7-69.3-24.2-104.4-1.4-7.6-13-4.4-11.6,3.2h0Z"/>
    <path class="cls-1" d="M505.9,1254.8c59.9,31.9,130.2,27.2,195.7,23.9,68.5-3.5,140.3-10.1,199.8-47.5s28.6-20.4,40.5-33.3c13.1-14.2,24.3-30.2,38.2-43.8,5.6-5.4-2.9-13.9-8.5-8.5-11.8,11.5-21.6,24.7-32.3,37.2-10.2,11.9-21.6,22.6-34.4,31.7-25,17.7-53.6,29.5-83.2,37.1-34.9,9-70.8,12.3-106.6,14.4-32.9,1.9-66.1,4-99.1,2.8-35.9-1.3-72-7.2-104-24.3-6.8-3.6-12.9,6.7-6.1,10.4h0Z"/>
    <path class="cls-1" d="M973.8,1152.6c56,39.6,122.4,60,188.4,76,33.7,8.2,67.7,15.3,101.4,23.7,36.2,9,71.9,19.6,107,32.2,40.4,14.5,79.9,31.4,118.3,50.6,6.9,3.4,13-6.9,6.1-10.4-67.9-34-139.2-60.9-212.7-80.1-66.6-17.4-134.9-28.7-200.1-51.3-36.2-12.5-71-28.9-102.3-51-6.3-4.5-12.3,5.9-6.1,10.4h0Z"/>
    <path class="cls-1" d="M504.2,1245.2c-67.9,33.7-138.2,62.3-210.3,85.7-35.4,11.5-70.8,22.6-104.4,38.7-32.1,15.3-62.6,34-92,54.1-33.1,22.7-64.9,47.4-96.6,72-6.1,4.7,2.5,13.2,8.5,8.5,55.9-43.4,112.3-87.2,175.8-119.2,33.3-16.8,68.3-28.5,103.7-39.9,35.8-11.5,71.2-24.1,106.1-38,39.1-15.6,77.6-32.9,115.3-51.6,6.9-3.4.8-13.8-6.1-10.4h0Z"/>
    <path class="cls-1" d="M925.1,993.2c-25.7,54-67.5,99.6-118.9,130.1-55.8,33.2-121.3,46.5-185.7,39.3-37.4-4.2-73.9-15.5-107.1-33.1-6.8-3.6-12.9,6.7-6.1,10.4,61.4,32.7,133.1,43.9,201.6,32.1,63-10.8,121.5-42.3,166.5-87.6,24.6-24.8,45-53.6,60-85.1,3.3-6.9-7-13-10.4-6.1h0Z"/>
    <path class="cls-1" d="M495.3,1030c3.5,31.4,6.5,62.8,8.8,94.3s12.6,7.7,12,0c-2.4-31.5-5.3-62.9-8.8-94.3-.8-7.6-12.9-7.7-12,0h0Z"/>
    <path class="cls-1" d="M503.9,1040.5c4.2,29.6,8.4,59.2,12.5,88.9s12.6,4.4,11.6-3.2c-4.2-29.6-8.4-59.2-12.5-88.9-1.1-7.6-12.6-4.4-11.6,3.2h0Z"/>
    <path class="cls-1" d="M510.1,1113.3c1.1,6.1,2.1,12.1,3.2,18.2s4.5,5,7.4,4.2,4.8-4.2,4.2-7.4c-1.1-6.1-2.1-12.1-3.2-18.2s-4.5-5-7.4-4.2c-3.4.9-4.8,4.2-4.2,7.4h0Z"/>
    <path class="cls-1" d="M907.7,1010.9c-36.6,41.3-74.6,83.1-127.3,103.5-51.1,19.8-107,21.3-161.1,20.8-30.1-.3-63.8,2.1-91.2-12.4-6.8-3.6-12.9,6.7-6.1,10.4,25.7,13.6,55.2,13.4,83.5,13.8,28.9.5,57.9.6,86.7-1.8,27.7-2.3,55.5-6.8,81.9-15.8,27.1-9.2,51.8-23.2,74-41.2,25.2-20.3,46.7-44.7,68.1-68.8,5.1-5.8-3.4-14.3-8.5-8.5h0Z"/>
    <path class="cls-1" d="M525.3,1129c-1.7.3-3.3.7-5,1-4.8,1-6.1,8.8-1.4,11,36.5,16.6,76.3,24.5,116.4,22.6,7.7-.4,7.7-12.4,0-12-37.9,1.8-75.8-5.2-110.3-21l-1.4,11c1.7-.3,3.3-.7,5-1,7.6-1.5,4.4-13.1-3.2-11.6h0Z"/>
    <path class="cls-1" d="M539.9,1145.8c26,11.5,53.7,18.6,82.1,20.6,14.1,1,28.2.8,42.2-.7,14.7-1.6,29.3-5.6,44.1-5.3,7.7.2,7.7-11.8,0-12-14.3-.3-28.2,3.4-42.3,5.1-13.4,1.6-27,1.9-40.4,1.2-27.4-1.6-54.6-8.1-79.6-19.2-7-3.1-13.1,7.2-6.1,10.4h0Z"/>
    <path class="cls-1" d="M571.4,1143.4c25.2,8.5,51.8,12.6,78.4,11.9,13.2-.3,26.5-1.8,39.4-4.4,13.5-2.7,26.7-7.6,40.5-8.8,7.6-.6,7.7-12.6,0-12-13.4,1.1-26.1,5.4-39.2,8.3-12.8,2.8-25.8,4.4-38.9,4.9-26.2.9-52.2-3.1-77-11.4-7.3-2.5-10.5,9.1-3.2,11.6h0Z"/>
    <path class="cls-1" d="M583.8,1156.8c68.5,9.6,138.5-.3,201.5-28.7,7-3.2.9-13.5-6.1-10.4-59.8,26.9-127.3,36.6-192.3,27.5-3.2-.5-6.4.8-7.4,4.2s1,6.9,4.2,7.4h0Z"/>
    <path class="cls-1" d="M664,1154.8c6.9,4.4,14.8,4,22.7,3.1,8.1-1,16.2-2.2,24.2-3.7,17-3.1,33.8-7.4,50.2-12.7,32.5-10.6,63.7-25.5,92.4-44.1,6.5-4.2.4-14.6-6.1-10.4-26.9,17.4-55.8,31.6-86.2,41.8s-30.3,9.2-45.8,12.3c-7.7,1.6-15.5,2.9-23.4,4-6.9,1-15.7,3.2-22-.7-6.6-4.1-12.6,6.3-6.1,10.4h0Z"/>
    <path class="cls-1" d="M702.9,1162.8c8.1,2.1,15.6-.1,23.3-2.8,7.2-2.5,14.3-5,21.4-7.6,13.7-5,27.4-10.4,40.7-16.5,26.7-12.2,52-28.1,71.8-50,5.2-5.7-3.3-14.2-8.5-8.5-18.5,20.4-41.7,35.1-66.4,46.7-12.3,5.8-25,10.8-37.7,15.5s-13.3,4.8-19.9,7.1-14.4,6.2-21.5,4.4c-7.5-2-10.7,9.6-3.2,11.6h0Z"/>
    <path class="cls-1" d="M815,1116.4c30.4-15.8,57.9-36.8,81.3-61.9,5.3-5.6-3.2-14.2-8.5-8.5-22.7,24.4-49.3,44.6-78.8,60-6.9,3.6-.8,13.9,6.1,10.4h0Z"/>
    <path class="cls-1" d="M545.5,1118.5c-11.1-5.1-22.1-10.6-32.8-16.5l-6.1,10.4c22.9,12.3,46.2,23.9,69.9,34.7,6.9,3.1,13-6.8,6.1-10.4s-4.3-2.2-6.4-3.3c-6.9-3.5-12.9,6.8-6.1,10.4s4.3,2.2,6.4,3.3l6.1-10.4c-23.7-10.8-47-22.3-69.9-34.7-6.8-3.7-12.9,6.7-6.1,10.4,10.8,5.8,21.7,11.3,32.8,16.5,7,3.2,13.1-7.1,6.1-10.4h0Z"/>
    <path class="cls-1" d="M512.8,1098.3c30.2,19.9,60.4,39.8,90.5,59.7,5.6,3.7,12.6-5.1,7.3-9.4-2.2-1.8-4.3-3.6-6.5-5.4-5.9-4.9-14.4,3.6-8.5,8.5,2.2,1.8,4.3,3.6,6.5,5.4,2.4-3.1,4.8-6.3,7.3-9.4-30.2-19.9-60.4-39.8-90.5-59.7-6.5-4.3-12.5,6.1-6.1,10.4h0Z"/>
    <path class="cls-1" d="M509.9,1072.8c29.5,26.6,61.3,50.5,95,71.5,6.1,3.8,11.4-4.4,7.3-9.4-3.2-3.9-7.5-6.4-12.4-7.4-7.5-1.5-10.8,10.1-3.2,11.6,3.1.6,5.1,1.8,7.1,4.3,2.4-3.1,4.8-6.3,7.3-9.4-32.9-20.4-63.8-43.7-92.6-69.6-5.7-5.2-14.2,3.3-8.5,8.5h0Z"/>
    <path class="cls-1" d="M503.4,1053.7c32.8,30.2,67.9,57.8,105.1,82.4,6.5,4.3,12.5-6.1,6.1-10.4-36.3-24.1-70.6-51-102.7-80.5-5.7-5.2-14.2,3.2-8.5,8.5h0Z"/>
    <path class="cls-1" d="M509.8,1072.2c24.2,24.2,52,44.5,82.4,60.1,6,3.1,12.1-4.4,7.3-9.4s-11.9-9.4-19.4-11.1c-7.5-1.7-10.7,9.9-3.2,11.6,5.6,1.2,10.2,3.8,14.1,8,2.4-3.1,4.8-6.3,7.3-9.4-29.6-15.2-56.5-34.7-80-58.2-5.5-5.5-14,3-8.5,8.5h0Z"/>
    <path class="cls-1" d="M512.9,1092.8c25.5,19.2,52.2,36.8,79.9,52.7,6.7,3.8,12.7-6.4,6.1-10.4s-10.2-6-15.3-9.1c-6.7-3.9-12.7,6.4-6.1,10.4,5.1,3,10.2,6,15.3,9.1l6.1-10.4c-27.7-15.9-54.4-33.5-79.9-52.7-6.2-4.6-12.2,5.8-6.1,10.4h0Z"/>
    <path class="cls-1" d="M507.6,1104.8c26.4,21.2,56.4,37.1,88.8,46.9,7.4,2.2,10.6-9.3,3.2-11.6-30.3-9.1-58.8-24-83.5-43.8-6-4.8-14.5,3.7-8.5,8.5h0Z"/>
    <path class="cls-1" d="M550.3,1089.3c40.4,19.8,82.4,36,125.7,48.1l-1.4-11c-1.6,1.1-3.2,2.2-4.8,3.3-6.3,4.4-.3,14.8,6.1,10.4s3.2-2.2,4.8-3.3c4.1-2.9,3.8-9.5-1.4-11-42.3-11.9-83.4-27.5-122.9-46.9-6.9-3.4-13,7-6.1,10.4h0Z"/>
    <path class="cls-1" d="M565.9,1108c32.3,14.3,65.3,27,98.9,38,1.1-3.9,2.1-7.7,3.2-11.6-4.4-1.1-8.8-2.3-13.2-3.4-7.5-1.9-10.7,9.6-3.2,11.6,4.4,1.1,8.8,2.3,13.2,3.4,7.5,2,10.5-9.2,3.2-11.6-32.6-10.7-64.7-22.9-96.1-36.8-7-3.1-13.1,7.2-6.1,10.4h0Z"/>
    <path class="cls-1" d="M572,1117c24.7,13,50.8,23.2,77.9,30.2,7.5,1.9,10.5-9.3,3.2-11.6-1.2-.4-2.4-.7-3.6-1.1-7.4-2.3-10.5,9.3-3.2,11.6,1.2.4,2.4.7,3.6,1.1,1.1-3.9,2.1-7.7,3.2-11.6-26.1-6.7-51.2-16.4-75-29-6.8-3.6-12.9,6.7-6.1,10.4h0Z"/>
    <path class="cls-1" d="M665.6,1135.1c45.8,2.2,91.9-4.6,135.1-19.9,4-1.4,5.2-5.1,3.6-8.8-3.5-7.9-15.3-5.7-17.5,1.9s9.4,10.6,11.6,3.2c-1.1,2.1-2.6,2.5-4.5,1,1.2-2.9,2.4-5.9,3.6-8.8-42.3,15-87.1,21.6-131.9,19.5-7.7-.4-7.7,11.6,0,12h0Z"/>
    <path class="cls-1" d="M688.6,1133.8c31.3-4.3,62.1-11.3,92.2-21,14.9-4.8,29.5-10.3,43.9-16.4,3.3-1.4,6.6-2.8,9.9-4.3,3.4-1.5,7.8-2.8,10.5-5.5,4.7-4.7,3-12.7-3.5-14.5-7.5-2-10.7,9.6-3.2,11.6.5-4.9-.3-6.7-2.5-5.3-.8.4-1.6.8-2.3,1.1-1.4.6-2.8,1.3-4.2,1.9-3.2,1.4-6.3,2.8-9.5,4.1-6.2,2.6-12.5,5.1-18.8,7.5-12.3,4.6-24.8,8.8-37.5,12.5-25.6,7.5-51.7,13-78.1,16.7-3.2.4-4.9,4.5-4.2,7.4s4.2,4.6,7.4,4.2h0Z"/>
    <path class="cls-1" d="M801.5,1105.8c30.3-14.9,60.9-30.3,85.6-53.7,5.6-5.3-2.9-13.8-8.5-8.5-24,22.7-53.8,37.4-83.2,51.9-6.9,3.4-.9,13.8,6.1,10.4h0Z"/>
    <path class="cls-1" d="M666.5,1155.2c6.5-2.8,13.8-3.8,20.8-2.8,7.6,1.1,10.8-10.5,3.2-11.6-10.6-1.5-20.3-.3-30.1,4-7.1,3.1-1,13.4,6.1,10.4h0Z"/>
    <path class="cls-1" d="M719.7,832.5c8.1-6.8,18.1-11.2,28.5-12.9,1.3-.2,2.1-1.9,1.7-3.1s-1.7-2-3.1-1.7c-11.3,1.9-21.9,6.9-30.7,14.2s-.9,2.6,0,3.5,2.5.9,3.5,0h0Z"/>
    <path class="cls-1" d="M672.2,842.3c3.8,4.7,10.2,5.7,15.9,5.2s5.8-.7,8.6-1.4,5.9-2.3,6.8-5.5-4-4.4-4.8-1.3-.7,1-1.4,1.4-2,.7-3,.9c-2.3.5-4.6.9-6.9,1-4.3.3-8.8-.2-11.6-3.8s-2.7-.9-3.5,0-.8,2.5,0,3.5h0Z"/>
    <path class="cls-1" d="M631.1,821.3c11.9-1.3,24,4.8,29.9,15.2l2.2-3.8c0,0,.5.2.6.3-.7-3.1-5.6-1.8-4.8,1.3s2.2,3.3,4.3,3.3,3.1-2.2,2.2-3.8c-6.7-11.9-20.6-19.2-34.2-17.7s-2.5,1-2.5,2.5,1.1,2.6,2.5,2.5h0Z"/>
    <path class="cls-1" d="M590.2,928.2c26.4,6.5,53.6,10,80.7,10.6,27,.5,54.1-1.9,80.7-7.3s29.6-6.9,43.9-11.8c3-1,1.7-5.9-1.3-4.8-25.4,8.5-51.7,14.3-78.3,17-26.7,2.8-53.7,2.6-80.3-.5-14.9-1.7-29.6-4.4-44.1-8s-4.5,4.1-1.3,4.8h0Z"/>
    <path class="cls-1" d="M649.4,976.9c10.8,5.5,22.7,8.9,34.8,9.9,12.5,1,25-1,37.1-4.2s13.6-4.1,20.4-6.3,1.7-5.8-1.3-4.8c-11.7,3.9-23.4,7.7-35.6,9.6-11.5,1.8-23.3,1.3-34.6-1.6s-12.4-3.9-18.2-6.8-5.4,2.9-2.5,4.3h0Z"/>
    <path class="cls-1" d="M653.3,798.4c-7.2,3.9-12.5,11.1-14.1,19.1s-1,8.4.6,12.3,5.1,6.5,9.3,6.2,8.1-4.1,8.4-8.6-1.9-1.3-2,0c-.3,3.6-3.3,6.6-7,6.6s-6.5-3-7.4-6.6c-1.7-6.7.6-14.1,4.5-19.6s5.3-5.8,8.7-7.7.1-2.3-1-1.7h0Z"/>
    <path class="cls-1" d="M852.8,437.2c-69.1,36.6-113.5,111.4-120.4,188.3-3.7,42,3.4,88.1,27.4,123.5,22.7,33.5,58.4,55.2,96.4,67.4,39,12.5,82.1,16.3,122.4,8.2s77.3-31.2,101-66.3c47.6-70.6,45.3-171.6.4-242.8-22.1-35-54.8-62.4-93.1-78.2-36.9-15.2-81.2-19.8-119.4-6.5s-20.2,8.9-28.9,15.9c-6,4.8,2.5,13.3,8.5,8.5,16.4-13.1,37.9-18.3,58.4-19.7,18.6-1.3,37.2.7,55.2,5.5,37.1,10,70.6,31.8,95.1,61.3,50.8,61.3,60.8,154.5,26.9,226.1-17.2,36.3-45.9,64.9-84.2,78.3-36.5,12.7-76.8,12.6-114.4,4.6-36.6-7.7-72.8-23.3-99.3-50.4-29-29.7-40.7-71.3-41.4-112-1.1-72,33.8-145.7,92.9-187.7,7.2-5.1,14.7-9.7,22.5-13.8s.8-14-6.1-10.4h0Z"/>
    <path class="cls-1" d="M416.2,437.2c-69.1,36.6-113.5,111.4-120.4,188.3-3.7,42,3.4,88.1,27.4,123.5s58.4,55.2,96.4,67.4c39,12.5,82.1,16.3,122.4,8.2s77.3-31.2,101-66.3c47.6-70.6,45.3-171.6.4-242.8s-54.8-62.4-93.1-78.2c-36.9-15.2-81.2-19.8-119.4-6.5-10.6,3.7-20.2,8.9-28.9,15.9s2.5,13.3,8.5,8.5c16.4-13.1,37.9-18.3,58.4-19.7,18.6-1.3,37.2.7,55.2,5.5,37.1,10,70.6,31.8,95.1,61.3,50.8,61.3,60.8,154.5,26.9,226.1-17.2,36.3-45.9,64.9-84.2,78.3-36.5,12.7-76.8,12.6-114.4,4.6-36.6-7.7-72.8-23.3-99.3-50.4-29-29.7-40.7-71.3-41.4-112-1.1-72,33.8-145.7,92.9-187.7s14.7-9.7,22.5-13.8.8-14-6.1-10.4h0Z"/>
    <path class="cls-1" d="M742.4,688.5c-26.2-7.7-54.6-6.4-79.9,4s-4,14.5,3.2,11.6c23.4-9.7,49.1-11.2,73.5-4s10.6-9.4,3.2-11.6h0Z"/>
    <path class="cls-1" d="M585.1,516.5c-.9-.5-1.6-1.1-2.1-1.9-5-6-13.1,2.5-8.5,8.5s6.1,7,9.2,10.5,5.6,5.8,6.8,9.3c2.6,7.2,14.2,4.1,11.6-3.2s-12.7-16.9-19.1-25.1l-8.5,8.5c1.3,1.5,2.9,2.7,4.5,3.8,6.3,4.5,12.3-5.9,6.1-10.4h0Z"/>
    <path class="cls-1" d="M596,513c6.2,5.3,11.2,11.4,14.9,18.7s13.9.8,10.4-6.1-9.8-15.3-16.8-21.1-14.4,3.5-8.5,8.5h0Z"/>
    <path class="cls-1" d="M1010,513.4c7.1,8.3,14.2,16.6,21.3,24.9s13.5-2.6,8.5-8.5c-7.1-8.3-14.2-16.6-21.3-24.9s-13.5,2.6-8.5,8.5h0Z"/>
    <path class="cls-1" d="M1033.9,503.3c5.8,7.8,11.6,15.6,17.4,23.4,4.6,6.1,15,.1,10.4-6.1-5.8-7.8-11.6-15.6-17.4-23.4s-15-.1-10.4,6.1h0Z"/>
  </g>
  <g id="Layer_4" data-name="Layer 4" class="cls-2">
    <path class="cls-1" d="M852.8,437.2c-69.1,36.6-113.5,111.4-120.4,188.3-3.7,42,3.4,88.1,27.4,123.5s58.4,55.2,96.4,67.4c39,12.5,82.1,16.3,122.4,8.2,41.4-8.4,77.3-31.2,101-66.3,47.6-70.6,45.3-171.6.4-242.8-22.1-35-54.8-62.4-93.1-78.2-36.9-15.2-81.2-19.8-119.4-6.5s-20.2,8.9-28.9,15.9,2.5,13.3,8.5,8.5c16.4-13.1,37.9-18.3,58.4-19.7s37.2.7,55.2,5.5c37.1,10,70.6,31.8,95.1,61.3,50.8,61.3,60.8,154.5,26.9,226.1-17.2,36.3-45.9,64.9-84.2,78.3-36.5,12.7-76.8,12.6-114.4,4.6-36.6-7.7-72.8-23.3-99.3-50.4-29-29.7-40.7-71.3-41.4-112-1.1-72,33.8-145.7,92.9-187.7,7.2-5.1,14.7-9.7,22.5-13.8s.8-14-6.1-10.4h0Z"/>
    <path class="cls-1" d="M416.2,437.2c-69.1,36.6-113.5,111.4-120.4,188.3-3.7,42,3.4,88.1,27.4,123.5,22.7,33.5,58.4,55.2,96.4,67.4,39,12.5,82.1,16.3,122.4,8.2,41.4-8.4,77.3-31.2,101-66.3,47.6-70.6,45.3-171.6.4-242.8-22.1-35-54.8-62.4-93.1-78.2-36.9-15.2-81.2-19.8-119.4-6.5-10.6,3.7-20.2,8.9-28.9,15.9-6,4.8,2.5,13.3,8.5,8.5,16.4-13.1,37.9-18.3,58.4-19.7,18.6-1.3,37.2.7,55.2,5.5,37.1,10,70.6,31.8,95.1,61.3,50.8,61.3,60.8,154.5,26.9,226.1s-45.9,64.9-84.2,78.3c-36.5,12.7-76.8,12.6-114.4,4.6-36.6-7.7-72.8-23.3-99.3-50.4-29-29.7-40.7-71.3-41.4-112-1.1-72,33.8-145.7,92.9-187.7s14.7-9.7,22.5-13.8c6.8-3.6.8-14-6.1-10.4h0Z"/>
    <path class="cls-1" d="M742.4,688.5c-26.2-7.7-54.6-6.4-79.9,4s-4,14.5,3.2,11.6c23.4-9.7,49.1-11.2,73.5-4,7.4,2.2,10.6-9.4,3.2-11.6h0Z"/>
    <path class="cls-1" d="M585.1,516.5c-.9-.5-1.6-1.1-2.1-1.9-5-6-13.1,2.5-8.5,8.5s6.1,7,9.2,10.5,5.6,5.8,6.8,9.3c2.6,7.2,14.2,4.1,11.6-3.2s-12.7-16.9-19.1-25.1l-8.5,8.5c1.3,1.5,2.9,2.7,4.5,3.8,6.3,4.5,12.3-5.9,6.1-10.4h0Z"/>
    <path class="cls-1" d="M596,513c6.2,5.3,11.2,11.4,14.9,18.7s13.9.8,10.4-6.1c-4.1-8.1-9.8-15.3-16.8-21.1s-14.4,3.5-8.5,8.5h0Z"/>
    <path class="cls-1" d="M1010,513.4c7.1,8.3,14.2,16.6,21.3,24.9,5,5.9,13.5-2.6,8.5-8.5-7.1-8.3-14.2-16.6-21.3-24.9-5-5.9-13.5,2.6-8.5,8.5h0Z"/>
    <path class="cls-1" d="M1033.9,503.3c5.8,7.8,11.6,15.6,17.4,23.4,4.6,6.1,15,.1,10.4-6.1-5.8-7.8-11.6-15.6-17.4-23.4-4.6-6.1-15-.1-10.4,6.1h0Z"/>
  </g>
</svg>