<?xml version="1.0" encoding="UTF-8"?>
<svg xmlns="http://www.w3.org/2000/svg" version="1.1" viewBox="0 0 1500 1500">
  <defs>
    <style>
      .cls-1 {
        stroke: #fff;
        stroke-width: 2px;
      }

      .cls-1, .cls-2, .cls-3, .cls-4, .cls-5 {
        fill: none;
        stroke-linejoin: round;
      }

      .cls-1, .cls-3, .cls-4, .cls-5 {
        stroke-linecap: round;
      }

      .cls-2, .cls-3 {
        stroke-width: 15px;
      }

      .cls-2, .cls-3, .cls-4, .cls-5 {
        stroke: #231f20;
      }

      .cls-4 {
        stroke-width: 12px;
      }

      .cls-6 {
        fill: #231f20;
        stroke-width: 0px;
      }

      .cls-5 {
        stroke-width: 6px;
      }
    </style>
  </defs>
  <g id="Layer_7" data-name="Layer 7">
    <polyline class="cls-6" points="607.5 891.3 601.3 908 599.8 938.6 609 979.9 636.5 1049.7 649.6 1071.6 668.7 1074.7 686.4 1070.8 711.5 1050.6 754.4 1012.3 833.5 942.6 868.3 905.6 913.8 857 946.7 822.8 961.2 799.8 958.9 784.5 938.1 809.1 907.5 837.1 877.5 866.7 846.9 897.7 804.5 934.9 776.2 954.6 757.9 963.4 740.4 968.5 706.6 970 686.7 964.3 668.6 946.2 651.7 929.9 629.8 910.1 614.8 895.6 607.3 890.4"/>
  </g>
  <g id="Layer_6" data-name="Layer 6">
    <path class="cls-5" d="M647.8,1069c3.1,1.8,13.4,5.1,19.8,5.6,18.3,1.5,33.2-13.4,38.5-18.7,46.2-45.6,100.5-82.9,144.2-130.8,21.1-23.2,54.3-59,97.1-103,4.6-7.4,7.7-13.9,12.3-21.4"/>
  </g>
  <g id="Layer_3" data-name="Layer 3">
    <path class="cls-6" d="M1197.4,1242.9c-.9,16.3-15.6,27.5-29.1,33.9-12.8,5.9-30.5,11.1-44.5,7.1,0,0,3-5,3-5,5,4.7,11,8.5,17.5,10.6,19.8,6.3,43.4.6,50.3-21.2.5-1.7,2.4-2.5,4-1.9,9.4,3.8,19.5,5.5,29.5,4.6,6.8-.8,13.9-2.2,20.1-4.7,16.9-6.5,22.4-23.9,17-40.5-.8-2.3,1.7-4.7,4-3.7,13.3,5.3,23.5,17.9,25.4,32.2,1.5,10.7-1.9,21.8-8.6,30.1-2.3,2.8-4.6,5.4-7.5,7.6,0,0-2.2-5.4-2.2-5.4,2-.3,4-.5,6-.8,15.2-2.4,31.8-8,40.4-21.6,2.2-3.4,2.7-7.2,3.9-11,3.2-9.9,7.6-19.4,12.8-28.5,4.1-7,8.3-13.6,9.8-21.6,4.7-23.1-5.1-48.2-22.2-63.7-.9-.9-1.4-2.1-1.5-3.4-.8-31.7-11.7-62.8-30.9-87.9-9.3-12.3-20.1-23.3-34.1-30.1-15.2-7.6-29.3-17.8-41.7-29.5-24.8-23.3-44.6-51.9-57.5-83.4-27.3-69.6-22.7-148.3-.8-218.6,4-12.8,8.9-25.5,14.5-37.7,5.3-11.9,11.2-23.4,15.7-35.4,6-16.5,8.8-32.2,9.6-47.8.8-13.8.5-27.7-.7-41.5,0,0-.3-2.7-.3-2.7l-.2-1.4-.2-1.4-.5-2.7c-8.8-38.9-43.5-75.3-69.5-105-17.8-20-37.9-40.8-56.1-60.6-6.4-6.8-12.5-14.6-18.1-22.1-17.9-24.5-34.1-50.3-53.6-73.5-.6-.7-1.2-1.5-1.9-2.2l-1.9-2.2-3.9-4.3-4-4.1-2-2.1-2-1.9-4.1-3.7c-15.7-12.1-32.1-24.4-48.6-35.4-53.4-35.7-110.8-66.8-172.5-85.2-30.8-8.8-63-12.5-95-12,0,0,.9,0,.9,0-6.4,1.1-12.7,3.4-18.1,6.9-17,10.5-24.2,31.8-22.1,51.1.5,3.8-2.7,7.2-6.5,7-.3,0-80.6-3.8-80.9-3.8-.2,0,6-2.6,6-2.6-25.4,32.5-53.6,62.8-84.6,90.1-12.6,11.3-26.9,21.1-39.9,31.7-11.4,9.7-19.9,22.4-23.3,37-4.4,18.5-2.6,37.4,0,56.6,1.9,13.1,4.4,26.3,6.9,39.6,7.9,40.2,15.5,80.7,19.6,121.5,4.4,41,4.9,82.2,3.5,123.4-1.2,41.1-5.4,82.5-14.4,122.8-15.7,66.1-33.1,132-50.2,197.8-5.2,19.7-10.5,39.4-16.2,59.1-3.9,12.8-7.6,25.5-8.3,38.8-.8,12.6,1.8,25.6,9.7,35.6,10.3,13.5,28.9,17.5,40,30.7,4.8,5.8,7.7,12.9,9,20.3,2.8,17.9-3.6,35.9-12.9,51-15.6,24.7-45.2,37.3-73.9,32.5-21.1-3.4-40.2-16-52.1-33.6,0,0,5.4-3.2,5.4-3.2,7.5,15,18.1,28.5,31.6,38.4,28.7,21.6,63.4,19.1,96.8,11.2,16.5-3.9,32.5-10.2,47.2-18.7,1.8-1.1,4.2.5,3.9,2.5-1.7,15.6,5,32.5,19.6,39.6,7,3.6,15.1,4.8,23.3,5.4,8,.5,16.1-.7,23.7-3.4.8-.3,1.7-.1,2.3.4,12.6,9.8,20.8,25.3,21.1,41.4.3,12.4-3.9,24.9-11.5,34.7,0,0-3.5-3.2-3.5-3.2,10.4-10,21.8-19.1,34-26.8,5.5-3.6,11.9-7.2,13.7-13.6,2-6.3-.3-13.1-3.3-18.8-.6-1.1-.2-2.6,1-3.2.7-.4,1.5-.4,2.1,0,3.1,1.5,5.9,3.6,8.2,6.1,7.2,7.6,8.6,19.4,4.2,28.8,0,0-2.4-3.4-2.4-3.4,9.2-1.1,18.2-4.1,26.2-8.7,24.8-14,36.4-43.9,35.1-71.4-.2-2,2.2-3.3,3.8-2.2,10.3,6.8,18.7,16.7,23.6,28.1,5,11.4,6.6,24.2,4.6,36.4,0,0-4.5-1.9-4.5-1.9,33.4-45.9,41.5-104.3,16.3-155.9-.7-1.5-.1-3.3,1.4-4,1.5-.7,3.3,0,4,1.4,10,20.9,15.1,44.1,14.9,67.3-.2,19.6-4.4,39.1-11.8,57.1-5.4,13.1-12.4,25.6-20.8,37-.8,1.1-2.4,1.4-3.5.5-.8-.6-1.1-1.5-1-2.4.9-5.6,1-11.4.3-17.1-2-17.1-11.9-33-26.3-42.5,0,0,3.8-2.2,3.8-2.2.5,9.8-.6,19.8-3.3,29.2-7.9,30.1-30.9,52-62.2,55.8-1.8.3-3.3-1.7-2.4-3.4,5.1-10.7.6-23.5-10.1-28.6,0,0,3.1-3.2,3.1-3.2,1.8,3.3,3.2,6.8,4,10.6.8,3.8.8,7.9-.4,11.8-1.1,3.8-3.7,7.3-6.7,9.8-2.9,2.5-6,4.4-9,6.4-12,7.6-23.1,16.4-33.3,26.3-.9.9-2.4.9-3.4,0-.8-.9-.9-2.2-.2-3.1,5.9-7.7,9.6-17.2,10.3-26.8,0,0,.1-2.4.1-2.4v-2.4s0-1.2,0-1.2v-1.2c-.6-7.3-2.9-14.3-6.6-20.6-3.3-5.6-7.6-10.6-12.7-14.5l2.3.4c-10.2,3.6-21.3,4.6-32,3.1-6.5-.8-12.9-2.3-18.9-5.2-8-4-14.5-10.8-18.3-18.9-3.8-8.1-5-17-4.2-25.9,0,0,3.9,2.5,3.9,2.5-18.8,11-39.8,18.4-61.3,22.2-52.9,11.8-97.1-5.4-122.5-54.7-.8-1.5-.2-3.4,1.4-4.2,1.4-.7,3.1-.3,4,1,11,16.1,28.6,27.7,47.9,30.6,19.2,3,39.6-2.3,54.2-15.2,15.5-13.2,27.5-39.9,24-60.4-1.5-9.3-6.5-17.3-14.2-22.7-10.9-7.7-25-13.1-33.6-24.4-14.1-17.3-13.7-41.4-8.9-62,21.2-77.9,39.5-158.7,56.6-237.8,5.9-25.8,11.3-53.1,14.3-79.4,4-33.4,4.7-66.9,4.5-100.5,0-20-.6-40.4-1.9-60.4-3.4-53.9-12.9-106.6-23.4-159.8-3.8-20.2-7.7-40.9-9.1-61.7-2.7-35.6,4.9-67.6,33.9-91.2,8.1-6.6,16.9-12.3,24.9-18.4,26.7-20.1,51-43.2,74.3-67.2,9.4-9.8,18.5-19.8,27.4-30,1.5-1.7,3.7-2.6,5.9-2.4l80.5,5.4-6.8,7c-.3-8,.5-15.7,2.5-23.4,5.7-23.9,23.9-42.2,48.5-46.8,25.2-1.1,50.4.5,75.3,4.6,24.6,4.3,48.6,11.5,71.9,20.1,62,23.2,120.3,55.7,173.4,95.1,0,0,10.1,7.6,10.1,7.6,1.6,1.5,5.9,5.2,7.5,6.7,28,27,44.6,62.5,65.9,94.2,3.3,4.8,6.9,9.7,10.6,14.2,3.5,4.3,8.3,9.2,12,13.3,27.6,30.1,56.5,59.6,82.3,91.3,17.6,22,35.4,46.5,41.8,74.8,0,0,.6,3.3.6,3.3l.3,1.7c0,.6.6,4.2.7,5,1.8,18.3,2.1,36.8.5,55.2-.2,2-1,7.8-1.6,11.9-.6,3.2-1.2,7.1-2,10.2-1.4,6.6-3.6,13.6-5.8,20-4.6,12.6-10.6,24.6-15.8,36.7-10.4,23.4-17.9,47.9-23,73-19.5,96.1-4,195.1,75.5,259.8,4.9,3.9,9.9,7.4,15.3,10.6,7.1,4.2,14.9,8.1,21.7,13.3,15,11.8,26.6,27.6,35.7,44.1,13.1,23.9,19.8,51.4,19.3,78.6,0,0-1.5-3.6-1.5-3.6h0c16.5,19.8,25.4,46.8,19.5,72.2-1.8,8.3-6.6,15.7-10.9,22.8-5.1,8.7-9.5,17.9-12.6,27.4-1.2,4-1.9,8.5-4.3,12.1-10.4,16.8-31,22.9-49.3,26.1-1.6.3-3.2-.8-3.4-2.4-.2-1.2.3-2.3,1.2-2.9,15.2-12.2,19-33.1,6.6-48.7-3.8-4.8-8.9-8.5-14.5-10.8l4-3.7c1.4,4.5,2.2,9.2,2.2,14,.3,15.1-8.5,28.4-22.7,33.9-7.1,2.9-14.4,4.2-21.9,5.1-11,1-22.2-.9-32.3-5,0,0,4-1.9,4-1.9-2.4,7.4-6.9,14.4-13.2,19.2-9.4,7.2-21.7,9.4-33.3,8.2-11.6-1-22.7-6.4-31-14.3-2.3-2.2,0-6,3-5,6.2,1.8,13.6,1.1,20.1-.2,16-3.4,34.9-11.5,43.1-26.2,1.5-2.9,2.4-6,2.6-9.2,0-1.7,1.5-2.9,3.1-2.9,1.7,0,2.9,1.5,2.9,3.1h0Z"/>
    <path class="cls-5" d="M607.5,891.3c-1.4,2.7-3.5,7.3-5.3,13.2-5.1,17.1-3.1,32.2-.7,44.3,15.1,75.6,46.2,120.2,46.2,120.2,4.9,7,11.7,16.1,20.7,26.1,6.3,7.1,16.9,18.8,31.5,30.1,11.2,8.7,29.5,20.7,55.5,29.7-4.9,2-41.1,12.1-72.8-2.8"/>
    <path class="cls-6" d="M1003.1,659.3c1.1,27.1-8,53.4-17.5,78.3-6.4,16.6-13,33.6-23.3,48.3-10,15-22.9,27.7-36.4,39.4-19.7,17.6-38.1,36.4-56.6,55.4-24.5,25.6-50.5,50.4-80,70.3-17.6,12.7-39.2,21.8-59.8,23.2-10.1.8-20.2.8-30.4-.8-2.7-.3-5.4-1-7.9-1.9-4.4-1.6-8.5-4.4-11.7-7.4-7.3-6.9-13.3-14.5-20.4-21.3-4.3-4.1-16.9-15.5-21.6-19.6-19.9-17.2-37.3-37.1-54.5-56.9-25.2-28.9-54-59.5-74.7-91.8-26.4-38.8-38.5-85.7-44.8-131.7-7.7-57.7-5.1-122.3,5-176.7.3-14.4,1.9-28.8,1.7-43.3,4.3-21.6,10-43.1,16.8-64.1,13.9-41.9,31.2-83.2,56.6-119.7,9.9-13.9,21.6-26.5,34.1-38,4.7-4.4,9.7-8.6,14.8-12.7,2.3-1.9,5.5-2,8-.6,0,0,24.4,14.8,24.4,14.8,0,0-3.7,2.7-3.7,2.7-.8-9.5.3-19.3,3.1-28.7,2.9-9.5,6.4-18.7,12.4-27,12.5-17.6,34.3-27.2,55.8-26.3,13.5.5,27,5.4,37.3,13.9,5.6,4.9,10.2,10.6,14.8,16.1,8.8,11.1,17.2,21.6,26.2,32.4,20.4,25.6,31.1,57.5,38.7,88.9,4.5,17.5,9.9,35,15.5,52.2,21.5,64.6,46.9,128,75.5,189.8,6,12.1,12.6,24,19.4,35.6,13.8,23,28.2,46.1,45.6,66.5,5.9,6.7,12.2,12.7,18.8,18.8,6.6,6.1,13.2,12,20.3,16.7,7.5,5.2,15.8,9.3,24.3,11.8,0,0,.8.1.8.1l3.3.6,6.7,1.2c12.8,2.3,27.7,5,40.5,6.9,9.1,1.1,18.7,3.3,26.7,8.2,8.1,4.7,14.9,11.5,20.2,19.1.5.7.3,1.6-.4,2.1s-1.6.3-2.1-.4c-7.2-11.3-18.6-19.9-31.7-22.7-4.3-.9-8.7-1.3-13.3-1.6-9.1-.6-18.2-1-27.4-1.2-7.3-.2-18-.5-25-1-.4,0-.9-.1-1.4-.2,0,0-1.8-.4-1.8-.4-19.4-3.6-35.1-16.3-49.1-29.3-14-12.3-26.6-26.7-37.1-42-15.9-22.7-30.1-46.4-42.7-71.1-20.4-41.1-36-84.3-52.3-127.1-17.2-47.1-33.3-95.2-45.5-143.9-6.4-23.6-15.7-47-30-66.6-4-5.3-8.6-10-13.5-14.7-9.8-9.3-20.3-18-31-25.9-6.1-4.8-13.3-7.5-20.5-9.5-18.1-5-39-.2-52,13.8-5.6,5.9-10,13.5-13.9,20.7-4,7.5-7,15.7-9.2,24.4-.4,1.5-1.6,2.5-3.1,2.6h-.6c0,0,0,0,0,0l-28.4,2.9s9.9-2.1,9.7-2c-8.7,5.7-17.1,11.9-25,18.7-28.4,24-47.9,56.3-64.7,89.4-16.8,32.8-30.7,72.2-39.4,105.4-.2,14.4,1.4,28.8,1.7,43.3-9.3,64.2-8.4,129.9,3.9,193.6,5,24.9,11.6,50.1,21.7,73.2,10.5,23.1,24.6,45,38.4,66.4,14.3,21.7,30.3,42.2,46.8,62.4,16.5,20.1,36,37.3,55.1,54.9,4.7,4.2,17.4,15.5,21.8,20,4.7,4.6,9.2,9.5,13.6,14.4,5,5.5,10.1,11.2,17.3,13.1,13.5,2.9,27.7,2.6,41.4.6,5.6-.8,17.2-4.1,24.8-7.7,7.8-3.5,15.1-7.9,22.2-12.9,44.2-29.3,78.6-70,116.7-106.4,12.5-12.3,26.5-23.3,38.7-35.8,8.9-9.4,16.8-19.8,23.3-31,6.5-11.4,11.1-23.5,16-35.8,3.2-8.2,6.3-16.4,9-24.7,5-15.4,8.7-31.4,8.9-47.6,0-1,0-2.1-.1-3.2,0-1.7,1.2-3.1,2.8-3.2,1.6,0,3.1,1.2,3.2,2.8h0Z"/>
    <path class="cls-5" d="M959.7,783.4c2,13.9,2.3,39.5-1,63.9-3.2,24.2-7,52.6-16.2,86.5-6.8,25.1-17.4,63.3-42.9,107-21,36-31.6,54.1-53.8,70.3-7.8,5.7-27.1,18.6-54.8,40.3-8.8,6.9-13.9,11.1-19.5,17.5-14.8,16.8-21.3,35.2-24.4,47.9,2.4-7.7,10.4-29.5,31.4-40.6,5.3-2.8,13.9-7.2,24.7-5.3,2.8.5,15.7,3.2,20.3,13.7,4.6,10.6-2.6,22.2-6.6,28.6-10.9,17.5-28.8,24.3-37,26.9,7.9,3.3,44.2,17.6,77.9,0,8.1-4.2,14.4-9.4,19.4-14.5"/>
    <path class="cls-5" d="M871,1231.2c10,2,28.3,8.1,46.6,8.9,19.9.9,30.6,1.4,42.3-2.6,6.8-2.3,26.6-10.5,41.8-39.6"/>
    <path class="cls-5" d="M973.5,1234.8c16.4,5.4,26.4,2,30.8,0,2.8-1.3,7.6-4,26-26.9,5.3-6.6,9.5-12.1,12.3-15.9,1,8.9,3.8,22.2,12.3,35.7,4.4,6.9,14.7,23.3,33,28.2,0,0,0,0,0,0,12,3.2,23.4,3.8,34.1,2.4-3.3-.6-24.5-4.5-36.3-24.3-7.8-13.1-7.2-26-6.8-30.9,4.4,7.8,17.1,28.3,41.9,38.1,15.9,6.3,56.9,13.7,73.4,1.5"/>
    <path class="cls-6" d="M987.2,731.6c9.7,4.1,19.8.5,29-3.2,3.4-1.3,7.2-2.4,10.7-3.4,1.9-.9,3.5-2.6,4.8-4.3,2-2.9,3-6.8,4.4-11,1.4-4.2,3.2-8.5,5.5-12.4,4.6-7.9,11.1-14.7,18.8-19.3,0,0-1.1,1.7-1.1,1.7,0,0,1-4.6,1-4.6.9-3.8,6.6-2.7,5.9,1.2,0,0-1,4.6-1,4.6-.1.7-.6,1.2-1.1,1.7-6.5,7.1-13.1,14.3-17.8,22.8-3.7,6.2-5.2,13.4-10,19-2.2,2.3-4.7,4.4-7.8,5.4-1.7.5-3.3.6-4.9,1-6.3,1.4-12.2,3.5-18,6.6-6.3,3.3-14.6,3-20.9-.2-3.4-1.7-1.2-6.8,2.4-5.5h0Z"/>
  </g>
  <g id="Layer_4" data-name="Layer 4">
    <path class="cls-4" d="M409.2,502.3c9.6-19.8,34.9-25.2,73.3-33.5,15-3.2,26.2-4.1,48.4-5.9,10.5-.9,25.5-1.8,42.9,3.3,8.1,2.4,11.7,4.6,14.3,7.7,5.2,6.3,4.8,14.1,2.9,31.5-2.5,21.5-3.7,32.2-7.3,48.4-5.4,24.3-9,31.2-13.9,37-4.4,5.3-8.8,8.3-13.7,11.7-16.1,11.2-31.6,14.8-40.1,16.7-20.7,4.7-36.7,3-45.6,2-9.2-1.1-13.4-2.5-17-4.2-3.7-1.8-9.6-5.4-20.5-20-6.4-8.7-13.6-18.6-19.8-33.9-4.4-10.9-8.5-20.9-8.6-34.8,0-6.2-.2-16.6,4.4-26Z"/>
    <path class="cls-4" d="M663.1,457.1c2.1-3.9,7.3-12.2,35.7-27.3,10.9-5.8,27.6-14.5,52.2-21.8,18.5-5.5,34.2-8,45.1-9.2,29.8-3.5,50-.7,60.1,1.1,22.6,4.1,29.1,9.8,32.6,14.1,4.8,6,6.2,12.6,8.1,22.2.6,2.8,2.8,14.3,1.8,32.4-.7,11.5-1.7,26.1-8.6,43.4-3.4,8.5-7,17.5-15.2,26.4-2.9,3.2-10.3,10.5-33,20-6.6,2.8-26.4,10.7-55.5,15.6-24.6,4.2-40.8,3.7-52.8,2-6.3-.9-11.9-2.1-18.1-4.8-2.2-1-10.6-4.8-23.1-17.6-6.7-6.8-16.5-17-24.7-33.5-5-10-10-20.3-10.3-34.8-.1-5.2-.4-16.7,5.7-28.2Z"/>
    <path class="cls-4" d="M592.4,490.4c3.5-3.6,10.2-9.7,20.6-13.4,9.8-3.5,18.1-3.2,20.8-3,7.7.5,13.3,2.8,15,3.5,3.7,1.5,6.5,3.3,8.6,4.7"/>
  </g>
  <g id="Layer_5" data-name="Layer 5">
    <path class="cls-1" d="M413.1,496c-2.2,3.3-5.1,8.3-6.9,14.9-.8,3-2.6,10.8,0,26.2.9,5.4,3.2,17.3,9.9,32.1,7.9,17.5,16.8,27.9,24.6,37,2.9,3.4,6.2,6.9,11.4,9.9,7.2,4.1,14.2,4.9,18.5,5"/>
    <path class="cls-1" d="M439.1,479.7c17.8-5.6,33.5-9.1,45.9-11.4,11-2,26-4.7,45.9-5.4,12.5-.4,23.1,0,30.9.6"/>
    <path class="cls-1" d="M500.5,621.2c13-.8,23.4-3.6,30.4-6,7.3-2.5,16.8-5.9,27-13.9,8.4-6.5,13.8-13.5,17.1-18.4"/>
    <path class="cls-1" d="M598.5,485c2.6-2.9,8.4-8.5,17.5-11,3.8-1,7.2-1.3,9.9-1.2"/>
    <path class="cls-1" d="M664.9,454.2c-2.4,4.2-5.6,10.9-7,19.7-1.6,10-.2,17.7.9,22.8,3,15.1,9.5,25.5,15.4,34.6,4,6.2,11.2,17.2,24.3,28,6.2,5.1,12.7,10.4,23,14.1,11.2,4.1,21.2,4.2,27.3,3.9"/>
    <path class="cls-1" d="M699.6,429.4c7.5-4.1,16.8-8.7,27.7-13.1,6.8-2.8,18.6-7.2,33.8-11.1,9.6-2.5,21.1-4.8,34-6.3"/>
    <path class="cls-1" d="M796.3,572.2c10.7-2,23.2-5.2,36.7-10.3,10.3-3.9,19.4-8.1,27.2-12.3"/>
  </g>
  <g id="Layer_9" data-name="Layer 9">
    <path class="cls-2" d="M338,1106.6c-46.9,7.9-101.1,18.1-148,26-12.1,2-24.5,4.2-35,10.5-11.5,6.9-19.6,18-27.5,28.8-41.1,56.8-82.1,113.6-123.2,170.4"/>
    <path class="cls-2" d="M1351.9,1177.4c23.5,1.2,49.6,15.8,61.5,31.4"/>
    <path class="cls-2" d="M1413.5,1208.8"/>
    <path class="cls-3" d="M1413.5,1208.8c11,20.8,21.6,44.6,30.6,71.4,28.9,86.3,27.4,164.3,21.1,216.7"/>
  </g>
  <g id="Layer_8" data-name="Layer 8">
    <path class="cls-5" d="M906.6,365c21.1,59.8,49.4,117.1,83.9,170.3,9.1,14.1,18.9,28,31.4,39.1,12.6,11.1,28.4,19.3,45.2,19.9"/>
    <path class="cls-5" d="M951.4,410.6c16.2,37.2,36.7,72.5,60.8,105.2,5.4,7.3,11.1,14.6,18.5,20s16.8,8.5,25.7,6.6"/>
    <path class="cls-5" d="M993.8,431.1c10,23.2,23.9,44.7,41.1,63.3"/>
  </g>
</svg>