<?xml version="1.0" encoding="UTF-8"?>
<svg id="Layer_2" data-name="Layer 2" xmlns="http://www.w3.org/2000/svg" version="1.1" viewBox="0 0 1500 1500">
  <defs>
    <style>
      .cls-1, .cls-2 {
        fill: #000;
      }

      .cls-1, .cls-3 {
        stroke: #000;
        stroke-miterlimit: 10;
      }

      .cls-2 {
        stroke-width: 0px;
      }

      .cls-3 {
        fill: none;
        stroke-width: 8px;
      }
    </style>
  </defs>
  <path class="cls-2" d="M411.4,531.1c182.3,8.1,601.1,44.5,733.2,164.9,12.5,11.6,23.7,25.1,30.9,40.9l-4.4.2c5.2-16.3,9.9-32.9,14.5-49.4,30.2-112.2,72.6-308.6,25.2-416.7-5.2-11.4-11.7-22.4-19.9-32-16.7-19.3-35.2-37.3-54.7-54-113.3-95.8-276.7-169.8-424.3-115.7-11.9,4.4-23.6,9.7-34.8,15.7-10.9,5.6-22.4,13.3-33,19.7-57.3,36.4-116.9,74.1-156.3,130.7-29.5,42.3-44.5,92.6-54.7,142.7-10.2,50-15.9,102.1-21.7,152.9h0ZM410.8,531.7c4.1-51.5,9.5-103.2,18.7-154.1,9.6-50.8,24.2-102,53.6-145.2,39.2-57.8,99.2-96.6,157-133.8,8.7-5.4,18.8-11.9,27.6-17,1.9-1.1,6.7-3.7,8.6-4.7,1.8-.9,6.8-3.5,8.7-4.4,175.4-84.9,392.7,27.7,511,162.3,87.3,103.8,17.5,382.9-20.5,504,0,0-1.9,5.8-1.9,5.8,0,0-2.5-5.6-2.5-5.6-74.3-157.2-593.8-198.3-760.4-207.3h0Z"/>
  <path class="cls-2" d="M411.5,531.5s-9.7,27.9-9.7,27.9c0,0-.5,1.4-.5,1.4-1.9-6.1-4-12.2-6.4-18.1-13.4-33.7-32.7-61.6-46.9-6.8-9.7,36.5-8.7,74.5-10.7,112-.7,28.7-8,210.6,26.6,211.4,4.1,0,8.6-3.7,11.9-6.1,0,0-1.2,4.8-1.2,4.8-14.7,61.8-23.5,125.7-22,189.3,1.5,43.1,7.5,88,30.3,125.4,10.8,16.6,23.6,31.8,36.6,46.9,42.1,47.8,88.8,91.6,137.8,132.3,34.9,28.4,107.3,86.1,150.3,91.5,3.7.3,7.4.1,10.5-1,2.8-.6,5.6-1.3,8.4-2,5.3-1.3,10.8-2.8,15.8-4.7,1.5-.7,3.4-1.3,4.6-2.2,0,0,0-.1-.1.2-.1.2-.2.5-.3,1,0,.2,0,.5,0,.8,0,.3.1.5.2.7,0,0,4.6-5.2,4.6-5.2,12.1,3.8,24.9,6.6,37.6,7.5,6.3.4,12.7.3,18.6-.9,6.3-1.2,11.9-3.7,15.7-8.1,0,0,.9-.4.9-.4l.9-.4c16.3-8.1,30.5-19.9,43.9-32.1,23.1-21.3,43.3-45.6,62-70.8,14.9-19.8,28.8-42,42.4-62.8,61.3-94.8,123.1-193.9,142.1-307,2-12.4,3.6-24.9,4.8-37.5,0,0,.7-1.4.7-1.4,0,0-.1.1-.2.2,2.8-6.2,4.4-13.5,6.2-20.2,3.5-14.3,6.4-28.8,9.2-43.3,1.4-7.4,2.8-14.8,4.2-22.1,1.3-1.6,2.4-3.5,3.6-5.4,7.3-12.6,12.5-26.3,17-40.1,5.1-15.5,9.1-32.5,12.4-48.5,0,0,.8.1.8.1s-2.3,12.3-2.3,12.3c-5.6,26.6-12.3,53.5-25.4,77.5-1.1,1.9-2.1,3.6-3.5,5.5,0,0,.3-.7.3-.7-1.2,7.3-2.4,14.6-3.7,21.9-3.2,18.3-6.5,36.5-11.2,54.4-1.1,3.7-2,7.7-3.9,11.1,0,.1-.2.2-.3.3,0,0,.7-1.4.7-1.4-9.2,141.9-90,264.4-165.2,380.4-24.6,37.2-52,72.9-85,103.2-14.1,12.7-29,25-46.1,33.4-.4.2-.8.3-1.3.6,0,0,1.5-1,1.5-1-5.1,5.6-12.3,8.5-19.5,9.8-19.9,3.4-41.2-1.4-60.1-7.2,0,0,4.6-5.2,4.6-5.2.7,1.4.6,3.4-.2,4.6-.6,1-1.1,1.4-1.5,1.8-2.2,1.9-4.4,2.5-6.8,3.5-2.8,1-5.6,1.9-8.4,2.7-5,1.5-13.1,3.4-16.3,4-15.4,4.9-34.8-3.9-48.6-10.3-43.2-21.7-81.4-51.8-118.5-82.3-61-51.7-119.9-107-167.9-171.2-9.6-13-16.9-27.8-22.2-43.1-24.6-75-15.4-161.9-2.1-238.4,2.9-15.7,6.2-31.4,10.2-47,0,0,2.8,2,2.8,2-1.4,1-2.9,1.9-4.5,2.6-37.2,15.6-35.3-114.8-35.9-136.3-.2-51.7,2.2-103.3,6-154.8,1.8-11.8,3.9-23.5,7-35,8.3-32,22.8-48,42.2-9.5,5.3,10.7,9.5,21.8,13.1,33.1,0,0-.9,0-.9,0,0,0,9.9-27.8,9.9-27.8,0,0,.8.3.8.3h0Z"/>
  <path class="cls-2" d="M956.9,823.8c0-.1,0-.4.2-.5,0,0,0-.1,0-.1s.2-.2.2-.2l.4-.4c12.3-12.5,29.1-21.2,46.8-22.1,9.1-.5,18.3,1.2,26.8,4.5,5.3,2,19.5,7,25.1,8.9,12.6,4.4,25.3,8.7,38,12.6,0,0-2.9,3.7-2.9,3.7-6,7.3-12.4,14.1-20.4,19.3,0,0-2.2,1.3-2.2,1.3l-2.4,1.1c-13.7,4.9-28.6,3.4-42.3-.2-6-1.7-11.9-3.9-17.4-6.6-10.7-5.2-21.8-9.7-32.8-14.2-3.8-1.5-10.9-4.4-14.6-5.9,0,0-1-.4-1-.4,0,0-.5-.2-.5-.2h-.3c-.2-.2-.4-.4-.5-.5h0ZM957.6,823.6c0,0,0-.2,0-.2.4,0,1.4.3,1.9.4,11.1,2.2,22.1,5.2,32.8,8.6,11.3,3.4,22.1,8.9,33.7,11.4,11.6,2.6,24.1,4,35.8,1.3,0,0,1.9-.6,1.9-.6l1.7-.7s1.8-.9,1.8-.9c7.3-4.2,13.7-10.6,19.3-16.9,0,0,1.5,5,1.5,5-16.3-5.7-33.9-12.5-50-18.9,0,0-8.3-3.3-8.3-3.3-13.3-5.8-28.3-7-42.3-2.6-10.8,3.3-20.9,9.2-29.2,16.9,0,0-.4.4-.4.4l-.2.2s0,0,0,0c0,0,0-.2,0-.3h0Z"/>
  <path class="cls-2" d="M754.3,763.7c-.4.3-1,.3-1.5.4-12.4,1.5-24.9,1.6-37.4.9-41.5-2.6-81.7-16.7-104.8-53.3,14.7-3.2,29.5-4.5,44.5-4.3,40,.3,82.8,17.5,99.2,56.4h0ZM753.6,763.3c-2.9-3.9-5.8-7.5-8.9-11.2-2-2.1-4.6-5-6.7-6.8-1-1-2.5-2.3-3.6-3.2-27.2-22.6-64.3-28.1-98.8-27.2-6.3.3-12.8.8-19,1.9,0,0,2-4.8,2-4.8,26.3,41.3,79.7,52.4,125.7,51.6,2.9,0,6-.2,9-.5,0,0,.3,0,.3,0,0,0,0,0,0,.2h0Z"/>
  <path class="cls-3" d="M940.7,966.9c31.4,47.1,20.9,77.7,16.6,70.7s-25.3,2.6-35.8,26.2c-10.5,23.6-68.1,19.2-68.1,19.2,0,0-22.7-23.6-90.8-40.1-68.1-16.6,9.6-114.3,9.6-114.3"/>
  <path class="cls-1" d="M839.4,1056.7c-15.7-40.1-41-27.1-41-27.1"/>
  <path class="cls-2" d="M652.3,746.8c-2.2-6.5-3.4-13.4-3-20.3.2-3.7.4-7.7,2.9-10.8,2.4-3.2,6.8-5.6,10.8-4.4,0,0,.2.8.2.8-3.5,4.5-3.6,7.2-5.8,11.4-1.5,2.6-2.3,5.6-2.8,8.6-.9,4.8-1.3,9.6-1.5,14.5,0,0-.8.1-.8.1h0Z"/>
  <path class="cls-2" d="M703.9,762c5.7-.5,9.6-5.2,11.9-10.1,0,0,.9-2.1.9-2.1,1.1-3,1.2-6.2,2.6-9.1,1.5-3.3,3-6.2,5.6-9,0,0,.8.1.8.1,1.2,2.7,1.7,5.4,1.6,8.3,0,3.7-1.2,7.3-3.4,10.3-.8,1.4-2.2,3.3-3.1,4.6-3.9,5.1-10.4,9.5-17,7.7,0,0,.1-.8.1-.8h0Z"/>
  <path class="cls-2" d="M998.6,802.7c-.4,5.9-.5,11.8-.2,17.7,0,1.4.4,2.8.7,4.2.6,2.7.3,5.3,0,8.1,0,0-.6,4.7-.6,4.7,0,0-.7.4-.7.4-3.4-1.4-5.4-4.8-6.4-8.1-1-3.2,0-6.5.5-9.7.3-1.6.6-3.1,1-4.6,1.2-4.5,2.8-8.8,4.9-13,0,0,.8.2.8.2h0Z"/>
  <path class="cls-2" d="M1059,817.4c2.5,8.7,1.4,18.3-2.9,26.4-2.8,5.2-9.1,8.2-14.9,7.1,0,0-.3-.7-.3-.7,2.2-3.3,4.2-5.5,5.9-7.8,1.7-2.4,4.2-4,5.7-6.5,3.4-5.5,5.1-11.8,5.6-18.2,0,0,.8-.1.8-.1h0Z"/>
  <path class="cls-2" d="M350.3,1028c-54.5,27.5-111.2,50.8-169.4,69.5-57.8,18.1-120.5,33.8-181,20.8,0,0,.1-.8.1-.8,17.1,1.5,34.1.9,51.1-.5,8.7-.8,19.4-2.2,28.1-3.5,48.6-7.9,96.7-19.8,143.3-35.7,43.2-14.7,85.8-31.4,127.4-50.4,0,0,.4.7.4.7h0Z"/>
  <path class="cls-2" d="M1050,1143c20.6,5.2,41.8,13.3,61.6,21.2,24.7,10.1,50.2,21.9,74.1,33.8,11.1,5.4,25.2,13,36.2,18.7,19.4,10.4,45,24.8,63.9,36,19.3,11,43.7,26.3,62.8,37.9,4.8,3.1,15.7,10.2,20.5,13.4,27.1,17.6,54,37.1,80,56.2,17.3,13.2,34.4,26.5,51.3,40.1,0,0-.5.6-.5.6-44.5-29.1-90.7-61-135.4-90-31.3-21-63.5-41.8-95.8-61.2-12.8-7.8-35.9-21.1-49.2-28.6-10.9-5.9-24.7-13.7-35.7-19.3-28.4-14.9-58.4-29.5-88.1-41.7-9.7-4-20.4-8.1-30.4-11.6,0,0-7.7-2.5-7.7-2.5-1.3-.4-2.6-.8-3.9-1.2-1.3-.4-2.6-.8-3.9-1.1,0,0,.2-.8.2-.8h0Z"/>
  <g>
    <path class="cls-2" d="M1027.6,738.7c3.5,7,1,15.6-1.6,22.4-2.4,6.7-7,12.5-10.2,18.6,0,0-5.7-3.2-5.7-3.2,7.8-8.7,15.7-17.6,22.8-26.9,1.7-2.3,3.4-4.7,4.7-7.3.4-.8.7-1.8.5-2.5l.7-.4c1.7,4.2-7.5,17.7-10,21.8-7.1,11.2-17.8,25-25.8,35.8,2.5-7.4,7.2-23.2,10.8-29.9,3-6.4,6.8-12.2,9.7-18.5,1.4-3.1,2.7-6.2,3.1-9.8l.8-.2h0Z"/>
    <path class="cls-2" d="M1043.3,740.8c-3.3,8.4-7.2,16.6-11.7,24.4-2.3,4-4.2,8.3-7.6,11.4-3.5,3.2-7.9,6.6-13,6.4,0,0-.3-.7-.3-.7,2.8-3.6,4.6-7.2,7.2-10.9,2.3-3.7,5.7-6.5,8.5-9.9,1.4-1.7,2.8-3.4,4.1-5.2,4.2-5.2,8.1-10.6,12.2-16,0,0,.7.4.7.4h0Z"/>
    <path class="cls-2" d="M1017.4,781.4c0,0,0-.1,0-.2,0,0,0,0,0,0,0,0,.3,0,.3,0,2.5.3,6.7.8,9.2,1,30.1,3,124.6,10.6,138.6-20.9,0,0,2.2,3.9,2.2,3.9-26.4-3.4-53.1-6.2-79.7-7.1-10.5-.2-21.2-.8-31.5,1-14.2,2.8-27,10.8-37.4,20.8-.4.4-1.3,1.2-1.7,1.7,0,0,0,0,0,0,0,0,0-.3,0-.3h0ZM1016.7,781.7c0-.3,0-.5.2-.7,0-.1.4-.7.4-.9,6.6-11.8,17.3-21.2,29.8-26.4,9.8-4.2,20.7-4.3,31.1-4.1,16.9.4,33.7,2.5,50.4,4.4,14.5,1.8,29.1,3.8,43.6,6.2,0,0-1.5,3.3-1.5,3.3-16.6,36-115.4,23.9-148.8,19.1-.6-.1-3.1-.5-3.7-.6,0,0-.6-.1-.6-.1,0,0-.3,0-.3,0,0,0,0,0-.3,0-.1,0-.3-.1-.4-.2h0Z"/>
  </g>
  <path class="cls-2" d="M807.4,728c-4-9.6-11.2-17.4-19.1-24.1-15.7-13.3-34.6-22.3-53.7-29.6-48.4-17.8-100-24.8-151.1-28.8,0,0,.2-5.9.2-5.9,38.1,0,76.1,1.5,114,5.3,28.4,3.1,57,7.7,84.3,16.5,9.1,3,18.2,6.5,26.7,11.2l.7.4s.3.5.3.5c9.7,15.7,19.3,44.5-2.4,54.6h0ZM807.7,727.3c.8-.9,1.7-1.4,2.6-2.2,12.8-11.2,6-30.1-1.1-42.6-1.2-2.1-2.5-4.2-3.8-6,0,0,1,.9,1,.9-8.4-4-17.2-7-26.2-9.6-27.2-7.5-55.2-11.3-83.3-14.6-37.5-4.3-75.4-7-113.1-7.6,0,0,.2-5.9.2-5.9,61.5,6.3,124.9,15.5,179.9,45.3,13.5,7.6,26.5,16.9,36.3,29.1,3.1,4,6,8.3,7.6,13,0,0,0,.2,0,.2,0,0,0,0-.2,0h0Z"/>
  <path class="cls-2" d="M833.6,668c1,20.9-1.3,48.2-20.6,60.7-1.5.9-3,1.7-4.8,2.2,0,0-15.1,3.8-15.1,3.8l12.6-10c1.9-1.5,3.6-3.2,5.1-5.1,12-15.5,8.4-34.2,2.1-51.4,0,0,.7-.4.7-.4,3.7,4.3,6.8,9.1,9.1,14.4,7.8,17.8,3.5,37.5-13.4,48.2,0,0-2.5-6.2-2.5-6.2,0,0,.1,0,.2,0,4.7-1.4,8.6-4.8,11.7-8.6,6.9-8.6,10.3-19.8,12.2-30.6,1-5.6,1.5-11.3,1.9-17h.8Z"/>
  <path class="cls-2" d="M839,681c.5,13-2.9,26.1-10.1,37-4.5,6.8-13.2,11.1-21.3,10,0,0-.2-.8-.2-.8,2-1.8,4-3.3,5.7-4.9,3.5-3,6.4-6.2,9.7-9.4,1.6-1.6,3.2-3.3,4.5-5.2,2.6-3.9,4.8-8.2,6.6-12.7,1.8-4.5,3.2-9.3,4.3-14.1,0,0,.8,0,.8,0h0Z"/>
  <path class="cls-2" d="M911.4,817.5c-.3,15.4.3,30.8,2,46,.9,7.5,2.8,14.9,3.9,22.3,1.1,7.4,2.4,14.6,4.4,22.3,0,0-.7.4-.7.4-5.9-5.6-9.3-13.4-11.5-21-2.3-7.7-2.2-15.7-2.4-23.6,0-3.9,0-7.8,0-11.7.3-7.8.9-15.6,1.8-23.3.5-3.9,1-7.7,1.7-11.5h.8Z"/>
  <path class="cls-2" d="M491.3,536.3c-18.9,50.4-38.3,102.1-55.3,153-2.8,8.6-5.6,17.2-8.1,25.8-2,7.4-4.4,14.8-5.2,22.4,0,.6,0,1.1,0,1.6,0-.1,0-.3-.3-.5,0,0-5.7,3.7-5.7,3.7-7.8-13.3-18.5-31-26.1-44.1,0,0,.7-1.8.7-1.8,11.8-32.7,16.6-67.7,14.3-102.4-.8-11.6-2.2-23.3-4.8-34.7,0,0,.8-.3.8-.3,4.2,11.1,6.8,22.7,8.5,34.4,5.1,35.4,1.6,72.2-11.1,105.7,0,0-.3-3.5-.3-3.5,6.9,12.5,16.9,30.5,23.9,43.2,0,0-5.7,3.7-5.7,3.7-.5-.7-.7-1.3-.9-2.1-.7-4.8,1-9.5,2-14,1.2-4.5,2.5-8.8,3.9-13.2,14.1-43.1,31-85.1,47.9-127.2,6.8-16.8,13.6-33.5,20.7-50.2,0,0,.7.3.7.3h0Z"/>
  <path class="cls-2" d="M718,860.5c16.8-2.9,33.9-8.2,48.3-17.5,7.1-4.5,13-10.5,18.9-16.3,6-6,11.3-12.5,15.9-19.8,0,0,.8.2.8.2-.2,4.6-1.6,9-3.5,13.2-6,13.4-16.2,21.7-28.9,28.3-7.9,4.3-16.4,7.3-25.2,9.4-8.7,2-17.5,3.1-26.3,3.4,0,0,0-.8,0-.8h0Z"/>
  <path class="cls-2" d="M944.3,840.9c7.1,15.6,16.5,30.8,29,42.4,6.2,5.7,13.4,9.9,20.6,14.3,7.3,4.3,15,7.8,23.2,10.5,0,0,0,.8,0,.8-4.5,1-9.2.7-13.7,0-14.5-2.4-25.1-10.2-34.6-20.9-6.1-6.6-11.2-14.1-15.4-22-4.1-7.9-7.4-16.1-9.9-24.6,0,0,.8-.3.8-.3h0Z"/>
  <path class="cls-2" d="M697.5,737.8c-.6,8.3-8.4,12.9-15.4,7.3-5.7-4.7-4.3-15.4,2.8-18.2,7.8-3.1,13.5,3.4,12.6,10.9h0ZM696.7,737.8c-.4-3.8-4.3-4.7-7.3-3.7-1.9.5-4.1,1.3-4.5,3.7-.4,2.6,1.7,5.3,4.5,5.7,3.4.7,7.7-1.6,7.3-5.7h0Z"/>
  <path class="cls-2" d="M1032.8,825.1c-.6,8.3-8.4,12.9-15.4,7.3-5.7-4.7-4.3-15.4,2.8-18.2,7.8-3.1,13.5,3.4,12.6,10.9h0ZM1032,825.1c-.4-3.8-4.3-4.7-7.3-3.7-1.9.5-4.1,1.3-4.5,3.7-.4,2.6,1.7,5.3,4.5,5.7,3.4.7,7.7-1.6,7.3-5.7h0Z"/>
  <path class="cls-2" d="M662.8,1143.7c-.4.1-.3.8,0,1.5,1,2,2.5,3.6,4,5.3,6.1,6.6,13.1,12.3,20.2,17.9,31.5,23.9,72.5,48.7,112.4,53.1,4.3.5,9,.4,13.3.3,25.4-.9,50.4-6.6,74.4-14.8,11.2-3.9,22.4-8.4,33.1-13.6,0,0,1.1,4.7,1.1,4.7-30.6-.4-61.7,4.1-92.2,7-1.2.1-4.7.4-5.8.5-4,.2-8.1-.6-11.9-1.4-19.3-4.6-37.9-11.7-56.5-18.6-40-15-80.3-32.4-119.5-49.6,42.4,4.8,85.6,10.1,127.3,19.1,11,2.4,22,5.1,32.7,8.8,4.8,1.7,9.7,3.6,14,6.5,4.8,3.1,10.6,4.9,16.2,5,4.6.1,9-1.3,13-3.4,10.1-3.7,26.3,1.5,36.3,4.5,16,5.2,31.6,11.6,46.7,18.7,0,0-.3.7-.3.7-15.5-6.1-31.3-11.8-47.4-16.1-8-2.1-16-4-24.2-4.5-3.3-.1-6.4,0-9.2,1.1-4.5,2.6-9.7,4.2-14.9,4.3-6.1.1-12.1-1.5-17.5-4.2-2.4-1.3-4.6-2.8-7.2-3.8-12.7-5.1-26.2-7.8-39.7-10.5-32.7-6.3-65.9-10.7-98.9-14.7,0,0,2.2-7.9,2.2-7.9,46.2,20,92.4,41,140.5,56.1,5.9,1.6,12,3.5,18,3.5,36.1-2.8,72.6-7.8,108.9-5.9-35.6,17.7-74.5,29.8-114.3,31.6-2.3,0-6.8.2-9.1.1-9.2,0-18.3-1.6-27.1-4-39-10.9-78.8-36.5-108.6-63.5-2.3-2.3-13.6-12.5-10-14.6,0,0,.3.7.3.7h0Z"/>
  <path class="cls-2" d="M381.7,598.6c-2.1-14.1-4.6-28.1-8-41.9-1.8-6.6-3.4-13.7-7.3-19.3-.6-.7-1.1-1.3-1.8-1.3-1.4.6-2.1,2.5-2.8,3.9-3.8,9.7-5.1,20.4-6.7,30.8-1,7-1.8,14.1-2.5,21.1-3.1,42.4-3.1,85.2-1.6,127.7.5,14.1,1.4,28.2,3.2,42.3,1.5,10.4,3.2,20.9,7.1,30.7,1.3,3.2,2.9,6.4,5,9.2,0,0-.6.5-.6.5-2.6-2.5-4.7-5.6-6.5-8.7-3.6-6.3-6-13.3-8-20.2-10-38.3-10-78.5-8.3-117.8,1.5-28.6,2.8-57.3,7.6-85.5,1.2-7.1,2.5-14.1,4.3-21.1,1.2-4.4,2.5-9,5-13,1.2-2,4-4.2,6.5-2.8,5.6,3.1,8.2,17,9.7,23,3,14,4.9,28.2,6.4,42.4,0,0-.8,0-.8,0h0Z"/>
  <path class="cls-2" d="M373.4,617.3s-16.7-84.7-18-4.1,0,93.4,0,93.4"/>
  <path class="cls-2" d="M759.5,745.7c-13.3-13.2-27.9-25-43.5-35.2-10.3-6.8-21.1-12.8-32.6-17.1-11.3-4.3-22.9-8.3-34.8-10.3-6-1-12.1-1.5-18.5-1.7,0,0-.1-.8-.1-.8,6.1-2,12.5-3,19-3.1,20.1-.3,37.7,7.5,54.3,18,10.9,6.6,21,14.4,30.5,22.7,7.1,6.3,13.8,12.9,20.2,19.9,2.1,2.3,4.2,4.7,6.1,7.2,0,0-.6.5-.6.5h0Z"/>
  <path class="cls-2" d="M962.5,802.2c12.1-1.8,23.5-7.5,35.9-9.6,2-.4,4.3-.6,6.3-.9,10.5-1.2,21.2-.4,31.6,1.5,8.3,1.3,16.6,3.6,24.3,6.9,10.3,4.4,20,10.1,28.7,17,0,0-.4.7-.4.7-5.5-1.4-10.6-3.2-15.8-5.1-11.5-3.8-23-7.8-34.5-11.6-16.7-5.2-34.5-6.1-51.6-2.3-8.1,1.6-16.1,4.1-24.4,4.2,0,0,0-.8,0-.8h0Z"/>
  <path class="cls-2" d="M484.6,850.8c-.6,14.7.1,29.4,2.1,44,1.3,9.6,3.1,19.2,6.3,28.3,3,9.1,5.9,18.1,9.8,26.9,2,4.4,4.2,8.7,6.6,13.1,0,0-.6.5-.6.5-4.1-3-7.7-6.7-10.8-10.8-6.1-8.2-10.4-17.7-12.6-27.7-1.1-5-1.8-10-2.5-14.9-1.4-9.9-1.8-19.9-1.7-29.9.3-9.9,1-19.8,2.6-29.6,0,0,.8,0,.8,0h0Z"/>
  <path class="cls-2" d="M432.2,536.3c-.9,4.5-2.1,9.4-3.3,13.8-.8,2.7-1.9,6.4-2.4,9.1-1.3,4.8-4.4,8.8-8.7,11.5,0,0-.7-.3-.7-.3-.8-3.5-.5-6.7.3-10,.7-3.1,2.8-5.6,4.3-8.3,0,0,2.3-4.1,2.3-4.1,2.3-3.9,4.9-8.3,7.5-12,0,0,.7.3.7.3h0Z"/>
  <path class="cls-2" d="M446.6,544.1c-2.8,9.7-6.1,20.1-9.4,29.7-.8,2.4-1.5,5-2.3,7.4-1.5,5-4.1,9.5-7,13.9-1.5,2.2-3.2,4.3-5.2,6.2,0,0-.7-.3-.7-.3,0-8,2-15.8,5.7-22.8,2.2-3.9,5.1-9.7,7.2-13.8,3.5-6.7,7.3-14,11-20.6,0,0,.7.3.7.3h0Z"/>
  <path class="cls-2" d="M458.6,550c-6,17.3-12.8,36.2-19.3,53.4-3.3,8.8-6,18-10.2,26.5-4.2,8.6-8.6,17-14.3,24.8,0,0-.7-.3-.7-.3.8-4.8,1.9-9.4,3.2-14,2.6-9.1,5.7-18.1,9.9-26.6,2.1-4.3,4.2-8.5,6.2-12.8,2.9-6.4,9-19.3,12-25.7,4.1-8.5,8.2-17.1,12.4-25.5,0,0,.7.3.7.3h0Z"/>
  <path class="cls-2" d="M467.6,552.4c-7.4,23.4-15.8,48.9-23.7,72.2-4,12-7.5,24.2-12.4,35.9-4.9,11.7-10.1,23.3-16.6,34.4,0,0-.8-.3-.8-.3,1.1-6.3,2.7-12.5,4.3-18.7,3.4-12.2,7.2-24.3,12.1-36,2.5-5.8,4.9-11.7,7.3-17.6,3.5-8.8,10.7-26.5,14.3-35.2,4.9-11.7,9.7-23.4,14.7-35.1l.8.3h0Z"/>
</svg>